<?xml version="1.0" encoding="utf-8"?>
<!-- Generator: Adobe Illustrator 16.0.0, SVG Export Plug-In . SVG Version: 6.00 Build 0)  -->
<!DOCTYPE svg PUBLIC "-//W3C//DTD SVG 1.1//EN" "http://www.w3.org/Graphics/SVG/1.1/DTD/svg11.dtd">
<svg version="1.1" id="Ebene_1" xmlns="http://www.w3.org/2000/svg" xmlns:xlink="http://www.w3.org/1999/xlink" x="0px" y="0px"
	 width="2236px" height="844px" viewBox="0 0 2236 844" enable-background="new 0 0 2236 844" xml:space="preserve">
<rect x="-3177" y="1039" fill-rule="evenodd" clip-rule="evenodd" fill="#FFFFFF" width="2825" height="1303"/>
<rect x="-3177" y="-311" fill="#3C3C3B" width="2826" height="1350"/>
<g>
	<g>
		<path fill-rule="evenodd" clip-rule="evenodd" fill="#FFFFFF" d="M-1792,654c0,9.389-7.611,17-17,17h-534c-9.389,0-17-7.611-17-17
			V289c0-9.389,7.611-17,17-17h534c9.389,0,17,7.611,17,17V654z"/>
	</g>
	<circle fill-rule="evenodd" clip-rule="evenodd" fill="#C6C6C6" cx="-2331" cy="302" r="11.044"/>
	<g>
		<g>
			<polygon fill="#B2B2B2" points="-2233,412 -2233,445.406 -2233,449 -2244.446,449 -2227.436,466.012 -2210.425,449 -2222,449 
				-2222,445.406 -2222,412 			"/>
		</g>
		<text transform="matrix(1 0 0 1 -2189.6729 464.9922)" fill="#B2B2B2" font-family="'MyriadPro-Semibold'" font-size="65.6924">Drop File</text>
	</g>
	<rect x="-2166" y="512" fill-rule="evenodd" clip-rule="evenodd" fill="#DADADA" width="182" height="36"/>
</g>
<g>
	<g>
		<path fill-rule="evenodd" clip-rule="evenodd" fill="#C6C6C6" d="M-804,400c0,9.389-7.611,17-17,17h-684c-9.389,0-17-7.611-17-17
			V35c0-9.389,7.611-17,17-17h684c9.389,0,17,7.611,17,17V400z"/>
	</g>
	<rect x="-1522" y="88" fill-rule="evenodd" clip-rule="evenodd" fill="#FFFFFF" width="718" height="587"/>
	<circle fill-rule="evenodd" clip-rule="evenodd" fill="#878787" cx="-1491" cy="54" r="11.044"/>
	<circle fill-rule="evenodd" clip-rule="evenodd" fill="#878787" cx="-1458" cy="54" r="11.044"/>
	<circle fill-rule="evenodd" clip-rule="evenodd" fill="#878787" cx="-1426" cy="54" r="11.044"/>
	<g>
		<path fill-rule="evenodd" clip-rule="evenodd" fill="#FFFFFF" d="M-828,54c0,9.389-7.611,17-17,17h-529c-9.389,0-17-7.611-17-17
			l0,0c0-9.389,7.611-17,17-17h529C-835.611,37-828,44.611-828,54L-828,54z"/>
	</g>
	<g>
		<rect x="-1308" y="151" fill-rule="evenodd" clip-rule="evenodd" fill="#706F6F" width="288" height="31"/>
		<rect x="-1277" y="199" fill-rule="evenodd" clip-rule="evenodd" fill="#B2B2B2" width="225" height="18"/>
		<rect x="-1360" y="280" fill-rule="evenodd" clip-rule="evenodd" fill="#706F6F" width="223" height="18"/>
		<rect x="-1360" y="316" fill-rule="evenodd" clip-rule="evenodd" fill="#706F6F" width="391" height="18"/>
		<rect x="-1360" y="352" fill-rule="evenodd" clip-rule="evenodd" fill="#706F6F" width="120" height="18"/>
		<rect x="-1150" y="388" fill-rule="evenodd" clip-rule="evenodd" fill="#706F6F" width="181" height="18"/>
		<rect x="-1360" y="388" fill-rule="evenodd" clip-rule="evenodd" fill="#706F6F" width="196" height="18"/>
		<rect x="-1280" y="424" fill-rule="evenodd" clip-rule="evenodd" fill="#706F6F" width="234" height="18"/>
		<rect x="-1360" y="424" fill-rule="evenodd" clip-rule="evenodd" fill="#706F6F" width="66" height="18"/>
		<rect x="-1360" y="460" fill-rule="evenodd" clip-rule="evenodd" fill="#706F6F" width="195" height="18"/>
		<rect x="-1360" y="496" fill-rule="evenodd" clip-rule="evenodd" fill="#706F6F" width="225" height="18"/>
		<rect x="-1360" y="532" fill-rule="evenodd" clip-rule="evenodd" fill="#6176F6" width="114" height="18"/>
		<rect x="-1360" y="568" fill-rule="evenodd" clip-rule="evenodd" fill="#706F6F" width="196" height="18"/>
		<rect x="-1226" y="352" fill-rule="evenodd" clip-rule="evenodd" fill="#6176F6" width="206" height="18"/>
		<rect x="-1121" y="496" fill-rule="evenodd" clip-rule="evenodd" fill="#706F6F" width="83" height="18"/>
		<rect x="-1232" y="532" fill-rule="evenodd" clip-rule="evenodd" fill="#706F6F" width="264" height="18"/>
	</g>
</g>
<g>
	<path fill-rule="evenodd" clip-rule="evenodd" fill="#FFFFFF" d="M-2539,210.1V375c0,9.35-7.65,17-17,17h-165
		c-9.35,0-17-7.65-17-17V169c0-9.35,7.65-17,17-17h123.91L-2539,210.1z"/>
	<path fill-rule="evenodd" clip-rule="evenodd" fill="#C6C6C6" d="M-2597,193.1V152l58,58h-41.09
		C-2589.439,210-2597,202.449-2597,193.1z"/>
	<text transform="matrix(1 0 0 1 -2693.874 293.9668)" fill="#706F6F" font-family="'MyriadPro-Semibold'" font-size="65.6924">.txt</text>
</g>
<g>
	
		<line fill="none" stroke="#6176F6" stroke-width="15" stroke-linecap="round" stroke-miterlimit="10" x1="-1731" y1="464.5" x2="-1608" y2="464.5"/>
	<polyline fill="none" stroke="#6176F6" stroke-width="15" stroke-linecap="round" stroke-miterlimit="10" points="
		-1628.078,432.227 -1596.227,464.078 -1628.422,496.273 	"/>
</g>
<g>
	
		<path fill-rule="evenodd" clip-rule="evenodd" fill="none" stroke="#6176F6" stroke-width="15" stroke-linecap="round" stroke-linejoin="round" stroke-miterlimit="10" d="
		M-2530.383,121.555c22.196-24.675,54.374-40.19,90.174-40.19c66.816,0,121.209,54.046,121.443,120.81"/>
	<polyline fill="none" stroke="#6176F6" stroke-width="15" stroke-linecap="round" stroke-miterlimit="10" points="
		-2287.227,184.422 -2319.078,216.273 -2351.273,184.078 	"/>
</g>
<g>
	<path fill-rule="evenodd" clip-rule="evenodd" fill="#FFFFFF" stroke="#9D9D9C" stroke-width="3" stroke-miterlimit="10" d="
		M225.5,331.1V496c0,9.35-5.15,19.5-14.5,19.5H46c-9.35,0-19.5-10.15-19.5-19.5V290c0-9.35,10.15-14.5,19.5-14.5h123.91L225.5,331.1
		z"/>
	
		<path fill-rule="evenodd" clip-rule="evenodd" fill="#EDEDED" stroke="#9D9D9C" stroke-width="3" stroke-linejoin="round" stroke-miterlimit="10" d="
		M169.5,313.308v-38.194l55.388,55.387h-38.187C178.013,330.5,169.5,321.996,169.5,313.308z"/>
	<g>
		<path fill="#9D9D9C" d="M82.191,404.508c2.759,0,4.86,2.168,4.86,5.123c0,2.956-2.102,5.124-4.86,5.124
			c-2.76,0-4.927-2.168-4.927-5.124C77.265,406.676,79.432,404.508,82.191,404.508z"/>
		<path fill="#9D9D9C" d="M95.461,387.691h-4.599v-5.649l4.993-0.328l0.919-8.803h6.307v8.803h8.211v5.978h-8.211v15.371
			c0,3.81,1.445,5.649,4.532,5.649c1.117,0,2.431-0.329,3.351-0.723l1.313,5.583c-1.773,0.592-4.007,1.183-6.569,1.183
			c-7.488,0-10.247-4.729-10.247-11.692V387.691z"/>
		<path fill="#9D9D9C" d="M124.431,397.15l-9.591-15.437h8.146l3.613,6.108c0.92,1.773,1.971,3.679,2.956,5.452h0.263
			c0.788-1.773,1.708-3.679,2.496-5.452l3.088-6.108h7.816l-9.524,16.29l10.247,15.963h-8.146l-3.941-6.372
			c-1.051-1.904-2.168-3.875-3.284-5.715h-0.263c-0.92,1.84-1.905,3.744-2.825,5.715l-3.415,6.372h-7.883L124.431,397.15z"/>
		<path fill="#9D9D9C" d="M150.772,387.691h-4.599v-5.649l4.992-0.328l0.92-8.803h6.307v8.803h8.211v5.978h-8.211v15.371
			c0,3.81,1.445,5.649,4.532,5.649c1.117,0,2.431-0.329,3.351-0.723l1.313,5.583c-1.773,0.592-4.007,1.183-6.569,1.183
			c-7.488,0-10.247-4.729-10.247-11.692V387.691z"/>
	</g>
</g>
<g>
	
		<line fill="none" stroke="#9D9D9C" stroke-width="15" stroke-linecap="round" stroke-miterlimit="10" x1="969" y1="609.5" x2="1092" y2="609.5"/>
	<polyline fill="none" stroke="#9D9D9C" stroke-width="15" stroke-linecap="round" stroke-miterlimit="10" points="
		1071.922,577.227 1103.773,609.078 1071.578,641.273 	"/>
</g>
<g>
	
		<path fill-rule="evenodd" clip-rule="evenodd" fill="none" stroke="#9D9D9C" stroke-width="15" stroke-linecap="round" stroke-linejoin="round" stroke-miterlimit="10" d="
		M233.617,260.555c22.196-24.675,54.374-40.19,90.174-40.19c66.816,0,121.209,54.046,121.443,120.81"/>
	<polyline fill="none" stroke="#9D9D9C" stroke-width="15" stroke-linecap="round" stroke-miterlimit="10" points="476.773,323.422 
		444.922,355.273 412.727,323.078 	"/>
</g>
<g>
	<g>
		
			<line fill="none" stroke="#EDEDED" stroke-width="15" stroke-linecap="round" stroke-miterlimit="10" x1="1940.296" y1="230.795" x2="1906.355" y2="196.854"/>
		
			<line fill="none" stroke="#EDEDED" stroke-width="15" stroke-linecap="round" stroke-miterlimit="10" x1="1835.645" y1="126.144" x2="1801.704" y2="92.202"/>
		
			<line fill="none" stroke="#EDEDED" stroke-width="15" stroke-linecap="round" stroke-miterlimit="10" x1="1801.704" y1="230.795" x2="1835.645" y2="196.854"/>
		
			<line fill="none" stroke="#EDEDED" stroke-width="15" stroke-linecap="round" stroke-miterlimit="10" x1="1906.355" y1="126.144" x2="1940.297" y2="92.203"/>
		
			<line fill="none" stroke="#EDEDED" stroke-width="15" stroke-linecap="round" stroke-miterlimit="10" x1="1773" y1="161.5" x2="1821" y2="161.5"/>
		
			<line fill="none" stroke="#EDEDED" stroke-width="15" stroke-linecap="round" stroke-miterlimit="10" x1="1921" y1="161.5" x2="1969" y2="161.5"/>
		
			<line fill="none" stroke="#EDEDED" stroke-width="15" stroke-linecap="round" stroke-miterlimit="10" x1="1871.5" y1="63" x2="1871.5" y2="111"/>
		
			<line fill="none" stroke="#EDEDED" stroke-width="15" stroke-linecap="round" stroke-miterlimit="10" x1="1871.5" y1="211" x2="1871.5" y2="259"/>
	</g>
	
		<rect x="1988.5" y="238.5" fill="none" stroke="#EDEDED" stroke-width="7" stroke-linecap="round" stroke-miterlimit="10" width="15" height="15"/>
	
		<rect x="2172.5" y="265.5" fill="none" stroke="#EDEDED" stroke-width="7" stroke-linecap="round" stroke-miterlimit="10" width="15" height="15"/>
	
		<rect x="2189.5" y="444.5" fill="none" stroke="#EDEDED" stroke-width="7" stroke-linecap="round" stroke-miterlimit="10" width="15" height="15"/>
	
		<rect x="1124.5" y="156.5" fill="none" stroke="#EDEDED" stroke-width="7" stroke-linecap="round" stroke-miterlimit="10" width="15" height="15"/>
	
		<rect x="1807.5" y="36.5" fill="none" stroke="#EDEDED" stroke-width="7" stroke-linecap="round" stroke-miterlimit="10" width="15" height="15"/>
	
		<rect x="1650.5" y="63.5" fill="none" stroke="#EDEDED" stroke-width="7" stroke-linecap="round" stroke-miterlimit="10" width="15" height="15"/>
	
		<rect x="1217.5" y="92.5" fill="none" stroke="#EDEDED" stroke-width="7" stroke-linecap="round" stroke-miterlimit="10" width="15" height="15"/>
	
		<rect x="1155.5" y="241.5" fill="none" stroke="#EDEDED" stroke-width="7" stroke-linecap="round" stroke-miterlimit="10" width="15" height="15"/>
	
		<rect x="1328.5" y="130.5" fill="none" stroke="#EDEDED" stroke-width="7" stroke-linecap="round" stroke-miterlimit="10" width="25" height="25"/>
	
		<rect x="1118.5" y="302.5" fill="none" stroke="#EDEDED" stroke-width="7" stroke-linecap="round" stroke-miterlimit="10" width="25" height="25"/>
	
		<rect x="1877.5" y="279.5" fill="none" stroke="#EDEDED" stroke-width="7" stroke-linecap="round" stroke-miterlimit="10" width="25" height="25"/>
	
		<rect x="2066.5" y="260.5" fill="none" stroke="#EDEDED" stroke-width="7" stroke-linecap="round" stroke-miterlimit="10" width="25" height="25"/>
	
		<rect x="2145.5" y="359.5" fill="none" stroke="#EDEDED" stroke-width="7" stroke-linecap="round" stroke-miterlimit="10" width="25" height="25"/>
	
		<rect x="1719.5" y="101.5" fill="none" stroke="#EDEDED" stroke-width="7" stroke-linecap="round" stroke-miterlimit="10" width="25" height="25"/>
	
		<rect x="1518.5" y="63.5" fill="none" stroke="#EDEDED" stroke-width="7" stroke-linecap="round" stroke-miterlimit="10" width="25" height="25"/>
	
		<rect x="1650.5" y="139.5" fill="none" stroke="#EDEDED" stroke-width="7" stroke-linecap="round" stroke-miterlimit="10" width="15" height="15"/>
	
		<rect x="1340.5" y="26.5" fill="none" stroke="#EDEDED" stroke-width="7" stroke-linecap="round" stroke-miterlimit="10" width="15" height="15"/>
	
		<rect x="1082.5" y="361.5" fill="none" stroke="#EDEDED" stroke-width="7" stroke-linecap="round" stroke-miterlimit="10" width="15" height="15"/>
	
		<rect x="1971.5" y="57.5" fill="none" stroke="#EDEDED" stroke-width="7" stroke-linecap="round" stroke-miterlimit="10" width="15" height="15"/>
	
		<rect x="1448.5" y="100.5" fill="none" stroke="#EDEDED" stroke-width="7" stroke-linecap="round" stroke-miterlimit="10" width="15" height="15"/>
	
		<rect x="1562.5" y="113.5" fill="none" stroke="#EDEDED" stroke-width="7" stroke-linecap="round" stroke-miterlimit="10" width="15" height="15"/>
</g>
<g>
	<g>
		<path fill-rule="evenodd" clip-rule="evenodd" fill="#EDEDED" d="M1885,533c0,9.389-7.611,17-17,17h-684c-9.389,0-17-7.611-17-17
			V168c0-9.389,7.611-17,17-17h684c9.389,0,17,7.611,17,17V533z"/>
		<path fill="none" stroke="#9D9D9C" stroke-width="3" stroke-miterlimit="10" d="M1884.5,532.5c0,9.389-7.611,17-17,17h-684
			c-9.389,0-17-7.611-17-17v-365c0-9.389,7.611-17,17-17h684c9.389,0,17,7.611,17,17V532.5z"/>
	</g>
	
		<rect x="1166.5" y="223.5" fill-rule="evenodd" clip-rule="evenodd" fill="#FFFFFF" stroke="#9D9D9C" stroke-width="3" stroke-miterlimit="10" width="718" height="587"/>
	
		<circle fill-rule="evenodd" clip-rule="evenodd" fill="#C6C6C6" stroke="#9D9D9C" stroke-width="3" stroke-miterlimit="10" cx="1198" cy="187" r="11.044"/>
	
		<circle fill-rule="evenodd" clip-rule="evenodd" fill="#C6C6C6" stroke="#9D9D9C" stroke-width="3" stroke-miterlimit="10" cx="1231" cy="187" r="11.044"/>
	
		<circle fill-rule="evenodd" clip-rule="evenodd" fill="#C6C6C6" stroke="#9D9D9C" stroke-width="3" stroke-miterlimit="10" cx="1263" cy="187" r="11.044"/>
	<g>
		<path fill-rule="evenodd" clip-rule="evenodd" fill="#FFFFFF" d="M1861,187c0,9.389-7.611,17-17,17h-529c-9.389,0-17-7.611-17-17
			l0,0c0-9.389,7.611-17,17-17h529C1853.389,170,1861,177.611,1861,187L1861,187z"/>
		<path fill="none" stroke="#9D9D9C" stroke-width="3" stroke-miterlimit="10" d="M1860.5,186.5c0,9.389-7.611,17-17,17h-529
			c-9.389,0-17-7.611-17-17l0,0c0-9.389,7.611-17,17-17h529C1852.889,169.5,1860.5,177.111,1860.5,186.5L1860.5,186.5z"/>
	</g>
	<g>
		<rect x="1381" y="288" fill-rule="evenodd" clip-rule="evenodd" fill="#9D9D9C" width="288" height="31"/>
		<rect x="1412" y="336" fill-rule="evenodd" clip-rule="evenodd" fill="#DADADA" width="225" height="18"/>
		<rect x="1328" y="418" fill-rule="evenodd" clip-rule="evenodd" fill="#9D9D9C" width="223" height="18"/>
		<rect x="1328" y="454" fill-rule="evenodd" clip-rule="evenodd" fill="#9D9D9C" width="391" height="18"/>
		<rect x="1328" y="490" fill-rule="evenodd" clip-rule="evenodd" fill="#9D9D9C" width="120" height="18"/>
		<rect x="1538" y="526" fill-rule="evenodd" clip-rule="evenodd" fill="#9D9D9C" width="181" height="18"/>
		<rect x="1328" y="526" fill-rule="evenodd" clip-rule="evenodd" fill="#9D9D9C" width="196" height="18"/>
		<rect x="1408" y="562" fill-rule="evenodd" clip-rule="evenodd" fill="#9D9D9C" width="234" height="18"/>
		<rect x="1328" y="562" fill-rule="evenodd" clip-rule="evenodd" fill="#9D9D9C" width="66" height="18"/>
		<rect x="1328" y="598" fill-rule="evenodd" clip-rule="evenodd" fill="#9D9D9C" width="195" height="18"/>
		<rect x="1328" y="634" fill-rule="evenodd" clip-rule="evenodd" fill="#9D9D9C" width="225" height="18"/>
		<rect x="1329" y="669" fill-rule="evenodd" clip-rule="evenodd" fill="#6176F6" width="114" height="18"/>
		<rect x="1328" y="706" fill-rule="evenodd" clip-rule="evenodd" fill="#9D9D9C" width="196" height="18"/>
		<rect x="1463" y="489" fill-rule="evenodd" clip-rule="evenodd" fill="#6176F6" width="206" height="18"/>
		<rect x="1567" y="634" fill-rule="evenodd" clip-rule="evenodd" fill="#9D9D9C" width="83" height="18"/>
		<rect x="1456" y="670" fill-rule="evenodd" clip-rule="evenodd" fill="#9D9D9C" width="264" height="18"/>
	</g>
</g>
<g>
	<g>
		<path fill-rule="evenodd" clip-rule="evenodd" fill="#FFFFFF" d="M913,793c0,9.389-7.611,17-17,17H362c-9.389,0-17-7.611-17-17
			V428c0-9.389,7.611-17,17-17h534c9.389,0,17,7.611,17,17V793z"/>
		<path fill="none" stroke="#9D9D9C" stroke-width="3" stroke-miterlimit="10" d="M913.5,792.5c0,9.389-7.611,17-17,17h-534
			c-9.389,0-17-7.611-17-17v-365c0-9.389,7.611-17,17-17h534c9.389,0,17,7.611,17,17V792.5z"/>
	</g>
	
		<circle fill-rule="evenodd" clip-rule="evenodd" fill="#DADADA" stroke="#9D9D9C" stroke-width="3" stroke-miterlimit="10" cx="374" cy="441" r="11.044"/>
	<g>
		<g>
			<path fill="#B2B2B2" d="M507.779,567.031h11.496c13.138,0,20.889,7.095,20.889,21.283c0,14.255-7.751,21.678-20.495,21.678
				h-11.89V567.031z M518.749,603.817c8.671,0,13.598-4.927,13.598-15.503c0-10.51-4.927-15.108-13.598-15.108h-3.35v30.611H518.749
				z"/>
			<path fill="#B2B2B2" d="M548.18,577.739h6.241l0.525,5.715h0.263c2.299-4.204,5.715-6.504,9.131-6.504
				c1.642,0,2.693,0.197,3.679,0.657l-1.314,6.569c-1.116-0.329-1.971-0.526-3.35-0.526c-2.562,0-5.649,1.774-7.62,6.635v19.707
				h-7.555V577.739z"/>
			<path fill="#B2B2B2" d="M585.229,576.95c8.079,0,15.371,6.175,15.371,16.948c0,10.707-7.292,16.882-15.371,16.882
				c-8.015,0-15.306-6.175-15.306-16.882C569.924,583.125,577.215,576.95,585.229,576.95z M585.229,604.605
				c4.729,0,7.62-4.27,7.62-10.707c0-6.503-2.891-10.773-7.62-10.773s-7.555,4.271-7.555,10.773
				C577.675,600.336,580.5,604.605,585.229,604.605z"/>
			<path fill="#B2B2B2" d="M615.646,612.62v10.116h-7.555v-44.997h6.241l0.525,3.415h0.263c2.693-2.299,6.175-4.204,9.722-4.204
				c8.015,0,12.678,6.438,12.678,16.423c0,11.035-6.634,17.407-13.794,17.407c-2.825,0-5.649-1.313-8.277-3.547L615.646,612.62z
				 M622.148,604.54c4.27,0,7.555-3.81,7.555-11.102c0-6.438-2.103-10.247-6.963-10.247c-2.365,0-4.599,1.182-7.095,3.612v15.043
				C618.01,603.817,620.244,604.54,622.148,604.54z"/>
			<path fill="#B2B2B2" d="M659.264,567.031h25.947v6.438h-18.327v12.152h15.634v6.438h-15.634v17.934h-7.62V567.031z"/>
			<path fill="#B2B2B2" d="M691.256,567.819c0-2.562,1.971-4.335,4.664-4.335s4.664,1.773,4.664,4.335
				c0,2.497-1.971,4.271-4.664,4.271S691.256,570.316,691.256,567.819z M692.109,577.739h7.555v32.253h-7.555V577.739z"/>
			<path fill="#B2B2B2" d="M709.32,563.615h7.555v38.494c0,1.84,0.854,2.496,1.643,2.496c0.328,0,0.591,0,1.182-0.131l0.985,5.649
				c-0.919,0.394-2.233,0.656-4.007,0.656c-5.387,0-7.357-3.481-7.357-9.064V563.615z"/>
			<path fill="#B2B2B2" d="M739.867,576.95c8.736,0,13.335,6.307,13.335,15.306c0,1.445-0.132,2.759-0.328,3.548h-20.495
				c0.656,5.846,4.335,9.131,9.524,9.131c2.759,0,5.124-0.854,7.488-2.365l2.562,4.729c-3.088,2.036-6.963,3.481-11.036,3.481
				c-8.934,0-15.896-6.24-15.896-16.882C725.021,583.388,732.312,576.95,739.867,576.95z M746.633,591.008
				c0-5.123-2.167-8.211-6.568-8.211c-3.811,0-7.095,2.824-7.752,8.211H746.633z"/>
		</g>
	</g>
	
		<rect x="536.5" y="658.5" fill-rule="evenodd" clip-rule="evenodd" fill="#DADADA" stroke="#9D9D9C" stroke-width="3" stroke-miterlimit="10" width="182" height="36"/>
</g>
<g>
	<g>
		<path fill-rule="evenodd" clip-rule="evenodd" fill="#EDEDED" d="M2150,793c0,9.389-7.611,17-17,17h-331c-9.389,0-17-7.611-17-17
			V316c0-9.389,7.611-17,17-17h331c9.389,0,17,7.611,17,17V793z"/>
		<path fill="none" stroke="#9D9D9C" stroke-width="3" stroke-miterlimit="10" d="M2149.5,793.5c0,9.389-7.611,17-17,17h-331
			c-9.389,0-17-7.611-17-17v-477c0-9.389,7.611-17,17-17h331c9.389,0,17,7.611,17,17V793.5z"/>
	</g>
	
		<rect x="1801.5" y="351.5" fill-rule="evenodd" clip-rule="evenodd" fill="#FFFFFF" stroke="#9D9D9C" stroke-width="3" stroke-miterlimit="10" width="331" height="389"/>
	
		<circle fill-rule="evenodd" clip-rule="evenodd" fill="#DADADA" stroke="#9D9D9C" stroke-width="3" stroke-miterlimit="10" cx="1967" cy="776" r="15.668"/>
	
		<circle fill-rule="evenodd" clip-rule="evenodd" fill="#B2B2B2" stroke="#9D9D9C" stroke-width="3" stroke-miterlimit="10" cx="1967" cy="327" r="6.108"/>
	<g>
		<rect x="1877" y="407" fill-rule="evenodd" clip-rule="evenodd" fill="#9D9D9C" width="181" height="19"/>
		<rect x="1896" y="437" fill-rule="evenodd" clip-rule="evenodd" fill="#DADADA" width="142" height="12"/>
		<rect x="1844" y="488" fill-rule="evenodd" clip-rule="evenodd" fill="#9D9D9C" width="140" height="12"/>
		<rect x="1844" y="511" fill-rule="evenodd" clip-rule="evenodd" fill="#9D9D9C" width="245" height="12"/>
		<rect x="1844" y="534" fill-rule="evenodd" clip-rule="evenodd" fill="#9D9D9C" width="75" height="11"/>
		<rect x="1976" y="557" fill-rule="evenodd" clip-rule="evenodd" fill="#9D9D9C" width="113" height="11"/>
		<rect x="1844" y="557" fill-rule="evenodd" clip-rule="evenodd" fill="#9D9D9C" width="123" height="11"/>
		<rect x="1894" y="579" fill-rule="evenodd" clip-rule="evenodd" fill="#9D9D9C" width="147" height="11"/>
		<rect x="1844" y="579" fill-rule="evenodd" clip-rule="evenodd" fill="#9D9D9C" width="42" height="11"/>
		<rect x="1844" y="602" fill-rule="evenodd" clip-rule="evenodd" fill="#9D9D9C" width="122" height="12"/>
		<rect x="1844" y="624" fill-rule="evenodd" clip-rule="evenodd" fill="#9D9D9C" width="141" height="12"/>
		<rect x="1845" y="647" fill-rule="evenodd" clip-rule="evenodd" fill="#6176F6" width="71" height="10"/>
		<rect x="1844" y="669" fill-rule="evenodd" clip-rule="evenodd" fill="#9D9D9C" width="123" height="12"/>
		<rect x="1928" y="533" fill-rule="evenodd" clip-rule="evenodd" fill="#6176F6" width="130" height="12"/>
		<rect x="1994" y="624" fill-rule="evenodd" clip-rule="evenodd" fill="#9D9D9C" width="52" height="12"/>
		<rect x="1924" y="647" fill-rule="evenodd" clip-rule="evenodd" fill="#9D9D9C" width="166" height="12"/>
	</g>
</g>
<g>
	<path fill-rule="evenodd" clip-rule="evenodd" fill="#FFFFFF" stroke="#9D9D9C" stroke-width="3" stroke-miterlimit="10" d="
		M-2721.5,1538.1V1703c0,9.35-5.15,19.5-14.5,19.5h-165c-9.35,0-19.5-10.15-19.5-19.5v-206c0-9.35,10.15-14.5,19.5-14.5h123.91
		L-2721.5,1538.1z"/>
	
		<path fill-rule="evenodd" clip-rule="evenodd" fill="#EDEDED" stroke="#9D9D9C" stroke-width="3" stroke-linejoin="round" stroke-miterlimit="10" d="
		M-2777.5,1520.308v-38.194l55.388,55.387h-38.187C-2768.987,1537.5-2777.5,1528.996-2777.5,1520.308z"/>
	
		<text transform="matrix(1 0 0 1 -2873.874 1620.9668)" fill="#9D9D9C" font-family="'SourceSansPro-Semibold'" font-size="65.6924">.txt</text>
</g>
<g>
	
		<line fill="none" stroke="#9D9D9C" stroke-width="15" stroke-linecap="round" stroke-miterlimit="10" x1="-1978" y1="1816.5" x2="-1855" y2="1816.5"/>
	<polyline fill="none" stroke="#9D9D9C" stroke-width="15" stroke-linecap="round" stroke-miterlimit="10" points="
		-1875.078,1784.227 -1843.227,1816.078 -1875.422,1848.273 	"/>
</g>
<g>
	
		<path fill-rule="evenodd" clip-rule="evenodd" fill="none" stroke="#9D9D9C" stroke-width="15" stroke-linecap="round" stroke-linejoin="round" stroke-miterlimit="10" d="
		M-2713.383,1467.555c22.196-24.675,54.374-40.19,90.174-40.19c66.816,0,121.209,54.046,121.443,120.81"/>
	<polyline fill="none" stroke="#9D9D9C" stroke-width="15" stroke-linecap="round" stroke-miterlimit="10" points="
		-2470.227,1530.422 -2502.078,1562.273 -2534.273,1530.078 	"/>
</g>
<g>
	<g>
		
			<line fill="none" stroke="#EDEDED" stroke-width="15" stroke-linecap="round" stroke-miterlimit="10" x1="-1006.704" y1="1437.795" x2="-1040.645" y2="1403.854"/>
		
			<line fill="none" stroke="#EDEDED" stroke-width="15" stroke-linecap="round" stroke-miterlimit="10" x1="-1111.355" y1="1333.144" x2="-1145.296" y2="1299.202"/>
		
			<line fill="none" stroke="#EDEDED" stroke-width="15" stroke-linecap="round" stroke-miterlimit="10" x1="-1145.296" y1="1437.795" x2="-1111.355" y2="1403.854"/>
		
			<line fill="none" stroke="#EDEDED" stroke-width="15" stroke-linecap="round" stroke-miterlimit="10" x1="-1040.645" y1="1333.144" x2="-1006.703" y2="1299.203"/>
		
			<line fill="none" stroke="#EDEDED" stroke-width="15" stroke-linecap="round" stroke-miterlimit="10" x1="-1174" y1="1368.5" x2="-1126" y2="1368.5"/>
		
			<line fill="none" stroke="#EDEDED" stroke-width="15" stroke-linecap="round" stroke-miterlimit="10" x1="-1026" y1="1368.5" x2="-978" y2="1368.5"/>
		
			<line fill="none" stroke="#EDEDED" stroke-width="15" stroke-linecap="round" stroke-miterlimit="10" x1="-1075.5" y1="1270" x2="-1075.5" y2="1318"/>
		
			<line fill="none" stroke="#EDEDED" stroke-width="15" stroke-linecap="round" stroke-miterlimit="10" x1="-1075.5" y1="1418" x2="-1075.5" y2="1466"/>
	</g>
	
		<rect x="-958.5" y="1445.5" fill="none" stroke="#EDEDED" stroke-width="7" stroke-linecap="round" stroke-miterlimit="10" width="15" height="15"/>
	
		<rect x="-774.5" y="1472.5" fill="none" stroke="#EDEDED" stroke-width="7" stroke-linecap="round" stroke-miterlimit="10" width="15" height="15"/>
	
		<rect x="-757.5" y="1651.5" fill="none" stroke="#EDEDED" stroke-width="7" stroke-linecap="round" stroke-miterlimit="10" width="15" height="15"/>
	
		<rect x="-1822.5" y="1363.5" fill="none" stroke="#EDEDED" stroke-width="7" stroke-linecap="round" stroke-miterlimit="10" width="15" height="15"/>
	
		<rect x="-1139.5" y="1243.5" fill="none" stroke="#EDEDED" stroke-width="7" stroke-linecap="round" stroke-miterlimit="10" width="15" height="15"/>
	
		<rect x="-1296.5" y="1270.5" fill="none" stroke="#EDEDED" stroke-width="7" stroke-linecap="round" stroke-miterlimit="10" width="15" height="15"/>
	
		<rect x="-1729.5" y="1299.5" fill="none" stroke="#EDEDED" stroke-width="7" stroke-linecap="round" stroke-miterlimit="10" width="15" height="15"/>
	
		<rect x="-1791.5" y="1448.5" fill="none" stroke="#EDEDED" stroke-width="7" stroke-linecap="round" stroke-miterlimit="10" width="15" height="15"/>
	
		<rect x="-1618.5" y="1337.5" fill="none" stroke="#EDEDED" stroke-width="7" stroke-linecap="round" stroke-miterlimit="10" width="25" height="25"/>
	
		<rect x="-1828.5" y="1509.5" fill="none" stroke="#EDEDED" stroke-width="7" stroke-linecap="round" stroke-miterlimit="10" width="25" height="25"/>
	
		<rect x="-1069.5" y="1486.5" fill="none" stroke="#EDEDED" stroke-width="7" stroke-linecap="round" stroke-miterlimit="10" width="25" height="25"/>
	
		<rect x="-880.5" y="1467.5" fill="none" stroke="#EDEDED" stroke-width="7" stroke-linecap="round" stroke-miterlimit="10" width="25" height="25"/>
	
		<rect x="-801.5" y="1566.5" fill="none" stroke="#EDEDED" stroke-width="7" stroke-linecap="round" stroke-miterlimit="10" width="25" height="25"/>
	
		<rect x="-1227.5" y="1308.5" fill="none" stroke="#EDEDED" stroke-width="7" stroke-linecap="round" stroke-miterlimit="10" width="25" height="25"/>
	
		<rect x="-1428.5" y="1270.5" fill="none" stroke="#EDEDED" stroke-width="7" stroke-linecap="round" stroke-miterlimit="10" width="25" height="25"/>
	
		<rect x="-1296.5" y="1346.5" fill="none" stroke="#EDEDED" stroke-width="7" stroke-linecap="round" stroke-miterlimit="10" width="15" height="15"/>
	
		<rect x="-1606.5" y="1233.5" fill="none" stroke="#EDEDED" stroke-width="7" stroke-linecap="round" stroke-miterlimit="10" width="15" height="15"/>
	
		<rect x="-1864.5" y="1568.5" fill="none" stroke="#EDEDED" stroke-width="7" stroke-linecap="round" stroke-miterlimit="10" width="15" height="15"/>
	
		<rect x="-975.5" y="1264.5" fill="none" stroke="#EDEDED" stroke-width="7" stroke-linecap="round" stroke-miterlimit="10" width="15" height="15"/>
	
		<rect x="-1498.5" y="1307.5" fill="none" stroke="#EDEDED" stroke-width="7" stroke-linecap="round" stroke-miterlimit="10" width="15" height="15"/>
	
		<rect x="-1384.5" y="1320.5" fill="none" stroke="#EDEDED" stroke-width="7" stroke-linecap="round" stroke-miterlimit="10" width="15" height="15"/>
</g>
<g>
	<g>
		<path fill-rule="evenodd" clip-rule="evenodd" fill="#EDEDED" d="M-1062,1740c0,9.389-7.611,17-17,17h-684
			c-9.389,0-17-7.611-17-17v-365c0-9.389,7.611-17,17-17h684c9.389,0,17,7.611,17,17V1740z"/>
		<path fill="none" stroke="#9D9D9C" stroke-width="3" stroke-miterlimit="10" d="M-1062.5,1739.5c0,9.389-7.611,17-17,17h-684
			c-9.389,0-17-7.611-17-17v-365c0-9.389,7.611-17,17-17h684c9.389,0,17,7.611,17,17V1739.5z"/>
	</g>
	
		<rect x="-1780.5" y="1430.5" fill-rule="evenodd" clip-rule="evenodd" fill="#FFFFFF" stroke="#9D9D9C" stroke-width="3" stroke-miterlimit="10" width="718" height="587"/>
	
		<circle fill-rule="evenodd" clip-rule="evenodd" fill="#C6C6C6" stroke="#9D9D9C" stroke-width="3" stroke-miterlimit="10" cx="-1749" cy="1394" r="11.044"/>
	
		<circle fill-rule="evenodd" clip-rule="evenodd" fill="#C6C6C6" stroke="#9D9D9C" stroke-width="3" stroke-miterlimit="10" cx="-1716" cy="1394" r="11.044"/>
	
		<circle fill-rule="evenodd" clip-rule="evenodd" fill="#C6C6C6" stroke="#9D9D9C" stroke-width="3" stroke-miterlimit="10" cx="-1684" cy="1394" r="11.044"/>
	<g>
		<path fill-rule="evenodd" clip-rule="evenodd" fill="#FFFFFF" d="M-1086,1394c0,9.389-7.611,17-17,17h-529
			c-9.389,0-17-7.611-17-17l0,0c0-9.389,7.611-17,17-17h529C-1093.611,1377-1086,1384.611-1086,1394L-1086,1394z"/>
		<path fill="none" stroke="#9D9D9C" stroke-width="3" stroke-miterlimit="10" d="M-1086.5,1393.5c0,9.389-7.611,17-17,17h-529
			c-9.389,0-17-7.611-17-17l0,0c0-9.389,7.611-17,17-17h529C-1094.111,1376.5-1086.5,1384.111-1086.5,1393.5L-1086.5,1393.5z"/>
	</g>
	<g>
		<rect x="-1566" y="1495" fill-rule="evenodd" clip-rule="evenodd" fill="#9D9D9C" width="288" height="31"/>
		<rect x="-1535" y="1543" fill-rule="evenodd" clip-rule="evenodd" fill="#DADADA" width="225" height="18"/>
		<rect x="-1619" y="1625" fill-rule="evenodd" clip-rule="evenodd" fill="#9D9D9C" width="223" height="18"/>
		<rect x="-1619" y="1661" fill-rule="evenodd" clip-rule="evenodd" fill="#9D9D9C" width="391" height="18"/>
		<rect x="-1619" y="1697" fill-rule="evenodd" clip-rule="evenodd" fill="#9D9D9C" width="120" height="18"/>
		<rect x="-1409" y="1733" fill-rule="evenodd" clip-rule="evenodd" fill="#9D9D9C" width="181" height="18"/>
		<rect x="-1619" y="1733" fill-rule="evenodd" clip-rule="evenodd" fill="#9D9D9C" width="196" height="18"/>
		<rect x="-1539" y="1769" fill-rule="evenodd" clip-rule="evenodd" fill="#9D9D9C" width="234" height="18"/>
		<rect x="-1619" y="1769" fill-rule="evenodd" clip-rule="evenodd" fill="#9D9D9C" width="66" height="18"/>
		<rect x="-1619" y="1805" fill-rule="evenodd" clip-rule="evenodd" fill="#9D9D9C" width="195" height="18"/>
		<rect x="-1619" y="1841" fill-rule="evenodd" clip-rule="evenodd" fill="#9D9D9C" width="225" height="18"/>
		<rect x="-1618" y="1876" fill-rule="evenodd" clip-rule="evenodd" fill="#6176F6" width="114" height="18"/>
		<rect x="-1619" y="1913" fill-rule="evenodd" clip-rule="evenodd" fill="#9D9D9C" width="196" height="18"/>
		<rect x="-1484" y="1696" fill-rule="evenodd" clip-rule="evenodd" fill="#6176F6" width="206" height="18"/>
		<rect x="-1380" y="1841" fill-rule="evenodd" clip-rule="evenodd" fill="#9D9D9C" width="83" height="18"/>
		<rect x="-1491" y="1877" fill-rule="evenodd" clip-rule="evenodd" fill="#9D9D9C" width="264" height="18"/>
	</g>
</g>
<g>
	<g>
		<path fill-rule="evenodd" clip-rule="evenodd" fill="#FFFFFF" d="M-2034,2000c0,9.389-7.611,17-17,17h-534
			c-9.389,0-17-7.611-17-17v-365c0-9.389,7.611-17,17-17h534c9.389,0,17,7.611,17,17V2000z"/>
		<path fill="none" stroke="#9D9D9C" stroke-width="3" stroke-miterlimit="10" d="M-2033.5,1999.5c0,9.389-7.611,17-17,17h-534
			c-9.389,0-17-7.611-17-17v-365c0-9.389,7.611-17,17-17h534c9.389,0,17,7.611,17,17V1999.5z"/>
	</g>
	
		<circle fill-rule="evenodd" clip-rule="evenodd" fill="#DADADA" stroke="#9D9D9C" stroke-width="3" stroke-miterlimit="10" cx="-2573" cy="1648" r="11.044"/>
	<g>
		
			<text transform="matrix(1 0 0 1 -2444.6729 1816.9922)" fill="#B2B2B2" font-family="'SourceSansPro-Semibold'" font-size="65.6924">Drop File</text>
	</g>
	
		<rect x="-2410.5" y="1865.5" fill-rule="evenodd" clip-rule="evenodd" fill="#DADADA" stroke="#9D9D9C" stroke-width="3" stroke-miterlimit="10" width="182" height="36"/>
</g>
<g>
	<g>
		<path fill-rule="evenodd" clip-rule="evenodd" fill="#EDEDED" d="M-797,2000c0,9.389-7.611,17-17,17h-331c-9.389,0-17-7.611-17-17
			v-477c0-9.389,7.611-17,17-17h331c9.389,0,17,7.611,17,17V2000z"/>
		<path fill="none" stroke="#9D9D9C" stroke-width="3" stroke-miterlimit="10" d="M-797.5,2000.5c0,9.389-7.611,17-17,17h-331
			c-9.389,0-17-7.611-17-17v-477c0-9.389,7.611-17,17-17h331c9.389,0,17,7.611,17,17V2000.5z"/>
	</g>
	
		<rect x="-1145.5" y="1558.5" fill-rule="evenodd" clip-rule="evenodd" fill="#FFFFFF" stroke="#9D9D9C" stroke-width="3" stroke-miterlimit="10" width="331" height="389"/>
	
		<circle fill-rule="evenodd" clip-rule="evenodd" fill="#DADADA" stroke="#9D9D9C" stroke-width="3" stroke-miterlimit="10" cx="-980" cy="1983" r="15.668"/>
	
		<circle fill-rule="evenodd" clip-rule="evenodd" fill="#B2B2B2" stroke="#9D9D9C" stroke-width="3" stroke-miterlimit="10" cx="-980" cy="1534" r="6.108"/>
	<g>
		<rect x="-1070" y="1614" fill-rule="evenodd" clip-rule="evenodd" fill="#9D9D9C" width="181" height="19"/>
		<rect x="-1051" y="1644" fill-rule="evenodd" clip-rule="evenodd" fill="#DADADA" width="142" height="12"/>
		<rect x="-1103" y="1695" fill-rule="evenodd" clip-rule="evenodd" fill="#9D9D9C" width="140" height="12"/>
		<rect x="-1103" y="1718" fill-rule="evenodd" clip-rule="evenodd" fill="#9D9D9C" width="245" height="12"/>
		<rect x="-1103" y="1741" fill-rule="evenodd" clip-rule="evenodd" fill="#9D9D9C" width="75" height="11"/>
		<rect x="-971" y="1764" fill-rule="evenodd" clip-rule="evenodd" fill="#9D9D9C" width="113" height="11"/>
		<rect x="-1103" y="1764" fill-rule="evenodd" clip-rule="evenodd" fill="#9D9D9C" width="123" height="11"/>
		<rect x="-1053" y="1786" fill-rule="evenodd" clip-rule="evenodd" fill="#9D9D9C" width="147" height="11"/>
		<rect x="-1103" y="1786" fill-rule="evenodd" clip-rule="evenodd" fill="#9D9D9C" width="42" height="11"/>
		<rect x="-1103" y="1809" fill-rule="evenodd" clip-rule="evenodd" fill="#9D9D9C" width="122" height="12"/>
		<rect x="-1103" y="1831" fill-rule="evenodd" clip-rule="evenodd" fill="#9D9D9C" width="141" height="12"/>
		<rect x="-1102" y="1854" fill-rule="evenodd" clip-rule="evenodd" fill="#6176F6" width="71" height="10"/>
		<rect x="-1103" y="1876" fill-rule="evenodd" clip-rule="evenodd" fill="#9D9D9C" width="123" height="12"/>
		<rect x="-1019" y="1740" fill-rule="evenodd" clip-rule="evenodd" fill="#6176F6" width="130" height="12"/>
		<rect x="-953" y="1831" fill-rule="evenodd" clip-rule="evenodd" fill="#9D9D9C" width="52" height="12"/>
		<rect x="-1023" y="1854" fill-rule="evenodd" clip-rule="evenodd" fill="#9D9D9C" width="166" height="12"/>
	</g>
</g>
</svg>
