<?xml version="1.0" encoding="utf-8"?>
<!-- Generator: Adobe Illustrator 16.0.0, SVG Export Plug-In . SVG Version: 6.00 Build 0)  -->
<!DOCTYPE svg PUBLIC "-//W3C//DTD SVG 1.1//EN" "http://www.w3.org/Graphics/SVG/1.1/DTD/svg11.dtd">
<svg version="1.1" id="Ebene_1" xmlns="http://www.w3.org/2000/svg" xmlns:xlink="http://www.w3.org/1999/xlink" x="0px" y="0px"
	 width="874.684px" height="994.971px" viewBox="0 0 874.684 994.971" enable-background="new 0 0 874.684 994.971"
	 xml:space="preserve">
<g>
	<polygon fill="#505456" points="635.684,994.971 0,359.286 27.342,35.129 239,36.286 874.684,671.971 	"/>
	<g>
		<path fill="#FFFFFF" d="M0.754,0h122.831c74.36,0,132.195,20.38,132.195,89.231c0,31.946-18.177,66.647-60.039,77.664v2.203
			c51.226,9.364,77.665,36.354,77.665,84.274c0,73.258-61.691,105.756-139.355,105.756H0.754V0z M119.729,144.863
			c39.658,0,56.733-17.075,56.733-44.065c0-26.989-18.177-38.006-56.183-38.006H81.724v82.071H119.729z M127.441,296.336
			c44.064,0,66.647-16.523,66.647-49.021c0-31.396-22.032-45.167-66.647-45.167H81.724v94.188H127.441z"/>
	</g>
</g>
</svg>
