<?xml version="1.0" encoding="utf-8"?>
<!-- Generator: Adobe Illustrator 16.0.0, SVG Export Plug-In . SVG Version: 6.00 Build 0)  -->
<!DOCTYPE svg PUBLIC "-//W3C//DTD SVG 1.1//EN" "http://www.w3.org/Graphics/SVG/1.1/DTD/svg11.dtd">
<svg version="1.1" id="Ebene_1" xmlns="http://www.w3.org/2000/svg" xmlns:xlink="http://www.w3.org/1999/xlink" x="0px" y="0px"
	 width="1024px" height="1024px" viewBox="0 0 1024 1024" enable-background="new 0 0 1024 1024" xml:space="preserve">
<g>
	<defs>
		<path id="SVGID_1_" d="M1024,944c0,44-36,80-80,80H80c-44,0-80-36-80-80V80C0,36,36,0,80,0h864c44,0,80,36,80,80V944z"/>
	</defs>
	<clipPath id="SVGID_2_">
		<use xlink:href="#SVGID_1_"  overflow="visible"/>
	</clipPath>
	<rect clip-path="url(#SVGID_2_)" fill="#262929" width="1024" height="1024"/>
	<g clip-path="url(#SVGID_2_)">
		<rect x="519" y="51" fill-rule="evenodd" clip-rule="evenodd" fill="#505456" width="19" height="21"/>
		<rect x="781" y="724" fill-rule="evenodd" clip-rule="evenodd" fill="#505456" width="32" height="32"/>
		<rect x="192" y="534" fill-rule="evenodd" clip-rule="evenodd" fill="#505456" width="21" height="21"/>
		<rect x="317" y="330" fill-rule="evenodd" clip-rule="evenodd" fill="#505456" width="21" height="21"/>
		<rect x="91" y="890" fill-rule="evenodd" clip-rule="evenodd" fill="#505456" width="21" height="21"/>
		<rect x="566" y="975" fill-rule="evenodd" clip-rule="evenodd" fill="#505456" width="21" height="22"/>
		<rect x="952" y="58" fill-rule="evenodd" clip-rule="evenodd" fill="#505456" width="22" height="20"/>
		<rect x="343" y="228" fill-rule="evenodd" clip-rule="evenodd" fill="#505456" width="33" height="33"/>
		<rect x="24" y="597" fill-rule="evenodd" clip-rule="evenodd" fill="#505456" width="34" height="33"/>
		<rect x="913" y="864" fill-rule="evenodd" clip-rule="evenodd" fill="#505456" width="34" height="34"/>
		<rect x="376" y="831" fill-rule="evenodd" clip-rule="evenodd" fill="#505456" width="34" height="33"/>
		<rect x="249" y="962" fill-rule="evenodd" clip-rule="evenodd" fill="#505456" width="34" height="33"/>
		<rect x="668" y="538" fill-rule="evenodd" clip-rule="evenodd" fill="#505456" width="14" height="14"/>
		<rect x="702" y="320" fill-rule="evenodd" clip-rule="evenodd" fill="#505456" width="14" height="14"/>
		<rect x="919" y="371" fill-rule="evenodd" clip-rule="evenodd" fill="#505456" width="14" height="13"/>
		<rect x="919" y="135" fill-rule="evenodd" clip-rule="evenodd" fill="#505456" width="14" height="15"/>
		<rect x="986" y="622" fill-rule="evenodd" clip-rule="evenodd" fill="#505456" width="15" height="14"/>
		<rect x="67" y="314" fill-rule="evenodd" clip-rule="evenodd" fill="#505456" width="13" height="14"/>
		<rect x="266" y="85" fill-rule="evenodd" clip-rule="evenodd" fill="#505456" width="14" height="14"/>
		<rect x="724" y="111" fill-rule="evenodd" clip-rule="evenodd" fill="#505456" width="23" height="24"/>
		<rect x="792" y="531" fill-rule="evenodd" clip-rule="evenodd" fill="#505456" width="23" height="23"/>
		<rect x="304" y="645" fill-rule="evenodd" clip-rule="evenodd" fill="#505456" width="13" height="13"/>
		<rect x="190" y="788" fill-rule="evenodd" clip-rule="evenodd" fill="#505456" width="13" height="13"/>
		<rect x="644" y="788" fill-rule="evenodd" clip-rule="evenodd" fill="#505456" width="13" height="13"/>
		<rect x="220" y="276" fill-rule="evenodd" clip-rule="evenodd" fill="#505456" width="13" height="13"/>
		<rect x="338" y="409" fill-rule="evenodd" clip-rule="evenodd" fill="#505456" width="13" height="15"/>
		<rect x="110" y="34" fill-rule="evenodd" clip-rule="evenodd" fill="#505456" width="14" height="14"/>
	</g>
	<g clip-path="url(#SVGID_2_)">
		<rect x="53" y="485" fill-rule="evenodd" clip-rule="evenodd" fill="#FFFFFF" width="21" height="19"/>
		<rect x="726" y="210" fill-rule="evenodd" clip-rule="evenodd" fill="#FFFFFF" width="32" height="32"/>
		<rect x="536" y="810" fill-rule="evenodd" clip-rule="evenodd" fill="#FFFFFF" width="21" height="21"/>
		<rect x="916" y="955" fill-rule="evenodd" clip-rule="evenodd" fill="#FFFFFF" width="21" height="21"/>
		<rect x="937" y="458" fill-rule="evenodd" clip-rule="evenodd" fill="#FFFFFF" width="22" height="21"/>
		<rect x="157" y="155" fill-rule="evenodd" clip-rule="evenodd" fill="#FFFFFF" width="20" height="22"/>
		<rect x="230" y="647" fill-rule="evenodd" clip-rule="evenodd" fill="#FFFFFF" width="33" height="33"/>
		<rect x="487" y="869" fill-rule="evenodd" clip-rule="evenodd" fill="#FFFFFF" width="33" height="34"/>
		<rect x="866" y="76" fill-rule="evenodd" clip-rule="evenodd" fill="#FFFFFF" width="34" height="34"/>
		<rect x="867" y="602" fill-rule="evenodd" clip-rule="evenodd" fill="#FFFFFF" width="33" height="34"/>
		<rect x="959" y="804" fill-rule="evenodd" clip-rule="evenodd" fill="#FFFFFF" width="33" height="34"/>
		<rect x="606" y="303" fill-rule="evenodd" clip-rule="evenodd" fill="#FFFFFF" width="14" height="14"/>
		<rect x="247" y="417" fill-rule="evenodd" clip-rule="evenodd" fill="#FFFFFF" width="14" height="14"/>
		<rect x="373" y="90" fill-rule="evenodd" clip-rule="evenodd" fill="#FFFFFF" width="13" height="14"/>
		<rect x="53" y="100" fill-rule="evenodd" clip-rule="evenodd" fill="#FFFFFF" width="15" height="14"/>
		<rect x="624" y="22" fill-rule="evenodd" clip-rule="evenodd" fill="#FFFFFF" width="14" height="15"/>
		<rect x="393" y="951" fill-rule="evenodd" clip-rule="evenodd" fill="#FFFFFF" width="14" height="13"/>
		<rect x="87" y="743" fill-rule="evenodd" clip-rule="evenodd" fill="#FFFFFF" width="14" height="14"/>
		<rect x="113" y="276" fill-rule="evenodd" clip-rule="evenodd" fill="#FFFFFF" width="24" height="23"/>
		<rect x="533" y="208" fill-rule="evenodd" clip-rule="evenodd" fill="#FFFFFF" width="23" height="23"/>
		<rect x="647" y="706" fill-rule="evenodd" clip-rule="evenodd" fill="#FFFFFF" width="13" height="13"/>
		<rect x="790" y="820" fill-rule="evenodd" clip-rule="evenodd" fill="#FFFFFF" width="13" height="13"/>
		<rect x="790" y="366" fill-rule="evenodd" clip-rule="evenodd" fill="#FFFFFF" width="13" height="13"/>
		<rect x="278" y="790" fill-rule="evenodd" clip-rule="evenodd" fill="#FFFFFF" width="13" height="13"/>
		<rect x="411" y="672" fill-rule="evenodd" clip-rule="evenodd" fill="#FFFFFF" width="15" height="13"/>
		<rect x="43" y="957" fill-rule="evenodd" clip-rule="evenodd" fill="#FFFFFF" width="14" height="14"/>
	</g>
	<polygon clip-path="url(#SVGID_2_)" fill="#505456" points="968.342,1337.842 332.658,702.157 360,378 571.658,379.157 
		1207.342,1014.842 	"/>
	<g clip-path="url(#SVGID_2_)">
		<path fill="#FFFFFF" d="M333.412,342.871h122.831c74.36,0,132.195,20.38,132.195,89.231c0,31.946-18.177,66.647-60.039,77.664
			v2.203c51.226,9.364,77.665,36.354,77.665,84.274c0,73.258-61.691,105.756-139.355,105.756H333.412V342.871z M452.388,487.734
			c39.658,0,56.733-17.075,56.733-44.065c0-26.989-18.177-38.006-56.183-38.006h-38.557v82.071H452.388z M460.1,639.207
			c44.064,0,66.647-16.523,66.647-49.021c0-31.396-22.032-45.167-66.647-45.167h-45.718v94.188H460.1z"/>
	</g>
</g>
</svg>
