<?xml version="1.0" encoding="utf-8"?>
<!-- Generator: Adobe Illustrator 16.0.0, SVG Export Plug-In . SVG Version: 6.00 Build 0)  -->
<!DOCTYPE svg PUBLIC "-//W3C//DTD SVG 1.1//EN" "http://www.w3.org/Graphics/SVG/1.1/DTD/svg11.dtd">
<svg version="1.1" id="Ebene_1" xmlns="http://www.w3.org/2000/svg" xmlns:xlink="http://www.w3.org/1999/xlink" x="0px" y="0px"
	 width="2098px" height="658px" viewBox="0 0 2098 658" enable-background="new 0 0 2098 658" xml:space="preserve">
<g>
	<g>
		<g>
			<path fill-rule="evenodd" clip-rule="evenodd" fill="#FFFFFF" d="M927,641c0,9.389-7.611,17-17,17H376c-9.389,0-17-7.611-17-17
				V276c0-9.389,7.611-17,17-17h534c9.389,0,17,7.611,17,17V641z"/>
		</g>
		<circle fill-rule="evenodd" clip-rule="evenodd" fill="#C6C6C6" cx="388" cy="289" r="11.044"/>
		<g>
			<g>
				<path fill="#B2B2B2" d="M514.991,408.309c3.547-0.591,8.08-0.919,12.875-0.919c8.276,0,13.991,1.708,18.064,5.123
					c4.27,3.481,6.897,8.737,6.897,16.291c0,7.883-2.693,13.795-6.897,17.604c-4.401,4.008-11.43,6.044-20.035,6.044
					c-4.729,0-8.277-0.263-10.904-0.592V408.309z M523.071,445.817c1.116,0.197,2.824,0.197,4.467,0.197
					c10.51,0.065,16.75-5.715,16.75-16.948c0.066-9.787-5.583-15.371-15.699-15.371c-2.562,0-4.401,0.197-5.518,0.46V445.817z"/>
				<path fill="#B2B2B2" d="M559.728,430.314c0-4.335-0.066-7.423-0.264-10.312h7.029l0.263,6.108h0.263
					c1.576-4.532,5.321-6.831,8.736-6.831c0.789,0,1.248,0.065,1.905,0.197v7.619c-0.657-0.131-1.38-0.263-2.365-0.263
					c-3.875,0-6.503,2.496-7.226,6.109c-0.131,0.723-0.263,1.576-0.263,2.496v16.554h-8.079V430.314z"/>
				<path fill="#B2B2B2" d="M612.937,435.701c0,11.759-8.277,17.014-16.423,17.014c-9.065,0-16.028-6.24-16.028-16.488
					c0-10.51,6.897-16.947,16.554-16.947C606.564,419.279,612.937,425.979,612.937,435.701z M588.828,436.029
					c0,6.175,3.021,10.839,7.948,10.839c4.599,0,7.817-4.532,7.817-10.97c0-4.992-2.233-10.707-7.752-10.707
					C591.127,425.191,588.828,430.709,588.828,436.029z"/>
				<path fill="#B2B2B2" d="M619.573,430.644c0-4.204-0.132-7.62-0.264-10.642h7.095l0.395,4.927h0.131
					c2.365-3.613,6.109-5.649,10.971-5.649c7.356,0,13.466,6.306,13.466,16.291c0,11.561-7.291,17.145-14.583,17.145
					c-4.007,0-7.357-1.708-8.999-4.27h-0.132v16.554h-8.079V430.644z M627.652,438.592c0,0.788,0.065,1.511,0.263,2.233
					c0.788,3.284,3.679,5.649,7.095,5.649c5.124,0,8.146-4.271,8.146-10.576c0-5.649-2.759-10.248-7.948-10.248
					c-3.351,0-6.438,2.431-7.226,5.979c-0.197,0.656-0.329,1.379-0.329,2.036V438.592z"/>
				<path fill="#B2B2B2" d="M671.928,407.718h25.553v6.635h-17.473v12.218h16.29v6.635h-16.29v18.787h-8.08V407.718z"/>
				<path fill="#B2B2B2" d="M712.196,411.068c0,2.43-1.773,4.335-4.598,4.335c-2.693,0-4.467-1.905-4.467-4.335
					c0-2.497,1.839-4.401,4.532-4.401C710.423,406.667,712.131,408.571,712.196,411.068z M703.592,451.992v-31.99h8.145v31.99
					H703.592z"/>
				<path fill="#B2B2B2" d="M720.409,405.353h8.145v46.64h-8.145V405.353z"/>
				<path fill="#B2B2B2" d="M743.006,438.263c0.196,5.781,4.729,8.277,9.853,8.277c3.745,0,6.438-0.525,8.868-1.445l1.183,5.584
					c-2.759,1.116-6.568,1.971-11.167,1.971c-10.379,0-16.488-6.372-16.488-16.16c0-8.868,5.387-17.21,15.635-17.21
					c10.378,0,13.794,8.539,13.794,15.568c0,1.511-0.131,2.693-0.263,3.415H743.006z M757.062,432.614
					c0.066-2.956-1.248-7.817-6.634-7.817c-4.993,0-7.095,4.532-7.423,7.817H757.062z"/>
			</g>
		</g>
		<rect x="553" y="499" fill-rule="evenodd" clip-rule="evenodd" fill="#DADADA" width="182" height="36"/>
	</g>
	<g>
		
			<line fill="none" stroke="#6176F6" stroke-width="15" stroke-linecap="round" stroke-miterlimit="10" x1="988" y1="446.5" x2="1111" y2="446.5"/>
		<polyline fill="none" stroke="#6176F6" stroke-width="15" stroke-linecap="round" stroke-miterlimit="10" points="
			1090.922,414.227 1122.773,446.078 1090.578,478.273 		"/>
	</g>
	<g>
		
			<path fill-rule="evenodd" clip-rule="evenodd" fill="none" stroke="#6176F6" stroke-width="15" stroke-linecap="round" stroke-linejoin="round" stroke-miterlimit="10" d="
			M188.617,103.555c22.196-24.675,54.374-40.19,90.174-40.19c66.816,0,121.209,54.046,121.443,120.81"/>
		<polyline fill="none" stroke="#6176F6" stroke-width="15" stroke-linecap="round" stroke-miterlimit="10" points="
			431.773,166.422 399.922,198.273 367.727,166.078 		"/>
	</g>
	<g>
		<path fill-rule="evenodd" clip-rule="evenodd" fill="#FFFFFF" d="M199,189.1V354c0,9.35-7.65,17-17,17H17c-9.35,0-17-7.65-17-17
			V148c0-9.35,7.65-17,17-17h123.91L199,189.1z"/>
		<path fill-rule="evenodd" clip-rule="evenodd" fill="#C6C6C6" d="M141,172.1V131l58,58h-41.09C148.561,189,141,181.449,141,172.1z
			"/>
		<g>
			<path fill="#706F6F" d="M74.164,233.37v8.492h7.148v5.621h-7.148v13.136c0,3.604,0.979,5.499,3.85,5.499
				c1.283,0,2.26-0.184,2.933-0.367l0.122,5.743c-1.1,0.428-3.055,0.733-5.438,0.733c-2.75,0-5.071-0.917-6.477-2.444
				c-1.588-1.71-2.321-4.399-2.321-8.309v-13.991h-4.276v-5.621h4.276v-6.721L74.164,233.37z"/>
			<path fill="#706F6F" d="M92.003,241.862l3.544,5.621c0.978,1.588,1.833,3.055,2.688,4.582h0.184
				c0.855-1.649,1.711-3.177,2.566-4.705l3.299-5.499h8.188l-9.959,14.296l10.143,15.458h-8.493l-3.665-5.926
				c-0.979-1.588-1.834-3.177-2.689-4.827h-0.121c-0.855,1.711-1.711,3.177-2.688,4.827l-3.421,5.926h-8.31l10.325-15.152
				l-9.959-14.602H92.003z"/>
			<path fill="#706F6F" d="M126.58,233.37v8.492h7.148v5.621h-7.148v13.136c0,3.604,0.978,5.499,3.85,5.499
				c1.282,0,2.26-0.184,2.932-0.367l0.123,5.743c-1.1,0.428-3.055,0.733-5.438,0.733c-2.75,0-5.071-0.917-6.477-2.444
				c-1.589-1.71-2.322-4.399-2.322-8.309v-13.991h-4.276v-5.621h4.276v-6.721L126.58,233.37z"/>
		</g>
	</g>
	<g>
		<g>
			<path fill-rule="evenodd" clip-rule="evenodd" fill="#C6C6C6" d="M1915,382c0,9.389-7.611,17-17,17h-684c-9.389,0-17-7.611-17-17
				V17c0-9.389,7.611-17,17-17h684c9.389,0,17,7.611,17,17V382z"/>
		</g>
		<rect x="1197" y="70" fill-rule="evenodd" clip-rule="evenodd" fill="#FFFFFF" width="718" height="587"/>
		<circle fill-rule="evenodd" clip-rule="evenodd" fill="#878787" cx="1228" cy="36" r="11.044"/>
		<circle fill-rule="evenodd" clip-rule="evenodd" fill="#878787" cx="1261" cy="36" r="11.044"/>
		<circle fill-rule="evenodd" clip-rule="evenodd" fill="#878787" cx="1293" cy="36" r="11.044"/>
		<g>
			<path fill-rule="evenodd" clip-rule="evenodd" fill="#FFFFFF" d="M1891,36c0,9.389-7.611,17-17,17h-529c-9.389,0-17-7.611-17-17
				l0,0c0-9.389,7.611-17,17-17h529C1883.389,19,1891,26.611,1891,36L1891,36z"/>
		</g>
		<g>
			<rect x="1411" y="133" fill-rule="evenodd" clip-rule="evenodd" fill="#706F6F" width="288" height="31"/>
			<rect x="1442" y="181" fill-rule="evenodd" clip-rule="evenodd" fill="#B2B2B2" width="225" height="18"/>
			<rect x="1359" y="262" fill-rule="evenodd" clip-rule="evenodd" fill="#706F6F" width="223" height="18"/>
			<rect x="1359" y="298" fill-rule="evenodd" clip-rule="evenodd" fill="#706F6F" width="391" height="18"/>
			<rect x="1359" y="334" fill-rule="evenodd" clip-rule="evenodd" fill="#706F6F" width="120" height="18"/>
			<rect x="1569" y="370" fill-rule="evenodd" clip-rule="evenodd" fill="#706F6F" width="181" height="18"/>
			<rect x="1359" y="370" fill-rule="evenodd" clip-rule="evenodd" fill="#706F6F" width="196" height="18"/>
			<rect x="1439" y="406" fill-rule="evenodd" clip-rule="evenodd" fill="#706F6F" width="234" height="18"/>
			<rect x="1359" y="406" fill-rule="evenodd" clip-rule="evenodd" fill="#706F6F" width="66" height="18"/>
			<rect x="1359" y="442" fill-rule="evenodd" clip-rule="evenodd" fill="#706F6F" width="195" height="18"/>
			<rect x="1359" y="478" fill-rule="evenodd" clip-rule="evenodd" fill="#706F6F" width="225" height="18"/>
			<rect x="1359" y="514" fill-rule="evenodd" clip-rule="evenodd" fill="#6176F6" width="114" height="18"/>
			<rect x="1359" y="550" fill-rule="evenodd" clip-rule="evenodd" fill="#706F6F" width="196" height="18"/>
			<rect x="1493" y="334" fill-rule="evenodd" clip-rule="evenodd" fill="#6176F6" width="206" height="18"/>
			<rect x="1598" y="478" fill-rule="evenodd" clip-rule="evenodd" fill="#706F6F" width="83" height="18"/>
			<rect x="1487" y="514" fill-rule="evenodd" clip-rule="evenodd" fill="#706F6F" width="264" height="18"/>
		</g>
	</g>
	<g>
		<g>
			<path fill-rule="evenodd" clip-rule="evenodd" fill="#C6C6C6" d="M2098,640c0,9.389-7.611,17-17,17h-331c-9.389,0-17-7.611-17-17
				V163c0-9.389,7.611-17,17-17h331c9.389,0,17,7.611,17,17V640z"/>
		</g>
		<rect x="1749" y="199" fill-rule="evenodd" clip-rule="evenodd" fill="#FFFFFF" width="331" height="389"/>
		<circle fill-rule="evenodd" clip-rule="evenodd" fill="#9D9D9C" cx="1915" cy="623" r="15.668"/>
		<circle fill-rule="evenodd" clip-rule="evenodd" fill="#9D9D9C" cx="1915" cy="174" r="6.108"/>
		<g>
			<rect x="1825" y="254" fill-rule="evenodd" clip-rule="evenodd" fill="#706F6F" width="181" height="19"/>
			<rect x="1844" y="284" fill-rule="evenodd" clip-rule="evenodd" fill="#B2B2B2" width="142" height="12"/>
			<rect x="1792" y="335" fill-rule="evenodd" clip-rule="evenodd" fill="#706F6F" width="140" height="12"/>
			<rect x="1792" y="358" fill-rule="evenodd" clip-rule="evenodd" fill="#706F6F" width="245" height="12"/>
			<rect x="1792" y="381" fill-rule="evenodd" clip-rule="evenodd" fill="#706F6F" width="75" height="11"/>
			<rect x="1924" y="404" fill-rule="evenodd" clip-rule="evenodd" fill="#706F6F" width="113" height="11"/>
			<rect x="1792" y="404" fill-rule="evenodd" clip-rule="evenodd" fill="#706F6F" width="123" height="11"/>
			<rect x="1842" y="426" fill-rule="evenodd" clip-rule="evenodd" fill="#706F6F" width="147" height="11"/>
			<rect x="1792" y="426" fill-rule="evenodd" clip-rule="evenodd" fill="#706F6F" width="42" height="11"/>
			<rect x="1792" y="449" fill-rule="evenodd" clip-rule="evenodd" fill="#706F6F" width="122" height="12"/>
			<rect x="1792" y="471" fill-rule="evenodd" clip-rule="evenodd" fill="#706F6F" width="141" height="12"/>
			<rect x="1793" y="494" fill-rule="evenodd" clip-rule="evenodd" fill="#6176F6" width="71" height="10"/>
			<rect x="1792" y="516" fill-rule="evenodd" clip-rule="evenodd" fill="#706F6F" width="123" height="12"/>
			<rect x="1876" y="380" fill-rule="evenodd" clip-rule="evenodd" fill="#6176F6" width="130" height="12"/>
			<rect x="1942" y="471" fill-rule="evenodd" clip-rule="evenodd" fill="#706F6F" width="52" height="12"/>
			<rect x="1872" y="494" fill-rule="evenodd" clip-rule="evenodd" fill="#706F6F" width="166" height="12"/>
		</g>
	</g>
</g>
</svg>
