<?xml version="1.0" encoding="utf-8"?>
<!-- Generator: Adobe Illustrator 16.0.0, SVG Export Plug-In . SVG Version: 6.00 Build 0)  -->
<!DOCTYPE svg PUBLIC "-//W3C//DTD SVG 1.1//EN" "http://www.w3.org/Graphics/SVG/1.1/DTD/svg11.dtd">
<svg version="1.1" id="Ebene_1" xmlns="http://www.w3.org/2000/svg" xmlns:xlink="http://www.w3.org/1999/xlink" x="0px" y="0px"
	 width="1024px" height="1024px" viewBox="0 0 1024 1024" enable-background="new 0 0 1024 1024" xml:space="preserve">
<g>
	<g>
		<rect x="535" y="992" fill-rule="evenodd" clip-rule="evenodd" fill="#373A3B" width="19" height="21"/>
		<rect x="778" y="90" fill-rule="evenodd" clip-rule="evenodd" fill="#373A3B" width="19" height="21"/>
		<rect x="797" y="308" fill-rule="evenodd" clip-rule="evenodd" fill="#373A3B" width="32" height="32"/>
		<rect x="208" y="509" fill-rule="evenodd" clip-rule="evenodd" fill="#373A3B" width="21" height="21"/>
		<rect x="23" y="43" fill-rule="evenodd" clip-rule="evenodd" fill="#373A3B" width="21" height="21"/>
		<rect x="594" y="72" fill-rule="evenodd" clip-rule="evenodd" fill="#373A3B" width="21" height="22"/>
		<rect x="862" y="889" fill-rule="evenodd" clip-rule="evenodd" fill="#373A3B" width="22" height="20"/>
		<rect x="108" y="827" fill-rule="evenodd" clip-rule="evenodd" fill="#373A3B" width="33" height="33"/>
		<rect x="538" y="347" fill-rule="evenodd" clip-rule="evenodd" fill="#373A3B" width="33" height="33"/>
		<rect x="443" y="789" fill-rule="evenodd" clip-rule="evenodd" fill="#373A3B" width="33" height="33"/>
		<rect x="735" y="680" fill-rule="evenodd" clip-rule="evenodd" fill="#373A3B" width="33" height="33"/>
		<rect x="929" y="166" fill-rule="evenodd" clip-rule="evenodd" fill="#373A3B" width="34" height="34"/>
		<rect x="201" fill-rule="evenodd" clip-rule="evenodd" fill="#373A3B" width="34" height="33"/>
		<rect x="722" y="446" fill-rule="evenodd" clip-rule="evenodd" fill="#373A3B" width="14" height="14"/>
		<rect x="608" y="805" fill-rule="evenodd" clip-rule="evenodd" fill="#373A3B" width="14" height="14"/>
		<rect x="935" y="680" fill-rule="evenodd" clip-rule="evenodd" fill="#373A3B" width="14" height="13"/>
		<rect x="925" y="998" fill-rule="evenodd" clip-rule="evenodd" fill="#373A3B" width="14" height="15"/>
		<rect x="1002" y="428" fill-rule="evenodd" clip-rule="evenodd" fill="#373A3B" width="15" height="14"/>
		<rect x="75" y="659" fill-rule="evenodd" clip-rule="evenodd" fill="#373A3B" width="13" height="14"/>
		<rect x="282" y="965" fill-rule="evenodd" clip-rule="evenodd" fill="#373A3B" width="14" height="14"/>
		<rect x="740" y="929" fill-rule="evenodd" clip-rule="evenodd" fill="#373A3B" width="23" height="24"/>
		<rect x="808" y="510" fill-rule="evenodd" clip-rule="evenodd" fill="#373A3B" width="23" height="23"/>
		<rect x="369" y="536" fill-rule="evenodd" clip-rule="evenodd" fill="#373A3B" width="23" height="23"/>
		<rect x="242" y="287" fill-rule="evenodd" clip-rule="evenodd" fill="#373A3B" width="23" height="23"/>
		<rect x="409" y="234" fill-rule="evenodd" clip-rule="evenodd" fill="#373A3B" width="23" height="23"/>
		<rect x="991" y="837" fill-rule="evenodd" clip-rule="evenodd" fill="#373A3B" width="23" height="23"/>
		<rect x="320" y="406" fill-rule="evenodd" clip-rule="evenodd" fill="#373A3B" width="13" height="13"/>
		<rect y="503" fill-rule="evenodd" clip-rule="evenodd" fill="#373A3B" width="13" height="13"/>
		<rect x="138" y="176" fill-rule="evenodd" clip-rule="evenodd" fill="#373A3B" width="13" height="13"/>
		<rect x="660" y="263" fill-rule="evenodd" clip-rule="evenodd" fill="#373A3B" width="13" height="13"/>
		<rect x="441" y="76" fill-rule="evenodd" clip-rule="evenodd" fill="#373A3B" width="13" height="13"/>
		<rect x="236" y="775" fill-rule="evenodd" clip-rule="evenodd" fill="#373A3B" width="13" height="13"/>
		<rect x="529" y="547" fill-rule="evenodd" clip-rule="evenodd" fill="#373A3B" width="13" height="13"/>
		<rect x="667" y="588" fill-rule="evenodd" clip-rule="evenodd" fill="#373A3B" width="13" height="13"/>
		<rect x="354" y="640" fill-rule="evenodd" clip-rule="evenodd" fill="#373A3B" width="13" height="15"/>
		<rect x="68" y="1009" fill-rule="evenodd" clip-rule="evenodd" fill="#373A3B" width="14" height="14"/>
		<rect x="81" y="333" fill-rule="evenodd" clip-rule="evenodd" fill="#373A3B" width="14" height="14"/>
	</g>
	<g>
		<rect x="9" y="463" fill-rule="evenodd" clip-rule="evenodd" fill="#FFFFFF" width="21" height="19"/>
		<rect x="911" y="220" fill-rule="evenodd" clip-rule="evenodd" fill="#FFFFFF" width="21" height="19"/>
		<rect x="682" y="188" fill-rule="evenodd" clip-rule="evenodd" fill="#FFFFFF" width="32" height="32"/>
		<rect x="492" y="788" fill-rule="evenodd" clip-rule="evenodd" fill="#FFFFFF" width="21" height="21"/>
		<rect x="958" y="973" fill-rule="evenodd" clip-rule="evenodd" fill="#FFFFFF" width="21" height="21"/>
		<rect x="928" y="402" fill-rule="evenodd" clip-rule="evenodd" fill="#FFFFFF" width="22" height="21"/>
		<rect x="113" y="133" fill-rule="evenodd" clip-rule="evenodd" fill="#FFFFFF" width="20" height="22"/>
		<rect x="162" y="876" fill-rule="evenodd" clip-rule="evenodd" fill="#FFFFFF" width="33" height="33"/>
		<rect x="642" y="446" fill-rule="evenodd" clip-rule="evenodd" fill="#FFFFFF" width="33" height="33"/>
		<rect x="200" y="541" fill-rule="evenodd" clip-rule="evenodd" fill="#FFFFFF" width="33" height="33"/>
		<rect x="309" y="249" fill-rule="evenodd" clip-rule="evenodd" fill="#FFFFFF" width="33" height="33"/>
		<rect x="822" y="54" fill-rule="evenodd" clip-rule="evenodd" fill="#FFFFFF" width="34" height="34"/>
		<rect x="989" y="782" fill-rule="evenodd" clip-rule="evenodd" fill="#FFFFFF" width="33" height="34"/>
		<rect x="562" y="281" fill-rule="evenodd" clip-rule="evenodd" fill="#FFFFFF" width="14" height="14"/>
		<rect x="203" y="395" fill-rule="evenodd" clip-rule="evenodd" fill="#FFFFFF" width="14" height="14"/>
		<rect x="329" y="68" fill-rule="evenodd" clip-rule="evenodd" fill="#FFFFFF" width="13" height="14"/>
		<rect x="9" y="78" fill-rule="evenodd" clip-rule="evenodd" fill="#FFFFFF" width="15" height="14"/>
		<rect x="580" fill-rule="evenodd" clip-rule="evenodd" fill="#FFFFFF" width="14" height="15"/>
		<rect x="349" y="929" fill-rule="evenodd" clip-rule="evenodd" fill="#FFFFFF" width="14" height="13"/>
		<rect x="43" y="721" fill-rule="evenodd" clip-rule="evenodd" fill="#FFFFFF" width="14" height="14"/>
		<rect x="69" y="254" fill-rule="evenodd" clip-rule="evenodd" fill="#FFFFFF" width="24" height="23"/>
		<rect x="489" y="186" fill-rule="evenodd" clip-rule="evenodd" fill="#FFFFFF" width="23" height="23"/>
		<rect x="463" y="625" fill-rule="evenodd" clip-rule="evenodd" fill="#FFFFFF" width="23" height="23"/>
		<rect x="712" y="752" fill-rule="evenodd" clip-rule="evenodd" fill="#FFFFFF" width="23" height="23"/>
		<rect x="765" y="585" fill-rule="evenodd" clip-rule="evenodd" fill="#FFFFFF" width="23" height="23"/>
		<rect x="162" y="3" fill-rule="evenodd" clip-rule="evenodd" fill="#FFFFFF" width="23" height="23"/>
		<rect x="603" y="684" fill-rule="evenodd" clip-rule="evenodd" fill="#FFFFFF" width="13" height="13"/>
		<rect x="506" y="1004" fill-rule="evenodd" clip-rule="evenodd" fill="#FFFFFF" width="13" height="13"/>
		<rect x="833" y="866" fill-rule="evenodd" clip-rule="evenodd" fill="#FFFFFF" width="13" height="13"/>
		<rect x="746" y="344" fill-rule="evenodd" clip-rule="evenodd" fill="#FFFFFF" width="13" height="13"/>
		<rect x="933" y="563" fill-rule="evenodd" clip-rule="evenodd" fill="#FFFFFF" width="13" height="13"/>
		<rect x="234" y="768" fill-rule="evenodd" clip-rule="evenodd" fill="#FFFFFF" width="13" height="13"/>
		<rect x="462" y="475" fill-rule="evenodd" clip-rule="evenodd" fill="#FFFFFF" width="13" height="13"/>
		<rect x="421" y="337" fill-rule="evenodd" clip-rule="evenodd" fill="#FFFFFF" width="13" height="13"/>
		<rect x="367" y="650" fill-rule="evenodd" clip-rule="evenodd" fill="#FFFFFF" width="15" height="13"/>
		<rect x="-1" y="935" fill-rule="evenodd" clip-rule="evenodd" fill="#FFFFFF" width="14" height="14"/>
		<rect x="675" y="922" fill-rule="evenodd" clip-rule="evenodd" fill="#FFFFFF" width="14" height="14"/>
	</g>
</g>
</svg>
