<?xml version="1.0" encoding="utf-8"?>
<!-- Generator: Adobe Illustrator 17.0.2, SVG Export Plug-In . SVG Version: 6.00 Build 0)  -->
<!DOCTYPE svg PUBLIC "-//W3C//DTD SVG 1.1//EN" "http://www.w3.org/Graphics/SVG/1.1/DTD/svg11.dtd">
<svg version="1.1" id="Ebene_1" xmlns="http://www.w3.org/2000/svg" xmlns:xlink="http://www.w3.org/1999/xlink" x="0px" y="0px"
	 width="1600px" height="800px" viewBox="0 0 1600 800" enable-background="new 0 0 1600 800" xml:space="preserve">
<line fill="none" stroke="#C6C6C6" stroke-miterlimit="10" x1="395.5" y1="280" x2="395.5" y2="480"/>
<line fill="none" stroke="#C6C6C6" stroke-miterlimit="10" x1="133.5" y1="49" x2="133.5" y2="249"/>
<line fill="none" stroke="#C6C6C6" stroke-miterlimit="10" x1="79.5" y1="-41" x2="79.5" y2="159"/>
<line fill="none" stroke="#C6C6C6" stroke-miterlimit="10" x1="1007.762" y1="350.5" x2="1007.762" y2="550.5"/>
<line fill="none" stroke="#C6C6C6" stroke-miterlimit="10" x1="1059.762" y1="249.5" x2="1059.762" y2="449.5"/>
<line fill="none" stroke="#C6C6C6" stroke-miterlimit="10" x1="1153.5" y1="-54" x2="1153.5" y2="146"/>
<line fill="none" stroke="#C6C6C6" stroke-miterlimit="10" x1="1202.5" y1="51" x2="1202.5" y2="251"/>
<line fill="none" stroke="#C6C6C6" stroke-miterlimit="10" x1="1228.749" y1="480" x2="1228.749" y2="680"/>
<line fill="none" stroke="#C6C6C6" stroke-miterlimit="10" x1="825.781" y1="440" x2="825.781" y2="640"/>
<line fill="none" stroke="#C6C6C6" stroke-miterlimit="10" x1="1530.5" y1="622" x2="1530.5" y2="822"/>
<line fill="none" stroke="#C6C6C6" stroke-miterlimit="10" x1="955.5" y1="718" x2="955.5" y2="918"/>
<line fill="none" stroke="#C6C6C6" stroke-miterlimit="10" x1="1421.5" y1="250" x2="1421.5" y2="450"/>
<line fill="none" stroke="#C6C6C6" stroke-miterlimit="10" x1="1473.5" y1="150" x2="1473.5" y2="350"/>
<line fill="none" stroke="#C6C6C6" stroke-miterlimit="10" x1="724.389" y1="127.602" x2="724.389" y2="327.602"/>
<line fill="none" stroke="#C6C6C6" stroke-miterlimit="10" x1="577.5" y1="-17.802" x2="577.5" y2="182.198"/>
<line fill="none" stroke="#C6C6C6" stroke-miterlimit="10" x1="525.5" y1="540" x2="525.5" y2="740"/>
<line fill="none" stroke="#C6C6C6" stroke-miterlimit="10" x1="581.5" y1="637" x2="581.5" y2="837"/>
<line fill="none" stroke="#C6C6C6" stroke-miterlimit="10" x1="174.5" y1="488.5" x2="174.5" y2="688.5"/>
<line fill="none" stroke="#C6C6C6" stroke-miterlimit="10" x1="223.5" y1="529.5" x2="223.5" y2="729.5"/>
</svg>
