<?xml version="1.0" encoding="utf-8"?>
<!-- Generator: Adobe Illustrator 16.0.0, SVG Export Plug-In . SVG Version: 6.00 Build 0)  -->
<!DOCTYPE svg PUBLIC "-//W3C//DTD SVG 1.1//EN" "http://www.w3.org/Graphics/SVG/1.1/DTD/svg11.dtd">
<svg version="1.1" id="Ebene_1" xmlns="http://www.w3.org/2000/svg" xmlns:xlink="http://www.w3.org/1999/xlink" x="0px" y="0px"
	 width="990.986px" height="310.646px" viewBox="0 0 990.986 310.646" enable-background="new 0 0 990.986 310.646"
	 xml:space="preserve">
<g>
	<g>
		<path fill="#6176F6" d="M80.401,137.286c-0.25-2.25-1.95-3.6-5.301-3.6c-2.399,0-4.75,0.899-7.55,2.3l-2.601-4.801
			c3.4-1.95,7.351-3.35,11.601-3.35c6.95,0,11.201,3.6,11.201,11.2v14.201h-6.001l-0.55-2.8h-0.2c-2.5,1.899-5.601,3.399-8.8,3.399
			c-5.001,0-8.151-3.3-8.151-7.5C64.05,140.786,68.65,137.986,80.401,137.286z M74.551,148.137c2.2,0,4.101-1,5.851-2.35v-4.101
			c-7.301,0.4-9.301,1.95-9.301,4.101C71.101,147.387,72.451,148.137,74.551,148.137z"/>
		<path fill="#6176F6" d="M101.051,117.835h14.751v3.9h-9.15v35.202h9.15v3.9h-14.751V117.835z"/>
		<path fill="#3C3C3B" d="M125.399,117.785h4.95v9.4l-0.3,5.501c2.45-2.501,5.2-4.501,9-4.501c5.7,0,8.301,3.551,8.301,9.9v15.151
			h-4.95v-14.501c0-4.25-1.4-6.25-5.101-6.25c-2.6,0-4.45,1.3-6.95,3.9v16.851h-4.95V117.785z"/>
		<path fill="#3C3C3B" d="M160.899,132.786h-6.7v-3.75l6.9-0.25l0.65-6.751h4.1v6.751H177.4v4H165.85v10.801
			c0,4.2,1.45,6.25,5.9,6.25c2.15,0,3.95-0.399,5.601-1.05l1,3.65c-2.2,0.75-5,1.399-7.75,1.399c-7.251,0-9.701-4.149-9.701-10.25
			V132.786z"/>
		<path fill="#3C3C3B" d="M190.898,132.786h-6.7v-3.75l6.9-0.25l0.65-6.751h4.1v6.751h11.551v4h-11.551v10.801
			c0,4.2,1.45,6.25,5.9,6.25c2.15,0,3.95-0.399,5.601-1.05l1,3.65c-2.2,0.75-5,1.399-7.75,1.399c-7.251,0-9.701-4.149-9.701-10.25
			V132.786z"/>
		<path fill="#3C3C3B" d="M220.349,155.237v8.001h-4.95v-34.452h4.05l0.4,3h0.15c2.2-2.101,5.25-3.601,8.15-3.601
			c6.45,0,10.05,4.9,10.05,12.451c0,8.351-5.25,13.2-11,13.2c-2.25,0-4.9-1.1-7.001-3L220.349,155.237z M226.249,149.737
			c3.9,0,6.851-3.25,6.851-9.051c0-5.101-1.9-8.351-6.301-8.351c-2,0-4.25,1-6.45,3.3v11.551
			C222.398,149.037,224.699,149.737,226.249,149.737z"/>
		<path fill="#3C3C3B" d="M255.998,127.086c2.55,0,4.5,1.95,4.5,4.65s-1.95,4.65-4.5,4.65s-4.5-1.95-4.5-4.65
			S253.448,127.086,255.998,127.086z M255.998,144.537c2.55,0,4.5,1.95,4.5,4.65c0,2.75-1.95,4.649-4.5,4.649s-4.5-1.899-4.5-4.649
			C251.498,146.487,253.448,144.537,255.998,144.537z"/>
		<path fill="#3C3C3B" d="M279.947,161.237h-4.3l16.401-43.502h4.3L279.947,161.237z"/>
		<path fill="#3C3C3B" d="M309.946,161.237h-4.3l16.401-43.502h4.3L309.946,161.237z"/>
		<path fill="#3C3C3B" d="M352.048,137.687c-0.15-3-1.751-5.45-6.101-5.45c-3,0-5.9,1.35-8.301,2.75l-1.85-3.351
			c2.699-1.649,6.75-3.45,11-3.45c6.751,0,10.201,3.9,10.201,10.351v14.701h-4.051l-0.399-3.15h-0.15c-2.601,2-6,3.75-9.351,3.75
			c-4.7,0-8.251-2.75-8.251-7.05C334.796,141.286,339.747,138.637,352.048,137.687z M344.447,149.887c2.6,0,5.1-1.199,7.601-3.25
			v-5.8c-9.601,0.75-12.451,2.649-12.451,5.6C339.597,148.887,341.797,149.887,344.447,149.887z"/>
		<path fill="#3C3C3B" d="M361.345,128.786h4.951l2.6,13.4c0.45,2.351,0.75,4.601,1.101,6.95h0.199c0.4-2.35,0.851-4.65,1.351-6.95
			l2.6-11.45h3.9l2.7,11.45c0.5,2.351,0.95,4.601,1.4,6.95h0.2c0.45-2.35,0.7-4.6,1.1-6.95l2.601-13.4h4.6l-4.899,24.451h-5.9
			l-2.501-11.251c-0.449-2.3-0.8-4.6-1.25-7.101h-0.199c-0.351,2.001-0.65,4.15-1.2,7.15l-2.45,11.201h-5.801L361.345,128.786z"/>
		<path fill="#3C3C3B" d="M391.345,128.786h4.951l2.6,13.4c0.45,2.351,0.75,4.601,1.101,6.95h0.199c0.4-2.35,0.851-4.65,1.351-6.95
			l2.6-11.45h3.9l2.7,11.45c0.5,2.351,0.95,4.601,1.4,6.95h0.2c0.45-2.35,0.7-4.6,1.1-6.95l2.601-13.4h4.6l-4.899,24.451h-5.9
			l-2.501-11.251c-0.449-2.3-0.8-4.6-1.25-7.101h-0.199c-0.351,2.001-0.65,4.15-1.2,7.15l-2.45,11.201h-5.801L391.345,128.786z"/>
		<path fill="#3C3C3B" d="M442.046,137.687c-0.15-3-1.751-5.45-6.101-5.45c-3,0-5.9,1.35-8.301,2.75l-1.85-3.351
			c2.699-1.649,6.75-3.45,11-3.45c6.751,0,10.201,3.9,10.201,10.351v14.701h-4.051l-0.399-3.15h-0.15c-2.601,2-6,3.75-9.351,3.75
			c-4.7,0-8.251-2.75-8.251-7.05C424.794,141.286,429.745,138.637,442.046,137.687z M434.445,149.887c2.6,0,5.1-1.199,7.601-3.25
			v-5.8c-9.601,0.75-12.451,2.649-12.451,5.6C429.595,148.887,431.795,149.887,434.445,149.887z"/>
		<path fill="#3C3C3B" d="M460.345,155.237v8.001h-4.95v-34.452h4.05l0.4,3h0.15c2.2-2.101,5.25-3.601,8.15-3.601
			c6.45,0,10.05,4.9,10.05,12.451c0,8.351-5.25,13.2-11,13.2c-2.25,0-4.9-1.1-7.001-3L460.345,155.237z M466.245,149.737
			c3.9,0,6.851-3.25,6.851-9.051c0-5.101-1.9-8.351-6.301-8.351c-2,0-4.25,1-6.45,3.3v11.551
			C462.395,149.037,464.695,149.737,466.245,149.737z"/>
		<path fill="#3C3C3B" d="M490.344,155.237v8.001h-4.95v-34.452h4.05l0.4,3h0.15c2.199-2.101,5.25-3.601,8.15-3.601
			c6.45,0,10.051,4.9,10.051,12.451c0,8.351-5.251,13.2-11.001,13.2c-2.25,0-4.9-1.1-7.001-3L490.344,155.237z M496.244,149.737
			c3.9,0,6.851-3.25,6.851-9.051c0-5.101-1.9-8.351-6.301-8.351c-2,0-4.25,1-6.45,3.3v11.551
			C492.394,149.037,494.694,149.737,496.244,149.737z"/>
		<path fill="#3C3C3B" d="M516.693,146.837c2.75,1.95,5.7,3.2,9.751,3.2c4.15,0,6.05-1.45,6.05-3.351c0-1.8-2.149-3-7.55-4.35
			c-4.851-1.25-9.151-3.45-9.151-7.001c0-4.1,3.701-7.15,10.501-7.15c3.851,0,7.551,1.551,10.001,3.2l-2.301,3.101
			c-2.199-1.45-4.75-2.5-7.65-2.5c-4.15,0-5.55,1.35-5.55,3.1c0,1.851,2.95,2.95,7.15,4.001c6.101,1.55,9.551,3.45,9.551,7.3
			c0,4.101-4.001,7.45-11.201,7.45c-4.65,0-8.95-1.75-11.95-3.8L516.693,146.837z"/>
		<path fill="#3C3C3B" d="M555.993,144.537c2.55,0,4.5,1.95,4.5,4.65c0,2.75-1.95,4.649-4.5,4.649s-4.5-1.899-4.5-4.649
			C551.493,146.487,553.443,144.537,555.993,144.537z"/>
		<path fill="#3C3C3B" d="M588.543,128.186c4.001,0,7.001,1.551,9.001,3.5l-2.4,3.15c-1.95-1.6-3.95-2.55-6.351-2.55
			c-5.25,0-8.9,3.5-8.9,8.75c0,5.251,3.551,8.751,8.751,8.751c2.95,0,5.35-1.3,7.3-2.9l2.101,3.2c-2.75,2.4-6.251,3.75-9.801,3.75
			c-7.65,0-13.451-4.7-13.451-12.801C574.792,132.886,581.143,128.186,588.543,128.186z"/>
		<path fill="#3C3C3B" d="M615.993,128.186c6.4,0,12.2,4.7,12.2,12.851c0,8.101-5.8,12.801-12.2,12.801s-12.201-4.7-12.201-12.801
			C603.792,132.886,609.593,128.186,615.993,128.186z M615.993,149.787c4.351,0,7.101-3.5,7.101-8.751c0-5.25-2.75-8.75-7.101-8.75
			s-7.101,3.5-7.101,8.75C608.893,146.287,611.643,149.787,615.993,149.787z"/>
		<path fill="#3C3C3B" d="M633.691,128.786h3.8l0.4,3.2h0.15c1.149-2.2,2.6-3.801,5.4-3.801c2.399,0,3.95,1.4,4.55,4.15
			c1.3-2.45,2.95-4.15,5.65-4.15c3.4,0,5.351,2.75,5.351,7.65v17.401h-4.7v-17.001c0-2.5-0.7-3.75-2.301-3.75
			c-1.55,0-2.6,1.1-3.7,3.35v17.401h-3.9v-17.001c0-2.5-0.8-3.75-2.399-3.75c-1.5,0-2.5,1.1-3.601,3.35v17.401h-4.7V128.786z"/>
		<path fill="#6176F6" d="M675.342,156.938v-35.202h-9.101v-3.9h14.751v43.003h-14.751v-3.9H675.342z"/>
		<path fill="#6176F6" d="M701.041,117.835h14.751v3.9h-9.15v35.202h9.15v3.9h-14.751V117.835z"/>
		<path fill="#3C3C3B" d="M741.592,143.837H730.19l-2.8,9.4h-5.101l10.801-32.752h5.801l10.801,32.752h-5.301L741.592,143.837z
			 M740.441,139.887l-1.35-4.501c-1.051-3.55-2.101-7.25-3.101-10.9h-0.2c-0.95,3.7-2,7.351-3.05,10.9l-1.351,4.501H740.441z"/>
		<path fill="#3C3C3B" d="M751.339,128.786h4.951l2.6,13.4c0.45,2.351,0.75,4.601,1.101,6.95h0.199c0.4-2.35,0.851-4.65,1.351-6.95
			l2.6-11.45h3.9l2.7,11.45c0.5,2.351,0.95,4.601,1.4,6.95h0.2c0.45-2.35,0.7-4.6,1.1-6.95l2.601-13.4h4.6l-4.899,24.451h-5.9
			l-2.501-11.251c-0.449-2.3-0.8-4.6-1.25-7.101h-0.199c-0.351,2.001-0.65,4.15-1.2,7.15l-2.45,11.201h-5.801L751.339,128.786z"/>
		<path fill="#3C3C3B" d="M781.339,128.786h4.951l2.6,13.4c0.45,2.351,0.75,4.601,1.101,6.95h0.199c0.4-2.35,0.851-4.65,1.351-6.95
			l2.6-11.45h3.9l2.7,11.45c0.5,2.351,0.95,4.601,1.4,6.95h0.2c0.45-2.35,0.7-4.6,1.1-6.95l2.601-13.4h4.6l-4.899,24.451h-5.9
			l-2.501-11.251c-0.449-2.3-0.8-4.6-1.25-7.101h-0.199c-0.351,2.001-0.65,4.15-1.2,7.15l-2.45,11.201h-5.801L781.339,128.786z"/>
		<path fill="#3C3C3B" d="M861.59,143.837h-11.401l-2.8,9.4h-5.101l10.801-32.752h5.801l10.801,32.752h-5.301L861.59,143.837z
			 M860.439,139.887l-1.35-4.501c-1.051-3.55-2.101-7.25-3.101-10.9h-0.2c-0.95,3.7-2,7.351-3.05,10.9l-1.351,4.501H860.439z"/>
		<path fill="#3C3C3B" d="M880.338,155.237v8.001h-4.95v-34.452h4.05l0.4,3h0.15c2.199-2.101,5.25-3.601,8.15-3.601
			c6.45,0,10.051,4.9,10.051,12.451c0,8.351-5.251,13.2-11.001,13.2c-2.25,0-4.9-1.1-7.001-3L880.338,155.237z M886.238,149.737
			c3.9,0,6.851-3.25,6.851-9.051c0-5.101-1.9-8.351-6.301-8.351c-2,0-4.25,1-6.45,3.3v11.551
			C882.388,149.037,884.688,149.737,886.238,149.737z"/>
		<path fill="#3C3C3B" d="M910.338,155.237v8.001h-4.95v-34.452h4.05l0.4,3h0.15c2.199-2.101,5.25-3.601,8.15-3.601
			c6.45,0,10.051,4.9,10.051,12.451c0,8.351-5.251,13.2-11.001,13.2c-2.25,0-4.9-1.1-7.001-3L910.338,155.237z M916.238,149.737
			c3.9,0,6.851-3.25,6.851-9.051c0-5.101-1.9-8.351-6.301-8.351c-2,0-4.25,1-6.45,3.3v11.551
			C912.388,149.037,914.688,149.737,916.238,149.737z"/>
		<path fill="#3C3C3B" d="M936.687,146.837c2.75,1.95,5.7,3.2,9.751,3.2c4.15,0,6.05-1.45,6.05-3.351c0-1.8-2.149-3-7.55-4.35
			c-4.851-1.25-9.15-3.45-9.15-7.001c0-4.1,3.7-7.15,10.5-7.15c3.851,0,7.551,1.551,10.001,3.2l-2.301,3.101
			c-2.2-1.45-4.75-2.5-7.65-2.5c-4.149,0-5.55,1.35-5.55,3.1c0,1.851,2.95,2.95,7.15,4.001c6.101,1.55,9.551,3.45,9.551,7.3
			c0,4.101-4.001,7.45-11.201,7.45c-4.65,0-8.95-1.75-11.95-3.8L936.687,146.837z"/>
		<path fill="#6176F6" d="M975.337,156.938v-35.202h-9.101v-3.9h14.751v43.003h-14.751v-3.9H975.337z"/>
	</g>
	<g>
		<path fill="#E489FF" d="M1.657,38.204c-0.331-0.663-0.441-1.261-0.331-1.796c0.11-0.533,0.34-0.957,0.69-1.271
			c0.35-0.312,0.801-0.47,1.354-0.47s1.123,0.203,1.713,0.608c0.847,1.068,1.851,1.897,3.011,2.485
			c1.16,0.59,2.403,0.939,3.729,1.05l1.16-0.331c0.294-0.221,0.497-0.368,0.607-0.442c0.11-0.073,0.193-0.138,0.249-0.193
			c0.056-0.055,0.129-0.138,0.221-0.248s0.249-0.312,0.47-0.608c0.073-0.146,0.129-0.294,0.166-0.441
			c0.036-0.146,0.092-0.312,0.166-0.497c0-0.185,0.008-0.35,0.027-0.498c0.018-0.146,0.027-0.312,0.027-0.497l-0.331-0.994
			c-0.11-0.146-0.23-0.294-0.359-0.442c-0.13-0.146-0.249-0.294-0.359-0.441c-0.921-0.589-1.842-1.013-2.763-1.271
			s-1.814-0.525-2.679-0.802c-0.866-0.276-1.713-0.635-2.542-1.077c-0.828-0.442-1.611-1.16-2.348-2.154
			c-0.7-0.885-1.077-1.906-1.133-3.066s0.129-2.274,0.553-3.343c0.423-1.068,1.05-2.017,1.878-2.846
			c0.829-0.828,1.777-1.354,2.846-1.574c1.547-0.368,3.121-0.405,4.724-0.11s3.103,0.811,4.503,1.547
			c0.663,0.479,1.05,1.022,1.16,1.63s0.027,1.133-0.249,1.574c-0.276,0.442-0.7,0.756-1.271,0.939
			c-0.571,0.185-1.225,0.093-1.961-0.276c-0.885-0.479-1.814-0.791-2.79-0.939c-0.977-0.146-1.962-0.146-2.956,0
			c-0.11,0.074-0.23,0.13-0.359,0.166c-0.129,0.037-0.248,0.093-0.359,0.166c-0.405,0.441-0.699,0.875-0.884,1.298
			c-0.185,0.424-0.258,0.949-0.221,1.575c0.036,0.147,0.129,0.368,0.276,0.663c0.11,0.147,0.221,0.275,0.331,0.387
			c0.11,0.11,0.222,0.239,0.332,0.387c0.884,0.479,1.851,0.856,2.9,1.132c1.05,0.276,2.071,0.59,3.066,0.939
			c0.994,0.351,1.914,0.811,2.763,1.382c0.847,0.571,1.51,1.408,1.988,2.514c0.884,2.1,1.022,4.033,0.415,5.801
			c-0.608,1.768-1.833,3.26-3.675,4.476c-0.479,0.294-1.013,0.543-1.602,0.745c-0.59,0.202-1.143,0.304-1.658,0.304
			c-1.988,0-3.941-0.451-5.855-1.354C4.383,41.087,2.836,39.825,1.657,38.204z"/>
		<path fill="#E489FF" d="M43.26,35.773c0.773-0.295,1.437-0.332,1.988-0.11c0.553,0.221,0.948,0.571,1.188,1.05
			c0.239,0.479,0.276,1.013,0.11,1.602c-0.166,0.59-0.599,1.087-1.299,1.492c-1.215,0.7-2.522,1.345-3.922,1.934
			c-1.4,0.589-2.818,0.994-4.255,1.215c-1.436,0.222-2.854,0.212-4.254-0.027c-1.4-0.24-2.744-0.801-4.033-1.685
			c-1.547-1.068-2.726-2.514-3.536-4.337s-1.234-3.721-1.271-5.691c-0.037-1.97,0.322-3.867,1.077-5.69s1.942-3.287,3.564-4.392
			c1.693-1.142,3.535-1.998,5.524-2.569s3.996-0.636,6.022-0.193c0.994,0.221,1.896,0.69,2.707,1.408
			c0.81,0.719,1.464,1.548,1.961,2.486c0.497,0.939,0.765,1.934,0.802,2.983c0.036,1.05-0.222,2.036-0.774,2.956
			c-0.626,1.031-1.528,1.906-2.707,2.624c-1.179,0.719-2.458,1.326-3.84,1.823c-1.381,0.497-2.762,0.912-4.144,1.243
			c-1.381,0.332-2.588,0.646-3.618,0.939c-0.442,0.11-0.866,0.13-1.271,0.056c0.553,1.179,1.372,2.146,2.459,2.9
			c1.086,0.755,2.439,1.077,4.061,0.967c1.289-0.073,2.588-0.433,3.896-1.077C41.003,37.035,42.19,36.4,43.26,35.773z
			 M32.486,24.005c-1.363,0.7-2.376,1.686-3.039,2.956s-0.994,2.606-0.994,4.006c0.257-0.185,0.533-0.332,0.828-0.442
			c0.663-0.184,1.335-0.377,2.017-0.58c0.682-0.202,1.372-0.396,2.072-0.58c0.442-0.11,1.04-0.276,1.796-0.497
			c0.754-0.221,1.537-0.479,2.348-0.773c0.81-0.295,1.547-0.636,2.21-1.022s1.105-0.819,1.326-1.298
			c0.073-1.216-0.221-2.044-0.884-2.486s-1.456-0.663-2.376-0.663c-0.921,0-1.879,0.157-2.873,0.47
			C33.923,23.407,33.112,23.711,32.486,24.005z"/>
		<path fill="#E489FF" d="M57.182,39.585c0.663,0.479,1.05,1.022,1.16,1.63c0.11,0.608,0.027,1.133-0.248,1.575
			c-0.276,0.441-0.7,0.754-1.271,0.939c-0.571,0.184-1.225,0.091-1.961-0.276c-0.331-0.222-0.663-0.442-0.994-0.663
			c-0.332-0.222-0.683-0.442-1.05-0.663c-0.332-0.295-0.553-0.57-0.663-0.829c-0.11-0.257-0.203-0.626-0.276-1.104V9.53
			c0.146-0.699,0.433-1.233,0.856-1.603c0.423-0.367,0.865-0.561,1.326-0.58c0.46-0.018,0.911,0.139,1.354,0.47
			c0.441,0.331,0.773,0.848,0.994,1.547v29.724c0.11,0.074,0.229,0.157,0.359,0.249C56.896,39.429,57.034,39.512,57.182,39.585z"/>
		<path fill="#E489FF" d="M81.823,35.773c0.773-0.295,1.437-0.332,1.988-0.11c0.553,0.221,0.948,0.571,1.188,1.05
			c0.239,0.479,0.276,1.013,0.11,1.602c-0.166,0.59-0.599,1.087-1.299,1.492c-1.215,0.7-2.522,1.345-3.922,1.934
			c-1.4,0.589-2.818,0.994-4.255,1.215c-1.436,0.222-2.854,0.212-4.254-0.027c-1.4-0.24-2.744-0.801-4.033-1.685
			c-1.547-1.068-2.726-2.514-3.536-4.337s-1.234-3.721-1.271-5.691c-0.037-1.97,0.322-3.867,1.077-5.69s1.942-3.287,3.564-4.392
			c1.693-1.142,3.535-1.998,5.524-2.569s3.996-0.636,6.022-0.193c0.994,0.221,1.896,0.69,2.707,1.408
			c0.81,0.719,1.464,1.548,1.961,2.486c0.497,0.939,0.765,1.934,0.802,2.983c0.036,1.05-0.222,2.036-0.774,2.956
			c-0.626,1.031-1.528,1.906-2.707,2.624c-1.179,0.719-2.458,1.326-3.84,1.823c-1.381,0.497-2.762,0.912-4.144,1.243
			c-1.381,0.332-2.588,0.646-3.618,0.939c-0.442,0.11-0.866,0.13-1.271,0.056c0.553,1.179,1.372,2.146,2.459,2.9
			c1.086,0.755,2.439,1.077,4.061,0.967c1.289-0.073,2.588-0.433,3.896-1.077C79.566,37.035,80.754,36.4,81.823,35.773z
			 M71.05,24.005c-1.363,0.7-2.376,1.686-3.039,2.956s-0.994,2.606-0.994,4.006c0.257-0.185,0.533-0.332,0.828-0.442
			c0.663-0.184,1.335-0.377,2.017-0.58c0.682-0.202,1.372-0.396,2.072-0.58c0.442-0.11,1.04-0.276,1.796-0.497
			c0.754-0.221,1.537-0.479,2.348-0.773c0.81-0.295,1.547-0.636,2.21-1.022s1.105-0.819,1.326-1.298
			c0.073-1.216-0.221-2.044-0.884-2.486s-1.456-0.663-2.376-0.663c-0.921,0-1.879,0.157-2.873,0.47
			C72.486,23.407,71.676,23.711,71.05,24.005z"/>
		<path fill="#E489FF" d="M104.695,36.271c0.625-0.516,1.242-0.755,1.851-0.719c0.607,0.037,1.096,0.24,1.464,0.608
			s0.57,0.856,0.607,1.464c0.036,0.607-0.202,1.225-0.718,1.851c-1.216,1.326-2.644,2.266-4.282,2.818
			c-1.639,0.552-3.26,0.708-4.861,0.469c-1.603-0.239-3.086-0.874-4.447-1.905c-1.363-1.031-2.376-2.432-3.039-4.199
			c-0.406-0.994-0.7-2.044-0.884-3.149c-0.185-1.104-0.24-2.19-0.166-3.26c0.11-1.768,0.524-3.544,1.243-5.331
			c0.718-1.786,1.693-3.343,2.928-4.669c1.234-1.325,2.688-2.293,4.365-2.9c1.676-0.607,3.508-0.598,5.497,0.027
			c0.994,0.332,1.896,0.737,2.707,1.216c0.81,0.479,1.583,1.087,2.32,1.823c0.405,0.59,0.608,1.16,0.608,1.713
			s-0.157,1.004-0.47,1.354c-0.313,0.351-0.737,0.58-1.271,0.69s-1.132,0-1.795-0.331c-1.216-1.216-2.395-1.942-3.536-2.183
			c-1.142-0.239-2.201-0.138-3.177,0.304c-0.977,0.442-1.842,1.151-2.597,2.127c-0.755,0.977-1.336,2.082-1.74,3.315
			c-0.406,1.234-0.607,2.523-0.607,3.867c0,1.345,0.257,2.588,0.773,3.729c0.441,1.031,1.04,1.823,1.795,2.375
			c0.755,0.553,1.556,0.876,2.403,0.967c0.847,0.093,1.722-0.036,2.625-0.387C103.193,37.605,103.995,37.044,104.695,36.271z"/>
		<path fill="#E489FF" d="M114.723,21.961c-0.387-0.441-0.58-0.92-0.58-1.437c0-0.516,0.212-1.021,0.636-1.52
			c0.423-0.497,1.058-0.745,1.905-0.745h3.095V9.53c0.184-0.736,0.478-1.289,0.884-1.657c0.404-0.368,0.864-0.553,1.381-0.553
			c0.479,0,0.93,0.166,1.354,0.497c0.423,0.331,0.727,0.848,0.912,1.547v8.896h5.304c0.699,0.185,1.215,0.488,1.547,0.911
			c0.331,0.424,0.497,0.875,0.497,1.354c0,0.517-0.185,0.977-0.553,1.382s-0.921,0.699-1.657,0.884h-5.138
			c-0.037,2.836-0.037,5.755,0,8.757c0.036,3.002,0.055,5.921,0.055,8.757c0,0.848-0.248,1.483-0.746,1.906
			c-0.497,0.423-1.004,0.635-1.519,0.635c-0.517,0-0.995-0.193-1.437-0.58c-0.442-0.387-0.719-0.984-0.829-1.795
			c0-2.873-0.01-5.819-0.027-8.84c-0.02-3.02-0.027-5.967-0.027-8.84h-3.26C115.708,22.68,115.109,22.403,114.723,21.961z"/>
		<path fill="#E489FF" d="M132.983,28.701c0.405-1.178,0.902-2.329,1.491-3.453c0.589-1.123,1.289-2.145,2.1-3.066
			c0.811-0.92,1.74-1.712,2.79-2.375s2.219-1.142,3.509-1.437c2.136-0.479,4.005-0.312,5.607,0.497
			c1.603,0.811,2.882,1.971,3.84,3.48c0.957,1.511,1.593,3.232,1.906,5.166c0.312,1.934,0.229,3.784-0.249,5.553
			c-0.552,2.173-1.528,4.198-2.928,6.077c-1.4,1.878-3.168,3.24-5.304,4.088c-1.584,0.626-3.104,0.856-4.559,0.691
			c-1.455-0.166-2.762-0.636-3.922-1.409c-1.161-0.773-2.146-1.786-2.956-3.039c-0.811-1.251-1.363-2.67-1.657-4.254
			c-0.186-0.994-0.249-1.97-0.193-2.928c0.055-0.958,0.174-1.915,0.358-2.873L132.983,28.701z M137.293,29.972
			c-0.147,0.773-0.249,1.483-0.304,2.128c-0.056,0.645-0.028,1.372,0.083,2.182c0.11,0.995,0.423,1.889,0.938,2.68
			c0.516,0.793,1.142,1.4,1.879,1.823c0.736,0.424,1.556,0.627,2.458,0.607c0.902-0.018,1.814-0.304,2.735-0.855
			c1.215-0.737,2.183-1.694,2.9-2.873s1.261-2.449,1.63-3.812c0.294-1.105,0.359-2.283,0.193-3.536
			c-0.166-1.252-0.544-2.356-1.133-3.314c-0.59-0.958-1.381-1.648-2.376-2.072c-0.994-0.423-2.173-0.359-3.535,0.193
			c-1.474,0.627-2.634,1.566-3.481,2.817C138.434,27.191,137.771,28.536,137.293,29.972z"/>
		<path fill="#E489FF" d="M160.054,23.011c-0.553-0.294-0.958-0.644-1.216-1.05c-0.258-0.404-0.387-0.81-0.387-1.216
			c0-0.552,0.202-1.04,0.608-1.464c0.404-0.423,0.957-0.635,1.657-0.635c0.516,0,1.16,0.185,1.934,0.552
			c0.773,0.369,1.381,0.773,1.823,1.216c1.142-0.957,2.32-1.749,3.536-2.376c1.215-0.626,2.449-0.938,3.701-0.938
			c0.368,0,0.902,0.092,1.603,0.275c0.699,0.186,1.39,0.461,2.072,0.829c0.681,0.369,1.279,0.848,1.795,1.437
			c0.516,0.59,0.773,1.271,0.773,2.044c0,0.627-0.202,1.133-0.607,1.52c-0.406,0.387-0.903,0.58-1.492,0.58
			c-0.405,0-0.765-0.119-1.077-0.359c-0.313-0.239-0.627-0.497-0.939-0.773s-0.645-0.524-0.994-0.745
			c-0.351-0.222-0.746-0.332-1.188-0.332c-0.517,0-1.077,0.157-1.686,0.47c-0.607,0.313-1.215,0.69-1.823,1.133
			c-0.607,0.441-1.188,0.921-1.74,1.437s-1.031,0.976-1.437,1.381V40.69c-0.037,0.848-0.285,1.483-0.746,1.906
			s-0.967,0.635-1.519,0.635c-0.517,0-0.995-0.193-1.437-0.58c-0.442-0.387-0.719-0.984-0.829-1.795V25.773
			c0-0.073-0.01-0.156-0.027-0.249c-0.02-0.092-0.027-0.174-0.027-0.248s0.008-0.156,0.027-0.249
			c0.018-0.092,0.027-0.175,0.027-0.249v-1.602C160.293,23.104,160.164,23.048,160.054,23.011z"/>
	</g>
	<g>
		<path fill="#E489FF" d="M318.237,283.354c-0.626,0.368-1.215,0.524-1.768,0.47c-0.553-0.056-0.994-0.249-1.326-0.58
			c-0.331-0.332-0.524-0.773-0.58-1.326s0.101-1.142,0.47-1.769l0.166-0.165v-28.729c0.146-0.699,0.433-1.233,0.856-1.603
			c0.423-0.367,0.864-0.561,1.325-0.58c0.461-0.018,0.912,0.139,1.354,0.47c0.442,0.332,0.773,0.848,0.995,1.547v13.149
			c0.81-0.773,1.676-1.381,2.597-1.823c0.847-0.479,1.647-0.819,2.403-1.022c0.754-0.201,1.61-0.358,2.569-0.469
			c0.957-0.147,1.859-0.056,2.707,0.275c0.847,0.332,1.675,0.737,2.486,1.216c1.067,0.627,1.878,1.492,2.431,2.597
			c0.553,1.105,0.939,2.293,1.16,3.563s0.312,2.561,0.276,3.867c-0.037,1.309-0.147,2.478-0.332,3.509
			c-0.074,0.59-0.239,1.151-0.497,1.685c-0.258,0.535-0.534,1.06-0.829,1.575c-0.516,1.031-1.215,1.906-2.099,2.624
			c-0.885,0.718-1.87,1.29-2.956,1.713c-1.087,0.424-2.21,0.718-3.37,0.884s-2.257,0.212-3.287,0.138
			c-0.848-0.074-1.658-0.202-2.432-0.387c-0.773-0.184-1.528-0.497-2.265-0.938C318.293,283.28,318.273,283.317,318.237,283.354z
			 M319.729,271.088v7.735c0.11,0.074,0.312,0.185,0.607,0.331c0.073,0.074,0.146,0.13,0.221,0.166
			c0.074,0.037,0.147,0.092,0.222,0.166c1.914,0.737,3.737,0.865,5.47,0.387c1.73-0.479,3.259-1.492,4.585-3.039
			c0.368-0.884,0.636-1.703,0.802-2.459c0.165-0.754,0.248-1.51,0.248-2.265s-0.074-1.52-0.221-2.293
			c-0.147-0.773-0.387-1.603-0.719-2.486c-0.185-0.184-0.341-0.377-0.469-0.58c-0.13-0.202-0.286-0.396-0.47-0.58
			c-0.186-0.073-0.359-0.166-0.525-0.276s-0.341-0.202-0.524-0.276c-0.185-0.036-0.387-0.073-0.608-0.11
			c-0.221-0.036-0.424-0.073-0.607-0.11c-1.768,0.295-3.224,0.894-4.364,1.796c-1.143,0.902-2.21,2.054-3.205,3.453L319.729,271.088
			z"/>
		<path fill="#E489FF" d="M348.293,281.585c0.663,0.479,1.05,1.022,1.16,1.63c0.11,0.608,0.027,1.133-0.248,1.575
			c-0.276,0.441-0.7,0.754-1.271,0.939c-0.571,0.184-1.225,0.091-1.961-0.276c-0.331-0.222-0.663-0.442-0.994-0.663
			c-0.332-0.222-0.683-0.442-1.05-0.663c-0.332-0.295-0.553-0.57-0.663-0.829c-0.11-0.257-0.203-0.626-0.276-1.104V251.53
			c0.146-0.699,0.433-1.233,0.856-1.603c0.423-0.367,0.865-0.561,1.326-0.58c0.46-0.018,0.911,0.139,1.354,0.47
			c0.441,0.331,0.773,0.848,0.994,1.547v29.724c0.11,0.074,0.229,0.157,0.359,0.249
			C348.008,281.429,348.146,281.512,348.293,281.585z"/>
		<path fill="#E489FF" d="M354.26,270.701c0.405-1.178,0.902-2.329,1.491-3.453c0.589-1.123,1.289-2.145,2.1-3.066
			c0.811-0.92,1.74-1.712,2.79-2.375s2.219-1.142,3.509-1.437c2.136-0.479,4.005-0.312,5.607,0.497
			c1.603,0.811,2.882,1.971,3.84,3.48c0.957,1.511,1.593,3.232,1.906,5.166c0.312,1.934,0.229,3.784-0.249,5.553
			c-0.552,2.173-1.528,4.198-2.928,6.077c-1.4,1.878-3.168,3.24-5.304,4.088c-1.584,0.626-3.104,0.856-4.559,0.691
			c-1.455-0.166-2.762-0.636-3.922-1.409c-1.161-0.773-2.146-1.786-2.956-3.039c-0.811-1.251-1.363-2.67-1.657-4.254
			c-0.186-0.994-0.249-1.97-0.193-2.928c0.055-0.958,0.174-1.915,0.358-2.873L354.26,270.701z M358.569,271.972
			c-0.147,0.773-0.249,1.483-0.304,2.128c-0.056,0.645-0.028,1.372,0.083,2.182c0.11,0.995,0.423,1.889,0.938,2.68
			c0.516,0.793,1.142,1.4,1.879,1.823c0.736,0.424,1.556,0.627,2.458,0.607c0.902-0.018,1.814-0.304,2.735-0.855
			c1.215-0.737,2.183-1.694,2.9-2.873s1.261-2.449,1.63-3.812c0.294-1.105,0.359-2.283,0.193-3.536
			c-0.166-1.252-0.544-2.356-1.133-3.314c-0.59-0.958-1.381-1.648-2.376-2.072c-0.994-0.423-2.173-0.359-3.535,0.193
			c-1.474,0.627-2.634,1.566-3.481,2.817C359.71,269.191,359.048,270.536,358.569,271.972z"/>
		<path fill="#E489FF" d="M394.702,278.271c0.625-0.516,1.242-0.755,1.851-0.719c0.607,0.037,1.096,0.24,1.464,0.608
			s0.57,0.856,0.607,1.464c0.036,0.607-0.202,1.225-0.718,1.851c-1.216,1.326-2.644,2.266-4.282,2.818
			c-1.639,0.552-3.26,0.708-4.861,0.469c-1.603-0.239-3.086-0.874-4.447-1.905c-1.363-1.031-2.376-2.432-3.039-4.199
			c-0.406-0.994-0.7-2.044-0.884-3.149c-0.185-1.104-0.24-2.19-0.166-3.26c0.11-1.768,0.524-3.544,1.243-5.331
			c0.718-1.786,1.693-3.343,2.928-4.669c1.234-1.325,2.688-2.293,4.365-2.9c1.676-0.607,3.508-0.598,5.497,0.027
			c0.994,0.332,1.896,0.737,2.707,1.216c0.81,0.479,1.583,1.087,2.32,1.823c0.405,0.59,0.608,1.16,0.608,1.713
			s-0.157,1.004-0.47,1.354c-0.313,0.351-0.737,0.58-1.271,0.69s-1.132,0-1.795-0.331c-1.216-1.216-2.395-1.942-3.536-2.183
			c-1.142-0.239-2.201-0.138-3.177,0.304c-0.977,0.442-1.842,1.151-2.597,2.127c-0.755,0.977-1.336,2.082-1.74,3.315
			c-0.406,1.234-0.607,2.523-0.607,3.867c0,1.345,0.257,2.588,0.773,3.729c0.441,1.031,1.04,1.823,1.795,2.375
			c0.755,0.553,1.556,0.876,2.403,0.967c0.847,0.093,1.722-0.036,2.625-0.387C393.2,279.605,394.002,279.044,394.702,278.271z"/>
		<path fill="#E489FF" d="M408.514,284.1c-0.442,0.423-0.931,0.644-1.465,0.662s-1.031-0.165-1.491-0.552
			c-0.461-0.387-0.746-0.985-0.856-1.796v-31.491c0.146-0.699,0.433-1.234,0.856-1.603c0.423-0.368,0.865-0.562,1.326-0.58
			c0.46-0.019,0.911,0.138,1.354,0.47c0.441,0.331,0.773,0.848,0.994,1.547v16.188c0.957-0.553,1.813-1.123,2.569-1.713
			c0.754-0.589,1.5-1.233,2.237-1.934c0.736-0.699,1.482-1.464,2.237-2.293c0.755-0.828,1.575-1.74,2.459-2.734
			c0.626-0.516,1.243-0.755,1.851-0.719c0.607,0.037,1.096,0.24,1.464,0.608s0.571,0.856,0.608,1.464
			c0.036,0.607-0.203,1.225-0.719,1.851c-1.4,1.621-2.688,3.03-3.867,4.227c-1.18,1.197-2.431,2.275-3.757,3.232
			c1.878,2.1,3.655,4.08,5.331,5.939c1.676,1.86,3.453,3.84,5.332,5.938c0.479,0.663,0.672,1.299,0.58,1.906
			c-0.093,0.608-0.332,1.087-0.719,1.437s-0.884,0.516-1.491,0.497s-1.207-0.322-1.796-0.911c-1.952-2.173-3.794-4.235-5.524-6.188
			c-1.732-1.951-3.573-3.995-5.525-6.132c-0.221,0.11-0.434,0.221-0.635,0.331c-0.203,0.11-0.415,0.221-0.636,0.332v10.165
			C409.194,283.059,408.955,283.676,408.514,284.1z"/>
	</g>
	<g>
		<path fill="#E489FF" d="M793.237,283.354c-0.626,0.368-1.215,0.524-1.768,0.47c-0.553-0.056-0.994-0.249-1.326-0.58
			c-0.331-0.332-0.524-0.773-0.58-1.326s0.101-1.142,0.47-1.769l0.166-0.165v-28.729c0.146-0.699,0.433-1.233,0.856-1.603
			c0.423-0.367,0.864-0.561,1.325-0.58c0.461-0.018,0.912,0.139,1.354,0.47c0.442,0.332,0.773,0.848,0.995,1.547v13.149
			c0.81-0.773,1.676-1.381,2.597-1.823c0.847-0.479,1.647-0.819,2.403-1.022c0.754-0.201,1.61-0.358,2.569-0.469
			c0.957-0.147,1.859-0.056,2.707,0.275c0.847,0.332,1.675,0.737,2.486,1.216c1.067,0.627,1.878,1.492,2.431,2.597
			c0.553,1.105,0.939,2.293,1.16,3.563s0.312,2.561,0.276,3.867c-0.037,1.309-0.147,2.478-0.332,3.509
			c-0.074,0.59-0.239,1.151-0.497,1.685c-0.258,0.535-0.534,1.06-0.829,1.575c-0.516,1.031-1.215,1.906-2.099,2.624
			c-0.885,0.718-1.87,1.29-2.956,1.713c-1.087,0.424-2.21,0.718-3.37,0.884s-2.257,0.212-3.287,0.138
			c-0.848-0.074-1.658-0.202-2.432-0.387c-0.773-0.184-1.528-0.497-2.265-0.938C793.293,283.28,793.273,283.317,793.237,283.354z
			 M794.729,271.088v7.735c0.11,0.074,0.312,0.185,0.607,0.331c0.073,0.074,0.146,0.13,0.221,0.166
			c0.074,0.037,0.147,0.092,0.222,0.166c1.914,0.737,3.737,0.865,5.47,0.387c1.73-0.479,3.259-1.492,4.585-3.039
			c0.368-0.884,0.636-1.703,0.802-2.459c0.165-0.754,0.248-1.51,0.248-2.265s-0.074-1.52-0.221-2.293
			c-0.147-0.773-0.387-1.603-0.719-2.486c-0.185-0.184-0.341-0.377-0.469-0.58c-0.13-0.202-0.286-0.396-0.47-0.58
			c-0.186-0.073-0.359-0.166-0.525-0.276s-0.341-0.202-0.524-0.276c-0.185-0.036-0.387-0.073-0.608-0.11
			c-0.221-0.036-0.424-0.073-0.607-0.11c-1.768,0.295-3.224,0.894-4.364,1.796c-1.143,0.902-2.21,2.054-3.205,3.453L794.729,271.088
			z"/>
		<path fill="#E489FF" d="M823.293,281.585c0.663,0.479,1.05,1.022,1.16,1.63c0.11,0.608,0.027,1.133-0.248,1.575
			c-0.276,0.441-0.7,0.754-1.271,0.939c-0.571,0.184-1.225,0.091-1.961-0.276c-0.331-0.222-0.663-0.442-0.994-0.663
			c-0.332-0.222-0.683-0.442-1.05-0.663c-0.332-0.295-0.553-0.57-0.663-0.829c-0.11-0.257-0.203-0.626-0.276-1.104V251.53
			c0.146-0.699,0.433-1.233,0.856-1.603c0.423-0.367,0.865-0.561,1.326-0.58c0.46-0.018,0.911,0.139,1.354,0.47
			c0.441,0.331,0.773,0.848,0.994,1.547v29.724c0.11,0.074,0.229,0.157,0.359,0.249
			C823.008,281.429,823.146,281.512,823.293,281.585z"/>
		<path fill="#E489FF" d="M829.26,270.701c0.405-1.178,0.902-2.329,1.491-3.453c0.589-1.123,1.289-2.145,2.1-3.066
			c0.811-0.92,1.74-1.712,2.79-2.375s2.219-1.142,3.509-1.437c2.136-0.479,4.005-0.312,5.607,0.497
			c1.603,0.811,2.882,1.971,3.84,3.48c0.957,1.511,1.593,3.232,1.906,5.166c0.312,1.934,0.229,3.784-0.249,5.553
			c-0.552,2.173-1.528,4.198-2.928,6.077c-1.4,1.878-3.168,3.24-5.304,4.088c-1.584,0.626-3.104,0.856-4.559,0.691
			c-1.455-0.166-2.762-0.636-3.922-1.409c-1.161-0.773-2.146-1.786-2.956-3.039c-0.811-1.251-1.363-2.67-1.657-4.254
			c-0.186-0.994-0.249-1.97-0.193-2.928c0.055-0.958,0.174-1.915,0.358-2.873L829.26,270.701z M833.569,271.972
			c-0.147,0.773-0.249,1.483-0.304,2.128c-0.056,0.645-0.028,1.372,0.083,2.182c0.11,0.995,0.423,1.889,0.938,2.68
			c0.516,0.793,1.142,1.4,1.879,1.823c0.736,0.424,1.556,0.627,2.458,0.607c0.902-0.018,1.814-0.304,2.735-0.855
			c1.215-0.737,2.183-1.694,2.9-2.873s1.261-2.449,1.63-3.812c0.294-1.105,0.359-2.283,0.193-3.536
			c-0.166-1.252-0.544-2.356-1.133-3.314c-0.59-0.958-1.381-1.648-2.376-2.072c-0.994-0.423-2.173-0.359-3.535,0.193
			c-1.474,0.627-2.634,1.566-3.481,2.817C834.71,269.191,834.048,270.536,833.569,271.972z"/>
		<path fill="#E489FF" d="M869.702,278.271c0.625-0.516,1.242-0.755,1.851-0.719c0.607,0.037,1.096,0.24,1.464,0.608
			s0.57,0.856,0.607,1.464c0.036,0.607-0.202,1.225-0.718,1.851c-1.216,1.326-2.644,2.266-4.282,2.818
			c-1.639,0.552-3.26,0.708-4.861,0.469c-1.603-0.239-3.086-0.874-4.447-1.905c-1.363-1.031-2.376-2.432-3.039-4.199
			c-0.406-0.994-0.7-2.044-0.884-3.149c-0.185-1.104-0.24-2.19-0.166-3.26c0.11-1.768,0.524-3.544,1.243-5.331
			c0.718-1.786,1.693-3.343,2.928-4.669c1.234-1.325,2.688-2.293,4.365-2.9c1.676-0.607,3.508-0.598,5.497,0.027
			c0.994,0.332,1.896,0.737,2.707,1.216c0.81,0.479,1.583,1.087,2.32,1.823c0.405,0.59,0.608,1.16,0.608,1.713
			s-0.157,1.004-0.47,1.354c-0.313,0.351-0.737,0.58-1.271,0.69s-1.132,0-1.795-0.331c-1.216-1.216-2.395-1.942-3.536-2.183
			c-1.142-0.239-2.201-0.138-3.177,0.304c-0.977,0.442-1.842,1.151-2.597,2.127c-0.755,0.977-1.336,2.082-1.74,3.315
			c-0.406,1.234-0.607,2.523-0.607,3.867c0,1.345,0.257,2.588,0.773,3.729c0.441,1.031,1.04,1.823,1.795,2.375
			c0.755,0.553,1.556,0.876,2.403,0.967c0.847,0.093,1.722-0.036,2.625-0.387C868.2,279.605,869.002,279.044,869.702,278.271z"/>
		<path fill="#E489FF" d="M883.514,284.1c-0.442,0.423-0.931,0.644-1.465,0.662s-1.031-0.165-1.491-0.552
			c-0.461-0.387-0.746-0.985-0.856-1.796v-31.491c0.146-0.699,0.433-1.234,0.856-1.603c0.423-0.368,0.865-0.562,1.326-0.58
			c0.46-0.019,0.911,0.138,1.354,0.47c0.441,0.331,0.773,0.848,0.994,1.547v16.188c0.957-0.553,1.813-1.123,2.569-1.713
			c0.754-0.589,1.5-1.233,2.237-1.934c0.736-0.699,1.482-1.464,2.237-2.293c0.755-0.828,1.575-1.74,2.459-2.734
			c0.626-0.516,1.243-0.755,1.851-0.719c0.607,0.037,1.096,0.24,1.464,0.608s0.571,0.856,0.608,1.464
			c0.036,0.607-0.203,1.225-0.719,1.851c-1.4,1.621-2.688,3.03-3.867,4.227c-1.18,1.197-2.431,2.275-3.757,3.232
			c1.878,2.1,3.655,4.08,5.331,5.939c1.676,1.86,3.453,3.84,5.332,5.938c0.479,0.663,0.672,1.299,0.58,1.906
			c-0.093,0.608-0.332,1.087-0.719,1.437s-0.884,0.516-1.491,0.497s-1.207-0.322-1.796-0.911c-1.952-2.173-3.794-4.235-5.524-6.188
			c-1.732-1.951-3.573-3.995-5.525-6.132c-0.221,0.11-0.434,0.221-0.635,0.331c-0.203,0.11-0.415,0.221-0.636,0.332v10.165
			C884.194,283.059,883.955,283.676,883.514,284.1z"/>
	</g>
	<g>
		<path fill="#E489FF" d="M786.459,36.271c0.625-0.516,1.242-0.755,1.851-0.719c0.607,0.037,1.096,0.24,1.464,0.608
			s0.57,0.856,0.607,1.464c0.036,0.607-0.202,1.225-0.718,1.851c-1.216,1.326-2.644,2.266-4.282,2.818
			c-1.639,0.552-3.26,0.708-4.861,0.469c-1.603-0.239-3.086-0.874-4.447-1.905c-1.363-1.031-2.376-2.432-3.039-4.199
			c-0.406-0.994-0.7-2.044-0.884-3.149c-0.185-1.104-0.24-2.19-0.166-3.26c0.11-1.768,0.524-3.544,1.243-5.331
			c0.718-1.786,1.693-3.343,2.928-4.669c1.234-1.325,2.688-2.293,4.365-2.9c1.676-0.607,3.508-0.598,5.497,0.027
			c0.994,0.332,1.896,0.737,2.707,1.216c0.81,0.479,1.583,1.087,2.32,1.823c0.405,0.59,0.608,1.16,0.608,1.713
			s-0.157,1.004-0.47,1.354c-0.313,0.351-0.737,0.58-1.271,0.69s-1.132,0-1.795-0.331c-1.216-1.216-2.395-1.942-3.536-2.183
			c-1.142-0.239-2.201-0.138-3.177,0.304c-0.977,0.442-1.842,1.151-2.597,2.127c-0.755,0.977-1.336,2.082-1.74,3.315
			c-0.406,1.234-0.607,2.523-0.607,3.867c0,1.345,0.257,2.588,0.773,3.729c0.441,1.031,1.04,1.823,1.795,2.375
			c0.755,0.553,1.556,0.876,2.403,0.967c0.847,0.093,1.722-0.036,2.625-0.387C784.957,37.605,785.759,37.044,786.459,36.271z"/>
		<path fill="#E489FF" d="M794.304,28.701c0.405-1.178,0.902-2.329,1.491-3.453c0.589-1.123,1.289-2.145,2.1-3.066
			c0.811-0.92,1.74-1.712,2.79-2.375s2.219-1.142,3.509-1.437c2.136-0.479,4.005-0.312,5.607,0.497
			c1.603,0.811,2.882,1.971,3.84,3.48c0.957,1.511,1.593,3.232,1.906,5.166c0.312,1.934,0.229,3.784-0.249,5.553
			c-0.552,2.173-1.528,4.198-2.928,6.077c-1.4,1.878-3.168,3.24-5.304,4.088c-1.584,0.626-3.104,0.856-4.559,0.691
			c-1.455-0.166-2.762-0.636-3.922-1.409c-1.161-0.773-2.146-1.786-2.956-3.039c-0.811-1.251-1.363-2.67-1.657-4.254
			c-0.186-0.994-0.249-1.97-0.193-2.928c0.055-0.958,0.174-1.915,0.358-2.873L794.304,28.701z M798.613,29.972
			c-0.147,0.773-0.249,1.483-0.304,2.128c-0.056,0.645-0.028,1.372,0.083,2.182c0.11,0.995,0.423,1.889,0.938,2.68
			c0.516,0.793,1.142,1.4,1.879,1.823c0.736,0.424,1.556,0.627,2.458,0.607c0.902-0.018,1.814-0.304,2.735-0.855
			c1.215-0.737,2.183-1.694,2.9-2.873s1.261-2.449,1.63-3.812c0.294-1.105,0.359-2.283,0.193-3.536
			c-0.166-1.252-0.544-2.356-1.133-3.314c-0.59-0.958-1.381-1.648-2.376-2.072c-0.994-0.423-2.173-0.359-3.535,0.193
			c-1.474,0.627-2.634,1.566-3.481,2.817C799.754,27.191,799.092,28.536,798.613,29.972z"/>
		<path fill="#E489FF" d="M839.855,42.486c-0.461,0.423-0.967,0.635-1.52,0.635c-0.516,0-0.994-0.193-1.437-0.58
			c-0.441-0.387-0.718-0.984-0.828-1.796c0-1.693-0.01-3.378-0.028-5.055c-0.019-1.676-0.027-3.36-0.027-5.056
			c0-1.215,0.009-2.431,0.027-3.646c0.019-1.215-0.064-2.431-0.248-3.646c-0.295-0.552-0.617-0.893-0.967-1.021
			c-0.351-0.129-0.765-0.193-1.243-0.193c-1.253,0-2.486,0.304-3.702,0.911c-1.215,0.608-2.173,1.446-2.872,2.514
			c-0.406,0.627-0.729,1.152-0.968,1.575c-0.239,0.424-0.396,1.041-0.469,1.851c0,1.879,0,3.757,0,5.636
			c0,1.878,0.018,3.757,0.055,5.635c-0.037,0.848-0.285,1.483-0.746,1.906s-0.967,0.636-1.519,0.636
			c-0.517,0-0.995-0.193-1.437-0.58c-0.442-0.387-0.719-0.985-0.829-1.796c0-1.768,0-3.48,0-5.138c0-1.658-0.01-3.296-0.027-4.918
			c-0.02-1.62-0.028-3.268-0.028-4.944c0-1.676,0-3.397,0-5.166c0.185-0.736,0.479-1.288,0.885-1.657
			c0.404-0.367,0.864-0.553,1.381-0.553c0.479,0,0.93,0.166,1.354,0.498c0.423,0.331,0.727,0.848,0.912,1.547v0.441
			c1.067-0.92,2.273-1.647,3.618-2.183c1.345-0.533,2.698-0.801,4.061-0.801s2.643,0.313,3.84,0.939
			c1.197,0.627,2.164,1.64,2.901,3.039c0.257,0.479,0.432,1.077,0.524,1.795c0.092,0.719,0.146,1.474,0.166,2.266
			c0.018,0.792,0.009,1.602-0.028,2.431s-0.055,1.611-0.055,2.348v6.52v3.702C840.564,41.428,840.315,42.062,839.855,42.486z"/>
		<path fill="#E489FF" d="M845.988,21.961c-0.387-0.441-0.58-0.92-0.58-1.437c0-0.516,0.212-1.021,0.636-1.52
			c0.423-0.497,1.058-0.745,1.905-0.745h3.095V9.53c0.184-0.736,0.478-1.289,0.884-1.657c0.404-0.368,0.864-0.553,1.381-0.553
			c0.479,0,0.93,0.166,1.354,0.497c0.423,0.331,0.727,0.848,0.912,1.547v8.896h5.304c0.699,0.185,1.215,0.488,1.547,0.911
			c0.331,0.424,0.497,0.875,0.497,1.354c0,0.517-0.185,0.977-0.553,1.382s-0.921,0.699-1.657,0.884h-5.138
			c-0.037,2.836-0.037,5.755,0,8.757c0.036,3.002,0.055,5.921,0.055,8.757c0,0.848-0.248,1.483-0.746,1.906
			c-0.497,0.423-1.004,0.635-1.519,0.635c-0.517,0-0.995-0.193-1.437-0.58c-0.442-0.387-0.719-0.984-0.829-1.795
			c0-2.873-0.01-5.819-0.027-8.84c-0.02-3.02-0.027-5.967-0.027-8.84h-3.26C846.974,22.68,846.375,22.403,845.988,21.961z"/>
		<path fill="#E489FF" d="M883.475,35.773c0.773-0.295,1.437-0.332,1.988-0.11c0.553,0.221,0.948,0.571,1.188,1.05
			c0.239,0.479,0.276,1.013,0.11,1.602c-0.166,0.59-0.599,1.087-1.299,1.492c-1.215,0.7-2.522,1.345-3.922,1.934
			c-1.4,0.589-2.818,0.994-4.255,1.215c-1.436,0.222-2.854,0.212-4.254-0.027c-1.4-0.24-2.744-0.801-4.033-1.685
			c-1.547-1.068-2.726-2.514-3.536-4.337s-1.234-3.721-1.271-5.691c-0.037-1.97,0.322-3.867,1.077-5.69s1.942-3.287,3.564-4.392
			c1.693-1.142,3.535-1.998,5.524-2.569s3.996-0.636,6.022-0.193c0.994,0.221,1.896,0.69,2.707,1.408
			c0.81,0.719,1.464,1.548,1.961,2.486c0.497,0.939,0.765,1.934,0.802,2.983c0.036,1.05-0.222,2.036-0.774,2.956
			c-0.626,1.031-1.528,1.906-2.707,2.624c-1.179,0.719-2.458,1.326-3.84,1.823c-1.381,0.497-2.762,0.912-4.144,1.243
			c-1.381,0.332-2.588,0.646-3.618,0.939c-0.442,0.11-0.866,0.13-1.271,0.056c0.553,1.179,1.372,2.146,2.459,2.9
			c1.086,0.755,2.439,1.077,4.061,0.967c1.289-0.073,2.588-0.433,3.896-1.077C881.218,37.035,882.405,36.4,883.475,35.773z
			 M872.701,24.005c-1.363,0.7-2.376,1.686-3.039,2.956s-0.994,2.606-0.994,4.006c0.257-0.185,0.533-0.332,0.828-0.442
			c0.663-0.184,1.335-0.377,2.017-0.58c0.682-0.202,1.372-0.396,2.072-0.58c0.442-0.11,1.04-0.276,1.796-0.497
			c0.754-0.221,1.537-0.479,2.348-0.773c0.81-0.295,1.547-0.636,2.21-1.022s1.105-0.819,1.326-1.298
			c0.073-1.216-0.221-2.044-0.884-2.486s-1.456-0.663-2.376-0.663c-0.921,0-1.879,0.157-2.873,0.47
			C874.138,23.407,873.327,23.711,872.701,24.005z"/>
		<path fill="#E489FF" d="M910.187,42.486c-0.461,0.423-0.967,0.635-1.52,0.635c-0.516,0-0.994-0.193-1.437-0.58
			c-0.441-0.387-0.718-0.984-0.828-1.796c0-1.693-0.01-3.378-0.028-5.055c-0.019-1.676-0.027-3.36-0.027-5.056
			c0-1.215,0.009-2.431,0.027-3.646c0.019-1.215-0.064-2.431-0.248-3.646c-0.295-0.552-0.617-0.893-0.967-1.021
			c-0.351-0.129-0.765-0.193-1.243-0.193c-1.253,0-2.486,0.304-3.702,0.911c-1.215,0.608-2.173,1.446-2.872,2.514
			c-0.406,0.627-0.729,1.152-0.968,1.575c-0.239,0.424-0.396,1.041-0.469,1.851c0,1.879,0,3.757,0,5.636
			c0,1.878,0.018,3.757,0.055,5.635c-0.037,0.848-0.285,1.483-0.746,1.906s-0.967,0.636-1.519,0.636
			c-0.517,0-0.995-0.193-1.437-0.58c-0.442-0.387-0.719-0.985-0.829-1.796c0-1.768,0-3.48,0-5.138c0-1.658-0.01-3.296-0.027-4.918
			c-0.02-1.62-0.028-3.268-0.028-4.944c0-1.676,0-3.397,0-5.166c0.185-0.736,0.479-1.288,0.885-1.657
			c0.404-0.367,0.864-0.553,1.381-0.553c0.479,0,0.93,0.166,1.354,0.498c0.423,0.331,0.727,0.848,0.912,1.547v0.441
			c1.067-0.92,2.273-1.647,3.618-2.183c1.345-0.533,2.698-0.801,4.061-0.801s2.643,0.313,3.84,0.939
			c1.197,0.627,2.164,1.64,2.901,3.039c0.257,0.479,0.432,1.077,0.524,1.795c0.092,0.719,0.146,1.474,0.166,2.266
			c0.018,0.792,0.009,1.602-0.028,2.431s-0.055,1.611-0.055,2.348v6.52v3.702C910.896,41.428,910.646,42.062,910.187,42.486z"/>
		<path fill="#E489FF" d="M916.318,21.961c-0.387-0.441-0.58-0.92-0.58-1.437c0-0.516,0.212-1.021,0.636-1.52
			c0.423-0.497,1.058-0.745,1.905-0.745h3.095V9.53c0.184-0.736,0.478-1.289,0.884-1.657c0.404-0.368,0.864-0.553,1.381-0.553
			c0.479,0,0.93,0.166,1.354,0.497c0.423,0.331,0.727,0.848,0.912,1.547v8.896h5.304c0.699,0.185,1.215,0.488,1.547,0.911
			c0.331,0.424,0.497,0.875,0.497,1.354c0,0.517-0.185,0.977-0.553,1.382s-0.921,0.699-1.657,0.884h-5.138
			c-0.037,2.836-0.037,5.755,0,8.757c0.036,3.002,0.055,5.921,0.055,8.757c0,0.848-0.248,1.483-0.746,1.906
			c-0.497,0.423-1.004,0.635-1.519,0.635c-0.517,0-0.995-0.193-1.437-0.58c-0.442-0.387-0.719-0.984-0.829-1.795
			c0-2.873-0.01-5.819-0.027-8.84c-0.02-3.02-0.027-5.967-0.027-8.84h-3.26C917.304,22.68,916.705,22.403,916.318,21.961z"/>
	</g>
	<path fill="#E489FF" d="M674.992,172.237c-0.404-3.812-6.74-3.85-6.332,0c2.154,20.271-23.746,33.211-40.774,38.551
		c-12.353,3.873-25.854,4.036-38.728,3.641c-16.941-0.521-33.73-3.207-50.443-5.693c-41.367-6.154-85.68-11.826-127.021-2.814
		c-16.048,3.5-31.898,10.342-42.284,22.629c-4.589-9.516-6.453-19.817-17.891-24.674c-11.14-4.73-25.617-2.251-37.387-1.51
		c-32.73,2.062-65.438,7.256-98.327,5.753c-17.052-0.78-34.14,0.67-51.208-0.135c-16.361-0.771-36.312-2.779-48.168-14.788
		c-4.274-4.331-6.458-10.141-7.097-15.959c-0.418-3.809-6.755-3.847-6.331,0c4.079,37.115,53.244,37.351,83.049,37.058
		c21.549-0.212,43.193,0.548,64.697-0.725c17.073-1.011,34.078-2.879,51.117-4.294c7.369-0.612,14.73-0.896,22.105-1.343
		c6.959-0.421,13.991-1.136,20.891,0.179c14.579,2.774,15.063,17.507,21.352,27.639c1.24,2.002,4.196,1.878,5.465,0
		c10.688-15.792,30.483-22.254,49.062-25.481c21.775-3.784,44.415-3.147,66.389-1.536c23.313,1.71,46.291,5.453,69.411,8.619
		c26.076,3.57,54.652,6.502,79.696-3.105C653.908,207.468,677.207,193.079,674.992,172.237z"/>
	<path fill="#E489FF" d="M984.992,174.237c-0.316-3.832-6.68-3.86-6.361,0c2.325,28.208-28.785,41.688-54.438,42.172
		c-14.75,0.278-29.201-3.596-43.888-4.252c-13.225-0.59-24.587,3.719-34.463,11.434c-16.631-24.39-50.458-11.996-76.009-11.363
		c-13.146,0.325-27.281-1.07-39.426-6.064c-14.283-5.873-21.146-17.381-20.038-31.926c0.295-3.863-6.068-3.836-6.361,0
		c-1.022,13.401,3.918,25.177,15.594,33.094c10.836,7.349,25.14,9.593,38.137,10.542c14.77,1.079,28.898-1.499,43.506-3.022
		c16.38-1.709,32.646-0.249,41.041,14.9c0.979,1.771,3.557,1.872,4.995,0.607c5.963-5.247,12.495-9.352,20.464-11.252
		c6.596-1.574,13.615-1.053,20.299-0.35c15.381,1.618,30.533,4.884,46.064,2.932C960.273,218.399,987.276,201.96,984.992,174.237z"
		/>
	<path fill="#E489FF" d="M842,59.237c-2.074,17.271-2.146,34.707-4,52c-0.412,3.846,5.592,3.806,6,0c1.854-17.293,1.926-34.729,4-52
		C848.461,55.401,842.455,55.445,842,59.237z"/>
	<g>
		<path fill="#E489FF" d="M353.459,36.271c0.625-0.516,1.242-0.755,1.851-0.719c0.607,0.037,1.096,0.24,1.464,0.608
			s0.57,0.856,0.607,1.464c0.036,0.607-0.202,1.225-0.718,1.851c-1.216,1.326-2.644,2.266-4.282,2.818
			c-1.639,0.552-3.26,0.708-4.861,0.469c-1.603-0.239-3.086-0.874-4.447-1.905c-1.363-1.031-2.376-2.432-3.039-4.199
			c-0.406-0.994-0.7-2.044-0.884-3.149c-0.185-1.104-0.24-2.19-0.166-3.26c0.11-1.768,0.524-3.544,1.243-5.331
			c0.718-1.786,1.693-3.343,2.928-4.669c1.234-1.325,2.688-2.293,4.365-2.9c1.676-0.607,3.508-0.598,5.497,0.027
			c0.994,0.332,1.896,0.737,2.707,1.216c0.81,0.479,1.583,1.087,2.32,1.823c0.405,0.59,0.608,1.16,0.608,1.713
			s-0.157,1.004-0.47,1.354c-0.313,0.351-0.737,0.58-1.271,0.69s-1.132,0-1.795-0.331c-1.216-1.216-2.395-1.942-3.536-2.183
			c-1.142-0.239-2.201-0.138-3.177,0.304c-0.977,0.442-1.842,1.151-2.597,2.127c-0.755,0.977-1.336,2.082-1.74,3.315
			c-0.406,1.234-0.607,2.523-0.607,3.867c0,1.345,0.257,2.588,0.773,3.729c0.441,1.031,1.04,1.823,1.795,2.375
			c0.755,0.553,1.556,0.876,2.403,0.967c0.847,0.093,1.722-0.036,2.625-0.387C351.957,37.605,352.759,37.044,353.459,36.271z"/>
		<path fill="#E489FF" d="M361.304,28.701c0.405-1.178,0.902-2.329,1.491-3.453c0.589-1.123,1.289-2.145,2.1-3.066
			c0.811-0.92,1.74-1.712,2.79-2.375s2.219-1.142,3.509-1.437c2.136-0.479,4.005-0.312,5.607,0.497
			c1.603,0.811,2.882,1.971,3.84,3.48c0.957,1.511,1.593,3.232,1.906,5.166c0.312,1.934,0.229,3.784-0.249,5.553
			c-0.552,2.173-1.528,4.198-2.928,6.077c-1.4,1.878-3.168,3.24-5.304,4.088c-1.584,0.626-3.104,0.856-4.559,0.691
			c-1.455-0.166-2.762-0.636-3.922-1.409c-1.161-0.773-2.146-1.786-2.956-3.039c-0.811-1.251-1.363-2.67-1.657-4.254
			c-0.186-0.994-0.249-1.97-0.193-2.928c0.055-0.958,0.174-1.915,0.358-2.873L361.304,28.701z M365.613,29.972
			c-0.147,0.773-0.249,1.483-0.304,2.128c-0.056,0.645-0.028,1.372,0.083,2.182c0.11,0.995,0.423,1.889,0.938,2.68
			c0.516,0.793,1.142,1.4,1.879,1.823c0.736,0.424,1.556,0.627,2.458,0.607c0.902-0.018,1.814-0.304,2.735-0.855
			c1.215-0.737,2.183-1.694,2.9-2.873s1.261-2.449,1.63-3.812c0.294-1.105,0.359-2.283,0.193-3.536
			c-0.166-1.252-0.544-2.356-1.133-3.314c-0.59-0.958-1.381-1.648-2.376-2.072c-0.994-0.423-2.173-0.359-3.535,0.193
			c-1.474,0.627-2.634,1.566-3.481,2.817C366.754,27.191,366.092,28.536,365.613,29.972z"/>
		<path fill="#E489FF" d="M406.855,42.486c-0.461,0.423-0.967,0.635-1.52,0.635c-0.516,0-0.994-0.193-1.437-0.58
			c-0.441-0.387-0.718-0.984-0.828-1.796c0-1.693-0.01-3.378-0.028-5.055c-0.019-1.676-0.027-3.36-0.027-5.056
			c0-1.215,0.009-2.431,0.027-3.646c0.019-1.215-0.064-2.431-0.248-3.646c-0.295-0.552-0.617-0.893-0.967-1.021
			c-0.351-0.129-0.765-0.193-1.243-0.193c-1.253,0-2.486,0.304-3.702,0.911c-1.215,0.608-2.173,1.446-2.872,2.514
			c-0.406,0.627-0.729,1.152-0.968,1.575c-0.239,0.424-0.396,1.041-0.469,1.851c0,1.879,0,3.757,0,5.636
			c0,1.878,0.018,3.757,0.055,5.635c-0.037,0.848-0.285,1.483-0.746,1.906s-0.967,0.636-1.519,0.636
			c-0.517,0-0.995-0.193-1.437-0.58c-0.442-0.387-0.719-0.985-0.829-1.796c0-1.768,0-3.48,0-5.138c0-1.658-0.01-3.296-0.027-4.918
			c-0.02-1.62-0.028-3.268-0.028-4.944c0-1.676,0-3.397,0-5.166c0.185-0.736,0.479-1.288,0.885-1.657
			c0.404-0.367,0.864-0.553,1.381-0.553c0.479,0,0.93,0.166,1.354,0.498c0.423,0.331,0.727,0.848,0.912,1.547v0.441
			c1.067-0.92,2.273-1.647,3.618-2.183c1.345-0.533,2.698-0.801,4.061-0.801s2.643,0.313,3.84,0.939
			c1.197,0.627,2.164,1.64,2.901,3.039c0.257,0.479,0.432,1.077,0.524,1.795c0.092,0.719,0.146,1.474,0.166,2.266
			c0.018,0.792,0.009,1.602-0.028,2.431s-0.055,1.611-0.055,2.348v6.52v3.702C407.564,41.428,407.315,42.062,406.855,42.486z"/>
		<path fill="#E489FF" d="M412.988,21.961c-0.387-0.441-0.58-0.92-0.58-1.437c0-0.516,0.212-1.021,0.636-1.52
			c0.423-0.497,1.058-0.745,1.905-0.745h3.095V9.53c0.184-0.736,0.478-1.289,0.884-1.657c0.404-0.368,0.864-0.553,1.381-0.553
			c0.479,0,0.93,0.166,1.354,0.497c0.423,0.331,0.727,0.848,0.912,1.547v8.896h5.304c0.699,0.185,1.215,0.488,1.547,0.911
			c0.331,0.424,0.497,0.875,0.497,1.354c0,0.517-0.185,0.977-0.553,1.382s-0.921,0.699-1.657,0.884h-5.138
			c-0.037,2.836-0.037,5.755,0,8.757c0.036,3.002,0.055,5.921,0.055,8.757c0,0.848-0.248,1.483-0.746,1.906
			c-0.497,0.423-1.004,0.635-1.519,0.635c-0.517,0-0.995-0.193-1.437-0.58c-0.442-0.387-0.719-0.984-0.829-1.795
			c0-2.873-0.01-5.819-0.027-8.84c-0.02-3.02-0.027-5.967-0.027-8.84h-3.26C413.974,22.68,413.375,22.403,412.988,21.961z"/>
		<path fill="#E489FF" d="M450.475,35.773c0.773-0.295,1.437-0.332,1.988-0.11c0.553,0.221,0.948,0.571,1.188,1.05
			c0.239,0.479,0.276,1.013,0.11,1.602c-0.166,0.59-0.599,1.087-1.299,1.492c-1.215,0.7-2.522,1.345-3.922,1.934
			c-1.4,0.589-2.818,0.994-4.255,1.215c-1.436,0.222-2.854,0.212-4.254-0.027c-1.4-0.24-2.744-0.801-4.033-1.685
			c-1.547-1.068-2.726-2.514-3.536-4.337s-1.234-3.721-1.271-5.691c-0.037-1.97,0.322-3.867,1.077-5.69s1.942-3.287,3.564-4.392
			c1.693-1.142,3.535-1.998,5.524-2.569s3.996-0.636,6.022-0.193c0.994,0.221,1.896,0.69,2.707,1.408
			c0.81,0.719,1.464,1.548,1.961,2.486c0.497,0.939,0.765,1.934,0.802,2.983c0.036,1.05-0.222,2.036-0.774,2.956
			c-0.626,1.031-1.528,1.906-2.707,2.624c-1.179,0.719-2.458,1.326-3.84,1.823c-1.381,0.497-2.762,0.912-4.144,1.243
			c-1.381,0.332-2.588,0.646-3.618,0.939c-0.442,0.11-0.866,0.13-1.271,0.056c0.553,1.179,1.372,2.146,2.459,2.9
			c1.086,0.755,2.439,1.077,4.061,0.967c1.289-0.073,2.588-0.433,3.896-1.077C448.218,37.035,449.405,36.4,450.475,35.773z
			 M439.701,24.005c-1.363,0.7-2.376,1.686-3.039,2.956s-0.994,2.606-0.994,4.006c0.257-0.185,0.533-0.332,0.828-0.442
			c0.663-0.184,1.335-0.377,2.017-0.58c0.682-0.202,1.372-0.396,2.072-0.58c0.442-0.11,1.04-0.276,1.796-0.497
			c0.754-0.221,1.537-0.479,2.348-0.773c0.81-0.295,1.547-0.636,2.21-1.022s1.105-0.819,1.326-1.298
			c0.073-1.216-0.221-2.044-0.884-2.486s-1.456-0.663-2.376-0.663c-0.921,0-1.879,0.157-2.873,0.47
			C441.138,23.407,440.327,23.711,439.701,24.005z"/>
		<path fill="#E489FF" d="M477.187,42.486c-0.461,0.423-0.967,0.635-1.52,0.635c-0.516,0-0.994-0.193-1.437-0.58
			c-0.441-0.387-0.718-0.984-0.828-1.796c0-1.693-0.01-3.378-0.028-5.055c-0.019-1.676-0.027-3.36-0.027-5.056
			c0-1.215,0.009-2.431,0.027-3.646c0.019-1.215-0.064-2.431-0.248-3.646c-0.295-0.552-0.617-0.893-0.967-1.021
			c-0.351-0.129-0.765-0.193-1.243-0.193c-1.253,0-2.486,0.304-3.702,0.911c-1.215,0.608-2.173,1.446-2.872,2.514
			c-0.406,0.627-0.729,1.152-0.968,1.575c-0.239,0.424-0.396,1.041-0.469,1.851c0,1.879,0,3.757,0,5.636
			c0,1.878,0.018,3.757,0.055,5.635c-0.037,0.848-0.285,1.483-0.746,1.906s-0.967,0.636-1.519,0.636
			c-0.517,0-0.995-0.193-1.437-0.58c-0.442-0.387-0.719-0.985-0.829-1.796c0-1.768,0-3.48,0-5.138c0-1.658-0.01-3.296-0.027-4.918
			c-0.02-1.62-0.028-3.268-0.028-4.944c0-1.676,0-3.397,0-5.166c0.185-0.736,0.479-1.288,0.885-1.657
			c0.404-0.367,0.864-0.553,1.381-0.553c0.479,0,0.93,0.166,1.354,0.498c0.423,0.331,0.727,0.848,0.912,1.547v0.441
			c1.067-0.92,2.273-1.647,3.618-2.183c1.345-0.533,2.698-0.801,4.061-0.801s2.643,0.313,3.84,0.939
			c1.197,0.627,2.164,1.64,2.901,3.039c0.257,0.479,0.432,1.077,0.524,1.795c0.092,0.719,0.146,1.474,0.166,2.266
			c0.018,0.792,0.009,1.602-0.028,2.431s-0.055,1.611-0.055,2.348v6.52v3.702C477.896,41.428,477.646,42.062,477.187,42.486z"/>
		<path fill="#E489FF" d="M483.318,21.961c-0.387-0.441-0.58-0.92-0.58-1.437c0-0.516,0.212-1.021,0.636-1.52
			c0.423-0.497,1.058-0.745,1.905-0.745h3.095V9.53c0.184-0.736,0.478-1.289,0.884-1.657c0.404-0.368,0.864-0.553,1.381-0.553
			c0.479,0,0.93,0.166,1.354,0.497c0.423,0.331,0.727,0.848,0.912,1.547v8.896h5.304c0.699,0.185,1.215,0.488,1.547,0.911
			c0.331,0.424,0.497,0.875,0.497,1.354c0,0.517-0.185,0.977-0.553,1.382s-0.921,0.699-1.657,0.884h-5.138
			c-0.037,2.836-0.037,5.755,0,8.757c0.036,3.002,0.055,5.921,0.055,8.757c0,0.848-0.248,1.483-0.746,1.906
			c-0.497,0.423-1.004,0.635-1.519,0.635c-0.517,0-0.995-0.193-1.437-0.58c-0.442-0.387-0.719-0.984-0.829-1.795
			c0-2.873-0.01-5.819-0.027-8.84c-0.02-3.02-0.027-5.967-0.027-8.84h-3.26C484.304,22.68,483.705,22.403,483.318,21.961z"/>
	</g>
	<path fill-rule="evenodd" clip-rule="evenodd" fill="#E489FF" d="M78,60.237c-0.016-3.868-6.016-3.87-6,0
		c0.071,17.355,1.933,34.643,2,52c0.016,3.869,6.016,3.87,6,0C79.933,94.88,78.071,77.593,78,60.237z"/>
	<path fill="#E489FF" d="M428,56.237c-0.006-3.869-6.006-3.869-6,0c0.028,16.754,0.722,33.496,0.75,50.25
		c0.006,3.869,6.006,3.869,6,0C428.722,89.733,428.028,72.991,428,56.237z"/>
</g>
</svg>
