<?xml version="1.0" encoding="utf-8"?>
<!-- Generator: Adobe Illustrator 17.0.2, SVG Export Plug-In . SVG Version: 6.00 Build 0)  -->
<!DOCTYPE svg PUBLIC "-//W3C//DTD SVG 1.1//EN" "http://www.w3.org/Graphics/SVG/1.1/DTD/svg11.dtd">
<svg version="1.1" id="Ebene_1" xmlns="http://www.w3.org/2000/svg" xmlns:xlink="http://www.w3.org/1999/xlink" x="0px" y="0px"
	 width="1207px" height="474px" viewBox="0 0 1207 474" enable-background="new 0 0 1207 474" xml:space="preserve">
<rect fill="#505456" width="1207" height="474"/>
<g>
	<g>
		<g>
			<rect x="201" y="176" fill="none" stroke="#FFFFFF" stroke-width="4" stroke-miterlimit="10" width="226" height="94"/>
			<rect x="201" y="176" fill="none" stroke="#FFFFFF" stroke-width="4" stroke-miterlimit="10" width="113" height="94"/>
		</g>
		<g>
			<circle fill="#FFFFFF" cx="257.473" cy="223.372" r="4.145"/>
			<line fill="none" stroke="#FFFFFF" stroke-width="4" stroke-miterlimit="10" x1="257" y1="223" x2="257" y2="332"/>
			<polygon fill="#FFFFFF" points="249.902,330 257.416,337.773 264.283,330 			"/>
		</g>
		<g>
			<path fill="#FFFFFF" d="M248.446,381.772h7.88v-25.366h-6.261v-2.86c3.13-0.54,5.397-1.403,7.286-2.536h3.4v30.763h7.124v3.67
				h-19.43V381.772z"/>
		</g>
		<g>
			<circle fill="#FFFFFF" cx="366.964" cy="224.119" r="4.145"/>
			<line fill="none" stroke="#FFFFFF" stroke-width="4" stroke-miterlimit="10" x1="367" y1="224" x2="476" y2="224"/>
			<polygon fill="#FFFFFF" points="474,230.69 481.773,223.176 474,216.31 			"/>
		</g>
	</g>
	<g>
		<g>
			<rect x="486" y="174" fill="none" stroke="#FFFFFF" stroke-width="4" stroke-miterlimit="10" width="226" height="94"/>
			<rect x="486" y="174" fill="none" stroke="#FFFFFF" stroke-width="4" stroke-miterlimit="10" width="113" height="94"/>
		</g>
		<g>
			<circle fill="#FFFFFF" cx="542.473" cy="221.372" r="4.145"/>
			<line fill="none" stroke="#FFFFFF" stroke-width="4" stroke-miterlimit="10" x1="542" y1="221" x2="542" y2="330"/>
			<polygon fill="#FFFFFF" points="534.902,328 542.416,335.773 549.283,328 			"/>
		</g>
		<g>
			<path fill="#FFFFFF" d="M531.342,380.798c10.362-10.309,16.19-16.515,16.19-22.074c0-3.939-2.158-6.746-6.53-6.746
				c-2.86,0-5.343,1.835-7.34,4.156l-2.536-2.537c2.86-3.13,5.937-5.235,10.416-5.235c6.368,0,10.309,4.048,10.309,10.146
				c0,6.477-5.883,12.899-14.032,21.427c1.889-0.162,3.993-0.324,5.774-0.324h9.984v3.832h-22.235V380.798z"/>
		</g>
		<g>
			<circle fill="#FFFFFF" cx="651.964" cy="222.119" r="4.145"/>
			<line fill="none" stroke="#FFFFFF" stroke-width="4" stroke-miterlimit="10" x1="652" y1="222" x2="761" y2="222"/>
			<polygon fill="#FFFFFF" points="759,228.69 766.773,221.176 759,214.31 			"/>
		</g>
	</g>
	<g>
		<g>
			<rect x="772" y="176" fill="none" stroke="#FFFFFF" stroke-width="4" stroke-miterlimit="10" width="226" height="94"/>
			<rect x="772" y="176" fill="none" stroke="#FFFFFF" stroke-width="4" stroke-miterlimit="10" width="113" height="94"/>
		</g>
		<g>
			<circle fill="#FFFFFF" cx="828.473" cy="223.372" r="4.145"/>
			<line fill="none" stroke="#FFFFFF" stroke-width="4" stroke-miterlimit="10" x1="828" y1="223" x2="828" y2="332"/>
			<polygon fill="#FFFFFF" points="820.902,330 828.416,337.773 835.283,330 			"/>
		</g>
		<g>
			<path fill="#FFFFFF" d="M818.853,378.318c2.051,2.159,4.749,4.102,8.797,4.102c4.156,0,7.124-2.482,7.124-6.314
				c0-4.102-2.806-6.854-11.01-6.854v-3.399c7.34,0,9.769-2.807,9.769-6.423c0-3.347-2.267-5.451-5.937-5.451
				c-2.86,0-5.289,1.457-7.34,3.508l-2.375-2.806c2.645-2.483,5.829-4.318,9.877-4.318c5.99,0,10.309,3.185,10.309,8.743
				c0,4.156-2.537,6.801-6.261,8.204v0.216c4.155,0.972,7.447,3.993,7.447,8.743c0,6.099-5.019,9.822-11.333,9.822
				c-5.505,0-9.014-2.32-11.334-4.857L818.853,378.318z"/>
		</g>
		<g>
			<circle fill="#FFFFFF" cx="937.964" cy="224.119" r="4.145"/>
			<line fill="none" stroke="#FFFFFF" stroke-width="4" stroke-miterlimit="10" x1="938" y1="224" x2="1047" y2="224"/>
			<line fill="none" stroke="#FFFFFF" stroke-width="4" stroke-miterlimit="10" x1="1045" y1="226" x2="1045" y2="117"/>
			<line fill="none" stroke="#FFFFFF" stroke-width="4" stroke-miterlimit="10" x1="1047" y1="119" x2="148" y2="119"/>
			<line fill="none" stroke="#FFFFFF" stroke-width="4" stroke-miterlimit="10" x1="148" y1="224" x2="194" y2="224"/>
			<line fill="none" stroke="#FFFFFF" stroke-width="4" stroke-miterlimit="10" x1="150" y1="226" x2="150" y2="117"/>
			<polygon fill="#FFFFFF" points="189,230.69 196.773,223.176 189,216.31 			"/>
		</g>
	</g>
</g>
</svg>
