<?xml version="1.0" encoding="utf-8"?>
<!-- Generator: Adobe Illustrator 17.0.2, SVG Export Plug-In . SVG Version: 6.00 Build 0)  -->
<!DOCTYPE svg PUBLIC "-//W3C//DTD SVG 1.1//EN" "http://www.w3.org/Graphics/SVG/1.1/DTD/svg11.dtd">
<svg version="1.1" id="Ebene_1" xmlns="http://www.w3.org/2000/svg" xmlns:xlink="http://www.w3.org/1999/xlink" x="0px" y="0px"
	 width="1744px" height="1377px" viewBox="0 0 1744 1377" enable-background="new 0 0 1744 1377" xml:space="preserve">
<rect x="0" fill="#505456" width="1744" height="1377"/>
<g>
	<g>
		<rect x="212" y="158" fill="none" stroke="#FFFFFF" stroke-width="4" stroke-miterlimit="10" width="94" height="226"/>
		<rect x="212" y="271" fill="none" stroke="#FFFFFF" stroke-width="4" stroke-miterlimit="10" width="94" height="113"/>
	</g>
	<g>
		<rect x="212" y="384" fill="none" stroke="#FFFFFF" stroke-width="4" stroke-miterlimit="10" width="94" height="226"/>
		<rect x="212" y="497" fill="none" stroke="#FFFFFF" stroke-width="4" stroke-miterlimit="10" width="94" height="113"/>
	</g>
	<g>
		<rect x="212" y="610" fill="none" stroke="#FFFFFF" stroke-width="4" stroke-miterlimit="10" width="94" height="226"/>
		<rect x="212" y="723" fill="none" stroke="#FFFFFF" stroke-width="4" stroke-miterlimit="10" width="94" height="113"/>
	</g>
	<g>
		<rect x="212" y="836" fill="none" stroke="#FFFFFF" stroke-width="4" stroke-miterlimit="10" width="94" height="226"/>
		<rect x="212" y="949" fill="none" stroke="#FFFFFF" stroke-width="4" stroke-miterlimit="10" width="94" height="113"/>
	</g>
	<g>
		<rect x="212" y="1062" fill="none" stroke="#FFFFFF" stroke-width="4" stroke-miterlimit="10" width="94" height="226"/>
		<rect x="212" y="1175" fill="none" stroke="#FFFFFF" stroke-width="4" stroke-miterlimit="10" width="94" height="113"/>
	</g>
	<g>
		<g>
			<g>
				<rect x="387" y="168" fill="none" stroke="#FFFFFF" stroke-width="4" stroke-miterlimit="10" width="226" height="94"/>
				<rect x="387" y="168" fill="none" stroke="#FFFFFF" stroke-width="4" stroke-miterlimit="10" width="113" height="94"/>
			</g>
			<g>
				<circle fill="#FFFFFF" cx="443.473" cy="215.372" r="4.145"/>
				<line fill="none" stroke="#FFFFFF" stroke-width="4" stroke-miterlimit="10" x1="443" y1="215" x2="443" y2="324"/>
				<polygon fill="#FFFFFF" points="435.902,322 443.416,329.773 450.283,322 				"/>
			</g>
			<g>
				<path fill="#FFFFFF" d="M416.098,342.632c-0.972-0.432-1.997-0.648-2.969-0.648c-2.482,0-3.67,1.728-3.67,5.073v4.156h5.56
					v3.616h-5.56v22.613h-4.426v-22.613h-3.562v-3.347l3.562-0.27v-4.156c0-5.343,2.429-8.688,7.664-8.688
					c1.619,0,3.185,0.378,4.372,0.863L416.098,342.632z"/>
				<path fill="#FFFFFF" d="M420.037,351.213h3.67l0.378,4.749h0.161c1.781-3.292,4.48-5.396,7.448-5.396
					c1.134,0,1.943,0.162,2.807,0.539l-0.863,3.886c-0.864-0.27-1.457-0.432-2.537-0.432c-2.213,0-4.857,1.619-6.638,6.045v16.839
					h-4.426V351.213z"/>
				<path fill="#FFFFFF" d="M448.046,350.565c6.692,0,10.471,4.803,10.471,12.305c0,0.918-0.055,1.781-0.162,2.429h-17.702
					c0.323,5.667,3.724,9.229,8.743,9.229c2.482,0,4.587-0.81,6.53-2.051l1.565,2.914c-2.268,1.457-5.073,2.698-8.636,2.698
					c-7.016,0-12.575-5.127-12.575-13.708C436.28,355.8,442.056,350.565,448.046,350.565z M454.631,362.385
					c0-5.343-2.375-8.312-6.477-8.312c-3.67,0-7.017,3.022-7.557,8.312H454.631z"/>
				<path fill="#FFFFFF" d="M474.814,350.565c6.692,0,10.471,4.803,10.471,12.305c0,0.918-0.055,1.781-0.162,2.429h-17.702
					c0.323,5.667,3.724,9.229,8.743,9.229c2.482,0,4.587-0.81,6.53-2.051l1.565,2.914c-2.268,1.457-5.073,2.698-8.636,2.698
					c-7.016,0-12.575-5.127-12.575-13.708C463.049,355.8,468.824,350.565,474.814,350.565z M481.399,362.385
					c0-5.343-2.375-8.312-6.477-8.312c-3.67,0-7.017,3.022-7.557,8.312H481.399z"/>
			</g>
			<g>
				<circle fill="#FFFFFF" cx="552.964" cy="216.119" r="4.145"/>
				<line fill="none" stroke="#FFFFFF" stroke-width="4" stroke-miterlimit="10" x1="553" y1="216" x2="662" y2="216"/>
				<polygon fill="#FFFFFF" points="660,222.69 667.773,215.176 660,208.31 				"/>
			</g>
		</g>
		<g>
			<g>
				<rect x="972" y="165" fill="none" stroke="#FFFFFF" stroke-width="4" stroke-miterlimit="10" width="226" height="94"/>
				<rect x="972" y="165" fill="none" stroke="#FFFFFF" stroke-width="4" stroke-miterlimit="10" width="113" height="94"/>
			</g>
			<g>
				<circle fill="#FFFFFF" cx="1028.473" cy="212.372" r="4.145"/>
				<line fill="none" stroke="#FFFFFF" stroke-width="4" stroke-miterlimit="10" x1="1028" y1="212" x2="1028" y2="321"/>
				<polygon fill="#FFFFFF" points="1020.902,319 1028.416,326.773 1035.283,319 				"/>
			</g>
			<g>
				<path fill="#FFFFFF" d="M1004.74,348.213h3.67l0.378,3.777h0.161c2.483-2.482,5.182-4.425,8.798-4.425
					c5.505,0,7.987,3.562,7.987,10.254v16.623h-4.426v-16.029c0-4.911-1.511-7.016-4.965-7.016c-2.698,0-4.533,1.402-7.178,4.048
					v18.997h-4.426V348.213z"/>
				<path fill="#FFFFFF" d="M1033.451,339.955c0-1.727,1.349-2.86,3.076-2.86c1.727,0,3.076,1.134,3.076,2.86
					c0,1.674-1.35,2.86-3.076,2.86C1034.8,342.815,1033.451,341.629,1033.451,339.955z M1034.261,348.213h4.426v26.229h-4.426
					V348.213z"/>
				<path fill="#FFFFFF" d="M1047.537,336.016h4.426v33.462c0,1.402,0.593,1.942,1.241,1.942c0.27,0,0.485,0,0.971-0.107
					l0.594,3.346c-0.594,0.27-1.349,0.432-2.536,0.432c-3.347,0-4.695-2.104-4.695-5.937V336.016z"/>
			</g>
			<g>
				<circle fill="#FFFFFF" cx="1137.964" cy="213.119" r="4.145"/>
				<line fill="none" stroke="#FFFFFF" stroke-width="4" stroke-miterlimit="10" x1="1138" y1="213" x2="1247" y2="213"/>
				<polygon fill="#FFFFFF" points="1245,219.69 1252.773,212.176 1245,205.31 				"/>
			</g>
		</g>
		<g>
			<g>
				<rect x="1258" y="167" fill="none" stroke="#FFFFFF" stroke-width="4" stroke-miterlimit="10" width="226" height="94"/>
				<rect x="1258" y="167" fill="none" stroke="#FFFFFF" stroke-width="4" stroke-miterlimit="10" width="113" height="94"/>
			</g>
			<g>
				<circle fill="#FFFFFF" cx="1314.473" cy="214.372" r="4.145"/>
				<line fill="none" stroke="#FFFFFF" stroke-width="4" stroke-miterlimit="10" x1="1314" y1="214" x2="1314" y2="323"/>
				<polygon fill="#FFFFFF" points="1306.902,321 1314.416,328.773 1321.283,321 				"/>
			</g>
			<g>
				<path fill="#FFFFFF" d="M1290.74,350.213h3.67l0.378,3.777h0.161c2.483-2.482,5.182-4.425,8.798-4.425
					c5.505,0,7.987,3.562,7.987,10.254v16.623h-4.426v-16.029c0-4.911-1.511-7.016-4.965-7.016c-2.698,0-4.533,1.402-7.178,4.048
					v18.997h-4.426V350.213z"/>
				<path fill="#FFFFFF" d="M1319.451,341.955c0-1.727,1.349-2.86,3.076-2.86c1.727,0,3.076,1.134,3.076,2.86
					c0,1.674-1.35,2.86-3.076,2.86C1320.8,344.815,1319.451,343.629,1319.451,341.955z M1320.261,350.213h4.426v26.229h-4.426
					V350.213z"/>
				<path fill="#FFFFFF" d="M1333.537,338.016h4.426v33.462c0,1.402,0.593,1.942,1.241,1.942c0.27,0,0.485,0,0.971-0.107
					l0.594,3.346c-0.594,0.27-1.349,0.432-2.536,0.432c-3.347,0-4.695-2.104-4.695-5.937V338.016z"/>
			</g>
			<g>
				<circle fill="#FFFFFF" cx="1423.964" cy="215.119" r="4.145"/>
				<line fill="none" stroke="#FFFFFF" stroke-width="4" stroke-miterlimit="10" x1="1424" y1="215" x2="1533" y2="215"/>
				<polygon fill="#FFFFFF" points="1531,221.69 1538.773,214.176 1531,207.31 				"/>
			</g>
			<g>
				<path fill="#FFFFFF" d="M1553.02,202.213h3.67l0.378,3.777h0.161c2.483-2.482,5.182-4.425,8.798-4.425
					c5.505,0,7.987,3.562,7.987,10.254v16.623h-4.426v-16.029c0-4.911-1.511-7.016-4.965-7.016c-2.698,0-4.533,1.402-7.178,4.048
					v18.997h-4.426V202.213z"/>
				<path fill="#FFFFFF" d="M1581.73,193.955c0-1.727,1.349-2.86,3.076-2.86c1.727,0,3.076,1.134,3.076,2.86
					c0,1.674-1.35,2.86-3.076,2.86C1583.079,196.815,1581.73,195.629,1581.73,193.955z M1582.54,202.213h4.426v26.229h-4.426
					V202.213z"/>
				<path fill="#FFFFFF" d="M1595.816,190.016h4.426v33.462c0,1.402,0.593,1.942,1.241,1.942c0.27,0,0.485,0,0.971-0.107
					l0.594,3.346c-0.594,0.27-1.349,0.432-2.536,0.432c-3.347,0-4.695-2.104-4.695-5.937V190.016z"/>
			</g>
		</g>
		<g>
			<g>
				<rect x="679" y="168" fill="none" stroke="#FFFFFF" stroke-width="4" stroke-miterlimit="10" width="226" height="94"/>
				<rect x="679" y="168" fill="none" stroke="#FFFFFF" stroke-width="4" stroke-miterlimit="10" width="113" height="94"/>
			</g>
			<g>
				<circle fill="#FFFFFF" cx="735.473" cy="215.372" r="4.145"/>
				<line fill="none" stroke="#FFFFFF" stroke-width="4" stroke-miterlimit="10" x1="735" y1="215" x2="735" y2="324"/>
				<polygon fill="#FFFFFF" points="727.902,322 735.416,329.773 742.283,322 				"/>
			</g>
			<g>
				<path fill="#FFFFFF" d="M711.74,351.213h3.67l0.378,3.777h0.161c2.483-2.482,5.182-4.425,8.798-4.425
					c5.505,0,7.987,3.562,7.987,10.254v16.623h-4.426v-16.029c0-4.911-1.511-7.016-4.965-7.016c-2.698,0-4.533,1.402-7.178,4.048
					v18.997h-4.426V351.213z"/>
				<path fill="#FFFFFF" d="M740.451,342.955c0-1.727,1.349-2.86,3.076-2.86c1.727,0,3.076,1.134,3.076,2.86
					c0,1.674-1.35,2.86-3.076,2.86C741.8,345.815,740.451,344.629,740.451,342.955z M741.261,351.213h4.426v26.229h-4.426V351.213z"
					/>
				<path fill="#FFFFFF" d="M754.537,339.016h4.426v33.462c0,1.402,0.593,1.942,1.241,1.942c0.27,0,0.485,0,0.971-0.107l0.594,3.346
					c-0.594,0.27-1.349,0.432-2.536,0.432c-3.347,0-4.695-2.104-4.695-5.937V339.016z"/>
			</g>
			<g>
				<circle fill="#FFFFFF" cx="844.964" cy="216.119" r="4.145"/>
				<line fill="none" stroke="#FFFFFF" stroke-width="4" stroke-miterlimit="10" x1="845" y1="216" x2="954" y2="216"/>
				<polygon fill="#FFFFFF" points="952,222.69 959.773,215.176 952,208.31 				"/>
			</g>
		</g>
	</g>
	<g>
		<circle fill="#FFFFFF" cx="262.964" cy="211.119" r="4.145"/>
		<line fill="none" stroke="#FFFFFF" stroke-width="4" stroke-miterlimit="10" x1="263" y1="211" x2="372" y2="211"/>
		<polygon fill="#FFFFFF" points="370,217.69 377.773,210.176 370,203.31 		"/>
	</g>
	<g>
		<path fill="#FFFFFF" d="M675.618,75.038h20.4v3.777h-15.921v11.981h13.492v3.778h-13.492v15.867h-4.479V75.038z"/>
		<path fill="#FFFFFF" d="M700.768,84.213h3.67l0.378,4.749h0.161c1.781-3.292,4.48-5.396,7.448-5.396
			c1.134,0,1.943,0.162,2.807,0.539l-0.863,3.886c-0.864-0.27-1.457-0.432-2.537-0.432c-2.213,0-4.857,1.619-6.638,6.045v16.839
			h-4.426V84.213z"/>
		<path fill="#FFFFFF" d="M728.777,83.565c6.692,0,10.471,4.803,10.471,12.305c0,0.918-0.055,1.781-0.162,2.429h-17.702
			c0.323,5.667,3.724,9.229,8.743,9.229c2.482,0,4.587-0.81,6.53-2.051l1.565,2.914c-2.268,1.457-5.073,2.698-8.636,2.698
			c-7.016,0-12.575-5.127-12.575-13.708C717.012,88.8,722.787,83.565,728.777,83.565z M735.362,95.385
			c0-5.343-2.375-8.312-6.477-8.312c-3.67,0-7.017,3.022-7.557,8.312H735.362z"/>
		<path fill="#FFFFFF" d="M755.545,83.565c6.692,0,10.471,4.803,10.471,12.305c0,0.918-0.055,1.781-0.162,2.429h-17.702
			c0.323,5.667,3.724,9.229,8.743,9.229c2.482,0,4.587-0.81,6.53-2.051l1.565,2.914c-2.268,1.457-5.073,2.698-8.636,2.698
			c-7.016,0-12.575-5.127-12.575-13.708C743.779,88.8,749.555,83.565,755.545,83.565z M762.13,95.385
			c0-5.343-2.375-8.312-6.477-8.312c-3.67,0-7.017,3.022-7.557,8.312H762.13z"/>
		<path fill="#FFFFFF" d="M770.602,95.223h12.413v3.4h-12.413V95.223z"/>
		<path fill="#FFFFFF" d="M790.138,102.725c2.537,2.645,6.099,4.426,9.77,4.426c4.641,0,7.394-2.321,7.394-5.775
			c0-3.615-2.537-4.749-5.883-6.26l-5.073-2.213c-3.346-1.403-7.178-3.94-7.178-9.121c0-5.397,4.695-9.391,11.117-9.391
			c4.21,0,7.934,1.78,10.471,4.371l-2.429,2.914c-2.159-2.051-4.749-3.346-8.042-3.346c-3.939,0-6.584,1.997-6.584,5.181
			c0,3.4,3.076,4.696,5.883,5.883l5.02,2.159c4.102,1.781,7.285,4.21,7.285,9.445c0,5.612-4.587,10.092-12.035,10.092
			c-4.965,0-9.337-2.051-12.413-5.235L790.138,102.725z"/>
		<path fill="#FFFFFF" d="M819.174,87.829h-3.887v-3.347l4.103-0.27l0.539-7.34h3.725v7.34h7.069v3.616h-7.069V102.4
			c0,3.238,1.025,5.073,4.047,5.073c0.918,0,2.105-0.377,2.969-0.701l0.863,3.346c-1.457,0.486-3.238,0.972-4.857,0.972
			c-5.612,0-7.501-3.562-7.501-8.743V87.829z"/>
		<path fill="#FFFFFF" d="M846.32,83.565c6.423,0,12.144,5.019,12.144,13.816c0,8.688-5.721,13.708-12.144,13.708
			s-12.144-5.02-12.144-13.708C834.177,88.584,839.897,83.565,846.32,83.565z M846.32,107.42c4.533,0,7.556-4.048,7.556-10.038
			c0-6.045-3.022-10.146-7.556-10.146c-4.479,0-7.556,4.102-7.556,10.146C838.765,103.372,841.841,107.42,846.32,107.42z"/>
		<path fill="#FFFFFF" d="M865.37,84.213h3.67l0.378,4.749h0.162c1.78-3.292,4.479-5.396,7.447-5.396
			c1.134,0,1.943,0.162,2.807,0.539l-0.863,3.886c-0.864-0.27-1.457-0.432-2.537-0.432c-2.213,0-4.857,1.619-6.638,6.045v16.839
			h-4.426V84.213z"/>
		<path fill="#FFFFFF" d="M897.59,93.819c0-3.346-1.134-6.584-5.397-6.584c-3.076,0-5.774,1.403-7.825,2.807l-1.781-3.077
			c2.429-1.564,6.099-3.399,10.309-3.399c6.422,0,9.121,4.264,9.121,10.794v16.083h-3.67l-0.378-3.13h-0.108
			c-2.536,2.051-5.451,3.777-8.689,3.777c-4.425,0-7.718-2.752-7.718-7.447C881.452,97.921,886.418,95.061,897.59,93.819z
			 M890.412,107.528c2.536,0,4.641-1.241,7.178-3.509v-7.285c-8.797,1.079-11.766,3.237-11.766,6.584
			C885.824,106.287,887.821,107.528,890.412,107.528z"/>
		<path fill="#FFFFFF" d="M912.215,109.524v-0.216c-1.296-0.81-2.321-2.212-2.321-4.264c0-2.212,1.512-3.939,2.86-4.856v-0.217
			c-1.727-1.402-3.399-3.939-3.399-7.069c0-5.721,4.533-9.337,9.876-9.337c1.458,0,2.753,0.27,3.725,0.647h9.121v3.4h-5.397
			c1.241,1.187,2.159,3.184,2.159,5.396c0,5.613-4.264,9.121-9.607,9.121c-1.295,0-2.752-0.324-3.939-0.917
			c-0.918,0.81-1.673,1.673-1.673,3.13c0,1.673,1.079,2.86,4.642,2.86h5.073c6.099,0,9.175,1.889,9.175,6.261
			c0,4.857-5.128,9.066-13.277,9.066c-6.422,0-10.848-2.536-10.848-7.069C908.383,113.249,909.84,111.144,912.215,109.524z
			 M919.879,119.455c5.019,0,8.311-2.59,8.311-5.343c0-2.429-1.889-3.238-5.289-3.238h-4.533c-1.025,0-2.267-0.107-3.4-0.432
			c-1.889,1.35-2.698,2.914-2.698,4.426C912.269,117.675,915.129,119.455,919.879,119.455z M924.79,92.902
			c0-3.832-2.483-6.099-5.56-6.099s-5.559,2.267-5.559,6.099s2.536,6.26,5.559,6.26S924.79,96.734,924.79,92.902z"/>
		<path fill="#FFFFFF" d="M946.647,83.565c6.692,0,10.471,4.803,10.471,12.305c0,0.918-0.055,1.781-0.162,2.429h-17.702
			c0.323,5.667,3.724,9.229,8.743,9.229c2.482,0,4.587-0.81,6.53-2.051l1.565,2.914c-2.268,1.457-5.073,2.698-8.636,2.698
			c-7.016,0-12.575-5.127-12.575-13.708C934.882,88.8,940.657,83.565,946.647,83.565z M953.232,95.385
			c0-5.343-2.375-8.312-6.477-8.312c-3.67,0-7.017,3.022-7.557,8.312H953.232z"/>
		<path fill="#FFFFFF" d="M974.926,75.038h4.479v31.572h15.489v3.832h-19.969V75.038z"/>
		<path fill="#FFFFFF" d="M999.914,75.955c0-1.727,1.349-2.86,3.076-2.86c1.727,0,3.076,1.134,3.076,2.86
			c0,1.674-1.35,2.86-3.076,2.86C1001.263,78.815,999.914,77.629,999.914,75.955z M1000.724,84.213h4.426v26.229h-4.426V84.213z"/>
		<path fill="#FFFFFF" d="M1013.297,104.506c2.267,1.835,4.588,3.13,7.718,3.13c3.454,0,5.182-1.835,5.182-4.102
			c0-2.698-3.131-3.886-5.991-4.965c-3.724-1.35-7.825-3.131-7.825-7.557c0-4.209,3.346-7.447,9.013-7.447
			c3.292,0,6.152,1.349,8.149,2.968l-2.104,2.807c-1.781-1.35-3.67-2.32-5.991-2.32c-3.292,0-4.803,1.78-4.803,3.777
			c0,2.483,2.86,3.4,5.828,4.534c3.778,1.403,7.988,2.968,7.988,7.934c0,4.264-3.4,7.825-9.606,7.825
			c-3.725,0-7.286-1.565-9.77-3.616L1013.297,104.506z"/>
		<path fill="#FFFFFF" d="M1037.367,87.829h-3.887v-3.347l4.103-0.27l0.539-7.34h3.725v7.34h7.069v3.616h-7.069V102.4
			c0,3.238,1.025,5.073,4.047,5.073c0.918,0,2.105-0.377,2.969-0.701l0.863,3.346c-1.457,0.486-3.238,0.972-4.857,0.972
			c-5.612,0-7.501-3.562-7.501-8.743V87.829z"/>
	</g>
	<g>
		<path fill="#FFFFFF" d="M134.952,1290.03v-10.524c0-7.178,2.429-12.143,8.635-12.143c3.509,0,6.639,1.996,7.718,6.152h0.216
			c0.81-5.182,3.616-8.204,8.474-8.204c6.962,0,10.362,5.506,10.362,13.439v11.279H134.952z M150.063,1280.315
			c0-6.044-2.159-8.527-6.099-8.527c-3.832,0-5.451,2.807-5.451,8.312v5.451h11.55V1280.315z M166.794,1279.398
			c0-6.099-2.212-9.661-7.016-9.661c-4.372,0-6.368,3.454-6.368,9.661v6.152h13.384V1279.398z"/>
		<path fill="#FFFFFF" d="M153.733,1243.887c-3.346,0-6.584,1.134-6.584,5.397c0,3.076,1.403,5.774,2.807,7.825l-3.077,1.781
			c-1.564-2.429-3.399-6.099-3.399-10.309c0-6.422,4.264-9.121,10.794-9.121h16.083v3.67l-3.13,0.378v0.108
			c2.051,2.536,3.777,5.451,3.777,8.689c0,4.425-2.752,7.718-7.447,7.718C157.835,1260.024,154.975,1255.059,153.733,1243.887z
			 M167.442,1251.064c0-2.536-1.241-4.641-3.509-7.178h-7.285c1.079,8.797,3.237,11.766,6.584,11.766
			C166.201,1255.652,167.442,1253.655,167.442,1251.064z"/>
		<path fill="#FFFFFF" d="M164.42,1231.799c1.835-2.267,3.13-4.588,3.13-7.718c0-3.454-1.835-5.182-4.102-5.182
			c-2.698,0-3.886,3.131-4.965,5.991c-1.35,3.724-3.131,7.825-7.557,7.825c-4.209,0-7.447-3.346-7.447-9.013
			c0-3.292,1.349-6.152,2.968-8.149l2.807,2.104c-1.35,1.781-2.32,3.67-2.32,5.991c0,3.292,1.78,4.803,3.777,4.803
			c2.483,0,3.4-2.86,4.534-5.828c1.403-3.778,2.968-7.988,7.934-7.988c4.264,0,7.825,3.4,7.825,9.606
			c0,3.725-1.565,7.286-3.616,9.77L164.42,1231.799z"/>
		<path fill="#FFFFFF" d="M143.479,1198.661c0-6.692,4.803-10.471,12.305-10.471c0.918,0,1.781,0.055,2.429,0.162v17.702
			c5.667-0.323,9.229-3.724,9.229-8.743c0-2.482-0.81-4.587-2.051-6.53l2.914-1.565c1.457,2.268,2.698,5.073,2.698,8.636
			c0,7.016-5.127,12.575-13.708,12.575C148.714,1210.427,143.479,1204.651,143.479,1198.661z M155.299,1192.076
			c-5.343,0-8.312,2.375-8.312,6.477c0,3.67,3.022,7.017,8.312,7.557V1192.076z"/>
		<path fill="#FFFFFF" d="M170.356,1150.953l-14.95,8.527v6.423h14.95v4.479h-35.404v-11.063c0-7.232,2.591-12.413,9.931-12.413
			c5.505,0,8.851,3.13,10.038,7.934l15.436-8.959V1150.953z M151.736,1165.903v-5.937c0-5.505-2.267-8.581-6.854-8.581
			c-4.642,0-6.314,3.076-6.314,8.581v5.937H151.736z"/>
		<path fill="#FFFFFF" d="M143.479,1130.176c0-6.692,4.803-10.471,12.305-10.471c0.918,0,1.781,0.055,2.429,0.162v17.702
			c5.667-0.323,9.229-3.724,9.229-8.743c0-2.482-0.81-4.587-2.051-6.53l2.914-1.565c1.457,2.268,2.698,5.073,2.698,8.636
			c0,7.016-5.127,12.575-13.708,12.575C148.714,1141.941,143.479,1136.166,143.479,1130.176z M155.299,1123.591
			c-5.343,0-8.312,2.375-8.312,6.477c0,3.67,3.022,7.017,8.312,7.557V1123.591z"/>
		<path fill="#FFFFFF" d="M169.438,1111.935h-0.216c-0.81,1.296-2.212,2.321-4.264,2.321c-2.212,0-3.939-1.512-4.856-2.86h-0.217
			c-1.402,1.727-3.939,3.399-7.069,3.399c-5.721,0-9.337-4.533-9.337-9.876c0-1.458,0.27-2.753,0.647-3.725v-9.121h3.4v5.397
			c1.187-1.241,3.184-2.159,5.396-2.159c5.613,0,9.121,4.264,9.121,9.607c0,1.295-0.324,2.752-0.917,3.939
			c0.81,0.918,1.673,1.673,3.13,1.673c1.673,0,2.86-1.079,2.86-4.642v-5.073c0-6.099,1.889-9.175,6.261-9.175
			c4.857,0,9.066,5.128,9.066,13.277c0,6.422-2.536,10.848-7.069,10.848C173.163,1115.767,171.058,1114.31,169.438,1111.935z
			 M152.816,1099.359c-3.832,0-6.099,2.483-6.099,5.56s2.267,5.559,6.099,5.559s6.26-2.536,6.26-5.559
			S156.648,1099.359,152.816,1099.359z M179.369,1104.271c0-5.019-2.59-8.311-5.343-8.311c-2.429,0-3.238,1.889-3.238,5.289v4.533
			c0,1.025-0.107,2.267-0.432,3.4c1.35,1.889,2.914,2.698,4.426,2.698C177.589,1111.881,179.369,1109.021,179.369,1104.271z"/>
		<path fill="#FFFFFF" d="M135.869,1087.379c-1.727,0-2.86-1.349-2.86-3.076c0-1.727,1.134-3.076,2.86-3.076
			c1.674,0,2.86,1.35,2.86,3.076C138.729,1086.03,137.543,1087.379,135.869,1087.379z M144.127,1086.569v-4.426h26.229v4.426
			H144.127z"/>
		<path fill="#FFFFFF" d="M164.42,1073.995c1.835-2.267,3.13-4.588,3.13-7.718c0-3.454-1.835-5.182-4.102-5.182
			c-2.698,0-3.886,3.131-4.965,5.991c-1.35,3.724-3.131,7.825-7.557,7.825c-4.209,0-7.447-3.346-7.447-9.013
			c0-3.292,1.349-6.152,2.968-8.149l2.807,2.104c-1.35,1.781-2.32,3.67-2.32,5.991c0,3.292,1.78,4.803,3.777,4.803
			c2.483,0,3.4-2.86,4.534-5.828c1.403-3.778,2.968-7.988,7.934-7.988c4.264,0,7.825,3.4,7.825,9.606
			c0,3.725-1.565,7.286-3.616,9.77L164.42,1073.995z"/>
		<path fill="#FFFFFF" d="M147.743,1049.926v3.886h-3.347l-0.27-4.103l-7.34-0.539v-3.725h7.34v-7.069h3.616v7.069h14.571
			c3.238,0,5.073-1.025,5.073-4.047c0-0.918-0.377-2.105-0.701-2.969l3.346-0.863c0.486,1.457,0.972,3.238,0.972,4.857
			c0,5.612-3.562,7.502-8.743,7.502H147.743z"/>
		<path fill="#FFFFFF" d="M143.479,1023.156c0-6.692,4.803-10.471,12.305-10.471c0.918,0,1.781,0.055,2.429,0.162v17.702
			c5.667-0.323,9.229-3.724,9.229-8.743c0-2.482-0.81-4.587-2.051-6.53l2.914-1.565c1.457,2.268,2.698,5.073,2.698,8.636
			c0,7.016-5.127,12.575-13.708,12.575C148.714,1034.922,143.479,1029.146,143.479,1023.156z M155.299,1016.571
			c-5.343,0-8.312,2.375-8.312,6.477c0,3.67,3.022,7.017,8.312,7.557V1016.571z"/>
		<path fill="#FFFFFF" d="M144.127,1006.211v-3.67l4.749-0.378v-0.161c-3.292-1.781-5.396-4.48-5.396-7.448
			c0-1.134,0.162-1.943,0.539-2.807l3.886,0.863c-0.27,0.864-0.432,1.457-0.432,2.537c0,2.213,1.619,4.857,6.045,6.638h16.839v4.426
			H144.127z"/>
	</g>
	<g>
		<g>
			<circle fill="#FFFFFF" cx="261.964" cy="667.119" r="4.145"/>
			<line fill="none" stroke="#FFFFFF" stroke-width="4" stroke-miterlimit="10" x1="262" y1="667" x2="371" y2="667"/>
			<polygon fill="#FFFFFF" points="369,673.69 376.773,666.176 369,659.31 			"/>
		</g>
	</g>
	<g>
		<g>
			<rect x="386" y="617" fill="none" stroke="#FFFFFF" stroke-width="4" stroke-miterlimit="10" width="226" height="94"/>
			<rect x="386" y="617" fill="none" stroke="#FFFFFF" stroke-width="4" stroke-miterlimit="10" width="113" height="94"/>
		</g>
		<g>
			<circle fill="#FFFFFF" cx="442.473" cy="664.372" r="4.145"/>
			<line fill="none" stroke="#FFFFFF" stroke-width="4" stroke-miterlimit="10" x1="442" y1="664" x2="442" y2="773"/>
			<polygon fill="#FFFFFF" points="434.902,771 442.416,778.773 449.283,771 			"/>
		</g>
		<g>
			<path fill="#FFFFFF" d="M433.446,822.772h7.88v-25.366h-6.261v-2.86c3.13-0.54,5.397-1.403,7.286-2.536h3.4v30.763h7.124v3.67
				h-19.43V822.772z"/>
		</g>
		<g>
			<circle fill="#FFFFFF" cx="551.964" cy="665.119" r="4.145"/>
			<line fill="none" stroke="#FFFFFF" stroke-width="4" stroke-miterlimit="10" x1="552" y1="665" x2="661" y2="665"/>
			<polygon fill="#FFFFFF" points="659,671.69 666.773,664.176 659,657.31 			"/>
		</g>
	</g>
	<g>
		<g>
			<rect x="667" y="619" fill="none" stroke="#FFFFFF" stroke-width="4" stroke-miterlimit="10" width="226" height="94"/>
			<rect x="667" y="619" fill="none" stroke="#FFFFFF" stroke-width="4" stroke-miterlimit="10" width="113" height="94"/>
		</g>
		<g>
			<circle fill="#FFFFFF" cx="723.473" cy="666.372" r="4.145"/>
			<line fill="none" stroke="#FFFFFF" stroke-width="4" stroke-miterlimit="10" x1="723" y1="666" x2="723" y2="775"/>
			<polygon fill="#FFFFFF" points="715.902,773 723.416,780.773 730.283,773 			"/>
		</g>
		<g>
			<path fill="#FFFFFF" d="M712.342,825.798c10.362-10.309,16.19-16.515,16.19-22.074c0-3.939-2.158-6.746-6.53-6.746
				c-2.86,0-5.343,1.835-7.34,4.156l-2.536-2.537c2.86-3.13,5.937-5.235,10.416-5.235c6.368,0,10.309,4.048,10.309,10.146
				c0,6.477-5.883,12.899-14.032,21.427c1.889-0.162,3.993-0.324,5.774-0.324h9.984v3.832h-22.235V825.798z"/>
		</g>
		<g>
			<circle fill="#FFFFFF" cx="832.964" cy="667.119" r="4.145"/>
			<line fill="none" stroke="#FFFFFF" stroke-width="4" stroke-miterlimit="10" x1="833" y1="667" x2="942" y2="667"/>
			<polygon fill="#FFFFFF" points="940,673.69 947.773,666.176 940,659.31 			"/>
		</g>
		<g>
			<path fill="#FFFFFF" d="M962.02,654.213h3.67l0.378,3.777h0.161c2.483-2.482,5.182-4.425,8.798-4.425
				c5.505,0,7.987,3.562,7.987,10.254v16.623h-4.426v-16.029c0-4.911-1.511-7.016-4.965-7.016c-2.698,0-4.533,1.402-7.178,4.048
				v18.997h-4.426V654.213z"/>
			<path fill="#FFFFFF" d="M990.73,645.955c0-1.727,1.349-2.86,3.076-2.86c1.727,0,3.076,1.134,3.076,2.86
				c0,1.674-1.35,2.86-3.076,2.86C992.079,648.815,990.73,647.629,990.73,645.955z M991.54,654.213h4.426v26.229h-4.426V654.213z"/>
			<path fill="#FFFFFF" d="M1004.816,642.016h4.426v33.462c0,1.402,0.593,1.942,1.241,1.942c0.27,0,0.485,0,0.971-0.107l0.594,3.346
				c-0.594,0.27-1.349,0.432-2.536,0.432c-3.347,0-4.695-2.104-4.695-5.937V642.016z"/>
		</g>
	</g>
	<g>
		<g>
			<rect x="387" y="966" fill="none" stroke="#FFFFFF" stroke-width="4" stroke-miterlimit="10" width="226" height="94"/>
			<rect x="387" y="966" fill="none" stroke="#FFFFFF" stroke-width="4" stroke-miterlimit="10" width="113" height="94"/>
		</g>
		<g>
			<circle fill="#FFFFFF" cx="443.473" cy="1013.372" r="4.145"/>
			<line fill="none" stroke="#FFFFFF" stroke-width="4" stroke-miterlimit="10" x1="443" y1="1013" x2="443" y2="1122"/>
			<polygon fill="#FFFFFF" points="435.902,1120 443.416,1127.773 450.283,1120 			"/>
		</g>
		<g>
			<path fill="#FFFFFF" d="M449.045,1158.819c0-3.346-1.134-6.584-5.397-6.584c-3.076,0-5.774,1.403-7.825,2.807l-1.781-3.077
				c2.429-1.564,6.099-3.399,10.309-3.399c6.422,0,9.121,4.264,9.121,10.794v16.083h-3.67l-0.378-3.13h-0.108
				c-2.536,2.051-5.451,3.777-8.689,3.777c-4.425,0-7.718-2.752-7.718-7.447C432.907,1162.921,437.873,1160.061,449.045,1158.819z
				 M441.867,1172.528c2.536,0,4.641-1.241,7.178-3.509v-7.285c-8.797,1.079-11.766,3.237-11.766,6.584
				C437.279,1171.287,439.276,1172.528,441.867,1172.528z"/>
		</g>
		<g>
			<circle fill="#FFFFFF" cx="557.473" cy="1013.372" r="4.145"/>
			<line fill="none" stroke="#FFFFFF" stroke-width="4" stroke-miterlimit="10" x1="557" y1="1013" x2="557" y2="1122"/>
			<polygon fill="#FFFFFF" points="549.902,1120 557.416,1127.773 564.283,1120 			"/>
		</g>
		<g>
			<path fill="#FFFFFF" d="M547.043,1137.016h4.426v10.47l-0.108,4.75c2.375-2.105,5.289-3.67,8.203-3.67
				c6.801,0,10.417,5.234,10.417,13.33c0,8.959-5.344,14.194-11.334,14.194c-2.429,0-5.182-1.188-7.502-3.238h-0.162l-0.378,2.591
				h-3.562V1137.016z M557.891,1172.366c4.317,0,7.502-3.94,7.502-10.416c0-5.775-1.942-9.661-6.908-9.661
				c-2.213,0-4.533,1.241-7.016,3.562v13.762C553.789,1171.61,556.164,1172.366,557.891,1172.366z"/>
		</g>
	</g>
	<g>
		<circle fill="#FFFFFF" cx="258.964" cy="1010.119" r="4.145"/>
		<line fill="none" stroke="#FFFFFF" stroke-width="4" stroke-miterlimit="10" x1="259" y1="1010" x2="368" y2="1010"/>
		<polygon fill="#FFFFFF" points="366,1016.69 373.773,1009.176 366,1002.31 		"/>
	</g>
	<g>
		<g>
			<rect x="684" y="963" fill="none" stroke="#FFFFFF" stroke-width="4" stroke-miterlimit="10" width="226" height="94"/>
			<rect x="684" y="963" fill="none" stroke="#FFFFFF" stroke-width="4" stroke-miterlimit="10" width="113" height="94"/>
		</g>
		<g>
			<circle fill="#FFFFFF" cx="740.473" cy="1010.372" r="4.145"/>
			<line fill="none" stroke="#FFFFFF" stroke-width="4" stroke-miterlimit="10" x1="740" y1="1010" x2="740" y2="1119"/>
			<polygon fill="#FFFFFF" points="732.902,1117 740.416,1124.773 747.283,1117 			"/>
		</g>
		<g>
			<path fill="#FFFFFF" d="M743.4,1145.565c3.454,0,5.883,1.457,7.664,3.13l-2.213,2.86c-1.564-1.349-3.184-2.32-5.289-2.32
				c-4.749,0-8.203,4.102-8.203,10.146c0,5.99,3.292,10.038,8.096,10.038c2.482,0,4.587-1.241,6.152-2.645l1.997,2.914
				c-2.375,2.105-5.397,3.4-8.527,3.4c-6.962,0-12.306-5.02-12.306-13.708C730.771,1150.584,736.654,1145.565,743.4,1145.565z"/>
		</g>
		<g>
			<circle fill="#FFFFFF" cx="849.964" cy="1011.119" r="4.145"/>
			<line fill="none" stroke="#FFFFFF" stroke-width="4" stroke-miterlimit="10" x1="850" y1="1011" x2="959" y2="1011"/>
			<polygon fill="#FFFFFF" points="957,1017.69 964.773,1010.176 957,1003.31 			"/>
		</g>
		<g>
			<path fill="#FFFFFF" d="M979.02,998.213h3.67l0.378,3.777h0.161c2.483-2.482,5.182-4.425,8.798-4.425
				c5.505,0,7.987,3.562,7.987,10.254v16.623h-4.426v-16.029c0-4.911-1.511-7.016-4.965-7.016c-2.698,0-4.533,1.402-7.178,4.048
				v18.997h-4.426V998.213z"/>
			<path fill="#FFFFFF" d="M1007.73,989.955c0-1.727,1.349-2.86,3.076-2.86c1.727,0,3.076,1.134,3.076,2.86
				c0,1.674-1.35,2.86-3.076,2.86C1009.079,992.815,1007.73,991.629,1007.73,989.955z M1008.54,998.213h4.426v26.229h-4.426V998.213
				z"/>
			<path fill="#FFFFFF" d="M1021.816,986.016h4.426v33.462c0,1.402,0.593,1.942,1.241,1.942c0.27,0,0.485,0,0.971-0.107l0.594,3.346
				c-0.594,0.27-1.349,0.432-2.536,0.432c-3.347,0-4.695-2.104-4.695-5.937V986.016z"/>
		</g>
	</g>
	<g>
		<g>
			
				<rect x="1078.215" y="613.005" transform="matrix(0.9999 -0.0118 0.0118 0.9999 -7.7158 14.122)" fill="none" stroke="#FFFFFF" stroke-width="4" stroke-miterlimit="10" width="226" height="94"/>
			
				<rect x="1078.219" y="613.672" transform="matrix(0.9999 -0.0118 0.0118 0.9999 -7.7276 13.4545)" fill="none" stroke="#FFFFFF" stroke-width="4" stroke-miterlimit="10" width="113" height="94"/>
		</g>
		<g>
			<circle fill="#FFFFFF" cx="1134.697" cy="661.045" r="4.145"/>
			
				<line fill="none" stroke="#FFFFFF" stroke-width="4" stroke-miterlimit="10" x1="1134.219" y1="660.678" x2="1135.507" y2="769.671"/>
			<polygon fill="#FFFFFF" points="1128.385,767.755 1135.991,775.439 1142.765,767.585 			"/>
		</g>
		<g>
			<path fill="#FFFFFF" d="M1148.521,813.463l-4.696,0.056l0.112,9.498l-4.208,0.05l-0.112-9.498l-15.488,0.183l-0.034-2.914
				l14.472-22.191l4.964-0.059l0.253,21.37l4.696-0.056L1148.521,813.463z M1139.574,810.007l-0.118-9.983
				c-0.021-1.835,0.105-4.806,0.191-6.642l-0.216,0.003c-0.844,1.682-1.798,3.205-2.75,4.89l-7.901,11.859L1139.574,810.007z"/>
		</g>
		<g>
			<circle fill="#FFFFFF" cx="1248.688" cy="659.697" r="4.145"/>
			
				<line fill="none" stroke="#FFFFFF" stroke-width="4" stroke-miterlimit="10" x1="1248.211" y1="659.331" x2="1249.499" y2="768.323"/>
			<polygon fill="#FFFFFF" points="1242.378,766.408 1249.983,774.092 1256.757,766.238 			"/>
		</g>
		<g>
			<path fill="#FFFFFF" d="M1245.789,803.732l-0.003-0.216c-2.558-1.751-4.854-4.261-4.896-7.877
				c-0.062-5.288,4.104-8.9,9.663-8.966c5.99-0.07,9.76,3.717,9.822,9.06c0.043,3.615-2.565,6.723-4.649,8.367l0.003,0.216
				c3.096,1.745,6.038,4.138,6.094,8.779c0.061,5.127-4.317,9.227-11.009,9.306c-6.476,0.076-11.326-3.859-11.391-9.311
				C1239.37,808.611,1242.572,805.498,1245.789,803.732z M1250.883,819.109c3.994-0.048,6.716-2.562,6.674-6.125
				c-0.053-4.426-4.441-5.993-9.432-7.93c-2.729,1.866-4.751,4.427-4.714,7.558C1243.456,816.443,1246.673,819.159,1250.883,819.109
				z M1256.546,795.995c-0.04-3.4-2.284-6.071-6.062-6.027c-3.185,0.038-5.533,2.277-5.494,5.624
				c0.049,4.102,3.848,5.784,8.022,7.354C1255.31,800.866,1256.576,798.531,1256.546,795.995z"/>
		</g>
	</g>
</g>
</svg>
