<?xml version="1.0" encoding="utf-8"?>
<!-- Generator: Adobe Illustrator 17.0.2, SVG Export Plug-In . SVG Version: 6.00 Build 0)  -->
<!DOCTYPE svg PUBLIC "-//W3C//DTD SVG 1.1//EN" "http://www.w3.org/Graphics/SVG/1.1/DTD/svg11.dtd">
<svg version="1.1" id="Ebene_1" xmlns="http://www.w3.org/2000/svg" xmlns:xlink="http://www.w3.org/1999/xlink" x="0px" y="0px"
	 width="1184px" height="500px" viewBox="0 0 1184 500" enable-background="new 0 0 1184 500" xml:space="preserve">
<g>
	<g transform="matrix(1,0,0,1,8,153)">
		<path vector-effect="non-scaling-stroke" fill="#FFFFFF" d="M-8-153h1184v500H-8V-153"/>
	</g>
	<g transform="matrix(1,0,0,1,8,153)">
		<g enable-background="new    ">
			<path d="M174.508-83.25v-8.921h-3.186v-1.816h8.533v1.816h-3.179v8.921H174.508z"/>
			<path d="M181.664-88.655l-1.868-0.337c0.21-0.752,0.571-1.309,1.084-1.67s1.274-0.542,2.285-0.542
				c0.918,0,1.602,0.108,2.051,0.326c0.449,0.217,0.766,0.493,0.948,0.827c0.184,0.335,0.275,0.949,0.275,1.842l-0.022,2.402
				c0,0.685,0.033,1.188,0.099,1.513c0.066,0.325,0.189,0.673,0.37,1.044h-2.036c-0.054-0.137-0.12-0.339-0.198-0.607
				c-0.034-0.122-0.059-0.203-0.073-0.242c-0.352,0.342-0.728,0.599-1.128,0.77c-0.4,0.17-0.828,0.256-1.282,0.256
				c-0.801,0-1.432-0.217-1.894-0.652c-0.461-0.434-0.692-0.983-0.692-1.647c0-0.439,0.105-0.831,0.315-1.176
				c0.21-0.344,0.504-0.607,0.883-0.791c0.378-0.183,0.924-0.343,1.637-0.479c0.962-0.181,1.628-0.349,2-0.506v-0.205
				c0-0.395-0.098-0.677-0.293-0.846c-0.195-0.168-0.564-0.252-1.106-0.252c-0.366,0-0.652,0.071-0.857,0.216
				C181.957-89.269,181.791-89.016,181.664-88.655z M184.418-86.985c-0.264,0.088-0.681,0.193-1.252,0.315s-0.945,0.241-1.121,0.358
				c-0.269,0.19-0.403,0.433-0.403,0.726c0,0.288,0.107,0.537,0.322,0.746c0.215,0.211,0.488,0.315,0.82,0.315
				c0.371,0,0.725-0.122,1.062-0.366c0.249-0.186,0.413-0.412,0.491-0.682c0.054-0.176,0.081-0.51,0.081-1.003V-86.985z"/>
			<path d="M188.278-82.737l2.351,0.286c0.039,0.272,0.129,0.461,0.271,0.563c0.195,0.146,0.503,0.22,0.923,0.22
				c0.537,0,0.94-0.08,1.208-0.242c0.181-0.107,0.317-0.28,0.41-0.52c0.063-0.171,0.095-0.486,0.095-0.945v-1.135
				c-0.615,0.84-1.392,1.26-2.329,1.26c-1.045,0-1.873-0.441-2.483-1.326c-0.479-0.697-0.718-1.566-0.718-2.607
				c0-1.303,0.313-2.299,0.941-2.988c0.627-0.688,1.407-1.032,2.34-1.032c0.962,0,1.755,0.423,2.38,1.267v-1.091h1.926v6.979
				c0,0.918-0.076,1.604-0.227,2.059s-0.364,0.811-0.637,1.069s-0.639,0.462-1.095,0.608c-0.457,0.146-1.034,0.219-1.732,0.219
				c-1.318,0-2.253-0.226-2.805-0.677c-0.552-0.452-0.828-1.024-0.828-1.718C188.27-82.557,188.273-82.64,188.278-82.737z
				 M190.116-87.301c0,0.826,0.16,1.43,0.479,1.813c0.32,0.383,0.714,0.575,1.183,0.575c0.503,0,0.928-0.197,1.274-0.59
				c0.347-0.394,0.52-0.976,0.52-1.747c0-0.806-0.166-1.403-0.498-1.794s-0.752-0.586-1.26-0.586c-0.493,0-0.9,0.191-1.22,0.574
				C190.276-88.671,190.116-88.086,190.116-87.301z"/>
			<path d="M203.337-88.655l-1.868-0.337c0.21-0.752,0.571-1.309,1.084-1.67s1.274-0.542,2.285-0.542
				c0.918,0,1.602,0.108,2.051,0.326c0.449,0.217,0.766,0.493,0.948,0.827c0.184,0.335,0.275,0.949,0.275,1.842l-0.022,2.402
				c0,0.685,0.033,1.188,0.099,1.513c0.066,0.325,0.189,0.673,0.37,1.044h-2.036c-0.054-0.137-0.12-0.339-0.197-0.607
				c-0.035-0.122-0.059-0.203-0.074-0.242c-0.352,0.342-0.728,0.599-1.127,0.77c-0.401,0.17-0.828,0.256-1.282,0.256
				c-0.801,0-1.432-0.217-1.894-0.652c-0.461-0.434-0.692-0.983-0.692-1.647c0-0.439,0.105-0.831,0.315-1.176
				c0.21-0.344,0.504-0.607,0.883-0.791c0.378-0.183,0.924-0.343,1.637-0.479c0.962-0.181,1.628-0.349,2-0.506v-0.205
				c0-0.395-0.099-0.677-0.293-0.846c-0.196-0.168-0.564-0.252-1.106-0.252c-0.366,0-0.651,0.071-0.856,0.216
				C203.63-89.269,203.463-89.016,203.337-88.655z M206.091-86.985c-0.264,0.088-0.682,0.193-1.253,0.315s-0.944,0.241-1.12,0.358
				c-0.27,0.19-0.403,0.433-0.403,0.726c0,0.288,0.107,0.537,0.322,0.746c0.215,0.211,0.488,0.315,0.82,0.315
				c0.371,0,0.726-0.122,1.062-0.366c0.25-0.186,0.413-0.412,0.491-0.682c0.054-0.176,0.081-0.51,0.081-1.003V-86.985z"/>
			<path d="M216.924-88.728l-2.029,0.366c-0.068-0.405-0.224-0.71-0.465-0.915c-0.242-0.205-0.556-0.309-0.941-0.309
				c-0.513,0-0.922,0.178-1.227,0.531c-0.306,0.354-0.458,0.946-0.458,1.776c0,0.923,0.155,1.575,0.465,1.956
				c0.311,0.381,0.727,0.57,1.249,0.57c0.391,0,0.711-0.11,0.959-0.333c0.25-0.222,0.426-0.604,0.527-1.146l2.021,0.344
				c-0.21,0.928-0.612,1.629-1.208,2.102c-0.596,0.475-1.395,0.711-2.396,0.711c-1.138,0-2.044-0.359-2.721-1.076
				c-0.676-0.719-1.014-1.712-1.014-2.981c0-1.284,0.339-2.284,1.018-2.999c0.679-0.716,1.597-1.073,2.754-1.073
				c0.947,0,1.7,0.204,2.26,0.611C216.277-90.184,216.679-89.563,216.924-88.728z"/>
			<path d="M222.05-91.028v1.641h-1.406v3.135c0,0.635,0.014,1.005,0.04,1.109c0.027,0.105,0.088,0.192,0.184,0.261
				c0.095,0.068,0.211,0.102,0.348,0.102c0.19,0,0.466-0.065,0.828-0.197l0.176,1.597c-0.479,0.205-1.021,0.308-1.627,0.308
				c-0.371,0-0.705-0.062-1.003-0.187c-0.298-0.125-0.517-0.286-0.655-0.483c-0.14-0.198-0.236-0.465-0.289-0.803
				c-0.045-0.238-0.066-0.722-0.066-1.449v-3.392h-0.945v-1.641h0.945v-1.546l2.065-1.201v2.747H222.05z"/>
			<path d="M223.477-92.083v-1.904h2.059v1.904H223.477z M223.477-83.25v-7.778h2.059v7.778H223.477z"/>
			<path d="M229.783-83.25l-3.135-7.778h2.161l1.465,3.97l0.425,1.326c0.112-0.338,0.184-0.56,0.213-0.667
				c0.067-0.22,0.141-0.439,0.219-0.659l1.48-3.97h2.116l-3.091,7.778H229.783z"/>
			<path d="M235.987-92.083v-1.904h2.059v1.904H235.987z M235.987-83.25v-7.778h2.059v7.778H235.987z"/>
			<path d="M243.721-91.028v1.641h-1.406v3.135c0,0.635,0.014,1.005,0.04,1.109c0.027,0.105,0.088,0.192,0.184,0.261
				c0.095,0.068,0.211,0.102,0.348,0.102c0.19,0,0.466-0.065,0.828-0.197l0.176,1.597c-0.479,0.205-1.021,0.308-1.627,0.308
				c-0.371,0-0.705-0.062-1.003-0.187c-0.298-0.125-0.517-0.286-0.655-0.483c-0.14-0.198-0.236-0.465-0.289-0.803
				c-0.045-0.238-0.066-0.722-0.066-1.449v-3.392h-0.945v-1.641h0.945v-1.546l2.065-1.201v2.747H243.721z"/>
			<path d="M244.177-91.028h2.19l1.859,5.522l1.816-5.522h2.132l-2.747,7.485l-0.49,1.355c-0.181,0.453-0.353,0.8-0.517,1.039
				c-0.163,0.239-0.352,0.434-0.563,0.583c-0.213,0.148-0.474,0.265-0.784,0.348c-0.31,0.083-0.66,0.124-1.051,0.124
				c-0.396,0-0.784-0.041-1.165-0.124l-0.183-1.611c0.322,0.063,0.612,0.095,0.872,0.095c0.478,0,0.832-0.14,1.062-0.421
				c0.229-0.28,0.405-0.639,0.527-1.073L244.177-91.028z"/>
			<path d="M257.601-91.028h1.92v1.143c0.248-0.391,0.586-0.708,1.01-0.952c0.426-0.244,0.896-0.366,1.414-0.366
				c0.903,0,1.67,0.354,2.3,1.062c0.63,0.709,0.944,1.695,0.944,2.959c0,1.3-0.317,2.309-0.951,3.029
				c-0.636,0.72-1.404,1.08-2.308,1.08c-0.43,0-0.819-0.086-1.168-0.256c-0.35-0.171-0.717-0.464-1.103-0.879v3.918h-2.059V-91.028z
				 M259.638-87.271c0,0.875,0.173,1.521,0.52,1.938c0.347,0.418,0.77,0.627,1.268,0.627c0.478,0,0.876-0.192,1.193-0.575
				c0.317-0.384,0.477-1.012,0.477-1.886c0-0.815-0.164-1.422-0.491-1.816c-0.327-0.396-0.732-0.594-1.216-0.594
				c-0.503,0-0.921,0.194-1.252,0.582C259.804-88.607,259.638-88.033,259.638-87.271z"/>
			<path d="M271.327-85.725l2.051,0.345c-0.264,0.752-0.68,1.324-1.249,1.717c-0.568,0.394-1.28,0.59-2.135,0.59
				c-1.353,0-2.354-0.441-3.003-1.326c-0.513-0.707-0.769-1.601-0.769-2.68c0-1.289,0.336-2.299,1.01-3.029
				c0.674-0.729,1.526-1.095,2.557-1.095c1.157,0,2.07,0.382,2.739,1.146c0.669,0.764,0.989,1.935,0.96,3.512h-5.156
				c0.014,0.61,0.18,1.085,0.498,1.425c0.316,0.339,0.712,0.509,1.186,0.509c0.322,0,0.594-0.088,0.813-0.264
				S271.215-85.335,271.327-85.725z M271.444-87.806c-0.015-0.596-0.169-1.049-0.462-1.358c-0.293-0.311-0.649-0.465-1.068-0.465
				c-0.45,0-0.82,0.163-1.113,0.49s-0.438,0.771-0.433,1.333H271.444z"/>
			<path d="M277.135-83.25h-2.059v-7.778h1.912v1.106c0.327-0.522,0.621-0.867,0.883-1.033c0.261-0.166,0.558-0.249,0.89-0.249
				c0.469,0,0.92,0.13,1.354,0.388l-0.637,1.795c-0.347-0.225-0.669-0.337-0.967-0.337c-0.288,0-0.532,0.079-0.732,0.238
				c-0.2,0.158-0.357,0.445-0.473,0.86c-0.114,0.415-0.172,1.284-0.172,2.607V-83.25z"/>
			<path d="M286.621-83.25l-2.461-7.778h1.999l1.458,5.098l1.34-5.098h1.984l1.297,5.098l1.486-5.098h2.029l-2.498,7.778h-1.977
				l-1.341-5.002l-1.318,5.002H286.621z"/>
			<path d="M301.342-85.725l2.051,0.345c-0.264,0.752-0.68,1.324-1.249,1.717c-0.568,0.394-1.28,0.59-2.135,0.59
				c-1.353,0-2.354-0.441-3.003-1.326c-0.513-0.707-0.769-1.601-0.769-2.68c0-1.289,0.336-2.299,1.01-3.029
				c0.674-0.729,1.526-1.095,2.557-1.095c1.157,0,2.07,0.382,2.739,1.146c0.669,0.764,0.989,1.935,0.96,3.512h-5.156
				c0.014,0.61,0.18,1.085,0.498,1.425c0.316,0.339,0.712,0.509,1.186,0.509c0.322,0,0.594-0.088,0.813-0.264
				S301.229-85.335,301.342-85.725z M301.459-87.806c-0.015-0.596-0.169-1.049-0.462-1.358c-0.293-0.311-0.649-0.465-1.068-0.465
				c-0.45,0-0.82,0.163-1.113,0.49s-0.438,0.771-0.433,1.333H301.459z"/>
			<path d="M309.684-85.725l2.051,0.345c-0.264,0.752-0.68,1.324-1.249,1.717c-0.568,0.394-1.28,0.59-2.135,0.59
				c-1.353,0-2.354-0.441-3.003-1.326c-0.513-0.707-0.769-1.601-0.769-2.68c0-1.289,0.336-2.299,1.01-3.029
				c0.674-0.729,1.526-1.095,2.557-1.095c1.157,0,2.07,0.382,2.739,1.146c0.669,0.764,0.989,1.935,0.96,3.512h-5.156
				c0.014,0.61,0.18,1.085,0.498,1.425c0.316,0.339,0.712,0.509,1.186,0.509c0.322,0,0.594-0.088,0.813-0.264
				S309.572-85.335,309.684-85.725z M309.802-87.806c-0.015-0.596-0.169-1.049-0.462-1.358c-0.293-0.311-0.649-0.465-1.068-0.465
				c-0.45,0-0.82,0.163-1.113,0.49s-0.438,0.771-0.433,1.333H309.802z"/>
			<path d="M313.449-83.25v-10.737h2.058v5.698l2.409-2.739h2.535l-2.659,2.842l2.849,4.937h-2.219l-1.955-3.494l-0.96,1.004v2.49
				H313.449z"/>
		</g>
	</g>
	<g transform="matrix(1,0,0,1,8,153)" opacity="0">
		<path vector-effect="non-scaling-stroke" fill="#FFFFFF" d="M1013-57h148V54h-148V-57"/>
	</g>
	<g transform="matrix(1,0,0,1,8,153)" opacity="0">
		<path vector-effect="non-scaling-stroke" fill="#FFFFFF" d="M1013-57h148v15h-148V-57"/>
	</g>
	<g transform="matrix(1,0,0,1,8,153)">
		<g enable-background="new    ">
			<path fill="#222222" d="M1033.311-41.232l0.249-1.121c0.264,0.068,0.472,0.104,0.623,0.104c0.269,0,0.469-0.09,0.601-0.268
				c0.132-0.179,0.197-0.624,0.197-1.337v-8.174h1.318v8.203c0,0.957-0.124,1.623-0.373,1.999c-0.317,0.488-0.845,0.732-1.582,0.732
				C1033.988-41.094,1033.643-41.14,1033.311-41.232z M1034.981-53.457v-1.53h1.318v1.53H1034.981z"/>
			<path fill="#222222" d="M1043.397-45.209c-0.488,0.415-0.959,0.708-1.41,0.879c-0.452,0.17-0.937,0.256-1.454,0.256
				c-0.854,0-1.511-0.209-1.97-0.626c-0.459-0.418-0.688-0.951-0.688-1.601c0-0.381,0.086-0.729,0.26-1.044
				c0.173-0.314,0.4-0.567,0.682-0.758c0.28-0.19,0.597-0.334,0.948-0.433c0.259-0.067,0.649-0.134,1.172-0.197
				c1.064-0.127,1.848-0.278,2.351-0.454c0.005-0.181,0.008-0.295,0.008-0.345c0-0.536-0.125-0.915-0.374-1.135
				c-0.337-0.298-0.837-0.447-1.501-0.447c-0.62,0-1.078,0.109-1.373,0.326c-0.296,0.218-0.515,0.603-0.656,1.154l-1.289-0.176
				c0.117-0.552,0.311-0.998,0.579-1.337c0.269-0.34,0.656-0.601,1.164-0.784c0.508-0.183,1.097-0.274,1.766-0.274
				c0.664,0,1.203,0.078,1.618,0.234s0.721,0.353,0.916,0.59c0.195,0.236,0.332,0.536,0.41,0.897
				c0.044,0.225,0.065,0.629,0.065,1.215v1.758c0,1.227,0.028,2.001,0.085,2.326c0.056,0.324,0.167,0.636,0.333,0.934h-1.377
				C1043.524-44.523,1043.436-44.844,1043.397-45.209z M1043.287-48.154c-0.479,0.196-1.196,0.362-2.153,0.498
				c-0.542,0.079-0.925,0.167-1.149,0.264c-0.225,0.099-0.398,0.241-0.521,0.429c-0.122,0.188-0.183,0.397-0.183,0.626
				c0,0.352,0.133,0.645,0.399,0.879c0.266,0.234,0.655,0.352,1.168,0.352c0.508,0,0.959-0.11,1.354-0.333
				c0.396-0.222,0.687-0.525,0.872-0.911c0.142-0.298,0.212-0.737,0.212-1.318V-48.154z"/>
			<path fill="#222222" d="M1048.824-44.25l-2.959-7.778h1.392l1.67,4.658c0.181,0.503,0.347,1.025,0.498,1.567
				c0.117-0.41,0.281-0.903,0.491-1.479l1.729-4.746h1.354l-2.944,7.778H1048.824z"/>
			<path fill="#222222" d="M1059.239-45.209c-0.488,0.415-0.958,0.708-1.41,0.879c-0.451,0.17-0.936,0.256-1.453,0.256
				c-0.854,0-1.512-0.209-1.971-0.626c-0.459-0.418-0.688-0.951-0.688-1.601c0-0.381,0.087-0.729,0.26-1.044
				c0.174-0.314,0.4-0.567,0.682-0.758c0.28-0.19,0.597-0.334,0.948-0.433c0.259-0.067,0.649-0.134,1.172-0.197
				c1.064-0.127,1.849-0.278,2.352-0.454c0.005-0.181,0.007-0.295,0.007-0.345c0-0.536-0.124-0.915-0.373-1.135
				c-0.337-0.298-0.838-0.447-1.502-0.447c-0.62,0-1.078,0.109-1.373,0.326c-0.296,0.218-0.514,0.603-0.655,1.154l-1.289-0.176
				c0.117-0.552,0.31-0.998,0.578-1.337c0.269-0.34,0.657-0.601,1.165-0.784c0.508-0.183,1.096-0.274,1.765-0.274
				c0.664,0,1.204,0.078,1.619,0.234s0.72,0.353,0.915,0.59c0.195,0.236,0.332,0.536,0.41,0.897
				c0.044,0.225,0.066,0.629,0.066,1.215v1.758c0,1.227,0.027,2.001,0.084,2.326c0.056,0.324,0.167,0.636,0.333,0.934h-1.377
				C1059.366-44.523,1059.278-44.844,1059.239-45.209z M1059.13-48.154c-0.479,0.196-1.196,0.362-2.153,0.498
				c-0.542,0.079-0.926,0.167-1.15,0.264c-0.225,0.099-0.397,0.241-0.52,0.429c-0.122,0.188-0.184,0.397-0.184,0.626
				c0,0.352,0.133,0.645,0.399,0.879c0.266,0.234,0.655,0.352,1.168,0.352c0.508,0,0.96-0.11,1.355-0.333
				c0.396-0.222,0.686-0.525,0.871-0.911c0.142-0.298,0.213-0.737,0.213-1.318V-48.154z"/>
		</g>
	</g>
	<g transform="matrix(1,0,0,1,8,153)">
		<path vector-effect="non-scaling-stroke" fill="#3366CC" d="M1013-57h15v15h-15V-57"/>
	</g>
	<g transform="matrix(1,0,0,1,8,153)" opacity="0">
		<path vector-effect="non-scaling-stroke" fill="#FFFFFF" d="M1013-33h148v15h-148V-33"/>
	</g>
	<g transform="matrix(1,0,0,1,8,153)">
		<g enable-background="new    ">
			<path fill="#222222" d="M1033.311-17.232l0.249-1.121c0.264,0.068,0.472,0.104,0.623,0.104c0.269,0,0.469-0.09,0.601-0.268
				c0.132-0.179,0.197-0.624,0.197-1.337v-8.174h1.318v8.203c0,0.957-0.124,1.623-0.373,1.999c-0.317,0.488-0.845,0.732-1.582,0.732
				C1033.988-17.094,1033.643-17.14,1033.311-17.232z M1034.981-29.457v-1.53h1.318v1.53H1034.981z"/>
			<path fill="#222222" d="M1043.397-21.209c-0.488,0.415-0.959,0.708-1.41,0.879c-0.452,0.17-0.937,0.256-1.454,0.256
				c-0.854,0-1.511-0.209-1.97-0.626c-0.459-0.418-0.688-0.951-0.688-1.601c0-0.381,0.086-0.729,0.26-1.044
				c0.173-0.314,0.4-0.567,0.682-0.758c0.28-0.19,0.597-0.334,0.948-0.433c0.259-0.067,0.649-0.134,1.172-0.197
				c1.064-0.127,1.848-0.278,2.351-0.454c0.005-0.181,0.008-0.295,0.008-0.345c0-0.536-0.125-0.915-0.374-1.135
				c-0.337-0.298-0.837-0.447-1.501-0.447c-0.62,0-1.078,0.109-1.373,0.326c-0.296,0.218-0.515,0.603-0.656,1.154l-1.289-0.176
				c0.117-0.552,0.311-0.998,0.579-1.337c0.269-0.34,0.656-0.601,1.164-0.784c0.508-0.183,1.097-0.274,1.766-0.274
				c0.664,0,1.203,0.078,1.618,0.234s0.721,0.353,0.916,0.59c0.195,0.236,0.332,0.536,0.41,0.897
				c0.044,0.225,0.065,0.629,0.065,1.215v1.758c0,1.227,0.028,2.001,0.085,2.326c0.056,0.324,0.167,0.636,0.333,0.934h-1.377
				C1043.524-20.523,1043.436-20.844,1043.397-21.209z M1043.287-24.154c-0.479,0.196-1.196,0.362-2.153,0.498
				c-0.542,0.079-0.925,0.167-1.149,0.264c-0.225,0.099-0.398,0.241-0.521,0.429c-0.122,0.188-0.183,0.397-0.183,0.626
				c0,0.352,0.133,0.645,0.399,0.879c0.266,0.234,0.655,0.352,1.168,0.352c0.508,0,0.959-0.11,1.354-0.333
				c0.396-0.222,0.687-0.525,0.872-0.911c0.142-0.298,0.212-0.737,0.212-1.318V-24.154z"/>
			<path fill="#222222" d="M1048.824-20.25l-2.959-7.778h1.392l1.67,4.658c0.181,0.503,0.347,1.025,0.498,1.567
				c0.117-0.41,0.281-0.903,0.491-1.479l1.729-4.746h1.354l-2.944,7.778H1048.824z"/>
			<path fill="#222222" d="M1059.239-21.209c-0.488,0.415-0.958,0.708-1.41,0.879c-0.451,0.17-0.936,0.256-1.453,0.256
				c-0.854,0-1.512-0.209-1.971-0.626c-0.459-0.418-0.688-0.951-0.688-1.601c0-0.381,0.087-0.729,0.26-1.044
				c0.174-0.314,0.4-0.567,0.682-0.758c0.28-0.19,0.597-0.334,0.948-0.433c0.259-0.067,0.649-0.134,1.172-0.197
				c1.064-0.127,1.849-0.278,2.352-0.454c0.005-0.181,0.007-0.295,0.007-0.345c0-0.536-0.124-0.915-0.373-1.135
				c-0.337-0.298-0.838-0.447-1.502-0.447c-0.62,0-1.078,0.109-1.373,0.326c-0.296,0.218-0.514,0.603-0.655,1.154l-1.289-0.176
				c0.117-0.552,0.31-0.998,0.578-1.337c0.269-0.34,0.657-0.601,1.165-0.784c0.508-0.183,1.096-0.274,1.765-0.274
				c0.664,0,1.204,0.078,1.619,0.234s0.72,0.353,0.915,0.59c0.195,0.236,0.332,0.536,0.41,0.897
				c0.044,0.225,0.066,0.629,0.066,1.215v1.758c0,1.227,0.027,2.001,0.084,2.326c0.056,0.324,0.167,0.636,0.333,0.934h-1.377
				C1059.366-20.523,1059.278-20.844,1059.239-21.209z M1059.13-24.154c-0.479,0.196-1.196,0.362-2.153,0.498
				c-0.542,0.079-0.926,0.167-1.15,0.264c-0.225,0.099-0.397,0.241-0.52,0.429c-0.122,0.188-0.184,0.397-0.184,0.626
				c0,0.352,0.133,0.645,0.399,0.879c0.266,0.234,0.655,0.352,1.168,0.352c0.508,0,0.96-0.11,1.355-0.333
				c0.396-0.222,0.686-0.525,0.871-0.911c0.142-0.298,0.213-0.737,0.213-1.318V-24.154z"/>
			<path fill="#222222" d="M1061.978-22.572l1.304-0.205c0.073,0.523,0.277,0.924,0.612,1.201c0.334,0.279,0.801,0.418,1.402,0.418
				c0.605,0,1.055-0.123,1.348-0.37c0.293-0.246,0.439-0.535,0.439-0.868c0-0.297-0.131-0.531-0.389-0.703
				c-0.182-0.117-0.629-0.266-1.348-0.446c-0.967-0.244-1.637-0.455-2.01-0.634c-0.374-0.178-0.657-0.425-0.85-0.739
				c-0.193-0.315-0.29-0.663-0.29-1.044c0-0.347,0.079-0.668,0.238-0.963c0.158-0.296,0.375-0.541,0.648-0.736
				c0.205-0.151,0.484-0.279,0.839-0.385c0.354-0.104,0.732-0.157,1.139-0.157c0.609,0,1.146,0.088,1.607,0.264
				s0.803,0.414,1.021,0.714c0.221,0.301,0.371,0.702,0.455,1.205l-1.289,0.176c-0.059-0.4-0.229-0.713-0.51-0.938
				s-0.678-0.337-1.189-0.337c-0.607,0-1.039,0.101-1.297,0.3c-0.259,0.201-0.389,0.436-0.389,0.703
				c0,0.172,0.054,0.325,0.161,0.462c0.107,0.142,0.276,0.259,0.505,0.352c0.133,0.049,0.521,0.161,1.166,0.337
				c0.932,0.249,1.582,0.453,1.951,0.611c0.369,0.159,0.658,0.39,0.867,0.692c0.211,0.303,0.316,0.679,0.316,1.128
				c0,0.439-0.129,0.854-0.385,1.241c-0.258,0.389-0.627,0.688-1.109,0.901c-0.484,0.212-1.031,0.318-1.641,0.318
				c-1.012,0-1.782-0.21-2.312-0.63C1062.463-21.124,1062.125-21.746,1061.978-22.572z"/>
			<path fill="#222222" d="M1075.082-23.099l1.297,0.169c-0.143,0.894-0.505,1.593-1.088,2.099c-0.584,0.505-1.301,0.758-2.15,0.758
				c-1.064,0-1.92-0.348-2.566-1.044c-0.647-0.695-0.971-1.692-0.971-2.991c0-0.84,0.139-1.575,0.418-2.205
				c0.277-0.63,0.701-1.103,1.271-1.417c0.568-0.315,1.188-0.473,1.856-0.473c0.845,0,1.535,0.214,2.072,0.641
				c0.537,0.428,0.882,1.034,1.033,1.82l-1.281,0.198c-0.123-0.522-0.339-0.916-0.648-1.18c-0.311-0.264-0.686-0.396-1.125-0.396
				c-0.664,0-1.203,0.238-1.618,0.714c-0.415,0.477-0.622,1.229-0.622,2.26c0,1.045,0.199,1.805,0.6,2.277
				c0.4,0.475,0.924,0.711,1.568,0.711c0.517,0,0.949-0.158,1.296-0.477C1074.769-21.951,1074.989-22.439,1075.082-23.099z"/>
			<path fill="#222222" d="M1077.492-20.25v-7.778h1.186v1.179c0.303-0.551,0.583-0.915,0.839-1.091
				c0.257-0.176,0.538-0.264,0.847-0.264c0.443,0,0.896,0.142,1.354,0.425l-0.454,1.223c-0.322-0.189-0.645-0.285-0.967-0.285
				c-0.288,0-0.547,0.087-0.776,0.26c-0.229,0.174-0.394,0.414-0.491,0.722c-0.146,0.469-0.219,0.981-0.219,1.538v4.072H1077.492z"
				/>
			<path fill="#222222" d="M1082.508-29.471v-1.517h1.318v1.517H1082.508z M1082.508-20.25v-7.778h1.318v7.778H1082.508z"/>
			<path fill="#222222" d="M1085.833-17.269v-10.759h1.201v1.011c0.283-0.396,0.604-0.692,0.96-0.89
				c0.356-0.198,0.788-0.297,1.296-0.297c0.664,0,1.25,0.171,1.758,0.513s0.892,0.824,1.15,1.446
				c0.259,0.623,0.389,1.306,0.389,2.048c0,0.796-0.144,1.512-0.429,2.149c-0.286,0.637-0.701,1.125-1.245,1.465
				c-0.545,0.339-1.117,0.509-1.718,0.509c-0.439,0-0.834-0.093-1.183-0.278c-0.35-0.186-0.637-0.42-0.861-0.703v3.786H1085.833z
				 M1087.027-24.096c0,1.002,0.202,1.741,0.608,2.22c0.404,0.479,0.896,0.718,1.472,0.718c0.586,0,1.088-0.248,1.505-0.743
				c0.418-0.496,0.627-1.264,0.627-2.304c0-0.991-0.204-1.733-0.612-2.227c-0.407-0.493-0.895-0.74-1.461-0.74
				c-0.562,0-1.059,0.263-1.49,0.788C1087.243-25.859,1087.027-25.096,1087.027-24.096z"/>
			<path fill="#222222" d="M1097.054-21.43l0.19,1.165c-0.371,0.078-0.703,0.117-0.996,0.117c-0.479,0-0.85-0.076-1.113-0.228
				c-0.264-0.15-0.449-0.35-0.557-0.597c-0.107-0.246-0.161-0.765-0.161-1.556v-4.476h-0.967v-1.025h0.967v-1.927l1.311-0.791v2.718
				h1.326v1.025h-1.326v4.548c0,0.377,0.023,0.618,0.07,0.726c0.046,0.107,0.122,0.193,0.227,0.257
				c0.105,0.063,0.255,0.095,0.451,0.095C1096.623-21.378,1096.815-21.394,1097.054-21.43z"/>
		</g>
	</g>
	<g transform="matrix(1,0,0,1,8,153)">
		<path vector-effect="non-scaling-stroke" fill="#DC3912" d="M1013-33h15v15h-15V-33"/>
	</g>
	<g transform="matrix(1,0,0,1,8,153)" opacity="0">
		<path vector-effect="non-scaling-stroke" fill="#FFFFFF" d="M1013-9h148V6h-148V-9"/>
	</g>
	<g transform="matrix(1,0,0,1,8,153)">
		<g enable-background="new    ">
			<path fill="#222222" d="M1034.989,6.731V-4.028h1.201v1.011c0.283-0.396,0.603-0.692,0.959-0.89
				c0.356-0.198,0.789-0.297,1.297-0.297c0.664,0,1.25,0.171,1.758,0.513s0.891,0.824,1.149,1.446
				c0.259,0.623,0.389,1.306,0.389,2.048c0,0.796-0.144,1.512-0.429,2.149c-0.286,0.637-0.701,1.125-1.245,1.465
				c-0.545,0.339-1.117,0.509-1.718,0.509c-0.439,0-0.834-0.093-1.183-0.278c-0.35-0.186-0.636-0.42-0.86-0.703v3.786H1034.989z
				 M1036.182-0.096c0,1.002,0.203,1.741,0.608,2.22s0.896,0.718,1.472,0.718c0.586,0,1.088-0.248,1.505-0.743
				c0.418-0.496,0.627-1.264,0.627-2.304c0-0.991-0.204-1.733-0.612-2.227c-0.407-0.493-0.895-0.74-1.461-0.74
				c-0.562,0-1.059,0.263-1.49,0.788C1036.398-1.859,1036.182-1.096,1036.182-0.096z"/>
			<path fill="#222222" d="M1043.272,6.746l-0.146-1.238c0.288,0.078,0.54,0.117,0.755,0.117c0.293,0,0.527-0.049,0.703-0.146
				s0.319-0.234,0.432-0.41c0.083-0.132,0.218-0.459,0.403-0.981c0.024-0.073,0.063-0.181,0.117-0.322l-2.952-7.793h1.421
				l1.619,4.505c0.21,0.57,0.397,1.172,0.563,1.801c0.151-0.604,0.332-1.195,0.542-1.771l1.663-4.534h1.318l-2.959,7.91
				c-0.317,0.854-0.564,1.442-0.74,1.765c-0.234,0.435-0.503,0.754-0.806,0.956c-0.303,0.203-0.664,0.304-1.084,0.304
				C1043.868,6.906,1043.585,6.853,1043.272,6.746z"/>
			<path fill="#222222" d="M1053.71,2.57l0.19,1.165c-0.371,0.078-0.703,0.117-0.996,0.117c-0.479,0-0.85-0.076-1.113-0.228
				c-0.264-0.15-0.449-0.35-0.557-0.597c-0.107-0.246-0.161-0.765-0.161-1.556v-4.476h-0.967v-1.025h0.967v-1.927l1.311-0.791v2.718
				h1.326v1.025h-1.326v4.548c0,0.377,0.023,0.618,0.07,0.726c0.046,0.107,0.121,0.193,0.227,0.257
				c0.104,0.063,0.255,0.095,0.45,0.095C1053.277,2.622,1053.47,2.606,1053.71,2.57z"/>
			<path fill="#222222" d="M1054.999,3.75V-6.987h1.318v3.853c0.615-0.713,1.392-1.069,2.329-1.069c0.576,0,1.076,0.113,1.501,0.341
				c0.425,0.227,0.729,0.541,0.912,0.941c0.183,0.4,0.274,0.98,0.274,1.742v4.93h-1.318v-4.93c0-0.658-0.143-1.139-0.429-1.438
				c-0.285-0.301-0.689-0.45-1.212-0.45c-0.391,0-0.758,0.101-1.103,0.304c-0.344,0.202-0.589,0.478-0.735,0.823
				c-0.146,0.348-0.22,0.826-0.22,1.436V3.75H1054.999z"/>
			<path fill="#222222" d="M1062.85-0.139c0-1.44,0.4-2.508,1.2-3.201c0.67-0.576,1.484-0.864,2.447-0.864
				c1.068,0,1.943,0.351,2.621,1.051c0.68,0.701,1.018,1.669,1.018,2.904c0,1.001-0.148,1.788-0.449,2.362
				c-0.301,0.573-0.738,1.02-1.311,1.336c-0.574,0.317-1.201,0.477-1.879,0.477c-1.09,0-1.969-0.349-2.641-1.047
				S1062.85,1.175,1062.85-0.139z M1064.205-0.139c0,0.996,0.217,1.741,0.652,2.237c0.434,0.495,0.98,0.743,1.641,0.743
				c0.654,0,1.197-0.249,1.633-0.747c0.434-0.498,0.652-1.257,0.652-2.278c0-0.961-0.219-1.69-0.656-2.186
				c-0.438-0.496-0.98-0.744-1.629-0.744c-0.66,0-1.207,0.247-1.641,0.74C1064.422-1.88,1064.205-1.135,1064.205-0.139z"/>
			<path fill="#222222" d="M1071.682,3.75v-7.778h1.188v1.106c0.57-0.854,1.396-1.282,2.475-1.282c0.469,0,0.9,0.084,1.293,0.253
				c0.394,0.168,0.688,0.39,0.883,0.662c0.195,0.274,0.332,0.599,0.41,0.975c0.049,0.244,0.073,0.672,0.073,1.281V3.75h-1.318
				v-4.731c0-0.537-0.052-0.938-0.153-1.205c-0.104-0.266-0.285-0.479-0.546-0.637c-0.262-0.159-0.567-0.238-0.919-0.238
				c-0.562,0-1.047,0.179-1.454,0.534c-0.408,0.357-0.612,1.033-0.612,2.029V3.75H1071.682z"/>
		</g>
	</g>
	<g transform="matrix(1,0,0,1,8,153)">
		<path vector-effect="non-scaling-stroke" fill="#FF9900" d="M1013-9h15V6h-15V-9"/>
	</g>
	<g transform="matrix(1,0,0,1,8,153)" opacity="0">
		<path vector-effect="non-scaling-stroke" fill="#FFFFFF" d="M1013,15h148v15h-148V15"/>
	</g>
	<g transform="matrix(1,0,0,1,8,153)">
		<g enable-background="new    ">
			<path fill="#222222" d="M1034.498,23.861c0-1.44,0.4-2.508,1.201-3.201c0.669-0.576,1.484-0.864,2.446-0.864
				c1.069,0,1.943,0.351,2.622,1.051c0.679,0.701,1.019,1.669,1.019,2.904c0,1.001-0.15,1.788-0.451,2.362
				c-0.3,0.573-0.737,1.02-1.311,1.336c-0.574,0.317-1.2,0.477-1.879,0.477c-1.089,0-1.969-0.349-2.641-1.047
				C1034.834,26.181,1034.498,25.175,1034.498,23.861z M1035.853,23.861c0,0.996,0.217,1.741,0.651,2.237
				c0.435,0.495,0.981,0.743,1.641,0.743c0.654,0,1.199-0.249,1.634-0.747s0.651-1.257,0.651-2.278c0-0.961-0.219-1.69-0.655-2.186
				c-0.438-0.496-0.98-0.744-1.63-0.744c-0.659,0-1.206,0.247-1.641,0.74S1035.853,22.865,1035.853,23.861z"/>
			<path fill="#222222" d="M1044.547,27.75h-1.223V17.013h1.318v3.831c0.557-0.698,1.267-1.048,2.131-1.048
				c0.479,0,0.932,0.097,1.359,0.289c0.427,0.193,0.778,0.464,1.055,0.813c0.275,0.349,0.491,0.771,0.647,1.264
				s0.234,1.021,0.234,1.582c0,1.332-0.329,2.363-0.988,3.09c-0.659,0.729-1.45,1.092-2.373,1.092c-0.918,0-1.639-0.383-2.161-1.15
				V27.75z M1044.532,23.803c0,0.933,0.127,1.606,0.381,2.021c0.415,0.679,0.977,1.018,1.685,1.018c0.576,0,1.074-0.25,1.494-0.751
				c0.42-0.5,0.63-1.246,0.63-2.237c0-1.016-0.201-1.766-0.604-2.248c-0.403-0.484-0.891-0.726-1.462-0.726
				c-0.576,0-1.074,0.25-1.494,0.751C1044.742,22.131,1044.532,22.856,1044.532,23.803z"/>
			<path fill="#222222" d="M1049.996,30.768l0.249-1.121c0.264,0.068,0.472,0.104,0.623,0.104c0.269,0,0.469-0.09,0.601-0.268
				c0.132-0.179,0.197-0.624,0.197-1.337v-8.174h1.318v8.203c0,0.957-0.124,1.623-0.373,1.999c-0.317,0.488-0.845,0.732-1.582,0.732
				C1050.673,30.906,1050.328,30.86,1049.996,30.768z M1051.666,18.543v-1.53h1.318v1.53H1051.666z"/>
			<path fill="#222222" d="M1060.331,25.245l1.362,0.169c-0.215,0.796-0.613,1.413-1.194,1.853s-1.323,0.659-2.227,0.659
				c-1.138,0-2.039-0.351-2.706-1.051c-0.666-0.701-1-1.684-1-2.948c0-1.309,0.337-2.324,1.011-3.047s1.548-1.084,2.622-1.084
				c1.04,0,1.89,0.354,2.549,1.062c0.659,0.709,0.989,1.705,0.989,2.988c0,0.079-0.003,0.196-0.008,0.352h-5.801
				c0.049,0.855,0.291,1.51,0.726,1.963c0.435,0.455,0.977,0.682,1.626,0.682c0.483,0,0.896-0.127,1.237-0.381
				S1060.131,25.802,1060.331,25.245z M1056.002,23.113h4.344c-0.059-0.653-0.225-1.145-0.498-1.472
				c-0.42-0.508-0.965-0.762-1.634-0.762c-0.605,0-1.114,0.203-1.526,0.608C1056.274,21.894,1056.046,22.436,1056.002,23.113z"/>
			<path fill="#222222" d="M1068.424,24.901l1.297,0.169c-0.143,0.894-0.505,1.593-1.088,2.099c-0.584,0.505-1.301,0.758-2.15,0.758
				c-1.064,0-1.92-0.348-2.566-1.044c-0.647-0.695-0.971-1.692-0.971-2.991c0-0.84,0.14-1.575,0.418-2.205s0.701-1.103,1.271-1.417
				c0.568-0.315,1.188-0.473,1.856-0.473c0.845,0,1.535,0.214,2.072,0.641c0.537,0.428,0.882,1.034,1.033,1.82l-1.281,0.198
				c-0.123-0.522-0.339-0.916-0.648-1.18c-0.311-0.264-0.686-0.396-1.125-0.396c-0.664,0-1.203,0.238-1.618,0.714
				c-0.415,0.477-0.622,1.229-0.622,2.26c0,1.045,0.199,1.805,0.6,2.277c0.4,0.475,0.924,0.711,1.568,0.711
				c0.517,0,0.949-0.158,1.296-0.477C1068.111,26.049,1068.331,25.561,1068.424,24.901z"/>
			<path fill="#222222" d="M1073.726,26.57l0.19,1.165c-0.371,0.078-0.703,0.117-0.996,0.117c-0.479,0-0.85-0.076-1.113-0.228
				c-0.264-0.15-0.449-0.35-0.557-0.597c-0.107-0.246-0.161-0.765-0.161-1.556v-4.476h-0.967v-1.025h0.967v-1.927l1.311-0.791v2.718
				h1.326v1.025h-1.326v4.548c0,0.377,0.023,0.618,0.07,0.726c0.046,0.107,0.122,0.193,0.227,0.257
				c0.105,0.063,0.255,0.095,0.451,0.095C1073.295,26.622,1073.487,26.606,1073.726,26.57z"/>
			<path fill="#222222" d="M1075.023,18.529v-1.517h1.318v1.517H1075.023z M1075.023,27.75v-7.778h1.318v7.778H1075.023z"/>
			<path fill="#222222" d="M1080.509,27.75l-2.959-7.778h1.392l1.67,4.658c0.181,0.503,0.347,1.025,0.498,1.567
				c0.117-0.41,0.28-0.903,0.49-1.479l1.729-4.746h1.355l-2.944,7.778H1080.509z"/>
			<path fill="#222222" d="M1091.173,25.245l1.362,0.169c-0.215,0.796-0.613,1.413-1.193,1.853
				c-0.582,0.439-1.324,0.659-2.227,0.659c-1.139,0-2.04-0.351-2.707-1.051c-0.666-0.701-1-1.684-1-2.948
				c0-1.309,0.338-2.324,1.012-3.047s1.547-1.084,2.621-1.084c1.041,0,1.891,0.354,2.549,1.062c0.66,0.709,0.989,1.705,0.989,2.988
				c0,0.079-0.003,0.196-0.007,0.352h-5.801c0.048,0.855,0.29,1.51,0.725,1.963c0.435,0.455,0.977,0.682,1.626,0.682
				c0.483,0,0.896-0.127,1.237-0.381S1090.972,25.802,1091.173,25.245z M1086.844,23.113h4.344
				c-0.059-0.653-0.225-1.145-0.498-1.472c-0.42-0.508-0.965-0.762-1.633-0.762c-0.606,0-1.115,0.203-1.527,0.608
				C1087.116,21.894,1086.888,22.436,1086.844,23.113z"/>
			<path fill="#222222" d="M1093.677,24.527v-1.326h4.05v1.326H1093.677z"/>
			<path fill="#222222" d="M1104.261,24.901l1.297,0.169c-0.143,0.894-0.505,1.593-1.088,2.099c-0.584,0.505-1.301,0.758-2.15,0.758
				c-1.064,0-1.92-0.348-2.566-1.044c-0.647-0.695-0.971-1.692-0.971-2.991c0-0.84,0.139-1.575,0.418-2.205
				c0.277-0.63,0.701-1.103,1.271-1.417c0.568-0.315,1.188-0.473,1.856-0.473c0.845,0,1.535,0.214,2.072,0.641
				c0.537,0.428,0.882,1.034,1.033,1.82l-1.281,0.198c-0.123-0.522-0.339-0.916-0.648-1.18c-0.311-0.264-0.686-0.396-1.125-0.396
				c-0.664,0-1.203,0.238-1.618,0.714c-0.415,0.477-0.622,1.229-0.622,2.26c0,1.045,0.199,1.805,0.6,2.277
				c0.4,0.475,0.924,0.711,1.568,0.711c0.517,0,0.949-0.158,1.296-0.477C1103.949,26.049,1104.169,25.561,1104.261,24.901z"/>
		</g>
	</g>
	<g transform="matrix(1,0,0,1,8,153)">
		<path vector-effect="non-scaling-stroke" fill="#109618" d="M1013,15h15v15h-15V15"/>
	</g>
	<g transform="matrix(1,0,0,1,8,153)" opacity="0">
		<path vector-effect="non-scaling-stroke" fill="#FFFFFF" d="M1013,39h148v15h-148V39"/>
	</g>
	<g transform="matrix(1,0,0,1,8,153)">
		<g enable-background="new    ">
			<path fill="#222222" d="M1034.96,51.75V41.013h1.318V51.75H1034.96z"/>
			<path fill="#222222" d="M1038.329,42.529v-1.517h1.318v1.517H1038.329z M1038.329,51.75v-7.778h1.318v7.778H1038.329z"/>
			<path fill="#222222" d="M1041.127,49.428l1.304-0.205c0.073,0.523,0.276,0.924,0.611,1.201c0.334,0.279,0.802,0.418,1.402,0.418
				c0.605,0,1.055-0.123,1.348-0.37c0.293-0.246,0.439-0.535,0.439-0.868c0-0.297-0.129-0.531-0.388-0.703
				c-0.181-0.117-0.63-0.266-1.348-0.446c-0.967-0.244-1.638-0.455-2.011-0.634c-0.374-0.178-0.657-0.425-0.85-0.739
				c-0.193-0.315-0.289-0.663-0.289-1.044c0-0.347,0.079-0.668,0.237-0.963c0.159-0.296,0.375-0.541,0.648-0.736
				c0.205-0.151,0.484-0.279,0.839-0.385c0.354-0.104,0.733-0.157,1.139-0.157c0.61,0,1.146,0.088,1.607,0.264
				c0.462,0.176,0.803,0.414,1.022,0.714c0.22,0.301,0.371,0.702,0.454,1.205l-1.289,0.176c-0.059-0.4-0.229-0.713-0.51-0.938
				c-0.28-0.225-0.677-0.337-1.189-0.337c-0.605,0-1.038,0.101-1.297,0.3c-0.259,0.201-0.388,0.436-0.388,0.703
				c0,0.172,0.054,0.325,0.161,0.462c0.107,0.142,0.275,0.259,0.505,0.352c0.132,0.049,0.521,0.161,1.165,0.337
				c0.933,0.249,1.583,0.453,1.951,0.611c0.369,0.159,0.658,0.39,0.868,0.692s0.315,0.679,0.315,1.128
				c0,0.439-0.129,0.854-0.385,1.241c-0.257,0.389-0.626,0.688-1.109,0.901c-0.483,0.212-1.03,0.318-1.641,0.318
				c-1.011,0-1.781-0.21-2.312-0.63C1041.611,50.876,1041.273,50.254,1041.127,49.428z"/>
			<path fill="#222222" d="M1049.154,54.731V43.972h1.201v1.011c0.283-0.396,0.603-0.692,0.959-0.89
				c0.356-0.198,0.789-0.297,1.297-0.297c0.664,0,1.25,0.171,1.758,0.513s0.891,0.824,1.149,1.446
				c0.259,0.623,0.389,1.306,0.389,2.048c0,0.796-0.144,1.512-0.429,2.149c-0.286,0.637-0.701,1.125-1.245,1.465
				c-0.545,0.339-1.117,0.509-1.718,0.509c-0.439,0-0.834-0.093-1.183-0.278c-0.35-0.186-0.636-0.42-0.86-0.703v3.786H1049.154z
				 M1050.347,47.904c0,1.002,0.203,1.741,0.608,2.22s0.896,0.718,1.472,0.718c0.586,0,1.088-0.248,1.505-0.743
				c0.418-0.496,0.627-1.264,0.627-2.304c0-0.991-0.204-1.733-0.612-2.227c-0.407-0.493-0.895-0.74-1.461-0.74
				c-0.562,0-1.059,0.263-1.49,0.788C1050.563,46.141,1050.347,46.904,1050.347,47.904z"/>
		</g>
	</g>
	<g transform="matrix(1,0,0,1,8,153)">
		<path vector-effect="non-scaling-stroke" fill="#990099" d="M1013,39h15v15h-15V39"/>
	</g>
	<g transform="matrix(1,0,0,1,8,153)" opacity="0">
		<path vector-effect="non-scaling-stroke" fill="#FFFFFF" d="M171-57h827v309H171V-57"/>
	</g>
	<g transform="matrix(1,0,0,1,8,153)">
		<path vector-effect="non-scaling-stroke" fill="#CCCCCC" d="M171,251h827v1H171V251"/>
	</g>
	<g transform="matrix(1,0,0,1,8,153)">
		<path vector-effect="non-scaling-stroke" fill="#CCCCCC" d="M171,174h827v1H171V174"/>
	</g>
	<g transform="matrix(1,0,0,1,8,153)">
		<path vector-effect="non-scaling-stroke" fill="#CCCCCC" d="M171,97h827v1H171V97"/>
	</g>
	<g transform="matrix(1,0,0,1,8,153)">
		<path vector-effect="non-scaling-stroke" fill="#CCCCCC" d="M171,20h827v1H171V20"/>
	</g>
	<g transform="matrix(1,0,0,1,8,153)">
		<path vector-effect="non-scaling-stroke" fill="#CCCCCC" d="M171-57h827v1H171V-57"/>
	</g>
	<g transform="matrix(1,0,0,1,8,153)">
		<path vector-effect="non-scaling-stroke" fill="#333333" d="M171,251h827v1H171V251"/>
	</g>
	<g transform="matrix(1,0,0,1,8,153)">
		<path vector-effect="none" fill="none" stroke="#3366CC" stroke-width="2" d="M173.476,175.917l3.952-77.978l3.952,1.662
			l3.953-56.99l3.952,17.376l3.952-4.676l3.952-69.78l3.952,29.807l3.952-7.776l3.952,7.406l3.953,18.417l3.952-44.878l3.952,42.194
			l3.952-12.624l3.952,2.356l3.952,7.6l3.953-1.164l3.952,16.306l3.952,8.807l3.952-18.127l3.952,24.856l3.952-26.86l3.952,23.696
			l3.953-34.481l3.952,10.219l3.952,10.526l3.952-9.439l3.952,7.444l3.952,19.867l3.953-42.024l3.952,31.001l3.952-21.648
			l3.952,24.018l3.952-22.104l3.952,15.879l3.952-3.113l3.953-6.404l3.952-16.427l3.952,12.639l3.952,10.119l3.952-16.361
			l3.952,12.266l3.953,1.739l3.952,19.678l3.952-37.588l3.952,11.123l3.952-19.791l3.952,9.344l3.952-26.34l3.953,42.599
			l3.952,17.034l3.952-4.088l3.952,1.86l3.952-7.851l3.952,0.51l3.952,10.888l3.953-12.279l3.952-12.126l3.952,16.597l3.952,12.076
			l3.952-34.273l3.952,6.456l3.953,14.143l3.952-17.241l3.952,29.201l3.952-36.645l3.952,17.42l3.952-0.873l3.952-0.033
			l3.953-12.093l3.952,7.442l3.952,5.556l3.952,4.17l3.952-20.858l3.952-22.566l3.953-4.486l3.952-5.4l3.952,18.145l3.952,5.155
			l3.952-14.876l3.952,3.617l3.952,7.83l3.953-10.145l3.952-6.208l3.952-6.803l3.952-3.603l3.952,16.813l3.952,28.342l3.953-13.718
			l3.952,12.338l3.952-31.361l3.952,3.706l3.952,9.744l3.952,3.568l3.952-1.415l3.953-6.66l3.952,4.772l3.952,0.486l3.952,3.456
			l3.952,24.971l3.952-10.455l3.953-5.137l3.952-0.806l3.952-1.265l3.952-5.147l3.952,3.961l3.952,10.228l3.952,12.48l3.953-19.815
			l3.952-0.024l3.952-27.321l3.952,44.596l3.952-33.206l3.952,24.622l3.953-3.117l3.952-29.842l3.952,7.231l3.952-5.397
			l3.952,10.017l3.952-7.447l3.952,5.66l3.953-11.018l3.952,0.176l3.952,3.571l3.952,14.372l3.952-23.537l3.952,8.359l3.953,4.106
			l3.952-0.687l3.952,1.056l3.952-12.076l3.952,10.749l3.952-2.763l3.952,4.398l3.953-28.186l3.952,8.077l3.952,13.531l3.952,2.467
			l3.952,0.705l3.952,3.253l3.953,0.52l3.952-10.69l3.952,3.336l3.952-8.311l3.952-8.834l3.952,12.164l3.952,4.501l3.953-5.269
			l3.952,17.292l3.952,7.32l3.952-13.334l3.952,5.132l3.952-9.608l3.953,3.653l3.952,4.698l3.952,1.433l3.952-2.243l3.952,8.228
			l3.952-0.448l3.952,5.335l3.953-12.016l3.952,3.432l3.952,0.036l3.952,3.525l3.952-5.317l3.952-6.073l3.953,0.218l3.952,3.955
			l3.952-1.405l3.952-13.584l3.952,14.138l3.952-11.695l3.952-15.857l3.953,2.192l3.952-2.115l3.952,7.749l3.952,11.786l3.952-14.55
			l3.952,1.382l3.952,4.956l3.953-0.483l3.952,5.141l3.952,5.069l3.952-1.585l3.952-13.589l3.952,7.332l3.953-6.245l3.952-2.95
			l3.952-7.963l3.952,4.252l3.952-3.09l3.952-4.628l3.952-2.087l3.953,4.666l3.952,8.824l3.952-1.433l3.952-3.644l3.952,3.636
			l3.952,13.801l3.953-9.312l3.952,14.05l3.952,0.392l3.952-0.649l3.952,7.158l3.952-13.915l3.952-5.27l3.953,14.4l3.952,2.175
			l3.948,0.835"/>
	</g>
	<g transform="matrix(1,0,0,1,8,153)">
		<path vector-effect="none" fill="none" stroke="#DC3912" stroke-width="2" d="M173.476,188.514l3.952-81.8l3.952,63.989
			l3.953-52.536l3.952,6.974l3.952-22.953l3.952,22.696l3.952,0.391l3.952-10.203l3.952-1.761l3.953-7.808l3.952-15.775
			l3.952,42.522l3.952-25.156l3.952,22.603l3.952-27.48l3.953,21.444l3.952-26.001l3.952,5.362l3.952,11.861l3.952-11.149
			l3.952-39.099l3.952,50.324l3.953-14.217l3.952,4.95l3.952-2.342l3.952-16.375l3.952,10.393l3.952-0.824l3.953-0.719l3.952-7.231
			l3.952,22.192l3.952,1.147l3.952-15.982l3.952,7.645l3.952-2.045l3.953-0.991l3.952,15.766l3.952-11.493l3.952-12.318l3.952,3.14
			l3.952-12.348l3.953-2.519l3.952-8.093l3.952,4.465l3.952,22.252l3.952-1.755l3.952-20.269l3.952-2.808l3.953,30.647l3.952-21.656
			l3.952,14.739l3.952-23.535l3.952,7.681l3.952-1.055l3.952,5.365l3.953,3.496l3.952,3.828l3.952,2.045l3.952-4.299l3.952,0.913
			l3.952-1.465l3.953-4.361l3.952-3.309l3.952-9.84l3.952,7.759l3.952,0.102l3.952,7.012l3.952-20.27l3.953-5.024l3.952,24.69
			l3.952-14.874l3.952-11.059l3.952-0.792l3.952,18.237l3.953-12.054l3.952,15.281l3.952,1.459l3.952-12.624l3.952-0.217
			l3.952-1.187l3.952-1.326l3.953,12.423l3.952-4.969l3.952,5.106l3.952-1.912l3.952,3.937l3.952-4.92l3.953-10.872l3.952,7.07
			l3.952-9.443l3.952,5.552l3.952-7.454l3.952,3.999l3.952,13.13l3.953-41.371l3.952,19.011l3.952,9.307l3.952-8.223l3.952,19.931
			l3.952-18.43l3.953,0.827l3.952-2.366l3.952,1.082l3.952,4.638l3.952,14.222l3.952-16.327l3.952-13.276l3.953,5.003l3.952,0.379
			l3.952-5.593l3.952,2.928l3.952,6.776l3.952,9.416l3.953-9.661l3.952-0.948l3.952-8.958l3.952,1.061l3.952,16.048l3.952-8.817
			l3.952,0.007l3.953-14.93l3.952,6.056l3.952-19.099l3.952,12.647l3.952-10.306l3.952,5.219l3.953,12.124l3.952,17.422
			l3.952-19.582l3.952-19.739l3.952,13.879l3.952,9.693l3.952,7.458l3.953-7.919l3.952-1.633l3.952,3.901l3.952-1.418l3.952-1.295
			l3.952-11.515l3.953,3.285l3.952-4.879l3.952-9.911l3.952,11.768l3.952-1.992l3.952,5.559l3.952-10.237l3.953-20.141l3.952-0.235
			l3.952,14.691l3.952-4.016l3.952-5.408l3.952,4.719l3.953-9.134l3.952-3.815l3.952-4.369l3.952,15.901l3.952-21.067l3.952,8.517
			l3.952,7.655l3.953-10.88l3.952,4.535l3.952,9.344l3.952,7.336l3.952-8.563l3.952-1.533l3.953,5.993l3.952-4.518l3.952,6.712
			l3.952,1.253l3.952-7.858l3.952,5.359l3.952-4.978l3.953-4.613l3.952,4.317l3.952,3.659l3.952-6.863l3.952-1.797l3.952,0.023
			l3.952,1.74l3.953-7.057l3.952-0.514l3.952,7.029l3.952,5.644l3.952-6.525l3.952-2.242l3.953,9.554l3.952-5.425l3.952,4.432
			l3.952-5.069l3.952,13.183l3.952-10.455l3.952,1.231l3.953-13.031l3.952,3.914l3.952-2.696l3.952,10.258l3.952-20.251l3.952,2.716
			l3.953,0.018l3.952,1.123l3.952,3.535l3.952-0.034l3.952-1.537l3.952-1.652l3.952-0.395l3.953,5.74l3.952-3.55l3.948-1.349"/>
	</g>
	<g transform="matrix(1,0,0,1,8,153)">
		<path vector-effect="none" fill="none" stroke="#FF9900" stroke-width="2" d="M173.476,100.334l3.952,89.742l3.952-9.678
			l3.953-13.342l3.952-45.864l3.952,3.566l3.952,27.097l3.952-25.416l3.952,10.136l3.952,7.256l3.953,11.804l3.952-18.008
			l3.952,16.982l3.952,0.95l3.952-3.472l3.952-1.33l3.953-5.181l3.952-9.456l3.952,12.373l3.952-17.593l3.952,23.628l3.952-21.048
			l3.952-4.972l3.953,3.479l3.952,0.762l3.952,3.27l3.952,4.84l3.952-9.754l3.952,15.271l3.953,1.341l3.952-5.244l3.952,3.655
			l3.952-10.088l3.952,2.276l3.952,0.554l3.952,10.447l3.953,4.276l3.952-22.764l3.952,10.098l3.952,12.978l3.952-13.584
			l3.952-10.749l3.953-1.621l3.952,10.195l3.952,8.197l3.952-7.77l3.952-5.139l3.952,13.599l3.952-10.368l3.953,4.924l3.952,6.329
			l3.952-7.548l3.952,12.131l3.952-2.744l3.952-13.336l3.952,8.688l3.953,13.807l3.952-11.299l3.952-1.873l3.952-8.289l3.952,6.76
			l3.952-13.633l3.953,9.136l3.952-8.031l3.952,0.751l3.952,3.889l3.952-6.937l3.952,3.758l3.952-6.777l3.953-5.846l3.952,11.834
			l3.952-14.291l3.952,13.508l3.952-19.86l3.952,1.252l3.953,5.36l3.952,2.837l3.952-1.314l3.952,7.4l3.952,6.605l3.952-8.422
			l3.952-2.516l3.953,4.951l3.952,1.528l3.952,5.561l3.952,2.496l3.952-8.086l3.952,8.296l3.953-0.671l3.952,4.843l3.952,10.441
			l3.952-17.647l3.952,16.37l3.952-18.074l3.952-10.722l3.953,16.33l3.952-5.811l3.952-7.155l3.952,11.781l3.952-10.143
			l3.952-11.366l3.953,5.373l3.952-0.107l3.952,8.91l3.952-9.461l3.952,15.365l3.952-4.353l3.952,6.341l3.953-0.645l3.952,11.992
			l3.952-22.27l3.952,16.111l3.952,0.938l3.952-11.839l3.953-4.084l3.952-2.993l3.952-2.039l3.952,7.419l3.952-4.587l3.952,11.196
			l3.952,13.253l3.953-9.059l3.952,0.98l3.952,5.136l3.952-7.315l3.952-1.915l3.952,8.892l3.953-2.384l3.952-7.083l3.952,7.962
			l3.952-5.643l3.952,0.507l3.952-0.08l3.952,0.184l3.953,5.462l3.952-15.677l3.952,13.322l3.952,7.652l3.952-13.914l3.952,5.901
			l3.953,3.375l3.952,2.513l3.952-5.245l3.952-1.379l3.952,8.803l3.952-2.632l3.952,0.726l3.953-8.737l3.952,8.539l3.952-2.553
			l3.952,0.028l3.952-0.292l3.952-4.992l3.953-2.234l3.952-0.586l3.952,11.799l3.952-1.505l3.952-1.236l3.952-5.411l3.952,5.664
			l3.953,10.241l3.952,4.694l3.952-10.848l3.952-1.353l3.952-2.683l3.952,0.817l3.953,2.837l3.952-3.488l3.952,6.123l3.952-12.308
			l3.952,6.942l3.952,1.302l3.952,2.585l3.953-4.672l3.952-2.934l3.952,8.688l3.952,4.483l3.952-11.731l3.952,6.588l3.952-0.181
			l3.953-7.273l3.952,0.949l3.952,1.241l3.952,5.818l3.952-7.938l3.952,2.719l3.953-3.322l3.952,2.067l3.952,0.041l3.952-1.227
			l3.952-5.438l3.952,4.005l3.952-5.219l3.953,4.276l3.952-0.188l3.952,3.494l3.952-0.424l3.952-7.46l3.952,5.346l3.953-2.11
			l3.952-5.311l3.952,3.908l3.952-5.782l3.952,3.384l3.952,1.121l3.952,0.447l3.953-5.171l3.952,4.804l3.948,1.933"/>
	</g>
	<g transform="matrix(1,0,0,1,8,153)">
		<path vector-effect="none" fill="none" stroke="#109618" stroke-width="2" d="M173.476,238.903l3.952-4.953l3.952,4.622
			l3.953-0.405l3.952-2.462l3.952,5.378l3.952,2.176l3.952-4.556l3.952-0.549l3.952-1.914l3.953-2.33l3.952,1.322l3.952-6.091
			l3.952,0.599l3.952,1.161l3.952-1.381l3.953-4.501l3.952-9.842l3.952,5.699l3.952-1.41l3.952,7.791l3.952,4.573l3.952-7.43
			l3.953,4.447l3.952,8.373l3.952-16.11l3.952-0.503l3.952,16.34l3.952-18.213l3.953-15.841l3.952,0.432l3.952,10.869l3.952-0.123
			l3.952-8.098l3.952-2.124l3.952-7.371l3.953-0.731l3.952,19.204l3.952-16.159l3.952,1.287l3.952-8.295l3.952,3.812l3.953-7.152
			l3.952,17.525l3.952-5.664l3.952,2.928l3.952-11.66l3.952,4.122l3.952-6.28l3.953-0.308l3.952,2.362l3.952-2.094l3.952-2.919
			l3.952,9.62l3.952-18.97l3.952,12.237l3.953,7.626l3.952-13.27l3.952,11.654l3.952-6.095l3.952-1.892l3.952-6.149l3.953,10.205
			l3.952,4.239l3.952-5.948l3.952,5.946l3.952-4.092l3.952,0.599l3.952,3.546l3.953-1.384l3.952,0.973l3.952-1.347l3.952-5.699
			l3.952-7.598l3.952-1.99l3.953,6.673l3.952-3.15l3.952,11.848l3.952-4.265l3.952-5.036l3.952-8.661l3.952,12.821l3.953,4.47
			l3.952-4.569l3.952-10.619l3.952,6.944l3.952,4.144l3.952-11.219l3.953,0.076l3.952,5.795l3.952-0.41l3.952,1.617l3.952-0.874
			l3.952-8.297l3.952-6.604l3.953,9.722l3.952-9.418l3.952,5.867l3.952,1.562l3.952-5.077l3.952-21.049l3.953,9.723l3.952-0.664
			l3.952-11.438l3.952,16.801l3.952,2.325l3.952-6.055l3.952-0.535l3.953,0.165l3.952,2.765l3.952,9.394l3.952,0.482l3.952-6.579
			l3.952,7.686l3.953-7.638l3.952,2.368l3.952,3.156l3.952-4.132l3.952-4.802l3.952,5.81l3.952,13.185l3.953-7.609l3.952-7.985
			l3.952,8.594l3.952,0.162l3.952-3.286l3.952,9.874l3.953-14.205l3.952-0.674l3.952-0.663l3.952-1.159l3.952-3.723l3.952,4.731
			l3.952-3.641l3.953-1.178l3.952-1.262l3.952-0.183l3.952-2.049l3.952,1.543l3.952-3.85l3.953-3.819l3.952,0.646l3.952-14.576
			l3.952,6.756l3.952,7.578l3.952-0.831l3.952-12.974l3.953-2.115l3.952,16.66l3.952-3.278l3.952,0.927l3.952-5.467l3.952-13.141
			l3.953,17.783l3.952-11.444l3.952-2.642l3.952,7.494l3.952,12.052l3.952-7.664l3.952-8.355l3.953,5.111l3.952,11.764l3.952-1.556
			l3.952,5.305l3.952-0.698l3.952-2.186l3.953-2.677l3.952-2.186l3.952,4.288l3.952,1.969l3.952-14.434l3.952,10.735l3.952,1.04
			l3.953,1.747l3.952,4.454l3.952-7.326l3.952,8.008l3.952-16.732l3.952,1.582l3.952,10.689l3.953,2.101l3.952-1.253l3.952-6.907
			l3.952,7.086l3.952,3.196l3.952-4.222l3.953,3.803l3.952,3.507l3.952,2.985l3.952-2.328l3.952,4.022l3.952-8.247l3.952-2.986
			l3.953,7.258l3.952-2.354l3.952-5.503l3.952,3.504l3.952,6.74l3.952-2.132l3.953,3.641l3.952-9.348l3.952,8.155l3.952-0.902
			l3.952-0.093l3.952-2.988l3.952,1.054l3.953-3.376l3.952,0.076l3.948-1.704"/>
	</g>
	<g transform="matrix(1,0,0,1,8,153)">
		<path vector-effect="none" fill="none" stroke="#990099" stroke-width="2" d="M173.476,245.201l3.952-11.251l3.952,14.318
			l3.953-3.435l3.952,2.718l3.952,0.477l3.952-5.519l3.952-4.969l3.952,7.287l3.952,2.434l3.953-0.158l3.952,0.782l3.952-4.77
			l3.952,5.418l3.952-5.093l3.952,4.397l3.953,0.01l3.952-0.62l3.952,1.489l3.952-0.043l3.952-2.945l3.952-0.785l3.952-1.781
			l3.953,3.651l3.952,0.177l3.952,0.711l3.952,0.925l3.952-1.095l3.952-2.175l3.953,2.203l3.952-1.13l3.952,3.108l3.952,0.694
			l3.952-2.525l3.952,2.556l3.952-2.994l3.953,0.832l3.952,0.499l3.952,0.036l3.952,2.865h3.952l3.952-0.482l3.953-1.569
			l3.952-0.795l3.952,0.079l3.952,0.946l3.952-2.204l3.952-1.779l3.952,3.003l3.953-2.984l3.952,2.254l3.952,2.373l3.952-1.296
			l3.952-1.109l3.952,2.013l3.952-0.738l3.953,1.111l3.952-1.202l3.952-0.698l3.952,0.371l3.952-0.461l3.952,0.144l3.953,0.474
			l3.952,0.7l3.952-0.581l3.952,0.685l3.952-2.422l3.952,2.273l3.952-0.627l3.953,0.442l3.952-3.38l3.952,3.562l3.952-0.522
			l3.952,0.517l3.952-0.726l3.953,0.356l3.952,0.339l3.952-0.765l3.952,1.638l3.952-3.786l3.952,2.691l3.952,0.337l3.953,0.24
			l3.952-1.214l3.952,1.248l3.952,1.031l3.952-1.821l3.952,0.286l3.953,0.779l3.952,0.031l3.952-0.444l3.952,0.12l3.952,0.569
			l3.952,0.015l3.952-1.641l3.953,1.136l3.952-0.797l3.952,0.654l3.952,0.478l3.952-0.23l3.952-1.027l3.953-0.354l3.952,1.517
			l3.952-1.646l3.952,1.02l3.952,0.217l3.952-2.333l3.952,2.355l3.953-0.668l3.952,0.582l3.952-1.891l3.952-0.118l3.952,0.63
			l3.952-0.458l3.953,1.084l3.952,0.087l3.952,0.081l3.952-0.477l3.952-0.209l3.952,0.292l3.952-0.602l3.953-0.241l3.952,1.332
			l3.952-0.204l3.952-0.335l3.952,1.071l3.952-0.843l3.953,0.085l3.952,0.708l3.952,0.665l3.952-1.491l3.952-0.22l3.952,0.905
			l3.952-0.051l3.953-0.145l3.952-0.052l3.952,1.059l3.952-0.378l3.952-0.922l3.952,0.423l3.953,0.416l3.952-0.39l3.952,0.518
			l3.952-0.178l3.952-0.204l3.952-0.017l3.952,0.375l3.953,0.333l3.952-0.11l3.952-0.759l3.952,1.064l3.952-0.663l3.952,0.733
			l3.953,0.565l3.952-0.991l3.952,0.374l3.952,0.04l3.952-0.303l3.952,0.307l3.952-0.1l3.953,0.326l3.952-0.384l3.952-1.071
			l3.952,0.238l3.952,0.56l3.952,0.284l3.953-0.688l3.952,0.417l3.952,0.081l3.952-0.146l3.952-0.025l3.952,0.13l3.952-0.696
			l3.953,0.098l3.952-0.943l3.952,1.474l3.952,0.265l3.952-1.629l3.952,0.653l3.952,1.05l3.953-0.31l3.952-0.28l3.952-0.579
			l3.952,1.053l3.952-0.521l3.952-1.407l3.953,1.454l3.952-0.179l3.952,0.436l3.952,0.101l3.952,0.003l3.952,0.186l3.952-0.079
			l3.953-0.089l3.952-0.219l3.952-0.031l3.952-0.385l3.952,0.896l3.952-0.373l3.953,0.41l3.952,0.017l3.952-0.067l3.952-0.225
			l3.952-0.312l3.952,0.232l3.952,0.149l3.953,0.104l3.952-0.235l3.948,0.14"/>
	</g>
	<g transform="matrix(0.866025,-0.5,0.5,0.866025,-179.856,301.995)">
		<g enable-background="new    ">
			<path fill="#222222" d="M229.225,287.273l-0.001,1.267l-7.097,0c-0.009-0.316,0.042-0.623,0.154-0.916
				c0.181-0.483,0.47-0.959,0.868-1.428c0.398-0.468,0.973-1.01,1.726-1.625c1.166-0.957,1.955-1.715,2.365-2.274
				c0.41-0.558,0.616-1.088,0.615-1.586c0.001-0.521-0.186-0.963-0.56-1.321c-0.373-0.36-0.861-0.539-1.461-0.538
				c-0.634-0.001-1.142,0.189-1.524,0.57c-0.381,0.38-0.573,0.907-0.578,1.582l-1.355-0.138c0.092-1.011,0.442-1.783,1.047-2.312
				c0.605-0.53,1.418-0.795,2.439-0.795c1.029,0,1.846,0.285,2.447,0.858c0.6,0.57,0.901,1.279,0.901,2.124
				c0,0.43-0.088,0.852-0.265,1.267c-0.175,0.415-0.467,0.852-0.875,1.311c-0.407,0.459-1.085,1.09-2.032,1.89
				c-0.791,0.664-1.299,1.115-1.523,1.351c-0.225,0.238-0.411,0.475-0.557,0.713L229.225,287.273z"/>
			<path fill="#222222" d="M230.638,283.245c0-1.269,0.13-2.292,0.392-3.065c0.261-0.774,0.648-1.37,1.164-1.791
				c0.515-0.42,1.164-0.629,1.944-0.63c0.577,0.001,1.082,0.116,1.517,0.348c0.435,0.233,0.793,0.566,1.077,1.004
				c0.283,0.436,0.505,0.968,0.666,1.597c0.161,0.627,0.242,1.474,0.242,2.538c0,1.26-0.129,2.277-0.387,3.05
				c-0.26,0.774-0.646,1.371-1.161,1.795c-0.515,0.422-1.166,0.634-1.952,0.633c-1.035,0-1.848-0.37-2.438-1.112
				C230.992,286.716,230.638,285.262,230.638,283.245z M231.992,283.245c0.001,1.763,0.206,2.936,0.62,3.519
				c0.413,0.584,0.92,0.876,1.527,0.877c0.605,0,1.114-0.294,1.527-0.88c0.412-0.585,0.618-1.758,0.618-3.516
				c0.001-1.767-0.206-2.942-0.619-3.522c-0.413-0.581-0.927-0.871-1.542-0.872c-0.605,0-1.089,0.257-1.45,0.769
				C232.219,280.274,231.993,281.483,231.992,283.245z"/>
			<path fill="#222222" d="M238.98,283.245c0-1.269,0.13-2.292,0.392-3.065c0.261-0.774,0.648-1.371,1.164-1.791
				c0.515-0.42,1.164-0.629,1.944-0.63c0.577,0,1.082,0.116,1.517,0.348c0.435,0.233,0.793,0.566,1.077,1.004
				c0.283,0.436,0.505,0.968,0.666,1.597c0.161,0.627,0.242,1.473,0.242,2.537c0,1.26-0.13,2.277-0.388,3.051
				c-0.26,0.774-0.646,1.371-1.161,1.795c-0.515,0.422-1.166,0.634-1.952,0.633c-1.035,0-1.847-0.371-2.438-1.112
				C239.334,286.716,238.98,285.262,238.98,283.245z M240.334,283.245c0.001,1.763,0.206,2.936,0.62,3.519
				c0.413,0.584,0.921,0.876,1.527,0.876c0.605,0,1.114-0.293,1.527-0.879s0.618-1.758,0.618-3.516
				c0.001-1.768-0.206-2.942-0.618-3.523c-0.414-0.58-0.927-0.871-1.542-0.871c-0.605,0-1.089,0.257-1.45,0.769
				C240.562,280.273,240.335,281.482,240.334,283.245z"/>
			<path fill="#222222" d="M249.351,282.718c-0.547-0.201-0.953-0.487-1.216-0.857c-0.264-0.371-0.396-0.816-0.395-1.333
				c0-0.781,0.28-1.438,0.842-1.97c0.562-0.532,1.309-0.798,2.241-0.799c0.938,0,1.692,0.273,2.264,0.818
				c0.571,0.544,0.858,1.208,0.857,1.988c0.001,0.499-0.13,0.932-0.392,1.3c-0.262,0.368-0.658,0.653-1.19,0.854
				c0.658,0.215,1.161,0.562,1.504,1.04c0.344,0.478,0.518,1.05,0.518,1.714c0,0.919-0.326,1.689-0.974,2.314
				c-0.651,0.626-1.504,0.938-2.565,0.938c-1.06-0.001-1.914-0.314-2.564-0.941c-0.648-0.628-0.973-1.411-0.973-2.347
				c0.001-0.699,0.176-1.284,0.531-1.755C248.193,283.208,248.698,282.889,249.351,282.718z M249.087,280.483
				c0,0.508,0.164,0.923,0.491,1.245c0.327,0.322,0.752,0.484,1.274,0.483c0.508,0,0.924-0.159,1.249-0.479
				c0.326-0.32,0.488-0.712,0.488-1.175c0.001-0.483-0.168-0.891-0.502-1.22c-0.334-0.329-0.751-0.494-1.249-0.495
				c-0.503,0-0.92,0.161-1.251,0.484C249.253,279.649,249.087,280.034,249.087,280.483z M248.662,285.443
				c0.001,0.376,0.089,0.74,0.268,1.091c0.178,0.352,0.442,0.624,0.795,0.816c0.352,0.194,0.729,0.29,1.135,0.29
				c0.629,0,1.151-0.204,1.561-0.608c0.41-0.406,0.616-0.921,0.615-1.546c0-0.634-0.213-1.16-0.634-1.575
				c-0.421-0.415-0.951-0.622-1.586-0.622c-0.62,0-1.134,0.204-1.542,0.615C248.866,284.313,248.663,284.827,248.662,285.443z"/>
		</g>
	</g>
	<g transform="matrix(0.866025,-0.5,0.5,0.866025,-167.678,347.445)">
		<g enable-background="new    ">
			<path fill="#222222" d="M320.125,287.273l-0.001,1.267l-7.097,0c-0.009-0.316,0.042-0.623,0.154-0.916
				c0.181-0.483,0.47-0.959,0.868-1.428c0.398-0.468,0.973-1.01,1.726-1.626c1.166-0.957,1.955-1.715,2.365-2.274
				c0.41-0.558,0.616-1.088,0.615-1.586c0.001-0.521-0.186-0.963-0.56-1.321c-0.373-0.36-0.861-0.539-1.461-0.538
				c-0.634-0.001-1.142,0.189-1.524,0.571c-0.381,0.38-0.573,0.907-0.578,1.582l-1.355-0.138c0.092-1.011,0.442-1.783,1.047-2.312
				c0.605-0.53,1.418-0.795,2.439-0.795c1.029,0,1.846,0.285,2.447,0.858c0.6,0.57,0.901,1.279,0.901,2.124
				c0,0.431-0.088,0.852-0.265,1.267c-0.175,0.415-0.467,0.852-0.875,1.311c-0.407,0.459-1.085,1.09-2.031,1.89
				c-0.791,0.664-1.299,1.115-1.523,1.351c-0.225,0.238-0.411,0.475-0.557,0.713L320.125,287.273z"/>
			<path fill="#222222" d="M321.538,283.245c0-1.269,0.13-2.292,0.392-3.065c0.261-0.774,0.648-1.37,1.164-1.791
				c0.515-0.42,1.164-0.629,1.944-0.63c0.577,0.001,1.082,0.116,1.517,0.348c0.435,0.233,0.793,0.566,1.077,1.004
				c0.283,0.436,0.505,0.968,0.666,1.597c0.161,0.627,0.242,1.474,0.242,2.538c0,1.26-0.129,2.277-0.387,3.05
				c-0.26,0.774-0.646,1.371-1.161,1.795c-0.515,0.422-1.166,0.634-1.952,0.633c-1.035,0-1.848-0.37-2.438-1.112
				C321.892,286.716,321.538,285.262,321.538,283.245z M322.892,283.245c0.001,1.763,0.206,2.936,0.62,3.519
				c0.413,0.584,0.92,0.876,1.527,0.877c0.605,0,1.114-0.294,1.527-0.88c0.412-0.585,0.618-1.758,0.618-3.516
				c0.001-1.767-0.206-2.942-0.619-3.522c-0.413-0.581-0.927-0.871-1.542-0.872c-0.605,0-1.089,0.257-1.45,0.769
				C323.119,280.274,322.893,281.483,322.892,283.245z"/>
			<path fill="#222222" d="M329.88,283.245c0-1.269,0.13-2.292,0.392-3.065c0.261-0.774,0.648-1.371,1.164-1.791
				c0.515-0.42,1.164-0.629,1.945-0.63c0.577,0.001,1.082,0.116,1.517,0.348c0.435,0.233,0.793,0.566,1.077,1.004
				c0.283,0.436,0.505,0.968,0.666,1.597c0.161,0.627,0.242,1.473,0.242,2.537c0,1.26-0.13,2.277-0.388,3.051
				c-0.26,0.774-0.646,1.371-1.161,1.795c-0.515,0.422-1.166,0.634-1.952,0.633c-1.035,0-1.847-0.371-2.438-1.112
				C330.234,286.716,329.881,285.262,329.88,283.245z M331.235,283.245c0,1.763,0.206,2.936,0.62,3.519
				c0.413,0.584,0.921,0.876,1.527,0.876c0.605,0,1.114-0.293,1.527-0.879s0.618-1.758,0.618-3.516
				c0.001-1.767-0.206-2.942-0.618-3.523c-0.414-0.58-0.927-0.871-1.542-0.871c-0.605,0-1.089,0.257-1.45,0.769
				C331.462,280.273,331.235,281.482,331.235,283.245z"/>
			<path fill="#222222" d="M338.42,286.057l1.268-0.117c0.107,0.596,0.312,1.028,0.615,1.296c0.302,0.269,0.69,0.404,1.164,0.404
				c0.406,0.001,0.761-0.093,1.065-0.279c0.306-0.185,0.557-0.433,0.752-0.743c0.195-0.31,0.36-0.728,0.491-1.256
				c0.133-0.528,0.197-1.064,0.197-1.611c0-0.059-0.003-0.146-0.006-0.263c-0.264,0.419-0.626,0.76-1.082,1.021
				c-0.456,0.261-0.95,0.391-1.482,0.391c-0.889-0.001-1.641-0.322-2.256-0.966c-0.615-0.645-0.923-1.495-0.923-2.549
				c0-1.088,0.321-1.965,0.963-2.629c0.641-0.664,1.447-0.996,2.413-0.996c0.699,0.001,1.337,0.188,1.916,0.565
				c0.578,0.376,1.017,0.911,1.318,1.607c0.3,0.695,0.451,1.704,0.451,3.022c0,1.372-0.151,2.464-0.447,3.277
				c-0.298,0.813-0.741,1.433-1.33,1.858c-0.588,0.425-1.279,0.636-2.069,0.637c-0.84,0-1.526-0.234-2.058-0.7
				C338.848,287.557,338.528,286.902,338.42,286.057z M343.82,281.319c-0.001-0.757-0.204-1.358-0.606-1.802
				s-0.888-0.666-1.454-0.666c-0.586,0-1.097,0.24-1.53,0.717c-0.435,0.48-0.653,1.099-0.653,1.861c0,0.683,0.207,1.238,0.619,1.666
				c0.412,0.427,0.922,0.641,1.527,0.64c0.611,0.001,1.111-0.213,1.506-0.639C343.622,282.667,343.819,282.075,343.82,281.319z"/>
		</g>
	</g>
	<g transform="matrix(0.866025,-0.5,0.5,0.866025,-140.144,450.201)">
		<g enable-background="new    ">
			<path fill="#222222" d="M525.637,287.273l-0.001,1.267l-7.097,0c-0.009-0.316,0.042-0.623,0.154-0.916
				c0.181-0.483,0.47-0.959,0.868-1.428c0.398-0.468,0.973-1.01,1.726-1.625c1.166-0.957,1.955-1.715,2.365-2.274
				c0.41-0.558,0.616-1.088,0.615-1.586c0.001-0.521-0.186-0.963-0.56-1.321c-0.373-0.36-0.861-0.539-1.461-0.538
				c-0.634-0.001-1.142,0.189-1.524,0.571c-0.381,0.38-0.573,0.907-0.578,1.582l-1.355-0.138c0.092-1.011,0.442-1.783,1.047-2.312
				c0.605-0.53,1.418-0.795,2.439-0.795c1.029,0,1.846,0.285,2.447,0.858c0.6,0.57,0.901,1.279,0.901,2.124
				c0,0.43-0.088,0.852-0.265,1.267c-0.175,0.415-0.467,0.852-0.875,1.311c-0.407,0.459-1.085,1.09-2.031,1.89
				c-0.791,0.664-1.299,1.115-1.523,1.351c-0.225,0.238-0.411,0.475-0.557,0.713L525.637,287.273z"/>
			<path fill="#222222" d="M527.05,283.245c0-1.269,0.13-2.292,0.392-3.065c0.261-0.774,0.648-1.37,1.164-1.791
				c0.515-0.42,1.164-0.629,1.945-0.63c0.577,0,1.082,0.116,1.517,0.348c0.435,0.233,0.793,0.566,1.077,1.004
				c0.283,0.436,0.505,0.968,0.666,1.597c0.161,0.627,0.242,1.474,0.242,2.538c0,1.26-0.129,2.277-0.387,3.05
				c-0.26,0.774-0.646,1.371-1.161,1.795c-0.515,0.422-1.166,0.634-1.952,0.633c-1.035,0-1.848-0.37-2.438-1.112
				C527.404,286.716,527.05,285.262,527.05,283.245z M528.404,283.245c0,1.763,0.206,2.936,0.62,3.519
				c0.413,0.584,0.92,0.876,1.527,0.877c0.605,0,1.115-0.294,1.527-0.88c0.412-0.585,0.618-1.758,0.618-3.516
				c0.001-1.767-0.206-2.942-0.619-3.522c-0.413-0.581-0.927-0.871-1.542-0.872c-0.605,0-1.089,0.257-1.45,0.769
				C528.631,280.274,528.404,281.483,528.404,283.245z"/>
			<path fill="#222222" d="M540.358,288.541l-1.319,0l0.001-8.4c-0.318,0.302-0.735,0.604-1.249,0.907
				c-0.516,0.303-0.978,0.53-1.389,0.681l0-1.274c0.737-0.347,1.382-0.766,1.934-1.259c0.551-0.494,0.943-0.972,1.172-1.436l0.85,0
				L540.358,288.541z"/>
			<path fill="#222222" d="M543.734,283.245c0-1.27,0.13-2.292,0.392-3.065c0.261-0.774,0.648-1.371,1.164-1.791
				c0.516-0.421,1.164-0.63,1.945-0.631c0.577,0.001,1.082,0.117,1.516,0.347c0.436,0.234,0.793,0.567,1.078,1.004
				c0.282,0.437,0.505,0.969,0.667,1.597c0.16,0.627,0.242,1.473,0.242,2.537c0,1.26-0.131,2.276-0.389,3.05
				c-0.26,0.775-0.647,1.372-1.163,1.795c-0.513,0.422-1.165,0.634-1.951,0.634c-1.035,0-1.847-0.371-2.438-1.112
				C544.088,286.716,543.735,285.262,543.734,283.245z M545.089,283.244c0,1.764,0.206,2.936,0.619,3.519
				c0.412,0.584,0.921,0.876,1.527,0.876c0.605,0,1.115-0.294,1.527-0.879c0.413-0.586,0.619-1.758,0.62-3.517
				c0-1.767-0.208-2.941-0.619-3.523c-0.412-0.581-0.927-0.871-1.542-0.871c-0.605,0-1.088,0.256-1.45,0.769
				C545.316,280.273,545.089,281.482,545.089,283.244z"/>
		</g>
	</g>
	<g transform="matrix(0.866025,-0.5,0.5,0.866025,-112.611,552.957)">
		<g enable-background="new    ">
			<path fill="#222222" d="M731.149,287.273l-0.001,1.267l-7.097,0c-0.009-0.316,0.042-0.623,0.154-0.916
				c0.181-0.483,0.47-0.959,0.868-1.428c0.398-0.468,0.973-1.01,1.726-1.626c1.166-0.957,1.955-1.715,2.365-2.274
				c0.41-0.558,0.616-1.088,0.615-1.586c0.001-0.521-0.186-0.963-0.56-1.321c-0.373-0.36-0.861-0.539-1.461-0.538
				c-0.634-0.001-1.142,0.189-1.524,0.57c-0.381,0.38-0.573,0.907-0.578,1.582l-1.355-0.138c0.092-1.011,0.442-1.783,1.047-2.312
				c0.605-0.53,1.418-0.795,2.439-0.795c1.029,0,1.846,0.285,2.447,0.858c0.6,0.57,0.901,1.279,0.901,2.124
				c0,0.431-0.088,0.852-0.265,1.267c-0.175,0.415-0.467,0.852-0.875,1.311c-0.407,0.459-1.085,1.09-2.031,1.89
				c-0.791,0.664-1.299,1.115-1.523,1.351c-0.225,0.238-0.411,0.475-0.557,0.713L731.149,287.273z"/>
			<path fill="#222222" d="M732.562,283.245c0-1.269,0.13-2.292,0.392-3.065c0.261-0.774,0.648-1.37,1.164-1.791
				c0.515-0.42,1.164-0.629,1.944-0.63c0.577,0.001,1.082,0.116,1.517,0.348c0.435,0.233,0.793,0.566,1.077,1.004
				c0.283,0.436,0.505,0.968,0.666,1.597c0.161,0.627,0.242,1.474,0.242,2.538c0,1.26-0.129,2.277-0.387,3.05
				c-0.26,0.774-0.646,1.371-1.161,1.795c-0.515,0.422-1.166,0.634-1.952,0.633c-1.035,0-1.848-0.37-2.438-1.112
				C732.916,286.716,732.562,285.262,732.562,283.245z M733.916,283.245c0,1.763,0.206,2.936,0.62,3.519
				c0.412,0.584,0.92,0.876,1.527,0.877c0.605,0,1.114-0.294,1.527-0.88c0.412-0.585,0.618-1.758,0.618-3.516
				c0.001-1.767-0.206-2.942-0.619-3.522c-0.413-0.581-0.927-0.871-1.542-0.872c-0.605,0-1.089,0.257-1.45,0.769
				C734.143,280.274,733.917,281.483,733.916,283.245z"/>
			<path fill="#222222" d="M745.87,288.541l-1.319,0l0.001-8.4c-0.318,0.302-0.735,0.604-1.249,0.907
				c-0.516,0.303-0.978,0.53-1.389,0.681l0-1.274c0.737-0.347,1.382-0.766,1.934-1.259c0.551-0.494,0.943-0.972,1.172-1.436l0.85,0
				V288.541z"/>
			<path fill="#222222" d="M753.098,288.541l-1.318-0.001l0-8.401c-0.318,0.304-0.733,0.606-1.249,0.909
				c-0.516,0.303-0.978,0.53-1.388,0.681l-0.001-1.275c0.738-0.347,1.382-0.767,1.933-1.261c0.553-0.493,0.943-0.971,1.172-1.434
				l0.85-0.001L753.098,288.541z"/>
		</g>
	</g>
	<g transform="matrix(0.866025,-0.5,0.5,0.866025,-85.0777,655.713)">
		<g enable-background="new    ">
			<path fill="#222222" d="M936.66,287.272l-0.001,1.268l-7.097-0.001c-0.009-0.316,0.041-0.622,0.154-0.916
				c0.18-0.482,0.47-0.959,0.867-1.428c0.398-0.469,0.974-1.011,1.726-1.625c1.167-0.958,1.955-1.715,2.365-2.274
				c0.411-0.559,0.616-1.088,0.615-1.587c0.001-0.521-0.186-0.962-0.56-1.32c-0.373-0.36-0.86-0.539-1.46-0.539
				c-0.635,0-1.142,0.19-1.524,0.57c-0.381,0.38-0.574,0.908-0.578,1.582l-1.355-0.138c0.092-1.011,0.441-1.782,1.047-2.311
				c0.605-0.531,1.418-0.795,2.439-0.795c1.029,0,1.846,0.285,2.447,0.857c0.6,0.571,0.901,1.28,0.901,2.124
				c0,0.431-0.088,0.852-0.265,1.267c-0.175,0.415-0.468,0.853-0.875,1.311c-0.407,0.459-1.085,1.09-2.032,1.891
				c-0.791,0.664-1.298,1.114-1.523,1.35c-0.225,0.238-0.411,0.475-0.557,0.713L936.66,287.272z"/>
			<path fill="#222222" d="M938.073,283.245c0-1.269,0.13-2.292,0.392-3.065c0.261-0.774,0.648-1.371,1.164-1.791
				c0.515-0.42,1.164-0.629,1.945-0.63c0.578,0,1.082,0.116,1.517,0.347c0.435,0.233,0.792,0.567,1.077,1.004
				c0.283,0.436,0.505,0.969,0.666,1.597c0.161,0.627,0.242,1.474,0.242,2.538c0,1.26-0.129,2.277-0.388,3.051
				c-0.26,0.774-0.646,1.371-1.161,1.795c-0.515,0.422-1.165,0.633-1.952,0.633c-1.035,0-1.847-0.371-2.438-1.112
				C938.427,286.716,938.073,285.262,938.073,283.245z M939.427,283.244c0,1.764,0.206,2.936,0.619,3.519
				c0.413,0.584,0.921,0.876,1.527,0.876c0.605,0,1.114-0.293,1.527-0.879c0.413-0.586,0.618-1.758,0.618-3.516
				c0.001-1.767-0.206-2.942-0.618-3.523c-0.413-0.581-0.927-0.871-1.542-0.871c-0.605,0-1.089,0.257-1.45,0.769
				C939.654,280.273,939.428,281.482,939.427,283.244z"/>
			<path fill="#222222" d="M951.381,288.54l-1.319,0l0.001-8.4c-0.318,0.302-0.735,0.605-1.249,0.908
				c-0.516,0.303-0.978,0.529-1.389,0.681l0.001-1.275c0.737-0.347,1.382-0.766,1.934-1.259c0.551-0.494,0.942-0.972,1.172-1.436
				l0.85,0L951.381,288.54z"/>
			<path fill="#222222" d="M961.687,287.272l-0.001,1.268l-7.097,0c-0.009-0.317,0.042-0.623,0.154-0.916
				c0.181-0.483,0.471-0.96,0.868-1.428c0.398-0.468,0.974-1.011,1.726-1.625c1.166-0.957,1.955-1.715,2.366-2.274
				s0.615-1.088,0.615-1.587c0-0.521-0.187-0.963-0.56-1.32c-0.374-0.36-0.862-0.539-1.461-0.539c-0.635,0-1.142,0.19-1.524,0.571
				c-0.381,0.381-0.574,0.908-0.579,1.583l-1.354-0.139c0.092-1.011,0.441-1.782,1.047-2.311c0.605-0.531,1.418-0.795,2.439-0.795
				c1.029,0,1.846,0.285,2.446,0.857c0.601,0.57,0.902,1.28,0.902,2.123c0,0.431-0.088,0.852-0.263,1.268
				c-0.176,0.415-0.469,0.852-0.878,1.31c-0.406,0.46-1.083,1.091-2.031,1.891c-0.791,0.664-1.299,1.114-1.523,1.351
				c-0.225,0.237-0.411,0.475-0.556,0.714L961.687,287.272z"/>
		</g>
	</g>
	<g transform="matrix(1,0,0,1,8,153)">
		<g enable-background="new    ">
			<path fill="#444444" d="M135.622,251.455c0-1.27,0.13-2.292,0.392-3.065c0.261-0.774,0.649-1.371,1.164-1.791
				s1.164-0.63,1.945-0.63c0.576,0,1.082,0.116,1.516,0.348c0.435,0.232,0.793,0.566,1.077,1.004
				c0.283,0.437,0.505,0.969,0.667,1.597c0.161,0.627,0.242,1.474,0.242,2.538c0,1.26-0.129,2.276-0.388,3.05
				c-0.259,0.774-0.646,1.372-1.161,1.795c-0.515,0.422-1.166,0.634-1.952,0.634c-1.035,0-1.848-0.371-2.439-1.113
				C135.976,254.926,135.622,253.472,135.622,251.455z M136.977,251.455c0,1.763,0.206,2.936,0.619,3.519
				c0.412,0.584,0.921,0.876,1.527,0.876s1.114-0.293,1.527-0.879s0.619-1.758,0.619-3.516c0-1.768-0.207-2.942-0.619-3.523
				s-0.926-0.871-1.542-0.871c-0.605,0-1.089,0.256-1.45,0.769C137.204,248.484,136.977,249.693,136.977,251.455z"/>
			<path fill="#444444" d="M144.214,248.591c0-0.767,0.193-1.418,0.579-1.956c0.386-0.536,0.945-0.805,1.677-0.805
				c0.674,0,1.231,0.24,1.673,0.721c0.442,0.481,0.663,1.188,0.663,2.121c0,0.908-0.224,1.607-0.67,2.098
				c-0.447,0.491-0.998,0.736-1.652,0.736c-0.649,0-1.19-0.242-1.623-0.725C144.43,250.297,144.214,249.568,144.214,248.591z
				 M146.506,246.738c-0.327,0-0.6,0.142-0.816,0.424c-0.218,0.284-0.326,0.804-0.326,1.561c0,0.688,0.11,1.173,0.33,1.454
				c0.22,0.28,0.491,0.421,0.813,0.421c0.332,0,0.606-0.142,0.824-0.425c0.217-0.283,0.326-0.801,0.326-1.553
				c0-0.693-0.11-1.181-0.33-1.461C147.107,246.878,146.833,246.738,146.506,246.738z M146.513,257.146l5.874-11.315h1.069
				l-5.852,11.315H146.513z M151.157,254.231c0-0.771,0.193-1.425,0.579-1.959c0.386-0.535,0.947-0.803,1.685-0.803
				c0.674,0,1.231,0.241,1.674,0.722c0.441,0.481,0.663,1.188,0.663,2.12c0,0.908-0.223,1.608-0.67,2.099
				c-0.446,0.491-1,0.736-1.659,0.736c-0.649,0-1.19-0.243-1.623-0.729C151.373,255.931,151.157,255.202,151.157,254.231z
				 M153.457,252.377c-0.332,0-0.607,0.143-0.824,0.426c-0.218,0.283-0.326,0.803-0.326,1.56c0,0.684,0.11,1.167,0.33,1.45
				c0.22,0.283,0.491,0.425,0.813,0.425c0.337,0,0.614-0.142,0.831-0.425c0.217-0.283,0.326-0.801,0.326-1.553
				c0-0.693-0.11-1.181-0.33-1.461C154.057,252.518,153.784,252.377,153.457,252.377z"/>
		</g>
	</g>
	<g transform="matrix(1,0,0,1,8,153)">
		<g enable-background="new    ">
			<path fill="#444444" d="M130.551,178.483v1.268h-7.097c-0.01-0.317,0.042-0.623,0.154-0.916c0.181-0.482,0.47-0.959,0.868-1.428
				s0.973-1.011,1.725-1.626c1.167-0.957,1.956-1.715,2.366-2.274c0.41-0.559,0.615-1.088,0.615-1.586
				c0-0.521-0.187-0.963-0.561-1.321c-0.373-0.359-0.86-0.538-1.461-0.538c-0.635,0-1.143,0.189-1.523,0.57
				s-0.574,0.908-0.579,1.582l-1.355-0.139c0.093-1.011,0.442-1.781,1.047-2.311c0.605-0.53,1.418-0.795,2.439-0.795
				c1.03,0,1.846,0.285,2.446,0.857c0.601,0.57,0.901,1.279,0.901,2.123c0,0.431-0.088,0.853-0.264,1.268s-0.468,0.853-0.875,1.311
				c-0.408,0.46-1.085,1.09-2.032,1.891c-0.791,0.664-1.299,1.114-1.523,1.351c-0.225,0.237-0.41,0.476-0.557,0.714H130.551z"/>
			<path fill="#444444" d="M132.704,179.75v-1.502h1.501v1.502H132.704z"/>
			<path fill="#444444" d="M136.132,176.938l1.384-0.117c0.103,0.674,0.341,1.181,0.714,1.52c0.374,0.34,0.824,0.51,1.352,0.51
				c0.635,0,1.172-0.239,1.611-0.719c0.439-0.478,0.659-1.113,0.659-1.904c0-0.751-0.211-1.345-0.634-1.779
				s-0.975-0.652-1.659-0.652c-0.425,0-0.808,0.097-1.15,0.29c-0.342,0.192-0.61,0.442-0.806,0.751l-1.238-0.162l1.04-5.515h5.339
				v1.26h-4.285l-0.579,2.886c0.645-0.449,1.321-0.674,2.029-0.674c0.938,0,1.729,0.325,2.373,0.975s0.967,1.484,0.967,2.504
				c0,0.973-0.283,1.812-0.85,2.52c-0.688,0.87-1.628,1.305-2.82,1.305c-0.977,0-1.774-0.273-2.392-0.82
				S136.22,177.841,136.132,176.938z"/>
			<path fill="#444444" d="M144.723,171.591c0-0.767,0.193-1.418,0.579-1.956c0.386-0.536,0.945-0.805,1.677-0.805
				c0.674,0,1.231,0.24,1.673,0.721c0.442,0.481,0.663,1.188,0.663,2.121c0,0.908-0.224,1.607-0.67,2.098
				c-0.447,0.491-0.998,0.736-1.652,0.736c-0.649,0-1.19-0.242-1.623-0.725C144.94,173.297,144.723,172.568,144.723,171.591z
				 M147.016,169.738c-0.327,0-0.6,0.142-0.816,0.424c-0.218,0.284-0.326,0.804-0.326,1.561c0,0.688,0.11,1.173,0.33,1.454
				c0.22,0.28,0.491,0.421,0.813,0.421c0.332,0,0.606-0.142,0.824-0.425c0.217-0.283,0.326-0.801,0.326-1.553
				c0-0.693-0.11-1.181-0.33-1.461C147.617,169.878,147.343,169.738,147.016,169.738z M147.023,180.146l5.874-11.315h1.069
				l-5.852,11.315H147.023z M151.667,177.231c0-0.771,0.193-1.425,0.579-1.959c0.386-0.535,0.948-0.803,1.684-0.803
				c0.674,0,1.232,0.241,1.674,0.722c0.441,0.481,0.662,1.188,0.662,2.12c0,0.908-0.223,1.608-0.67,2.099
				c-0.445,0.491-1,0.736-1.658,0.736c-0.649,0-1.19-0.243-1.623-0.729C151.883,178.931,151.667,178.202,151.667,177.231z
				 M153.967,175.377c-0.332,0-0.607,0.143-0.824,0.426c-0.217,0.283-0.326,0.803-0.326,1.56c0,0.684,0.11,1.167,0.33,1.45
				s0.49,0.425,0.812,0.425c0.338,0,0.615-0.142,0.832-0.425s0.326-0.801,0.326-1.553c0-0.693-0.111-1.181-0.33-1.461
				C154.566,175.518,154.293,175.377,153.967,175.377z"/>
		</g>
	</g>
	<g transform="matrix(1,0,0,1,8,153)">
		<g enable-background="new    ">
			<path fill="#444444" d="M135.622,99.938l1.384-0.117c0.103,0.674,0.341,1.181,0.714,1.52c0.374,0.34,0.824,0.51,1.352,0.51
				c0.635,0,1.172-0.239,1.611-0.719c0.439-0.478,0.659-1.113,0.659-1.904c0-0.751-0.211-1.345-0.634-1.779
				s-0.975-0.652-1.659-0.652c-0.425,0-0.808,0.097-1.15,0.29c-0.342,0.192-0.61,0.442-0.806,0.751l-1.238-0.162l1.04-5.515h5.339
				v1.26h-4.285l-0.579,2.886c0.645-0.449,1.321-0.674,2.029-0.674c0.938,0,1.729,0.325,2.373,0.975s0.967,1.484,0.967,2.504
				c0,0.973-0.283,1.812-0.85,2.52c-0.688,0.87-1.628,1.305-2.82,1.305c-0.977,0-1.774-0.273-2.392-0.82
				S135.71,100.841,135.622,99.938z"/>
			<path fill="#444444" d="M144.214,94.591c0-0.767,0.193-1.418,0.579-1.956c0.386-0.536,0.945-0.805,1.677-0.805
				c0.674,0,1.231,0.24,1.673,0.721c0.442,0.481,0.663,1.188,0.663,2.121c0,0.908-0.224,1.607-0.67,2.098
				c-0.447,0.491-0.998,0.736-1.652,0.736c-0.649,0-1.19-0.242-1.623-0.725C144.43,96.297,144.214,95.568,144.214,94.591z
				 M146.506,92.738c-0.327,0-0.6,0.142-0.816,0.424c-0.218,0.284-0.326,0.804-0.326,1.561c0,0.688,0.11,1.173,0.33,1.454
				c0.22,0.28,0.491,0.421,0.813,0.421c0.332,0,0.606-0.142,0.824-0.425c0.217-0.283,0.326-0.801,0.326-1.553
				c0-0.693-0.11-1.181-0.33-1.461C147.107,92.878,146.833,92.738,146.506,92.738z M146.513,103.146l5.874-11.315h1.069
				l-5.852,11.315H146.513z M151.157,100.231c0-0.771,0.193-1.425,0.579-1.959c0.386-0.535,0.947-0.803,1.685-0.803
				c0.674,0,1.231,0.241,1.674,0.722c0.441,0.481,0.663,1.188,0.663,2.12c0,0.908-0.223,1.608-0.67,2.099
				c-0.446,0.491-1,0.736-1.659,0.736c-0.649,0-1.19-0.243-1.623-0.729C151.373,101.931,151.157,101.202,151.157,100.231z
				 M153.457,98.377c-0.332,0-0.607,0.143-0.824,0.426c-0.218,0.283-0.326,0.803-0.326,1.56c0,0.684,0.11,1.167,0.33,1.45
				s0.491,0.425,0.813,0.425c0.337,0,0.614-0.142,0.831-0.425s0.326-0.801,0.326-1.553c0-0.693-0.11-1.181-0.33-1.461
				C154.057,98.518,153.784,98.377,153.457,98.377z"/>
		</g>
	</g>
	<g transform="matrix(1,0,0,1,8,153)">
		<g enable-background="new    ">
			<path fill="#444444" d="M123.71,16.419v-1.267h6.951v1.025c-0.684,0.728-1.361,1.694-2.032,2.9
				c-0.672,1.206-1.19,2.445-1.557,3.721c-0.264,0.898-0.432,1.882-0.505,2.951h-1.355c0.015-0.845,0.181-1.865,0.498-3.062
				s0.772-2.35,1.366-3.461c0.593-1.11,1.224-2.047,1.893-2.809H123.71z"/>
			<path fill="#444444" d="M132.704,25.75v-1.502h1.501v1.502H132.704z"/>
			<path fill="#444444" d="M136.132,22.938l1.384-0.117c0.103,0.674,0.341,1.181,0.714,1.52c0.374,0.34,0.824,0.51,1.352,0.51
				c0.635,0,1.172-0.239,1.611-0.719c0.439-0.478,0.659-1.113,0.659-1.904c0-0.751-0.211-1.345-0.634-1.779
				s-0.975-0.652-1.659-0.652c-0.425,0-0.808,0.097-1.15,0.29c-0.342,0.192-0.61,0.442-0.806,0.751l-1.238-0.162l1.04-5.515h5.339
				v1.26h-4.285l-0.579,2.886c0.645-0.449,1.321-0.674,2.029-0.674c0.938,0,1.729,0.325,2.373,0.975s0.967,1.484,0.967,2.504
				c0,0.973-0.283,1.812-0.85,2.52c-0.688,0.87-1.628,1.305-2.82,1.305c-0.977,0-1.774-0.273-2.392-0.82
				S136.22,23.841,136.132,22.938z"/>
			<path fill="#444444" d="M144.723,17.591c0-0.767,0.193-1.418,0.579-1.956c0.386-0.536,0.945-0.805,1.677-0.805
				c0.674,0,1.231,0.24,1.673,0.721c0.442,0.481,0.663,1.188,0.663,2.121c0,0.908-0.224,1.607-0.67,2.098
				c-0.447,0.491-0.998,0.736-1.652,0.736c-0.649,0-1.19-0.242-1.623-0.725C144.94,19.297,144.723,18.568,144.723,17.591z
				 M147.016,15.738c-0.327,0-0.6,0.142-0.816,0.424c-0.218,0.284-0.326,0.804-0.326,1.561c0,0.688,0.11,1.173,0.33,1.454
				c0.22,0.28,0.491,0.421,0.813,0.421c0.332,0,0.606-0.142,0.824-0.425c0.217-0.283,0.326-0.801,0.326-1.553
				c0-0.693-0.11-1.181-0.33-1.461C147.617,15.878,147.343,15.738,147.016,15.738z M147.023,26.146l5.874-11.315h1.069
				l-5.852,11.315H147.023z M151.667,23.231c0-0.771,0.193-1.425,0.579-1.959c0.386-0.535,0.948-0.803,1.684-0.803
				c0.674,0,1.232,0.241,1.674,0.722c0.441,0.481,0.662,1.188,0.662,2.12c0,0.908-0.223,1.608-0.67,2.099
				c-0.445,0.491-1,0.736-1.658,0.736c-0.649,0-1.19-0.243-1.623-0.729C151.883,24.931,151.667,24.202,151.667,23.231z
				 M153.967,21.377c-0.332,0-0.607,0.143-0.824,0.426c-0.217,0.283-0.326,0.803-0.326,1.56c0,0.684,0.11,1.167,0.33,1.45
				s0.49,0.425,0.812,0.425c0.338,0,0.615-0.142,0.832-0.425s0.326-0.801,0.326-1.553c0-0.693-0.111-1.181-0.33-1.461
				C154.566,21.518,154.293,21.377,153.967,21.377z"/>
		</g>
	</g>
	<g transform="matrix(1,0,0,1,8,153)">
		<g enable-background="new    ">
			<path fill="#444444" d="M132.588-51.25h-1.318v-8.4c-0.317,0.303-0.734,0.605-1.249,0.908c-0.516,0.303-0.978,0.529-1.388,0.681
				v-1.274c0.737-0.347,1.382-0.767,1.934-1.26s0.942-0.972,1.172-1.436h0.85V-51.25z"/>
			<path fill="#444444" d="M135.965-56.545c0-1.27,0.13-2.292,0.392-3.065c0.261-0.774,0.649-1.371,1.164-1.791
				s1.164-0.63,1.945-0.63c0.576,0,1.082,0.116,1.516,0.348c0.435,0.232,0.793,0.566,1.077,1.004
				c0.283,0.437,0.505,0.969,0.667,1.597c0.161,0.627,0.242,1.474,0.242,2.538c0,1.26-0.129,2.276-0.388,3.05
				c-0.259,0.774-0.646,1.372-1.161,1.795c-0.515,0.422-1.166,0.634-1.952,0.634c-1.035,0-1.848-0.371-2.439-1.113
				C136.319-53.074,135.965-54.528,135.965-56.545z M137.32-56.545c0,1.763,0.206,2.936,0.619,3.519
				c0.412,0.584,0.921,0.876,1.527,0.876s1.114-0.293,1.527-0.879s0.619-1.758,0.619-3.516c0-1.768-0.207-2.942-0.619-3.523
				s-0.926-0.871-1.542-0.871c-0.605,0-1.089,0.256-1.45,0.769C137.547-59.516,137.32-58.307,137.32-56.545z"/>
			<path fill="#444444" d="M144.556-59.409c0-0.767,0.193-1.418,0.579-1.956c0.386-0.536,0.945-0.805,1.677-0.805
				c0.674,0,1.231,0.24,1.673,0.721c0.442,0.481,0.663,1.188,0.663,2.121c0,0.908-0.224,1.607-0.67,2.098
				c-0.447,0.491-0.998,0.736-1.652,0.736c-0.649,0-1.19-0.242-1.623-0.725C144.772-57.703,144.556-58.432,144.556-59.409z
				 M146.848-61.262c-0.327,0-0.6,0.142-0.816,0.424c-0.218,0.284-0.326,0.804-0.326,1.561c0,0.688,0.11,1.173,0.33,1.454
				c0.22,0.28,0.491,0.421,0.813,0.421c0.332,0,0.606-0.142,0.824-0.425c0.217-0.283,0.326-0.801,0.326-1.553
				c0-0.693-0.11-1.181-0.33-1.461C147.449-61.122,147.176-61.262,146.848-61.262z M146.856-50.854l5.874-11.315h1.069
				l-5.852,11.315H146.856z M151.499-53.769c0-0.771,0.193-1.425,0.579-1.959c0.386-0.535,0.947-0.803,1.685-0.803
				c0.674,0,1.231,0.241,1.674,0.722c0.441,0.481,0.663,1.188,0.663,2.12c0,0.908-0.223,1.608-0.67,2.099
				c-0.446,0.491-1,0.736-1.659,0.736c-0.649,0-1.19-0.243-1.623-0.729C151.716-52.069,151.499-52.798,151.499-53.769z
				 M153.799-55.623c-0.332,0-0.607,0.143-0.824,0.426c-0.218,0.283-0.326,0.803-0.326,1.56c0,0.684,0.11,1.167,0.33,1.45
				s0.491,0.425,0.813,0.425c0.337,0,0.614-0.142,0.831-0.425s0.326-0.801,0.326-1.553c0-0.693-0.11-1.181-0.33-1.461
				C154.4-55.482,154.126-55.623,153.799-55.623z"/>
		</g>
	</g>
</g>
</svg>
