<?xml version="1.0" encoding="utf-8"?>
<!-- Generator: Adobe Illustrator 17.0.2, SVG Export Plug-In . SVG Version: 6.00 Build 0)  -->
<!DOCTYPE svg PUBLIC "-//W3C//DTD SVG 1.1//EN" "http://www.w3.org/Graphics/SVG/1.1/DTD/svg11.dtd">
<svg version="1.1" id="Ebene_1" xmlns="http://www.w3.org/2000/svg" xmlns:xlink="http://www.w3.org/1999/xlink" x="0px" y="0px"
	 width="1184px" height="500px" viewBox="0 0 1184 500" enable-background="new 0 0 1184 500" xml:space="preserve">
<g>
	<g transform="matrix(1,0,0,1,8,153)">
		<path vector-effect="non-scaling-stroke" fill="#FFFFFF" d="M-8-153h1184v500H-8V-153"/>
	</g>
	<g transform="matrix(1,0,0,1,8,153)">
		<g enable-background="new    ">
			<path d="M174.508-83.25v-8.921h-3.186v-1.816h8.533v1.816h-3.179v8.921H174.508z"/>
			<path d="M181.664-88.655l-1.868-0.337c0.21-0.752,0.571-1.309,1.084-1.67s1.274-0.542,2.285-0.542
				c0.918,0,1.602,0.108,2.051,0.326c0.449,0.217,0.766,0.493,0.948,0.827c0.184,0.335,0.275,0.949,0.275,1.842l-0.022,2.402
				c0,0.685,0.033,1.188,0.099,1.513c0.066,0.325,0.189,0.673,0.37,1.044h-2.036c-0.054-0.137-0.12-0.339-0.198-0.607
				c-0.034-0.122-0.059-0.203-0.073-0.242c-0.352,0.342-0.728,0.599-1.128,0.77c-0.4,0.17-0.828,0.256-1.282,0.256
				c-0.801,0-1.432-0.217-1.894-0.652c-0.461-0.434-0.692-0.983-0.692-1.647c0-0.439,0.105-0.831,0.315-1.176
				c0.21-0.344,0.504-0.607,0.883-0.791c0.378-0.183,0.924-0.343,1.637-0.479c0.962-0.181,1.628-0.349,2-0.506v-0.205
				c0-0.395-0.098-0.677-0.293-0.846c-0.195-0.168-0.564-0.252-1.106-0.252c-0.366,0-0.652,0.071-0.857,0.216
				C181.957-89.269,181.791-89.016,181.664-88.655z M184.418-86.985c-0.264,0.088-0.681,0.193-1.252,0.315s-0.945,0.241-1.121,0.358
				c-0.269,0.19-0.403,0.433-0.403,0.726c0,0.288,0.107,0.537,0.322,0.746c0.215,0.211,0.488,0.315,0.82,0.315
				c0.371,0,0.725-0.122,1.062-0.366c0.249-0.186,0.413-0.412,0.491-0.682c0.054-0.176,0.081-0.51,0.081-1.003V-86.985z"/>
			<path d="M188.278-82.737l2.351,0.286c0.039,0.272,0.129,0.461,0.271,0.563c0.195,0.146,0.503,0.22,0.923,0.22
				c0.537,0,0.94-0.08,1.208-0.242c0.181-0.107,0.317-0.28,0.41-0.52c0.063-0.171,0.095-0.486,0.095-0.945v-1.135
				c-0.615,0.84-1.392,1.26-2.329,1.26c-1.045,0-1.873-0.441-2.483-1.326c-0.479-0.697-0.718-1.566-0.718-2.607
				c0-1.303,0.313-2.299,0.941-2.988c0.627-0.688,1.407-1.032,2.34-1.032c0.962,0,1.755,0.423,2.38,1.267v-1.091h1.926v6.979
				c0,0.918-0.076,1.604-0.227,2.059s-0.364,0.811-0.637,1.069s-0.639,0.462-1.095,0.608c-0.457,0.146-1.034,0.219-1.732,0.219
				c-1.318,0-2.253-0.226-2.805-0.677c-0.552-0.452-0.828-1.024-0.828-1.718C188.27-82.557,188.273-82.64,188.278-82.737z
				 M190.116-87.301c0,0.826,0.16,1.43,0.479,1.813c0.32,0.383,0.714,0.575,1.183,0.575c0.503,0,0.928-0.197,1.274-0.59
				c0.347-0.394,0.52-0.976,0.52-1.747c0-0.806-0.166-1.403-0.498-1.794s-0.752-0.586-1.26-0.586c-0.493,0-0.9,0.191-1.22,0.574
				C190.276-88.671,190.116-88.086,190.116-87.301z"/>
			<path d="M203.337-88.655l-1.868-0.337c0.21-0.752,0.571-1.309,1.084-1.67s1.274-0.542,2.285-0.542
				c0.918,0,1.602,0.108,2.051,0.326c0.449,0.217,0.766,0.493,0.948,0.827c0.184,0.335,0.275,0.949,0.275,1.842l-0.022,2.402
				c0,0.685,0.033,1.188,0.099,1.513c0.066,0.325,0.189,0.673,0.37,1.044h-2.036c-0.054-0.137-0.12-0.339-0.197-0.607
				c-0.035-0.122-0.059-0.203-0.074-0.242c-0.352,0.342-0.728,0.599-1.127,0.77c-0.401,0.17-0.828,0.256-1.282,0.256
				c-0.801,0-1.432-0.217-1.894-0.652c-0.461-0.434-0.692-0.983-0.692-1.647c0-0.439,0.105-0.831,0.315-1.176
				c0.21-0.344,0.504-0.607,0.883-0.791c0.378-0.183,0.924-0.343,1.637-0.479c0.962-0.181,1.628-0.349,2-0.506v-0.205
				c0-0.395-0.099-0.677-0.293-0.846c-0.196-0.168-0.564-0.252-1.106-0.252c-0.366,0-0.651,0.071-0.856,0.216
				C203.63-89.269,203.463-89.016,203.337-88.655z M206.091-86.985c-0.264,0.088-0.682,0.193-1.253,0.315s-0.944,0.241-1.12,0.358
				c-0.27,0.19-0.403,0.433-0.403,0.726c0,0.288,0.107,0.537,0.322,0.746c0.215,0.211,0.488,0.315,0.82,0.315
				c0.371,0,0.726-0.122,1.062-0.366c0.25-0.186,0.413-0.412,0.491-0.682c0.054-0.176,0.081-0.51,0.081-1.003V-86.985z"/>
			<path d="M216.924-88.728l-2.029,0.366c-0.068-0.405-0.224-0.71-0.465-0.915c-0.242-0.205-0.556-0.309-0.941-0.309
				c-0.513,0-0.922,0.178-1.227,0.531c-0.306,0.354-0.458,0.946-0.458,1.776c0,0.923,0.155,1.575,0.465,1.956
				c0.311,0.381,0.727,0.57,1.249,0.57c0.391,0,0.711-0.11,0.959-0.333c0.25-0.222,0.426-0.604,0.527-1.146l2.021,0.344
				c-0.21,0.928-0.612,1.629-1.208,2.102c-0.596,0.475-1.395,0.711-2.396,0.711c-1.138,0-2.044-0.359-2.721-1.076
				c-0.676-0.719-1.014-1.712-1.014-2.981c0-1.284,0.339-2.284,1.018-2.999c0.679-0.716,1.597-1.073,2.754-1.073
				c0.947,0,1.7,0.204,2.26,0.611C216.277-90.184,216.679-89.563,216.924-88.728z"/>
			<path d="M222.05-91.028v1.641h-1.406v3.135c0,0.635,0.014,1.005,0.04,1.109c0.027,0.105,0.088,0.192,0.184,0.261
				c0.095,0.068,0.211,0.102,0.348,0.102c0.19,0,0.466-0.065,0.828-0.197l0.176,1.597c-0.479,0.205-1.021,0.308-1.627,0.308
				c-0.371,0-0.705-0.062-1.003-0.187c-0.298-0.125-0.517-0.286-0.655-0.483c-0.14-0.198-0.236-0.465-0.289-0.803
				c-0.045-0.238-0.066-0.722-0.066-1.449v-3.392h-0.945v-1.641h0.945v-1.546l2.065-1.201v2.747H222.05z"/>
			<path d="M223.477-92.083v-1.904h2.059v1.904H223.477z M223.477-83.25v-7.778h2.059v7.778H223.477z"/>
			<path d="M229.783-83.25l-3.135-7.778h2.161l1.465,3.97l0.425,1.326c0.112-0.338,0.184-0.56,0.213-0.667
				c0.067-0.22,0.141-0.439,0.219-0.659l1.48-3.97h2.116l-3.091,7.778H229.783z"/>
			<path d="M235.987-92.083v-1.904h2.059v1.904H235.987z M235.987-83.25v-7.778h2.059v7.778H235.987z"/>
			<path d="M243.721-91.028v1.641h-1.406v3.135c0,0.635,0.014,1.005,0.04,1.109c0.027,0.105,0.088,0.192,0.184,0.261
				c0.095,0.068,0.211,0.102,0.348,0.102c0.19,0,0.466-0.065,0.828-0.197l0.176,1.597c-0.479,0.205-1.021,0.308-1.627,0.308
				c-0.371,0-0.705-0.062-1.003-0.187c-0.298-0.125-0.517-0.286-0.655-0.483c-0.14-0.198-0.236-0.465-0.289-0.803
				c-0.045-0.238-0.066-0.722-0.066-1.449v-3.392h-0.945v-1.641h0.945v-1.546l2.065-1.201v2.747H243.721z"/>
			<path d="M244.177-91.028h2.19l1.859,5.522l1.816-5.522h2.132l-2.747,7.485l-0.49,1.355c-0.181,0.453-0.353,0.8-0.517,1.039
				c-0.163,0.239-0.352,0.434-0.563,0.583c-0.213,0.148-0.474,0.265-0.784,0.348c-0.31,0.083-0.66,0.124-1.051,0.124
				c-0.396,0-0.784-0.041-1.165-0.124l-0.183-1.611c0.322,0.063,0.612,0.095,0.872,0.095c0.478,0,0.832-0.14,1.062-0.421
				c0.229-0.28,0.405-0.639,0.527-1.073L244.177-91.028z"/>
			<path d="M257.601-91.028h1.92v1.143c0.248-0.391,0.586-0.708,1.01-0.952c0.426-0.244,0.896-0.366,1.414-0.366
				c0.903,0,1.67,0.354,2.3,1.062c0.63,0.709,0.944,1.695,0.944,2.959c0,1.3-0.317,2.309-0.951,3.029
				c-0.636,0.72-1.404,1.08-2.308,1.08c-0.43,0-0.819-0.086-1.168-0.256c-0.35-0.171-0.717-0.464-1.103-0.879v3.918h-2.059V-91.028z
				 M259.638-87.271c0,0.875,0.173,1.521,0.52,1.938c0.347,0.418,0.77,0.627,1.268,0.627c0.478,0,0.876-0.192,1.193-0.575
				c0.317-0.384,0.477-1.012,0.477-1.886c0-0.815-0.164-1.422-0.491-1.816c-0.327-0.396-0.732-0.594-1.216-0.594
				c-0.503,0-0.921,0.194-1.252,0.582C259.804-88.607,259.638-88.033,259.638-87.271z"/>
			<path d="M271.327-85.725l2.051,0.345c-0.264,0.752-0.68,1.324-1.249,1.717c-0.568,0.394-1.28,0.59-2.135,0.59
				c-1.353,0-2.354-0.441-3.003-1.326c-0.513-0.707-0.769-1.601-0.769-2.68c0-1.289,0.336-2.299,1.01-3.029
				c0.674-0.729,1.526-1.095,2.557-1.095c1.157,0,2.07,0.382,2.739,1.146c0.669,0.764,0.989,1.935,0.96,3.512h-5.156
				c0.014,0.61,0.18,1.085,0.498,1.425c0.316,0.339,0.712,0.509,1.186,0.509c0.322,0,0.594-0.088,0.813-0.264
				S271.215-85.335,271.327-85.725z M271.444-87.806c-0.015-0.596-0.169-1.049-0.462-1.358c-0.293-0.311-0.649-0.465-1.068-0.465
				c-0.45,0-0.82,0.163-1.113,0.49s-0.438,0.771-0.433,1.333H271.444z"/>
			<path d="M277.135-83.25h-2.059v-7.778h1.912v1.106c0.327-0.522,0.621-0.867,0.883-1.033c0.261-0.166,0.558-0.249,0.89-0.249
				c0.469,0,0.92,0.13,1.354,0.388l-0.637,1.795c-0.347-0.225-0.669-0.337-0.967-0.337c-0.288,0-0.532,0.079-0.732,0.238
				c-0.2,0.158-0.357,0.445-0.473,0.86c-0.114,0.415-0.172,1.284-0.172,2.607V-83.25z"/>
			<path d="M286.621-83.25l-2.461-7.778h1.999l1.458,5.098l1.34-5.098h1.984l1.297,5.098l1.486-5.098h2.029l-2.498,7.778h-1.977
				l-1.341-5.002l-1.318,5.002H286.621z"/>
			<path d="M301.342-85.725l2.051,0.345c-0.264,0.752-0.68,1.324-1.249,1.717c-0.568,0.394-1.28,0.59-2.135,0.59
				c-1.353,0-2.354-0.441-3.003-1.326c-0.513-0.707-0.769-1.601-0.769-2.68c0-1.289,0.336-2.299,1.01-3.029
				c0.674-0.729,1.526-1.095,2.557-1.095c1.157,0,2.07,0.382,2.739,1.146c0.669,0.764,0.989,1.935,0.96,3.512h-5.156
				c0.014,0.61,0.18,1.085,0.498,1.425c0.316,0.339,0.712,0.509,1.186,0.509c0.322,0,0.594-0.088,0.813-0.264
				S301.229-85.335,301.342-85.725z M301.459-87.806c-0.015-0.596-0.169-1.049-0.462-1.358c-0.293-0.311-0.649-0.465-1.068-0.465
				c-0.45,0-0.82,0.163-1.113,0.49s-0.438,0.771-0.433,1.333H301.459z"/>
			<path d="M309.684-85.725l2.051,0.345c-0.264,0.752-0.68,1.324-1.249,1.717c-0.568,0.394-1.28,0.59-2.135,0.59
				c-1.353,0-2.354-0.441-3.003-1.326c-0.513-0.707-0.769-1.601-0.769-2.68c0-1.289,0.336-2.299,1.01-3.029
				c0.674-0.729,1.526-1.095,2.557-1.095c1.157,0,2.07,0.382,2.739,1.146c0.669,0.764,0.989,1.935,0.96,3.512h-5.156
				c0.014,0.61,0.18,1.085,0.498,1.425c0.316,0.339,0.712,0.509,1.186,0.509c0.322,0,0.594-0.088,0.813-0.264
				S309.572-85.335,309.684-85.725z M309.802-87.806c-0.015-0.596-0.169-1.049-0.462-1.358c-0.293-0.311-0.649-0.465-1.068-0.465
				c-0.45,0-0.82,0.163-1.113,0.49s-0.438,0.771-0.433,1.333H309.802z"/>
			<path d="M313.449-83.25v-10.737h2.058v5.698l2.409-2.739h2.535l-2.659,2.842l2.849,4.937h-2.219l-1.955-3.494l-0.96,1.004v2.49
				H313.449z"/>
		</g>
	</g>
	<g transform="matrix(1,0,0,1,8,153)" opacity="0">
		<path vector-effect="non-scaling-stroke" fill="#FFFFFF" d="M1013-57h148v87h-148V-57"/>
	</g>
	<g transform="matrix(1,0,0,1,8,153)" opacity="0">
		<path vector-effect="non-scaling-stroke" fill="#FFFFFF" d="M1013-57h148v15h-148V-57"/>
	</g>
	<g transform="matrix(1,0,0,1,8,153)">
		<g enable-background="new    ">
			<path fill="#222222" d="M1040.064-47.099l1.297,0.169c-0.142,0.894-0.505,1.593-1.088,2.099c-0.584,0.505-1.3,0.758-2.149,0.758
				c-1.064,0-1.921-0.348-2.567-1.044c-0.647-0.695-0.971-1.692-0.971-2.991c0-0.84,0.14-1.575,0.418-2.205s0.701-1.103,1.271-1.417
				c0.568-0.315,1.188-0.473,1.856-0.473c0.845,0,1.536,0.214,2.073,0.641c0.537,0.428,0.881,1.034,1.032,1.82l-1.281,0.198
				c-0.122-0.522-0.339-0.916-0.648-1.18c-0.311-0.264-0.685-0.396-1.124-0.396c-0.664,0-1.204,0.238-1.619,0.714
				c-0.415,0.477-0.622,1.229-0.622,2.26c0,1.045,0.2,1.805,0.601,2.277c0.4,0.475,0.923,0.711,1.567,0.711
				c0.518,0,0.949-0.158,1.296-0.477C1039.752-45.951,1039.971-46.439,1040.064-47.099z"/>
			<path fill="#222222" d="M1042.46-44.25v-10.737h1.318v10.737H1042.46z"/>
			<path fill="#222222" d="M1045.331-48.139c0-1.44,0.4-2.508,1.201-3.201c0.669-0.576,1.484-0.864,2.446-0.864
				c1.069,0,1.943,0.351,2.622,1.051c0.679,0.701,1.018,1.669,1.018,2.904c0,1.001-0.149,1.788-0.45,2.362
				c-0.3,0.573-0.737,1.02-1.311,1.336c-0.574,0.317-1.2,0.477-1.879,0.477c-1.089,0-1.97-0.349-2.641-1.047
				C1045.666-45.819,1045.331-46.825,1045.331-48.139z M1046.685-48.139c0,0.996,0.218,1.741,0.652,2.237
				c0.435,0.495,0.981,0.743,1.641,0.743c0.654,0,1.198-0.249,1.633-0.747s0.652-1.257,0.652-2.278c0-0.961-0.219-1.69-0.655-2.186
				c-0.438-0.496-0.98-0.744-1.63-0.744c-0.659,0-1.206,0.247-1.641,0.74S1046.685-49.135,1046.685-48.139z"/>
			<path fill="#222222" d="M1052.486-41.232l0.249-1.121c0.264,0.068,0.472,0.104,0.623,0.104c0.269,0,0.469-0.09,0.601-0.268
				c0.132-0.179,0.197-0.624,0.197-1.337v-8.174h1.318v8.203c0,0.957-0.124,1.623-0.373,1.999c-0.317,0.488-0.845,0.732-1.582,0.732
				C1053.163-41.094,1052.818-41.14,1052.486-41.232z M1054.156-53.457v-1.53h1.318v1.53H1054.156z"/>
			<path fill="#222222" d="M1062.594-44.25v-1.143c-0.605,0.879-1.428,1.318-2.468,1.318c-0.459,0-0.888-0.088-1.285-0.264
				c-0.398-0.176-0.694-0.396-0.887-0.663c-0.193-0.266-0.328-0.592-0.406-0.978c-0.054-0.259-0.081-0.669-0.081-1.23v-4.819h1.318
				v4.313c0,0.689,0.027,1.153,0.081,1.393c0.083,0.347,0.259,0.618,0.527,0.816c0.269,0.197,0.601,0.297,0.996,0.297
				s0.767-0.102,1.113-0.305c0.347-0.202,0.592-0.479,0.736-0.827c0.144-0.35,0.216-0.855,0.216-1.521v-4.167h1.318v7.778H1062.594z
				"/>
			<path fill="#222222" d="M1065.824-44.25v-7.778h1.186v1.179c0.303-0.551,0.583-0.915,0.839-1.091
				c0.257-0.176,0.538-0.264,0.847-0.264c0.443,0,0.896,0.142,1.354,0.425l-0.454,1.223c-0.322-0.189-0.645-0.285-0.967-0.285
				c-0.288,0-0.547,0.087-0.776,0.26c-0.229,0.174-0.394,0.414-0.491,0.722c-0.146,0.469-0.219,0.981-0.219,1.538v4.072H1065.824z"
				/>
			<path fill="#222222" d="M1076.158-46.755l1.362,0.169c-0.215,0.796-0.613,1.413-1.193,1.853
				c-0.582,0.439-1.324,0.659-2.227,0.659c-1.139,0-2.04-0.351-2.707-1.051c-0.666-0.701-1-1.684-1-2.948
				c0-1.309,0.338-2.324,1.012-3.047s1.547-1.084,2.621-1.084c1.041,0,1.891,0.354,2.549,1.062c0.66,0.709,0.989,1.705,0.989,2.988
				c0,0.079-0.003,0.196-0.007,0.352h-5.801c0.048,0.855,0.29,1.51,0.725,1.963c0.435,0.455,0.977,0.682,1.626,0.682
				c0.483,0,0.896-0.127,1.237-0.381S1075.958-46.198,1076.158-46.755z M1071.829-48.887h4.344
				c-0.059-0.653-0.225-1.145-0.498-1.472c-0.42-0.508-0.965-0.762-1.633-0.762c-0.606,0-1.115,0.203-1.527,0.608
				C1072.101-50.106,1071.874-49.564,1071.829-48.887z"/>
		</g>
	</g>
	<g transform="matrix(1,0,0,1,8,153)">
		<path vector-effect="non-scaling-stroke" fill="#3366CC" d="M1013-57h15v15h-15V-57"/>
	</g>
	<g transform="matrix(1,0,0,1,8,153)" opacity="0">
		<path vector-effect="non-scaling-stroke" fill="#FFFFFF" d="M1013-33h148v15h-148V-33"/>
	</g>
	<g transform="matrix(1,0,0,1,8,153)">
		<g enable-background="new    ">
			<path fill="#222222" d="M1034.96-20.25v-10.737h1.318v10.737H1034.96z"/>
			<path fill="#222222" d="M1038.329-29.471v-1.517h1.318v1.517H1038.329z M1038.329-20.25v-7.778h1.318v7.778H1038.329z"/>
			<path fill="#222222" d="M1041.127-22.572l1.304-0.205c0.073,0.523,0.276,0.924,0.611,1.201c0.334,0.279,0.802,0.418,1.402,0.418
				c0.605,0,1.055-0.123,1.348-0.37c0.293-0.246,0.439-0.535,0.439-0.868c0-0.297-0.129-0.531-0.388-0.703
				c-0.181-0.117-0.63-0.266-1.348-0.446c-0.967-0.244-1.638-0.455-2.011-0.634c-0.374-0.178-0.657-0.425-0.85-0.739
				c-0.193-0.315-0.289-0.663-0.289-1.044c0-0.347,0.079-0.668,0.237-0.963c0.159-0.296,0.375-0.541,0.648-0.736
				c0.205-0.151,0.484-0.279,0.839-0.385c0.354-0.104,0.733-0.157,1.139-0.157c0.61,0,1.146,0.088,1.607,0.264
				c0.462,0.176,0.803,0.414,1.022,0.714c0.22,0.301,0.371,0.702,0.454,1.205l-1.289,0.176c-0.059-0.4-0.229-0.713-0.51-0.938
				c-0.28-0.225-0.677-0.337-1.189-0.337c-0.605,0-1.038,0.101-1.297,0.3c-0.259,0.201-0.388,0.436-0.388,0.703
				c0,0.172,0.054,0.325,0.161,0.462c0.107,0.142,0.275,0.259,0.505,0.352c0.132,0.049,0.521,0.161,1.165,0.337
				c0.933,0.249,1.583,0.453,1.951,0.611c0.369,0.159,0.658,0.39,0.868,0.692s0.315,0.679,0.315,1.128
				c0,0.439-0.129,0.854-0.385,1.241c-0.257,0.389-0.626,0.688-1.109,0.901c-0.483,0.212-1.03,0.318-1.641,0.318
				c-1.011,0-1.781-0.21-2.312-0.63C1041.611-21.124,1041.273-21.746,1041.127-22.572z"/>
			<path fill="#222222" d="M1049.154-17.269v-10.759h1.201v1.011c0.283-0.396,0.603-0.692,0.959-0.89
				c0.356-0.198,0.789-0.297,1.297-0.297c0.664,0,1.25,0.171,1.758,0.513s0.891,0.824,1.149,1.446
				c0.259,0.623,0.389,1.306,0.389,2.048c0,0.796-0.144,1.512-0.429,2.149c-0.286,0.637-0.701,1.125-1.245,1.465
				c-0.545,0.339-1.117,0.509-1.718,0.509c-0.439,0-0.834-0.093-1.183-0.278c-0.35-0.186-0.636-0.42-0.86-0.703v3.786H1049.154z
				 M1050.347-24.096c0,1.002,0.203,1.741,0.608,2.22s0.896,0.718,1.472,0.718c0.586,0,1.088-0.248,1.505-0.743
				c0.418-0.496,0.627-1.264,0.627-2.304c0-0.991-0.204-1.733-0.612-2.227c-0.407-0.493-0.895-0.74-1.461-0.74
				c-0.562,0-1.059,0.263-1.49,0.788C1050.563-25.859,1050.347-25.096,1050.347-24.096z"/>
		</g>
	</g>
	<g transform="matrix(1,0,0,1,8,153)">
		<path vector-effect="non-scaling-stroke" fill="#DC3912" d="M1013-33h15v15h-15V-33"/>
	</g>
	<g transform="matrix(1,0,0,1,8,153)" opacity="0">
		<path vector-effect="non-scaling-stroke" fill="#FFFFFF" d="M1013-9h148V6h-148V-9"/>
	</g>
	<g transform="matrix(1,0,0,1,8,153)">
		<g enable-background="new    ">
			<path fill="#222222" d="M1040.064,0.901l1.297,0.169c-0.142,0.894-0.505,1.593-1.088,2.099c-0.584,0.505-1.3,0.758-2.149,0.758
				c-1.064,0-1.921-0.348-2.567-1.044c-0.647-0.695-0.971-1.692-0.971-2.991c0-0.84,0.14-1.575,0.418-2.205s0.701-1.103,1.271-1.417
				c0.568-0.315,1.188-0.473,1.856-0.473c0.845,0,1.536,0.214,2.073,0.641c0.537,0.428,0.881,1.034,1.032,1.82l-1.281,0.198
				c-0.122-0.522-0.339-0.916-0.648-1.18c-0.311-0.264-0.685-0.396-1.124-0.396c-0.664,0-1.204,0.238-1.619,0.714
				c-0.415,0.477-0.622,1.229-0.622,2.26c0,1.045,0.2,1.805,0.601,2.277c0.4,0.475,0.923,0.711,1.567,0.711
				c0.518,0,0.949-0.158,1.296-0.477C1039.752,2.049,1039.971,1.561,1040.064,0.901z"/>
			<path fill="#222222" d="M1041.998-0.139c0-1.44,0.4-2.508,1.201-3.201c0.669-0.576,1.484-0.864,2.446-0.864
				c1.069,0,1.943,0.351,2.622,1.051c0.679,0.701,1.019,1.669,1.019,2.904c0,1.001-0.15,1.788-0.451,2.362
				c-0.3,0.573-0.737,1.02-1.311,1.336c-0.574,0.317-1.2,0.477-1.879,0.477c-1.089,0-1.969-0.349-2.641-1.047
				C1042.334,2.181,1041.998,1.175,1041.998-0.139z M1043.353-0.139c0,0.996,0.217,1.741,0.651,2.237
				c0.435,0.495,0.981,0.743,1.641,0.743c0.654,0,1.199-0.249,1.634-0.747s0.651-1.257,0.651-2.278c0-0.961-0.219-1.69-0.655-2.186
				c-0.438-0.496-0.98-0.744-1.63-0.744c-0.659,0-1.206,0.247-1.641,0.74S1043.353-1.135,1043.353-0.139z"/>
			<path fill="#222222" d="M1050.831,3.75v-7.778h1.18v1.091c0.244-0.381,0.568-0.687,0.974-0.919
				c0.405-0.231,0.867-0.348,1.385-0.348c0.576,0,1.048,0.12,1.417,0.358c0.368,0.24,0.629,0.574,0.78,1.004
				c0.615-0.908,1.416-1.362,2.402-1.362c0.771,0,1.364,0.214,1.779,0.641c0.415,0.428,0.623,1.086,0.623,1.974v5.34h-1.312v-4.9
				c0-0.527-0.043-0.906-0.128-1.139c-0.086-0.231-0.24-0.418-0.465-0.561c-0.225-0.141-0.488-0.212-0.791-0.212
				c-0.547,0-1.001,0.182-1.362,0.546c-0.361,0.363-0.542,0.946-0.542,1.746v4.52h-1.318v-5.054c0-0.586-0.107-1.025-0.322-1.318
				s-0.566-0.439-1.055-0.439c-0.371,0-0.714,0.098-1.029,0.293c-0.314,0.195-0.543,0.481-0.685,0.856
				c-0.142,0.377-0.213,0.919-0.213,1.627V3.75H1050.831z"/>
			<path fill="#222222" d="M1063.326,3.75v-7.778h1.18v1.091c0.244-0.381,0.568-0.687,0.975-0.919
				c0.404-0.231,0.865-0.348,1.383-0.348c0.576,0,1.049,0.12,1.418,0.358c0.369,0.24,0.629,0.574,0.779,1.004
				c0.615-0.908,1.416-1.362,2.402-1.362c0.771,0,1.365,0.214,1.781,0.641c0.414,0.428,0.621,1.086,0.621,1.974v5.34h-1.311v-4.9
				c0-0.527-0.043-0.906-0.129-1.139c-0.084-0.231-0.24-0.418-0.465-0.561c-0.225-0.141-0.488-0.212-0.791-0.212
				c-0.547,0-1,0.182-1.361,0.546c-0.361,0.363-0.543,0.946-0.543,1.746v4.52h-1.318v-5.054c0-0.586-0.107-1.025-0.322-1.318
				s-0.566-0.439-1.055-0.439c-0.371,0-0.713,0.098-1.029,0.293c-0.314,0.195-0.543,0.481-0.684,0.856
				c-0.143,0.377-0.213,0.919-0.213,1.627V3.75H1063.326z"/>
			<path fill="#222222" d="M1075.33-0.139c0-1.44,0.4-2.508,1.201-3.201c0.669-0.576,1.484-0.864,2.446-0.864
				c1.069,0,1.943,0.351,2.622,1.051c0.679,0.701,1.018,1.669,1.018,2.904c0,1.001-0.149,1.788-0.45,2.362
				c-0.3,0.573-0.737,1.02-1.311,1.336c-0.574,0.317-1.2,0.477-1.879,0.477c-1.089,0-1.969-0.349-2.641-1.047
				C1075.666,2.181,1075.33,1.175,1075.33-0.139z M1076.685-0.139c0,0.996,0.217,1.741,0.651,2.237
				c0.435,0.495,0.981,0.743,1.641,0.743c0.654,0,1.198-0.249,1.634-0.747c0.434-0.498,0.651-1.257,0.651-2.278
				c0-0.961-0.219-1.69-0.655-2.186c-0.438-0.496-0.98-0.744-1.63-0.744c-0.659,0-1.206,0.247-1.641,0.74
				S1076.685-1.135,1076.685-0.139z"/>
			<path fill="#222222" d="M1084.163,3.75v-7.778h1.188v1.106c0.57-0.854,1.396-1.282,2.475-1.282c0.469,0,0.9,0.084,1.293,0.253
				c0.394,0.168,0.688,0.39,0.883,0.662c0.195,0.274,0.332,0.599,0.41,0.975c0.049,0.244,0.073,0.672,0.073,1.281V3.75h-1.318
				v-4.731c0-0.537-0.052-0.938-0.153-1.205c-0.104-0.266-0.285-0.479-0.546-0.637c-0.262-0.159-0.567-0.238-0.919-0.238
				c-0.562,0-1.047,0.179-1.454,0.534c-0.408,0.357-0.612,1.033-0.612,2.029V3.75H1084.163z"/>
			<path fill="#222222" d="M1091.994,0.527v-1.326h4.05v1.326H1091.994z"/>
			<path fill="#222222" d="M1097.47,3.75V-6.987h1.318V3.75H1097.47z"/>
			<path fill="#222222" d="M1100.841-5.471v-1.517h1.318v1.517H1100.841z M1100.841,3.75v-7.778h1.318V3.75H1100.841z"/>
			<path fill="#222222" d="M1103.638,1.428l1.305-0.205c0.072,0.523,0.276,0.924,0.611,1.201c0.334,0.279,0.802,0.418,1.402,0.418
				c0.605,0,1.055-0.123,1.348-0.37c0.293-0.246,0.439-0.535,0.439-0.868c0-0.297-0.13-0.531-0.389-0.703
				c-0.181-0.117-0.629-0.266-1.348-0.446c-0.967-0.244-1.637-0.455-2.01-0.634c-0.374-0.178-0.657-0.425-0.85-0.739
				c-0.193-0.315-0.289-0.663-0.289-1.044c0-0.347,0.079-0.668,0.237-0.963c0.159-0.296,0.375-0.541,0.648-0.736
				c0.205-0.151,0.484-0.279,0.839-0.385c0.354-0.104,0.733-0.157,1.139-0.157c0.61,0,1.146,0.088,1.607,0.264
				c0.462,0.176,0.803,0.414,1.021,0.714c0.221,0.301,0.371,0.702,0.455,1.205l-1.289,0.176c-0.059-0.4-0.229-0.713-0.51-0.938
				c-0.28-0.225-0.678-0.337-1.189-0.337c-0.606,0-1.038,0.101-1.297,0.3c-0.259,0.201-0.389,0.436-0.389,0.703
				c0,0.172,0.054,0.325,0.162,0.462c0.106,0.142,0.275,0.259,0.505,0.352c0.132,0.049,0.521,0.161,1.165,0.337
				c0.932,0.249,1.583,0.453,1.951,0.611c0.369,0.159,0.658,0.39,0.868,0.692s0.315,0.679,0.315,1.128
				c0,0.439-0.129,0.854-0.385,1.241c-0.257,0.389-0.627,0.688-1.109,0.901c-0.484,0.212-1.031,0.318-1.641,0.318
				c-1.012,0-1.781-0.21-2.312-0.63C1104.124,2.876,1103.785,2.254,1103.638,1.428z"/>
			<path fill="#222222" d="M1111.666,6.731V-4.028h1.201v1.011c0.283-0.396,0.604-0.692,0.96-0.89
				c0.356-0.198,0.788-0.297,1.296-0.297c0.664,0,1.25,0.171,1.758,0.513s0.892,0.824,1.15,1.446
				c0.259,0.623,0.389,1.306,0.389,2.048c0,0.796-0.144,1.512-0.429,2.149c-0.286,0.637-0.701,1.125-1.245,1.465
				c-0.545,0.339-1.117,0.509-1.718,0.509c-0.439,0-0.834-0.093-1.183-0.278c-0.35-0.186-0.637-0.42-0.861-0.703v3.786H1111.666z
				 M1112.86-0.096c0,1.002,0.202,1.741,0.608,2.22c0.404,0.479,0.896,0.718,1.472,0.718c0.586,0,1.088-0.248,1.505-0.743
				c0.418-0.496,0.627-1.264,0.627-2.304c0-0.991-0.204-1.733-0.612-2.227c-0.407-0.493-0.895-0.74-1.461-0.74
				c-0.562,0-1.059,0.263-1.49,0.788C1113.076-1.859,1112.86-1.096,1112.86-0.096z"/>
		</g>
	</g>
	<g transform="matrix(1,0,0,1,8,153)">
		<path vector-effect="non-scaling-stroke" fill="#FF9900" d="M1013-9h15V6h-15V-9"/>
	</g>
	<g transform="matrix(1,0,0,1,8,153)" opacity="0">
		<path vector-effect="non-scaling-stroke" fill="#FFFFFF" d="M1013,15h148v15h-148V15"/>
	</g>
	<g transform="matrix(1,0,0,1,8,153)">
		<g enable-background="new    ">
			<path fill="#222222" d="M1034.462,25.428l1.304-0.205c0.073,0.523,0.276,0.924,0.611,1.201c0.334,0.279,0.802,0.418,1.402,0.418
				c0.605,0,1.055-0.123,1.348-0.37c0.293-0.246,0.439-0.535,0.439-0.868c0-0.297-0.129-0.531-0.388-0.703
				c-0.181-0.117-0.63-0.266-1.348-0.446c-0.967-0.244-1.638-0.455-2.011-0.634c-0.374-0.178-0.657-0.425-0.85-0.739
				c-0.193-0.315-0.289-0.663-0.289-1.044c0-0.347,0.079-0.668,0.237-0.963c0.159-0.296,0.375-0.541,0.648-0.736
				c0.205-0.151,0.484-0.279,0.839-0.385c0.354-0.104,0.733-0.157,1.139-0.157c0.61,0,1.146,0.088,1.607,0.264
				c0.462,0.176,0.803,0.414,1.022,0.714c0.22,0.301,0.371,0.702,0.454,1.205l-1.289,0.176c-0.059-0.4-0.229-0.713-0.51-0.938
				c-0.28-0.225-0.677-0.337-1.189-0.337c-0.605,0-1.038,0.101-1.297,0.3c-0.259,0.201-0.388,0.436-0.388,0.703
				c0,0.172,0.054,0.325,0.161,0.462c0.107,0.142,0.275,0.259,0.505,0.352c0.132,0.049,0.521,0.161,1.165,0.337
				c0.933,0.249,1.583,0.453,1.951,0.611c0.369,0.159,0.658,0.39,0.868,0.692s0.315,0.679,0.315,1.128
				c0,0.439-0.129,0.854-0.385,1.241c-0.257,0.389-0.626,0.688-1.109,0.901c-0.483,0.212-1.03,0.318-1.641,0.318
				c-1.011,0-1.781-0.21-2.312-0.63C1034.946,26.876,1034.608,26.254,1034.462,25.428z"/>
			<path fill="#222222" d="M1047.564,24.901l1.297,0.169c-0.142,0.894-0.505,1.593-1.088,2.099c-0.584,0.505-1.3,0.758-2.149,0.758
				c-1.064,0-1.921-0.348-2.567-1.044c-0.647-0.695-0.971-1.692-0.971-2.991c0-0.84,0.14-1.575,0.418-2.205s0.701-1.103,1.271-1.417
				c0.568-0.315,1.188-0.473,1.856-0.473c0.845,0,1.536,0.214,2.073,0.641c0.537,0.428,0.881,1.034,1.032,1.82l-1.281,0.198
				c-0.122-0.522-0.339-0.916-0.648-1.18c-0.311-0.264-0.685-0.396-1.124-0.396c-0.664,0-1.204,0.238-1.619,0.714
				c-0.415,0.477-0.622,1.229-0.622,2.26c0,1.045,0.2,1.805,0.601,2.277c0.4,0.475,0.923,0.711,1.567,0.711
				c0.518,0,0.949-0.158,1.296-0.477C1047.252,26.049,1047.471,25.561,1047.564,24.901z"/>
			<path fill="#222222" d="M1049.989,27.75V17.013h1.318v3.853c0.615-0.713,1.392-1.069,2.329-1.069
				c0.576,0,1.076,0.113,1.501,0.341c0.425,0.227,0.729,0.541,0.912,0.941c0.183,0.4,0.274,0.98,0.274,1.742v4.93h-1.318v-4.93
				c0-0.658-0.143-1.139-0.429-1.438c-0.285-0.301-0.689-0.45-1.212-0.45c-0.391,0-0.758,0.101-1.103,0.304
				c-0.344,0.202-0.589,0.478-0.735,0.823c-0.146,0.348-0.22,0.826-0.22,1.436v4.256H1049.989z"/>
			<path fill="#222222" d="M1063.656,25.245l1.361,0.169c-0.215,0.796-0.613,1.413-1.193,1.853
				c-0.581,0.439-1.323,0.659-2.227,0.659c-1.138,0-2.039-0.351-2.706-1.051c-0.666-0.701-1-1.684-1-2.948
				c0-1.309,0.337-2.324,1.011-3.047s1.548-1.084,2.622-1.084c1.04,0,1.89,0.354,2.549,1.062c0.659,0.709,0.989,1.705,0.989,2.988
				c0,0.079-0.004,0.196-0.008,0.352h-5.801c0.049,0.855,0.291,1.51,0.726,1.963c0.435,0.455,0.977,0.682,1.626,0.682
				c0.483,0,0.896-0.127,1.237-0.381S1063.456,25.802,1063.656,25.245z M1059.327,23.113h4.344
				c-0.059-0.653-0.225-1.145-0.498-1.472c-0.42-0.508-0.965-0.762-1.634-0.762c-0.605,0-1.114,0.203-1.526,0.608
				C1059.599,21.894,1059.371,22.436,1059.327,23.113z"/>
			<path fill="#222222" d="M1066.673,27.75v-7.778h1.18v1.091c0.244-0.381,0.568-0.687,0.975-0.919
				c0.404-0.231,0.866-0.348,1.384-0.348c0.576,0,1.049,0.12,1.417,0.358c0.369,0.24,0.629,0.574,0.78,1.004
				c0.615-0.908,1.416-1.362,2.402-1.362c0.771,0,1.364,0.214,1.78,0.641c0.414,0.428,0.622,1.086,0.622,1.974v5.34h-1.312v-4.9
				c0-0.527-0.042-0.906-0.128-1.139c-0.085-0.231-0.24-0.418-0.465-0.561c-0.225-0.141-0.488-0.212-0.791-0.212
				c-0.547,0-1.001,0.182-1.362,0.546c-0.361,0.363-0.542,0.946-0.542,1.746v4.52h-1.318v-5.054c0-0.586-0.107-1.025-0.322-1.318
				s-0.566-0.439-1.055-0.439c-0.371,0-0.714,0.098-1.029,0.293c-0.314,0.195-0.543,0.481-0.685,0.856
				c-0.142,0.377-0.213,0.919-0.213,1.627v4.035H1066.673z"/>
			<path fill="#222222" d="M1084.493,25.245l1.362,0.169c-0.215,0.796-0.613,1.413-1.193,1.853
				c-0.582,0.439-1.324,0.659-2.227,0.659c-1.139,0-2.04-0.351-2.707-1.051c-0.666-0.701-1-1.684-1-2.948
				c0-1.309,0.338-2.324,1.012-3.047s1.547-1.084,2.621-1.084c1.041,0,1.891,0.354,2.549,1.062c0.66,0.709,0.989,1.705,0.989,2.988
				c0,0.079-0.003,0.196-0.007,0.352h-5.801c0.048,0.855,0.29,1.51,0.725,1.963c0.435,0.455,0.977,0.682,1.626,0.682
				c0.483,0,0.896-0.127,1.237-0.381S1084.293,25.802,1084.493,25.245z M1080.164,23.113h4.344
				c-0.059-0.653-0.225-1.145-0.498-1.472c-0.42-0.508-0.965-0.762-1.633-0.762c-0.606,0-1.115,0.203-1.527,0.608
				C1080.436,21.894,1080.209,22.436,1080.164,23.113z"/>
		</g>
	</g>
	<g transform="matrix(1,0,0,1,8,153)">
		<path vector-effect="non-scaling-stroke" fill="#109618" d="M1013,15h15v15h-15V15"/>
	</g>
	<g transform="matrix(1,0,0,1,8,153)" opacity="0">
		<path vector-effect="non-scaling-stroke" fill="#FFFFFF" d="M171-57h827v309H171V-57"/>
	</g>
	<g transform="matrix(1,0,0,1,8,153)">
		<path vector-effect="non-scaling-stroke" fill="#CCCCCC" d="M171,251h827v1H171V251"/>
	</g>
	<g transform="matrix(1,0,0,1,8,153)">
		<path vector-effect="non-scaling-stroke" fill="#CCCCCC" d="M171,174h827v1H171V174"/>
	</g>
	<g transform="matrix(1,0,0,1,8,153)">
		<path vector-effect="non-scaling-stroke" fill="#CCCCCC" d="M171,97h827v1H171V97"/>
	</g>
	<g transform="matrix(1,0,0,1,8,153)">
		<path vector-effect="non-scaling-stroke" fill="#CCCCCC" d="M171,20h827v1H171V20"/>
	</g>
	<g transform="matrix(1,0,0,1,8,153)">
		<path vector-effect="non-scaling-stroke" fill="#CCCCCC" d="M171-57h827v1H171V-57"/>
	</g>
	<g transform="matrix(1,0,0,1,8,153)">
		<path vector-effect="non-scaling-stroke" fill="#333333" d="M171,251h827v1H171V251"/>
	</g>
	<g transform="matrix(1,0,0,1,8,153)">
		<path vector-effect="none" fill="none" stroke="#3366CC" stroke-width="2" d="M173.476,251.5h3.952h3.952h3.953h3.952h3.952
			l3.952-24.974l3.952,15.279l3.952,9.695l3.952-56.519l3.953,56.519l3.952-15.063l3.952-31.519l3.952,13.613l3.952,18.042
			l3.952-15.601l3.953,15.309l3.952-2.587l3.952-28.594l3.952,14.994l3.952,12.166l3.952,19.24h3.952l3.953-26.038l3.952-11.541
			l3.952,24.917l3.952-11.286l3.952,1.898l3.952-12.081l3.953,34.131l3.952-52.823l3.952,31.007l3.952,0.669l3.952,0.07l3.952,0.449
			l3.952,10.551l3.953-12.587l3.952,3.326l3.952,19.338h3.952h3.952l3.952-24.096l3.953,15.552l3.952-15.17l3.952-7.034l3.952,7.98
			l3.952-21.954l3.952-7.363l3.952,20.964l3.953-51.519l3.952-8.91l3.952-30.642l3.952,40.375l3.952,29.032l3.952,26.954
			l3.952-12.302l3.953-7.636l3.952,12.727l3.952-31.053l3.952,18.992l3.952,12.112l3.952-99.263l3.953,101.912l3.952-43.616
			l3.952-1.251l3.952-17.86l3.952,34.311l3.952-14.883l3.952,36.869l3.953,2.122l3.952-34.929l3.952,6.341l3.952,34.438
			l3.952-10.821l3.952-10.436l3.953,12.197l3.952,14.849l3.952-26.447l3.952,9.719l3.952-5.129l3.952,17.931l3.952-25.015
			l3.953-0.657l3.952,14.531l3.952,3.776l3.952-8.412l3.952-0.503l3.952-39.697l3.953,53.293l3.952,25.495l3.952-55.936l3.952-5.01
			l3.952,11.307l3.952-23.655l3.952,17.892l3.953-18.749l3.952,2.284l3.952,2.416l3.952,23.813l3.952-22.989l3.952,28.656
			l3.953-40.781l3.952,15.886l3.952-20.385l3.952-17.841l3.952,45.3l3.952-4.49l3.952-18.412l3.953,25.648l3.952,2.012l3.952-34.759
			l3.952,2.272l3.952,20.891l3.952,13.038l3.953-16.259l3.952,9.15l3.952,18.103l3.952-11.479l3.952,6.44l3.952,1.875l3.952-7.048
			l3.953-22.626l3.952,37.99l3.952-12.039l3.952-24.605l3.952,12.468l3.952-124.965l3.953,118.482l3.952,28.456l3.952,14.072
			l3.952-34.78l3.952,1.754l3.952,8.146l3.952,0.137l3.953,13.526l3.952-5.079l3.952,8.883l3.952-23.442l3.952-13.334l3.952,26.857
			l3.953-13.838l3.952-13.067l3.952,32.664l3.952-1.992l3.952,11.801l3.952-27.915l3.952,18.92l3.953,9.295l3.952-3.817l3.952,7.043
			l3.952-20.233l3.952,11.839l3.952-1.764l3.953-19.43l3.952,6.021l3.952,4.255l3.952,9.92l3.952-0.363l3.952,0.574l3.952-8.941
			l3.953-13.326l3.952,16.639l3.952,14.192l3.952-11.165l3.952,7.389l3.952-54.242l3.953,1.85l3.952-1.71l3.952,11.13l3.952,29.887
			l3.952-2.694l3.952,0.732l3.952-7.234l3.953,13.329l3.952-25.688l3.952,10.504l3.952-1.104l3.952-7.719l3.952-2.581l3.952,5.855
			l3.953,15.404l3.952,5.879l3.952-14.468l3.952-8.351l3.952,12.507l3.952-1.946l3.953-2.498l3.952,4.423l3.952-1.903l3.952,15.337
			l3.952-16.209l3.952-8.334l3.952,4.602l3.953-18.776l3.952,10.8l3.952,8.086l3.952,11.174l3.952-9.748l3.952,7.933l3.953-31.539
			l3.952,6.115l3.952-8.485l3.952,15.742l3.952-8.426l3.952,14.433l3.952,6.013l3.953,15.64l3.952-20.873l3.948-3.708"/>
	</g>
	<g transform="matrix(1,0,0,1,8,153)">
		<path vector-effect="none" fill="none" stroke="#DC3912" stroke-width="2" d="M173.476,146.524l3.952-187.522l3.952,238.633
			l3.953-57.246l3.952,45.299l3.952,7.939l3.952-91.969l3.952-82.83l3.952,121.454l3.952,40.569l3.953-2.642l3.952,13.041
			l3.952-79.496l3.952,90.292l3.952-84.887l3.952,73.284l3.953,0.181l3.952-10.346l3.952,24.822l3.952-0.709l3.952-49.093
			l3.952-13.076l3.952-29.695l3.953,60.86l3.952,2.954l3.952,11.847l3.952,15.415l3.952-18.254l3.952-36.243l3.953,36.708
			l3.952-18.831l3.952,51.793l3.952,11.577l3.952-42.084l3.952,42.603l3.952-49.912l3.953,13.881l3.952,8.313l3.952,0.603
			l3.952,47.743h3.952l3.952-8.032l3.953-26.145l3.952-13.251l3.952,1.306l3.952,15.765l3.952-36.726l3.952-29.646l3.952,50.048
			l3.953-49.733l3.952,37.56l3.952,39.561l3.952-21.615l3.952-18.475l3.952,33.552l3.952-12.302l3.953,18.518l3.952-20.035
			l3.952-11.626l3.952,6.173l3.952-7.682l3.952,2.403l3.953,7.903l3.952,11.663l3.952-9.681l3.952,11.413l3.952-40.358l3.952,37.881
			l3.952-10.464l3.953,7.375l3.952-56.338l3.952,59.369l3.952-8.701l3.952,8.623l3.952-12.103l3.953,5.94l3.952,5.644l3.952-12.746
			l3.952,27.3l3.952-63.1l3.952,44.846l3.952,5.61l3.953,4.001l3.952-20.235l3.952,20.813l3.952,17.184l3.952-30.352l3.952,4.754
			l3.953,12.983l3.952,0.529l3.952-7.4l3.952,2l3.952,9.486l3.952,0.244l3.952-27.355l3.953,18.935l3.952-13.278l3.952,10.89
			l3.952,7.967l3.952-3.835l3.952-17.114l3.953-5.886l3.952,25.277l3.952-27.428l3.952,16.998l3.952,3.609l3.952-38.889
			l3.952,39.265l3.953-11.145l3.952,9.708l3.952-31.521l3.952-1.962l3.952,10.496l3.952-7.633l3.953,18.07l3.952,1.45l3.952,1.345
			l3.952-7.95l3.952-3.478l3.952,4.868l3.952-10.041l3.953-4.011l3.952,22.202l3.952-3.397l3.952-5.588l3.952,17.84l3.952-14.046
			l3.953,1.418l3.952,11.798l3.952,11.091l3.952-24.859l3.952-3.666l3.952,15.082l3.952-0.852l3.953-2.417l3.952-0.858l3.952,17.641
			l3.952-6.299l3.952-15.357l3.952,7.046l3.953,6.937l3.952-6.507l3.952,8.635l3.952-2.961l3.952-3.403l3.952-0.287l3.952,6.25
			l3.953,5.555l3.952-1.841l3.952-12.637l3.952,17.735l3.952-11.059l3.952,12.214l3.953,9.424l3.952-16.515l3.952,6.229l3.952,0.658
			l3.952-5.047l3.952,5.129l3.952-1.667l3.953,5.431l3.952-6.405l3.952-17.846l3.952,3.968l3.952,9.323l3.952,4.745l3.953-11.465
			l3.952,6.935l3.952,1.349l3.952-2.419l3.952-0.424l3.952,2.166l3.952-11.601l3.953,1.637l3.952-15.726l3.952,24.573l3.952,4.413
			l3.952-27.146l3.952,10.881l3.952,17.504l3.953-5.159l3.952-4.67l3.952-9.653l3.952,17.553l3.952-8.695l3.952-23.438l3.953,24.235
			l3.952-2.992l3.952,7.264l3.952,1.686l3.952,0.046l3.952,3.111l3.952-1.322l3.953-1.485l3.952-3.644l3.952-0.515l3.952-6.417
			l3.952,14.923l3.952-6.217l3.953,6.846l3.952,0.279l3.952-1.121l3.952-3.75l3.952-5.199l3.952,3.871l3.952,2.478l3.953,1.726
			l3.952-3.906l3.948,2.338"/>
	</g>
	<g transform="matrix(1,0,0,1,8,153)">
		<path vector-effect="none" fill="none" stroke="#FF9900" stroke-width="2" d="M173.476,251.5h3.952h3.952l3.953-37.037
			l3.952,37.037h3.952h3.952l3.952-106.641l3.952,94.283l3.952-15.901l3.953,13.601l3.952-30.53l3.952,14.133l3.952,31.055
			l3.952-59.707l3.952,44.443l3.953,15.264l3.952-17.806l3.952,2.34l3.952-47.346l3.952,43.572l3.952-62.718l3.952,47.215
			l3.953-4.314l3.952,14.004l3.952,12.391l3.952,0.688l3.952-10.076l3.952-34.835l3.953,13.095l3.952,12.096l3.952,9.878
			l3.952,11.243l3.952-42.12l3.952,32.065l3.952-49.912l3.953,47.876l3.952,22.664l3.952-9.549l3.952,9.549l3.952-8.092
			l3.952-16.004l3.953,24.096l3.952-7.905l3.952,0.218l3.952,7.687l3.952-22.361l3.952,22.361l3.952-15.56l3.953,1.787l3.952,7.234
			l3.952-6.323l3.952,6.044l3.952-19.574l3.952,19.934l3.952-25.319l3.953,25.239l3.952-26.504l3.952,0.995l3.952,19.16l3.952-0.309
			l3.952-11.995l3.953,25.191h3.952l3.952-17.356l3.952,5.722l3.952-9.733l3.952,0.327l3.952,21.04l3.953-5.775l3.952-20.986
			l3.952,21.491l3.952-6.25l3.952-4.329l3.952,3.335l3.953-1.683l3.952-8.814l3.952,5.026l3.952,0.323l3.952,4.202l3.952,4.481
			l3.952-4.009l3.953-8.932l3.952,9.227l3.952,8.405l3.952,0.017l3.952-21.659l3.952,6.421l3.953,6.814l3.952,0.318l3.952-3.64
			l3.952,11.679l3.952,4.338h3.952l3.952-27.78l3.953,15.42l3.952-2.839l3.952-11.908l3.952,11.795l3.952,3.825l3.952-8.557
			l3.953,5.898l3.952,3.797l3.952-3.401l3.952,6.833l3.952,0.037l3.952-13.042l3.952,6.351l3.953-3.833l3.952-0.459l3.952-6.884
			l3.952-20.077l3.952,10.446l3.952-7.41l3.953,14.368l3.952,0.966l3.952,7.287l3.952-7.282l3.952-7.763l3.952,1.289l3.952,6.901
			l3.953-11.208l3.952,14.617l3.952-3.193l3.952-7.729l3.952,17.598l3.952-29.494l3.953,26.523l3.952,3.242l3.952,5.592l3.952-7.421
			l3.952,5.349l3.952,0.195l3.952-13.132l3.953,6.768l3.952,9.515l3.952,0.021l3.952-4.234l3.952-4.415l3.952,4.561l3.953,0.251
			l3.952-6.427l3.952,2.871l3.952-7.72l3.952,4.949l3.952,4.066l3.952,8.467l3.953-9.295l3.952,6.909l3.952-2.013l3.952,4.512
			l3.952-13.017l3.952,12.545l3.953,0.599l3.952-4.144l3.952,6.2l3.952-7.664l3.952,2.384l3.952,3.54l3.952,0.107l3.953-0.19
			l3.952-4.251l3.952-14.473l3.952,7.686l3.952,1.808l3.952,3.085l3.953,4.203l3.952,4.126l3.952-2.034l3.952-2.107l3.952-5.018
			l3.952,3.836l3.952-3.201l3.953,1.053l3.952-16.873l3.952,12.283l3.952,6.552l3.952-17.516l3.952,7.016l3.952,4.329l3.953-0.011
			l3.952,0.287l3.952,3.519l3.952,2.168l3.952-13.521l3.952-8.506l3.953,9.209l3.952-2.99l3.952,1.291l3.952,6.17l3.952,11.892
			l3.952-2.882l3.952,2.455l3.953-2.395l3.952-1.139l3.952,0.642l3.952-6.997l3.952,4.557l3.952-0.215l3.953,1.029l3.952,0.216
			l3.952,1.763l3.952-3.964l3.952-1.126l3.952-1.652l3.952,7.594l3.953-11.576l3.952,5.243l3.948,4.957"/>
	</g>
	<g transform="matrix(1,0,0,1,8,153)">
		<path vector-effect="none" fill="none" stroke="#109618" stroke-width="2" d="M173.476,251.5l3.952-146.249L181.38,251.5
			l3.953-37.037l3.952-61.681l3.952,98.718l3.952-37.46l3.952-49.792l3.952,62.537l3.952-17.674l3.953,27.731l3.952-0.405
			l3.952-47.046l3.952-102.738l3.952,134.993l3.952-46.467l3.953,30.664l3.952,10.046l3.952-57.188l3.952,77.096l3.952-42.018
			l3.952,3.082l3.952,37.267l3.953-8.666l3.952-11.541l3.952,37.579l3.952-11.974l3.952-32.127l3.952,9.97l3.953,12.236l3.952,0.766
			l3.952-0.687l3.952-20.477l3.952,10.677l3.952,10.988l3.952,10.551l3.953-12.587l3.952-25.682l3.952,29.249l3.952-7.138
			l3.952-14.223l3.952,32.426l3.953-0.512l3.952-70.503l3.952,32.925l3.952,8.176l3.952,0.678l3.952-22.258l3.952,5.065
			l3.953,20.028l3.952-11.342l3.952,20.05l3.952,5.271l3.952-19.135l3.952,26.673l3.952-6.15l3.953,19.066l3.952-19.825
			l3.952-18.632l3.952,6.241l3.952-0.775l3.952-4.796l3.953,13.513l3.952-62.011l3.952,57.358l3.952-11.791l3.952-39.407
			l3.952,48.564l3.952,0.042l3.953,2.644l3.952-13.943l3.952-15.15l3.952,23.408l3.952-12.986l3.952,22.518l3.953-8.099
			l3.952,10.116l3.952-17.455l3.952,13.974l3.952-0.429l3.952,4.473l3.952-3.528l3.953-9.097l3.952-7.236l3.952,8.007l3.952,0.131
			l3.952-22.011l3.952,41.55l3.953-19.221l3.952,25.601l3.952-19.777l3.952-19.691l3.952,27.041l3.952,8.455l3.952-15.556
			l3.953-38.138l3.952,35.521l3.952,11.035l3.952,11.706l3.952-22.977l3.952-5.447l3.953,7.787l3.952,11.045l3.952-10.253
			l3.952,6.749l3.952-13.647l3.952,4.515l3.952,16.313l3.953-3.833l3.952,3.114l3.952,0.149l3.952-27.235l3.952,6.998l3.952,6.519
			l3.953,10.722l3.952,3.91l3.952-37.886l3.952,18.052l3.952-19.812l3.952-6.987l3.952,28.055l3.953,6.985l3.952-26.058
			l3.952,10.736l3.952,30.996l3.952-22.728l3.952-41.514l3.953,51.779l3.952-7.111l3.952-11.575l3.952,20.301l3.952-14.014
			l3.952,7.716l3.952-28.434l3.953-18.535l3.952,40.262l3.952-2.117l3.952,6.922l3.952,2.051l3.952-8.169l3.953,6.978l3.952-12.868
			l3.952-36.039l3.952,56.693l3.952,11.129l3.952-19.209l3.952-10.834l3.953,20.513l3.952-4.04l3.952-1.79l3.952,6.988l3.952-2.523
			l3.952,5.777l3.953,1.197l3.952,2.026l3.952,2.086l3.952,0.376l3.952-9.057l3.952-4.555l3.952-1.525l3.953,11.115l3.952-6.464
			l3.952,6.956l3.952,0.065l3.952-1.954l3.952,3.202l3.953-3.719l3.952-8.728l3.952,5.154l3.952-12.242l3.952-3.598l3.952,11.419
			l3.952-1.017l3.953-1.52l3.952,5.003l3.952,1.746l3.952,0.899l3.952-5.237l3.952,2.147l3.952-5.96l3.953,10.278l3.952-4.766
			l3.952-8.054l3.952,14.059l3.952-16.45l3.952,2.158l3.953-1.221l3.952-0.021l3.952,5.752l3.952,1.715l3.952-10.316l3.952,12.039
			l3.952-8.033l3.953,18.377l3.952-10.979l3.952-8.089l3.952-12.067l3.952,32.577l3.952-7.598l3.953-2.274l3.952,4.938l3.952,4.806
			l3.952,0.321l3.952-4.013l3.952-4.471l3.952,6.335l3.953,1.565l3.952-18.283l3.948,22.73"/>
	</g>
	<g transform="matrix(0.866025,-0.5,0.5,0.866025,-179.856,301.995)">
		<g enable-background="new    ">
			<path fill="#222222" d="M229.225,287.273l-0.001,1.267l-7.097,0c-0.009-0.317,0.042-0.623,0.154-0.916
				c0.181-0.483,0.47-0.959,0.867-1.428c0.398-0.469,0.974-1.011,1.726-1.626c1.166-0.957,1.955-1.715,2.365-2.274
				c0.411-0.559,0.616-1.088,0.615-1.587c0.001-0.521-0.186-0.962-0.56-1.32c-0.373-0.36-0.861-0.539-1.46-0.539
				c-0.635,0.001-1.143,0.19-1.524,0.57c-0.381,0.381-0.574,0.908-0.579,1.583l-1.354-0.139c0.092-1.011,0.441-1.782,1.047-2.311
				c0.605-0.53,1.418-0.795,2.439-0.794c1.03-0.001,1.846,0.285,2.447,0.857c0.6,0.571,0.901,1.279,0.901,2.124
				c0,0.43-0.088,0.852-0.265,1.267c-0.175,0.415-0.467,0.852-0.875,1.31c-0.408,0.46-1.085,1.09-2.033,1.891
				c-0.791,0.664-1.298,1.113-1.523,1.35c-0.225,0.237-0.411,0.475-0.557,0.713L229.225,287.273z"/>
			<path fill="#222222" d="M230.638,283.245c0-1.27,0.131-2.293,0.392-3.066c0.261-0.774,0.648-1.371,1.164-1.791
				c0.515-0.42,1.164-0.629,1.945-0.63c0.577,0,1.082,0.116,1.517,0.348c0.435,0.233,0.793,0.566,1.077,1.004
				c0.283,0.436,0.505,0.968,0.666,1.597c0.161,0.627,0.242,1.473,0.242,2.537c0,1.26-0.13,2.277-0.388,3.051
				c-0.26,0.774-0.647,1.372-1.161,1.795c-0.515,0.422-1.166,0.634-1.953,0.634c-1.035,0-1.847-0.371-2.438-1.113
				C230.992,286.716,230.638,285.262,230.638,283.245z M231.992,283.245c0.001,1.763,0.206,2.936,0.62,3.519
				c0.413,0.584,0.921,0.876,1.527,0.876c0.605,0,1.114-0.293,1.527-0.879s0.618-1.758,0.618-3.516
				c0.001-1.767-0.206-2.942-0.619-3.522c-0.413-0.581-0.926-0.872-1.542-0.871c-0.605,0-1.088,0.256-1.45,0.769
				C232.22,280.273,231.993,281.483,231.992,283.245z"/>
			<path fill="#222222" d="M238.98,283.245c0-1.269,0.13-2.292,0.392-3.065c0.261-0.774,0.648-1.371,1.164-1.791
				s1.164-0.629,1.945-0.63c0.577,0.001,1.082,0.116,1.517,0.347c0.435,0.233,0.792,0.567,1.076,1.005
				c0.283,0.436,0.505,0.968,0.666,1.596c0.161,0.627,0.242,1.474,0.242,2.538c0,1.26-0.129,2.277-0.388,3.051
				c-0.26,0.774-0.646,1.371-1.161,1.795c-0.515,0.422-1.166,0.634-1.952,0.633c-1.035,0-1.848-0.37-2.438-1.112
				C239.334,286.716,238.98,285.262,238.98,283.245z M240.335,283.244c0,1.764,0.206,2.936,0.619,3.519
				c0.413,0.584,0.921,0.876,1.527,0.876c0.605,0,1.114-0.293,1.527-0.879s0.618-1.758,0.618-3.516
				c0.001-1.767-0.206-2.942-0.619-3.522c-0.413-0.581-0.926-0.872-1.542-0.872c-0.605,0-1.089,0.257-1.45,0.769
				C240.562,280.273,240.335,281.483,240.335,283.244z"/>
			<path fill="#222222" d="M249.351,282.718c-0.547-0.201-0.953-0.487-1.216-0.857c-0.264-0.371-0.396-0.816-0.395-1.333
				c0-0.781,0.28-1.438,0.841-1.969c0.562-0.532,1.309-0.799,2.241-0.799c0.938,0,1.692,0.272,2.265,0.816
				c0.57,0.546,0.858,1.208,0.857,1.988c0.001,0.499-0.13,0.933-0.393,1.301c-0.262,0.368-0.658,0.654-1.19,0.854
				c0.659,0.215,1.161,0.562,1.504,1.039c0.343,0.48,0.517,1.052,0.517,1.715c0,0.918-0.326,1.69-0.975,2.315
				c-0.65,0.625-1.504,0.937-2.564,0.937c-1.06-0.001-1.914-0.314-2.564-0.941c-0.648-0.628-0.973-1.41-0.973-2.348
				c0-0.698,0.176-1.283,0.531-1.754C248.192,283.209,248.698,282.889,249.351,282.718z M249.087,280.483
				c0,0.508,0.164,0.923,0.49,1.246c0.327,0.322,0.752,0.483,1.274,0.483c0.508,0,0.925-0.161,1.249-0.48
				c0.326-0.32,0.488-0.712,0.488-1.176c0-0.483-0.169-0.889-0.503-1.219c-0.334-0.329-0.751-0.494-1.249-0.495
				c-0.503,0-0.92,0.161-1.251,0.484C249.253,279.649,249.087,280.034,249.087,280.483z M248.662,285.443
				c0.001,0.376,0.089,0.74,0.268,1.091c0.178,0.352,0.443,0.623,0.795,0.816c0.352,0.193,0.729,0.29,1.135,0.29
				c0.629,0,1.15-0.203,1.561-0.608c0.41-0.405,0.615-0.919,0.615-1.546c0-0.634-0.214-1.159-0.635-1.573
				c-0.421-0.415-0.951-0.623-1.585-0.623c-0.62,0-1.134,0.204-1.542,0.615C248.866,284.313,248.663,284.827,248.662,285.443z"/>
		</g>
	</g>
	<g transform="matrix(0.866025,-0.5,0.5,0.866025,-167.678,347.445)">
		<g enable-background="new    ">
			<path fill="#222222" d="M320.125,287.273l-0.001,1.267l-7.097,0c-0.009-0.317,0.042-0.623,0.154-0.916
				c0.181-0.483,0.47-0.959,0.867-1.428c0.398-0.469,0.974-1.011,1.726-1.626c1.166-0.957,1.955-1.715,2.365-2.274
				c0.411-0.559,0.616-1.088,0.615-1.587c0.001-0.521-0.186-0.962-0.56-1.32c-0.373-0.36-0.861-0.539-1.46-0.539
				c-0.635,0.001-1.143,0.19-1.524,0.57c-0.381,0.381-0.574,0.908-0.579,1.583l-1.354-0.139c0.092-1.011,0.441-1.782,1.047-2.311
				c0.605-0.53,1.418-0.795,2.439-0.794c1.03-0.001,1.846,0.285,2.447,0.857c0.6,0.571,0.901,1.279,0.901,2.124
				c0,0.43-0.088,0.852-0.265,1.267c-0.175,0.415-0.467,0.852-0.875,1.31c-0.408,0.46-1.085,1.09-2.032,1.891
				c-0.791,0.664-1.298,1.113-1.523,1.35c-0.225,0.237-0.411,0.475-0.557,0.713L320.125,287.273z"/>
			<path fill="#222222" d="M321.538,283.246c0-1.27,0.131-2.293,0.392-3.066c0.261-0.774,0.648-1.371,1.164-1.791
				c0.515-0.42,1.164-0.629,1.945-0.63c0.577,0.001,1.082,0.116,1.517,0.348c0.435,0.233,0.793,0.566,1.077,1.004
				c0.283,0.436,0.505,0.968,0.666,1.597c0.161,0.627,0.242,1.473,0.242,2.537c0,1.26-0.13,2.277-0.388,3.051
				c-0.259,0.774-0.647,1.372-1.161,1.795c-0.515,0.422-1.166,0.634-1.953,0.634c-1.035,0-1.847-0.371-2.438-1.113
				C321.892,286.716,321.538,285.262,321.538,283.246z M322.892,283.245c0.001,1.763,0.206,2.936,0.62,3.519
				c0.413,0.584,0.921,0.876,1.527,0.876c0.605,0,1.114-0.293,1.527-0.879s0.618-1.758,0.618-3.516
				c0.001-1.767-0.206-2.942-0.619-3.522c-0.413-0.581-0.926-0.872-1.542-0.871c-0.605,0-1.088,0.256-1.45,0.769
				C323.12,280.273,322.893,281.483,322.892,283.245z"/>
			<path fill="#222222" d="M329.881,283.245c0-1.269,0.13-2.292,0.392-3.065c0.261-0.774,0.648-1.371,1.164-1.791
				c0.515-0.42,1.164-0.629,1.944-0.63c0.577,0,1.082,0.116,1.517,0.347c0.435,0.233,0.792,0.567,1.076,1.005
				c0.283,0.436,0.505,0.968,0.666,1.596c0.161,0.627,0.242,1.474,0.242,2.538c0,1.26-0.129,2.277-0.388,3.051
				c-0.26,0.774-0.646,1.371-1.161,1.795c-0.515,0.422-1.166,0.634-1.952,0.633c-1.035,0-1.848-0.37-2.438-1.112
				C330.234,286.716,329.881,285.262,329.881,283.245z M331.235,283.244c0,1.764,0.206,2.936,0.619,3.519
				c0.413,0.584,0.921,0.876,1.527,0.876c0.605,0,1.114-0.293,1.527-0.879s0.618-1.758,0.618-3.516
				c0.001-1.767-0.206-2.942-0.619-3.522c-0.413-0.581-0.926-0.872-1.542-0.872c-0.605,0-1.089,0.257-1.45,0.769
				C331.462,280.273,331.235,281.483,331.235,283.244z"/>
			<path fill="#222222" d="M338.42,286.057l1.267-0.116c0.108,0.595,0.313,1.026,0.615,1.296c0.303,0.268,0.691,0.403,1.165,0.403
				c0.406,0.001,0.76-0.092,1.065-0.279c0.306-0.184,0.556-0.432,0.752-0.743c0.194-0.309,0.36-0.728,0.49-1.255
				c0.133-0.528,0.198-1.065,0.197-1.611c0-0.059-0.002-0.148-0.005-0.265c-0.265,0.42-0.626,0.76-1.082,1.021
				c-0.457,0.262-0.95,0.392-1.482,0.391c-0.89,0-1.641-0.322-2.256-0.966c-0.616-0.644-0.924-1.494-0.923-2.549
				c0-1.087,0.32-1.965,0.963-2.629c0.641-0.664,1.447-0.996,2.413-0.996c0.699,0.001,1.337,0.189,1.916,0.565
				c0.578,0.376,1.017,0.911,1.318,1.608c0.3,0.694,0.451,1.703,0.451,3.021c0.001,1.372-0.151,2.464-0.448,3.278
				c-0.298,0.813-0.741,1.432-1.329,1.856c-0.588,0.425-1.279,0.637-2.07,0.637c-0.84,0-1.527-0.233-2.058-0.7
				C338.847,287.558,338.528,286.902,338.42,286.057z M343.82,281.319c0-0.757-0.204-1.357-0.606-1.802
				c-0.402-0.444-0.888-0.666-1.454-0.666c-0.586,0-1.096,0.239-1.53,0.717c-0.435,0.48-0.653,1.099-0.653,1.861
				c0,0.683,0.207,1.238,0.619,1.666c0.412,0.427,0.922,0.642,1.527,0.641c0.611,0,1.111-0.214,1.507-0.641
				C343.622,282.667,343.819,282.075,343.82,281.319z"/>
		</g>
	</g>
	<g transform="matrix(0.866025,-0.5,0.5,0.866025,-140.144,450.201)">
		<g enable-background="new    ">
			<path fill="#222222" d="M525.637,287.273l-0.001,1.267l-7.097,0c-0.009-0.317,0.042-0.623,0.154-0.916
				c0.181-0.483,0.47-0.959,0.867-1.428c0.398-0.469,0.974-1.011,1.726-1.626c1.166-0.957,1.955-1.715,2.365-2.274
				c0.411-0.559,0.616-1.088,0.615-1.587c0.001-0.521-0.186-0.962-0.56-1.32c-0.373-0.36-0.861-0.539-1.461-0.539
				c-0.635,0.001-1.143,0.19-1.524,0.571c-0.381,0.381-0.574,0.908-0.579,1.583l-1.354-0.139c0.092-1.011,0.441-1.782,1.047-2.311
				c0.605-0.53,1.418-0.795,2.439-0.794c1.03-0.001,1.846,0.285,2.447,0.857c0.6,0.571,0.901,1.279,0.901,2.124
				c0,0.431-0.088,0.852-0.265,1.267c-0.175,0.415-0.467,0.852-0.875,1.31c-0.408,0.46-1.085,1.09-2.032,1.891
				c-0.791,0.664-1.298,1.113-1.523,1.35c-0.225,0.237-0.411,0.475-0.557,0.713L525.637,287.273z"/>
			<path fill="#222222" d="M527.05,283.245c0-1.27,0.131-2.293,0.392-3.066c0.261-0.774,0.648-1.371,1.164-1.791
				c0.515-0.42,1.164-0.629,1.945-0.63c0.577,0.001,1.082,0.116,1.517,0.348c0.435,0.233,0.793,0.566,1.077,1.004
				c0.283,0.436,0.505,0.968,0.666,1.597c0.161,0.627,0.242,1.473,0.242,2.537c0,1.26-0.13,2.277-0.388,3.051
				c-0.26,0.774-0.647,1.372-1.161,1.795c-0.515,0.422-1.166,0.634-1.953,0.634c-1.035,0-1.847-0.371-2.438-1.113
				C527.404,286.716,527.05,285.262,527.05,283.245z M528.404,283.245c0,1.763,0.206,2.936,0.62,3.519
				c0.413,0.584,0.921,0.876,1.527,0.876c0.605,0,1.114-0.293,1.527-0.879c0.413-0.586,0.618-1.758,0.618-3.516
				c0.001-1.767-0.206-2.942-0.619-3.522c-0.413-0.581-0.926-0.872-1.542-0.871c-0.605,0-1.088,0.256-1.45,0.769
				C528.632,280.273,528.405,281.483,528.404,283.245z"/>
			<path fill="#222222" d="M540.358,288.541l-1.319,0l0.001-8.4c-0.318,0.302-0.735,0.605-1.249,0.908
				c-0.515,0.302-0.978,0.529-1.388,0.68l0-1.274c0.737-0.347,1.382-0.766,1.934-1.259c0.551-0.494,0.943-0.972,1.172-1.436l0.85,0
				V288.541z"/>
			<path fill="#222222" d="M543.734,283.245c0-1.269,0.13-2.292,0.392-3.065c0.261-0.774,0.648-1.371,1.164-1.791
				c0.515-0.42,1.164-0.629,1.945-0.63c0.578,0,1.083,0.116,1.516,0.347c0.436,0.233,0.794,0.567,1.078,1.004
				c0.282,0.437,0.505,0.969,0.667,1.597c0.16,0.627,0.242,1.474,0.242,2.538c0,1.26-0.131,2.276-0.389,3.05
				c-0.26,0.774-0.646,1.371-1.162,1.794c-0.513,0.422-1.164,0.634-1.951,0.634c-1.035,0-1.847-0.371-2.438-1.112
				C544.088,286.716,543.734,285.262,543.734,283.245z M545.089,283.244c0,1.764,0.206,2.936,0.619,3.519
				c0.412,0.584,0.921,0.876,1.527,0.876c0.605,0,1.115-0.294,1.527-0.88c0.412-0.585,0.619-1.758,0.619-3.515
				c0-1.768-0.207-2.943-0.619-3.524c-0.412-0.581-0.927-0.871-1.542-0.871c-0.605,0-1.089,0.257-1.45,0.769
				C545.316,280.273,545.089,281.482,545.089,283.244z"/>
		</g>
	</g>
	<g transform="matrix(0.866025,-0.5,0.5,0.866025,-112.611,552.957)">
		<g enable-background="new    ">
			<path fill="#222222" d="M731.149,287.273l-0.001,1.267l-7.097,0c-0.008-0.317,0.042-0.623,0.154-0.916
				c0.181-0.483,0.47-0.959,0.867-1.428c0.398-0.469,0.974-1.011,1.726-1.626c1.166-0.957,1.955-1.715,2.365-2.274
				c0.411-0.559,0.616-1.088,0.615-1.587c0.001-0.521-0.186-0.962-0.56-1.32c-0.373-0.36-0.861-0.539-1.46-0.539
				c-0.635,0.001-1.143,0.19-1.524,0.57c-0.381,0.381-0.574,0.908-0.579,1.583l-1.354-0.139c0.092-1.011,0.441-1.782,1.047-2.311
				c0.605-0.53,1.418-0.795,2.439-0.794c1.03-0.001,1.846,0.285,2.447,0.857c0.6,0.571,0.901,1.279,0.901,2.124
				c0,0.43-0.088,0.852-0.265,1.267c-0.175,0.415-0.467,0.852-0.875,1.31c-0.408,0.46-1.085,1.09-2.032,1.891
				c-0.791,0.664-1.298,1.113-1.523,1.35c-0.225,0.237-0.411,0.475-0.557,0.713L731.149,287.273z"/>
			<path fill="#222222" d="M732.562,283.245c0-1.27,0.131-2.293,0.392-3.066c0.261-0.774,0.648-1.371,1.164-1.791
				c0.515-0.42,1.164-0.629,1.944-0.63c0.577,0.001,1.082,0.116,1.517,0.348c0.435,0.233,0.793,0.566,1.077,1.004
				c0.283,0.436,0.505,0.968,0.666,1.597c0.161,0.627,0.242,1.473,0.242,2.537c0,1.26-0.13,2.277-0.388,3.051
				c-0.26,0.774-0.647,1.372-1.161,1.795c-0.515,0.422-1.166,0.634-1.953,0.634c-1.035,0-1.847-0.371-2.438-1.113
				C732.916,286.716,732.562,285.262,732.562,283.245z M733.916,283.245c0.001,1.763,0.206,2.936,0.62,3.519
				c0.412,0.584,0.921,0.876,1.527,0.876c0.605,0,1.114-0.293,1.527-0.879c0.413-0.586,0.618-1.758,0.618-3.516
				c0.001-1.767-0.206-2.942-0.619-3.522c-0.413-0.581-0.926-0.872-1.542-0.871c-0.605,0-1.088,0.256-1.45,0.769
				C734.144,280.273,733.917,281.483,733.916,283.245z"/>
			<path fill="#222222" d="M745.87,288.541l-1.319,0l0.001-8.4c-0.318,0.302-0.735,0.605-1.249,0.908
				c-0.515,0.302-0.978,0.529-1.388,0.68l0-1.274c0.737-0.347,1.382-0.766,1.934-1.259c0.551-0.494,0.943-0.972,1.172-1.436l0.85,0
				V288.541z"/>
			<path fill="#222222" d="M753.099,288.54l-1.319,0.001l0-8.401c-0.317,0.302-0.733,0.605-1.248,0.908
				c-0.516,0.303-0.978,0.529-1.388,0.681l0-1.275c0.737-0.346,1.381-0.765,1.932-1.259c0.553-0.493,0.943-0.972,1.173-1.436
				l0.849,0.001L753.099,288.54z"/>
		</g>
	</g>
	<g transform="matrix(0.866025,-0.5,0.5,0.866025,-85.0777,655.713)">
		<g enable-background="new    ">
			<path fill="#222222" d="M936.66,287.272l-0.001,1.268l-7.097,0c-0.009-0.317,0.042-0.623,0.155-0.917
				c0.18-0.482,0.47-0.959,0.867-1.428c0.398-0.469,0.974-1.011,1.726-1.625c1.167-0.958,1.956-1.716,2.366-2.275
				c0.41-0.558,0.616-1.088,0.615-1.586c0.001-0.521-0.186-0.963-0.56-1.321c-0.373-0.36-0.861-0.538-1.461-0.538
				c-0.635,0-1.142,0.19-1.524,0.571c-0.381,0.381-0.574,0.908-0.578,1.582l-1.355-0.138c0.092-1.011,0.441-1.782,1.047-2.311
				c0.605-0.531,1.419-0.796,2.439-0.795c1.03-0.001,1.846,0.285,2.447,0.858c0.6,0.57,0.901,1.279,0.901,2.123
				c0,0.43-0.088,0.852-0.265,1.267c-0.175,0.415-0.468,0.853-0.875,1.311c-0.407,0.459-1.085,1.09-2.032,1.891
				c-0.791,0.664-1.299,1.114-1.523,1.351c-0.225,0.237-0.411,0.475-0.557,0.713L936.66,287.272z"/>
			<path fill="#222222" d="M938.073,283.245c0-1.27,0.13-2.292,0.392-3.065c0.261-0.774,0.648-1.371,1.164-1.791
				c0.516-0.421,1.164-0.63,1.945-0.631c0.577,0.001,1.082,0.117,1.517,0.348c0.435,0.233,0.793,0.566,1.076,1.005
				c0.283,0.436,0.505,0.968,0.666,1.596s0.242,1.474,0.242,2.538c0,1.26-0.129,2.277-0.388,3.051
				c-0.26,0.774-0.646,1.371-1.161,1.795c-0.515,0.421-1.166,0.634-1.952,0.633c-1.035,0-1.847-0.371-2.438-1.112
				C938.427,286.716,938.073,285.261,938.073,283.245z M939.427,283.244c0,1.764,0.206,2.936,0.619,3.519
				c0.413,0.584,0.921,0.876,1.527,0.876c0.605,0,1.115-0.294,1.527-0.879c0.413-0.586,0.618-1.758,0.618-3.516
				c0.001-1.768-0.206-2.942-0.618-3.523c-0.414-0.58-0.927-0.871-1.542-0.871c-0.605,0-1.088,0.256-1.45,0.769
				C939.654,280.273,939.428,281.482,939.427,283.244z"/>
			<path fill="#222222" d="M951.381,288.54l-1.319,0l0.001-8.4c-0.318,0.302-0.735,0.605-1.249,0.908
				c-0.515,0.302-0.978,0.529-1.389,0.681l0.001-1.275c0.737-0.347,1.382-0.766,1.934-1.259c0.551-0.494,0.942-0.972,1.172-1.436
				l0.85,0L951.381,288.54z"/>
			<path fill="#222222" d="M961.686,287.273l-0.001,1.267l-7.097,0c-0.009-0.317,0.042-0.623,0.155-0.917
				c0.18-0.482,0.47-0.958,0.867-1.428c0.398-0.469,0.973-1.01,1.726-1.625c1.167-0.958,1.956-1.716,2.367-2.275
				c0.41-0.558,0.615-1.088,0.615-1.586c0-0.522-0.187-0.963-0.56-1.321c-0.374-0.36-0.862-0.538-1.462-0.538
				c-0.635,0-1.142,0.19-1.524,0.57c-0.381,0.381-0.574,0.908-0.578,1.582l-1.355-0.138c0.092-1.011,0.441-1.782,1.047-2.311
				c0.605-0.53,1.418-0.795,2.439-0.795c1.029,0,1.846,0.285,2.446,0.857c0.601,0.57,0.902,1.279,0.902,2.123
				c0,0.43-0.088,0.852-0.263,1.268c-0.176,0.415-0.469,0.852-0.878,1.311c-0.405,0.46-1.083,1.09-2.031,1.89
				c-0.791,0.664-1.299,1.114-1.523,1.351c-0.225,0.237-0.411,0.475-0.556,0.714L961.686,287.273z"/>
		</g>
	</g>
	<g transform="matrix(1,0,0,1,8,153)">
		<g enable-background="new    ">
			<path fill="#444444" d="M135.622,251.455c0-1.27,0.13-2.292,0.392-3.065c0.261-0.774,0.649-1.371,1.164-1.791
				s1.164-0.63,1.945-0.63c0.576,0,1.082,0.116,1.516,0.348c0.435,0.232,0.793,0.566,1.077,1.004
				c0.283,0.437,0.505,0.969,0.667,1.597c0.161,0.627,0.242,1.474,0.242,2.538c0,1.26-0.129,2.276-0.388,3.05
				c-0.259,0.774-0.646,1.372-1.161,1.795c-0.515,0.422-1.166,0.634-1.952,0.634c-1.035,0-1.848-0.371-2.439-1.113
				C135.976,254.926,135.622,253.472,135.622,251.455z M136.977,251.455c0,1.763,0.206,2.936,0.619,3.519
				c0.412,0.584,0.921,0.876,1.527,0.876s1.114-0.293,1.527-0.879s0.619-1.758,0.619-3.516c0-1.768-0.207-2.942-0.619-3.523
				s-0.926-0.871-1.542-0.871c-0.605,0-1.089,0.256-1.45,0.769C137.204,248.484,136.977,249.693,136.977,251.455z"/>
			<path fill="#444444" d="M144.214,248.591c0-0.767,0.193-1.418,0.579-1.956c0.386-0.536,0.945-0.805,1.677-0.805
				c0.674,0,1.231,0.24,1.673,0.721c0.442,0.481,0.663,1.188,0.663,2.121c0,0.908-0.224,1.607-0.67,2.098
				c-0.447,0.491-0.998,0.736-1.652,0.736c-0.649,0-1.19-0.242-1.623-0.725C144.43,250.297,144.214,249.568,144.214,248.591z
				 M146.506,246.738c-0.327,0-0.6,0.142-0.816,0.424c-0.218,0.284-0.326,0.804-0.326,1.561c0,0.688,0.11,1.173,0.33,1.454
				c0.22,0.28,0.491,0.421,0.813,0.421c0.332,0,0.606-0.142,0.824-0.425c0.217-0.283,0.326-0.801,0.326-1.553
				c0-0.693-0.11-1.181-0.33-1.461C147.107,246.878,146.833,246.738,146.506,246.738z M146.513,257.146l5.874-11.315h1.069
				l-5.852,11.315H146.513z M151.157,254.231c0-0.771,0.193-1.425,0.579-1.959c0.386-0.535,0.947-0.803,1.685-0.803
				c0.674,0,1.231,0.241,1.674,0.722c0.441,0.481,0.663,1.188,0.663,2.12c0,0.908-0.223,1.608-0.67,2.099
				c-0.446,0.491-1,0.736-1.659,0.736c-0.649,0-1.19-0.243-1.623-0.729C151.373,255.931,151.157,255.202,151.157,254.231z
				 M153.457,252.377c-0.332,0-0.607,0.143-0.824,0.426c-0.218,0.283-0.326,0.803-0.326,1.56c0,0.684,0.11,1.167,0.33,1.45
				s0.491,0.425,0.813,0.425c0.337,0,0.614-0.142,0.831-0.425s0.326-0.801,0.326-1.553c0-0.693-0.11-1.181-0.33-1.461
				C154.057,252.518,153.784,252.377,153.457,252.377z"/>
		</g>
	</g>
	<g transform="matrix(1,0,0,1,8,153)">
		<g enable-background="new    ">
			<path fill="#444444" d="M115.622,174.455c0-1.27,0.13-2.292,0.392-3.065c0.261-0.774,0.649-1.371,1.164-1.791
				s1.164-0.63,1.945-0.63c0.576,0,1.082,0.116,1.516,0.348c0.435,0.232,0.793,0.566,1.077,1.004
				c0.283,0.437,0.505,0.969,0.667,1.597c0.161,0.627,0.242,1.474,0.242,2.538c0,1.26-0.129,2.276-0.388,3.05
				c-0.259,0.774-0.646,1.372-1.161,1.795c-0.515,0.422-1.166,0.634-1.952,0.634c-1.035,0-1.848-0.371-2.439-1.113
				C115.976,177.926,115.622,176.472,115.622,174.455z M116.977,174.455c0,1.763,0.206,2.936,0.619,3.519
				c0.412,0.584,0.921,0.876,1.527,0.876s1.114-0.293,1.527-0.879s0.619-1.758,0.619-3.516c0-1.768-0.207-2.942-0.619-3.523
				s-0.926-0.871-1.542-0.871c-0.605,0-1.089,0.256-1.45,0.769C117.204,171.484,116.977,172.693,116.977,174.455z"/>
			<path fill="#444444" d="M124.704,179.75v-1.502h1.501v1.502H124.704z"/>
			<path fill="#444444" d="M133.098,179.75h-1.318v-8.4c-0.317,0.303-0.734,0.605-1.249,0.908c-0.516,0.303-0.978,0.529-1.388,0.681
				v-1.274c0.737-0.347,1.382-0.767,1.934-1.26s0.942-0.972,1.172-1.436h0.85V179.75z"/>
			<path fill="#444444" d="M136.474,176.938l1.384-0.117c0.103,0.674,0.341,1.181,0.714,1.52c0.374,0.34,0.824,0.51,1.352,0.51
				c0.635,0,1.172-0.239,1.611-0.719c0.439-0.478,0.659-1.113,0.659-1.904c0-0.751-0.211-1.345-0.634-1.779
				s-0.975-0.652-1.659-0.652c-0.425,0-0.808,0.097-1.15,0.29c-0.342,0.192-0.61,0.442-0.806,0.751l-1.238-0.162l1.04-5.515h5.339
				v1.26h-4.285l-0.579,2.886c0.645-0.449,1.321-0.674,2.029-0.674c0.938,0,1.729,0.325,2.373,0.975s0.967,1.484,0.967,2.504
				c0,0.973-0.283,1.812-0.85,2.52c-0.688,0.87-1.628,1.305-2.82,1.305c-0.977,0-1.774-0.273-2.392-0.82
				S136.562,177.841,136.474,176.938z"/>
			<path fill="#444444" d="M145.066,171.591c0-0.767,0.192-1.418,0.578-1.956c0.386-0.536,0.944-0.805,1.677-0.805
				c0.674,0,1.232,0.24,1.674,0.721c0.442,0.481,0.663,1.188,0.663,2.121c0,0.908-0.224,1.607-0.67,2.098
				c-0.447,0.491-0.998,0.736-1.651,0.736c-0.65,0-1.19-0.242-1.623-0.725C145.282,173.297,145.066,172.568,145.066,171.591z
				 M147.358,169.738c-0.327,0-0.6,0.142-0.816,0.424c-0.218,0.284-0.326,0.804-0.326,1.561c0,0.688,0.109,1.173,0.33,1.454
				c0.219,0.28,0.49,0.421,0.812,0.421c0.332,0,0.606-0.142,0.824-0.425c0.217-0.283,0.326-0.801,0.326-1.553
				c0-0.693-0.11-1.181-0.33-1.461C147.959,169.878,147.685,169.738,147.358,169.738z M147.366,180.146l5.873-11.315h1.07
				l-5.853,11.315H147.366z M152.009,177.231c0-0.771,0.193-1.425,0.579-1.959c0.386-0.535,0.947-0.803,1.685-0.803
				c0.674,0,1.231,0.241,1.674,0.722c0.441,0.481,0.662,1.188,0.662,2.12c0,0.908-0.223,1.608-0.67,2.099
				c-0.446,0.491-1,0.736-1.658,0.736c-0.65,0-1.19-0.243-1.623-0.729C152.225,178.931,152.009,178.202,152.009,177.231z
				 M154.309,175.377c-0.333,0-0.607,0.143-0.824,0.426c-0.218,0.283-0.326,0.803-0.326,1.56c0,0.684,0.109,1.167,0.33,1.45
				c0.219,0.283,0.49,0.425,0.812,0.425c0.337,0,0.614-0.142,0.831-0.425c0.218-0.283,0.326-0.801,0.326-1.553
				c0-0.693-0.11-1.181-0.329-1.461C154.909,175.518,154.636,175.377,154.309,175.377z"/>
		</g>
	</g>
	<g transform="matrix(1,0,0,1,8,153)">
		<g enable-background="new    ">
			<path fill="#444444" d="M123.622,97.455c0-1.27,0.13-2.292,0.392-3.065c0.261-0.774,0.649-1.371,1.164-1.791
				s1.164-0.63,1.945-0.63c0.576,0,1.082,0.116,1.516,0.348c0.435,0.232,0.793,0.566,1.077,1.004
				c0.283,0.437,0.505,0.969,0.667,1.597c0.161,0.627,0.242,1.474,0.242,2.538c0,1.26-0.129,2.276-0.388,3.05
				c-0.259,0.774-0.646,1.372-1.161,1.795c-0.515,0.422-1.166,0.634-1.952,0.634c-1.035,0-1.848-0.371-2.439-1.113
				C123.976,100.926,123.622,99.472,123.622,97.455z M124.977,97.455c0,1.763,0.206,2.936,0.619,3.519
				c0.412,0.584,0.921,0.876,1.527,0.876s1.114-0.293,1.527-0.879s0.619-1.758,0.619-3.516c0-1.768-0.207-2.942-0.619-3.523
				s-0.926-0.871-1.542-0.871c-0.605,0-1.089,0.256-1.45,0.769C125.204,94.484,124.977,95.693,124.977,97.455z"/>
			<path fill="#444444" d="M132.704,102.75v-1.502h1.501v1.502H132.704z"/>
			<path fill="#444444" d="M136.139,99.916l1.318-0.176c0.151,0.746,0.409,1.285,0.772,1.614c0.364,0.33,0.807,0.495,1.33,0.495
				c0.62,0,1.144-0.215,1.571-0.645s0.641-0.962,0.641-1.598c0-0.604-0.198-1.104-0.593-1.497c-0.396-0.394-0.898-0.59-1.509-0.59
				c-0.249,0-0.559,0.049-0.93,0.146l0.146-1.157c0.088,0.01,0.159,0.015,0.212,0.015c0.562,0,1.067-0.146,1.516-0.439
				s0.674-0.744,0.674-1.354c0-0.484-0.164-0.884-0.491-1.201s-0.75-0.477-1.267-0.477c-0.513,0-0.94,0.161-1.282,0.483
				s-0.562,0.806-0.659,1.45l-1.318-0.234c0.161-0.884,0.527-1.568,1.099-2.055c0.571-0.485,1.282-0.729,2.131-0.729
				c0.586,0,1.125,0.126,1.619,0.377c0.493,0.252,0.87,0.595,1.132,1.029c0.261,0.435,0.392,0.896,0.392,1.385
				c0,0.464-0.125,0.886-0.374,1.267s-0.618,0.684-1.106,0.908c0.635,0.146,1.128,0.45,1.479,0.912
				c0.352,0.461,0.527,1.039,0.527,1.731c0,0.938-0.342,1.732-1.025,2.385c-0.684,0.651-1.548,0.978-2.593,0.978
				c-0.942,0-1.725-0.28-2.348-0.843C136.583,101.537,136.227,100.809,136.139,99.916z"/>
			<path fill="#444444" d="M144.723,94.591c0-0.767,0.193-1.418,0.579-1.956c0.386-0.536,0.945-0.805,1.677-0.805
				c0.674,0,1.231,0.24,1.673,0.721c0.442,0.481,0.663,1.188,0.663,2.121c0,0.908-0.224,1.607-0.67,2.098
				c-0.447,0.491-0.998,0.736-1.652,0.736c-0.649,0-1.19-0.242-1.623-0.725C144.94,96.297,144.723,95.568,144.723,94.591z
				 M147.016,92.738c-0.327,0-0.6,0.142-0.816,0.424c-0.218,0.284-0.326,0.804-0.326,1.561c0,0.688,0.11,1.173,0.33,1.454
				c0.22,0.28,0.491,0.421,0.813,0.421c0.332,0,0.606-0.142,0.824-0.425c0.217-0.283,0.326-0.801,0.326-1.553
				c0-0.693-0.11-1.181-0.33-1.461C147.617,92.878,147.343,92.738,147.016,92.738z M147.023,103.146l5.874-11.315h1.069
				l-5.852,11.315H147.023z M151.667,100.231c0-0.771,0.193-1.425,0.579-1.959c0.386-0.535,0.948-0.803,1.684-0.803
				c0.674,0,1.232,0.241,1.674,0.722c0.441,0.481,0.662,1.188,0.662,2.12c0,0.908-0.223,1.608-0.67,2.099
				c-0.445,0.491-1,0.736-1.658,0.736c-0.649,0-1.19-0.243-1.623-0.729C151.883,101.931,151.667,101.202,151.667,100.231z
				 M153.967,98.377c-0.332,0-0.607,0.143-0.824,0.426c-0.217,0.283-0.326,0.803-0.326,1.56c0,0.684,0.11,1.167,0.33,1.45
				s0.49,0.425,0.812,0.425c0.338,0,0.615-0.142,0.832-0.425s0.326-0.801,0.326-1.553c0-0.693-0.111-1.181-0.33-1.461
				C154.566,98.518,154.293,98.377,153.967,98.377z"/>
		</g>
	</g>
	<g transform="matrix(1,0,0,1,8,153)">
		<g enable-background="new    ">
			<path fill="#444444" d="M115.622,20.455c0-1.27,0.13-2.292,0.392-3.065c0.261-0.774,0.649-1.371,1.164-1.791
				s1.164-0.63,1.945-0.63c0.576,0,1.082,0.116,1.516,0.348c0.435,0.232,0.793,0.566,1.077,1.004
				c0.283,0.437,0.505,0.969,0.667,1.597c0.161,0.627,0.242,1.474,0.242,2.538c0,1.26-0.129,2.276-0.388,3.05
				c-0.259,0.774-0.646,1.372-1.161,1.795c-0.515,0.422-1.166,0.634-1.952,0.634c-1.035,0-1.848-0.371-2.439-1.113
				C115.976,23.926,115.622,22.472,115.622,20.455z M116.977,20.455c0,1.763,0.206,2.936,0.619,3.519
				c0.412,0.584,0.921,0.876,1.527,0.876s1.114-0.293,1.527-0.879s0.619-1.758,0.619-3.516c0-1.768-0.207-2.942-0.619-3.523
				s-0.926-0.871-1.542-0.871c-0.605,0-1.089,0.256-1.45,0.769C117.204,17.484,116.977,18.693,116.977,20.455z"/>
			<path fill="#444444" d="M124.704,25.75v-1.502h1.501v1.502H124.704z"/>
			<path fill="#444444" d="M132.358,25.75v-2.57H127.7v-1.209l4.9-6.958h1.077v6.958h1.45v1.209h-1.45v2.57H132.358z
				 M132.358,21.971v-4.842l-3.362,4.842H132.358z"/>
			<path fill="#444444" d="M136.474,22.938l1.384-0.117c0.103,0.674,0.341,1.181,0.714,1.52c0.374,0.34,0.824,0.51,1.352,0.51
				c0.635,0,1.172-0.239,1.611-0.719c0.439-0.478,0.659-1.113,0.659-1.904c0-0.751-0.211-1.345-0.634-1.779
				s-0.975-0.652-1.659-0.652c-0.425,0-0.808,0.097-1.15,0.29c-0.342,0.192-0.61,0.442-0.806,0.751l-1.238-0.162l1.04-5.515h5.339
				v1.26h-4.285l-0.579,2.886c0.645-0.449,1.321-0.674,2.029-0.674c0.938,0,1.729,0.325,2.373,0.975s0.967,1.484,0.967,2.504
				c0,0.973-0.283,1.812-0.85,2.52c-0.688,0.87-1.628,1.305-2.82,1.305c-0.977,0-1.774-0.273-2.392-0.82
				S136.562,23.841,136.474,22.938z"/>
			<path fill="#444444" d="M145.066,17.591c0-0.767,0.192-1.418,0.578-1.956c0.386-0.536,0.944-0.805,1.677-0.805
				c0.674,0,1.232,0.24,1.674,0.721c0.442,0.481,0.663,1.188,0.663,2.121c0,0.908-0.224,1.607-0.67,2.098
				c-0.447,0.491-0.998,0.736-1.651,0.736c-0.65,0-1.19-0.242-1.623-0.725C145.282,19.297,145.066,18.568,145.066,17.591z
				 M147.358,15.738c-0.327,0-0.6,0.142-0.816,0.424c-0.218,0.284-0.326,0.804-0.326,1.561c0,0.688,0.109,1.173,0.33,1.454
				c0.219,0.28,0.49,0.421,0.812,0.421c0.332,0,0.606-0.142,0.824-0.425c0.217-0.283,0.326-0.801,0.326-1.553
				c0-0.693-0.11-1.181-0.33-1.461C147.959,15.878,147.685,15.738,147.358,15.738z M147.366,26.146l5.873-11.315h1.07l-5.853,11.315
				H147.366z M152.009,23.231c0-0.771,0.193-1.425,0.579-1.959c0.386-0.535,0.947-0.803,1.685-0.803
				c0.674,0,1.231,0.241,1.674,0.722c0.441,0.481,0.662,1.188,0.662,2.12c0,0.908-0.223,1.608-0.67,2.099
				c-0.446,0.491-1,0.736-1.658,0.736c-0.65,0-1.19-0.243-1.623-0.729C152.225,24.931,152.009,24.202,152.009,23.231z
				 M154.309,21.377c-0.333,0-0.607,0.143-0.824,0.426c-0.218,0.283-0.326,0.803-0.326,1.56c0,0.684,0.109,1.167,0.33,1.45
				c0.219,0.283,0.49,0.425,0.812,0.425c0.337,0,0.614-0.142,0.831-0.425c0.218-0.283,0.326-0.801,0.326-1.553
				c0-0.693-0.11-1.181-0.329-1.461C154.909,21.518,154.636,21.377,154.309,21.377z"/>
		</g>
	</g>
	<g transform="matrix(1,0,0,1,8,153)">
		<g enable-background="new    ">
			<path fill="#444444" d="M123.622-56.545c0-1.27,0.13-2.292,0.392-3.065c0.261-0.774,0.649-1.371,1.164-1.791
				s1.164-0.63,1.945-0.63c0.576,0,1.082,0.116,1.516,0.348c0.435,0.232,0.793,0.566,1.077,1.004
				c0.283,0.437,0.505,0.969,0.667,1.597c0.161,0.627,0.242,1.474,0.242,2.538c0,1.26-0.129,2.276-0.388,3.05
				c-0.259,0.774-0.646,1.372-1.161,1.795c-0.515,0.422-1.166,0.634-1.952,0.634c-1.035,0-1.848-0.371-2.439-1.113
				C123.976-53.074,123.622-54.528,123.622-56.545z M124.977-56.545c0,1.763,0.206,2.936,0.619,3.519
				c0.412,0.584,0.921,0.876,1.527,0.876s1.114-0.293,1.527-0.879s0.619-1.758,0.619-3.516c0-1.768-0.207-2.942-0.619-3.523
				s-0.926-0.871-1.542-0.871c-0.605,0-1.089,0.256-1.45,0.769C125.204-59.516,124.977-58.307,124.977-56.545z"/>
			<path fill="#444444" d="M132.704-51.25v-1.502h1.501v1.502H132.704z"/>
			<path fill="#444444" d="M142.973-59.357l-1.311,0.102c-0.117-0.517-0.283-0.893-0.498-1.127
				c-0.356-0.376-0.796-0.564-1.318-0.564c-0.42,0-0.789,0.117-1.106,0.352c-0.415,0.303-0.742,0.745-0.981,1.326
				s-0.364,1.408-0.374,2.482c0.317-0.483,0.706-0.842,1.165-1.076s0.94-0.352,1.443-0.352c0.879,0,1.627,0.323,2.245,0.97
				c0.617,0.647,0.926,1.483,0.926,2.509c0,0.674-0.146,1.3-0.436,1.879c-0.291,0.578-0.689,1.021-1.197,1.329
				s-1.084,0.462-1.729,0.462c-1.099,0-1.995-0.404-2.688-1.213c-0.693-0.808-1.04-2.14-1.04-3.995c0-2.075,0.383-3.584,1.15-4.526
				c0.669-0.82,1.57-1.23,2.703-1.23c0.845,0,1.537,0.237,2.077,0.711C142.542-60.847,142.866-60.193,142.973-59.357z
				 M137.59-54.728c0,0.453,0.096,0.889,0.289,1.303c0.193,0.416,0.463,0.731,0.81,0.949c0.347,0.217,0.71,0.326,1.091,0.326
				c0.557,0,1.035-0.225,1.436-0.674s0.601-1.06,0.601-1.832c0-0.741-0.198-1.326-0.593-1.754c-0.396-0.427-0.894-0.641-1.494-0.641
				c-0.596,0-1.101,0.214-1.516,0.641C137.797-55.982,137.59-55.422,137.59-54.728z"/>
			<path fill="#444444" d="M144.723-59.409c0-0.767,0.193-1.418,0.579-1.956c0.386-0.536,0.945-0.805,1.677-0.805
				c0.674,0,1.231,0.24,1.673,0.721c0.442,0.481,0.663,1.188,0.663,2.121c0,0.908-0.224,1.607-0.67,2.098
				c-0.447,0.491-0.998,0.736-1.652,0.736c-0.649,0-1.19-0.242-1.623-0.725C144.94-57.703,144.723-58.432,144.723-59.409z
				 M147.016-61.262c-0.327,0-0.6,0.142-0.816,0.424c-0.218,0.284-0.326,0.804-0.326,1.561c0,0.688,0.11,1.173,0.33,1.454
				c0.22,0.28,0.491,0.421,0.813,0.421c0.332,0,0.606-0.142,0.824-0.425c0.217-0.283,0.326-0.801,0.326-1.553
				c0-0.693-0.11-1.181-0.33-1.461C147.617-61.122,147.343-61.262,147.016-61.262z M147.023-50.854l5.874-11.315h1.069
				l-5.852,11.315H147.023z M151.667-53.769c0-0.771,0.193-1.425,0.579-1.959c0.386-0.535,0.948-0.803,1.684-0.803
				c0.674,0,1.232,0.241,1.674,0.722c0.441,0.481,0.662,1.188,0.662,2.12c0,0.908-0.223,1.608-0.67,2.099
				c-0.445,0.491-1,0.736-1.658,0.736c-0.649,0-1.19-0.243-1.623-0.729C151.883-52.069,151.667-52.798,151.667-53.769z
				 M153.967-55.623c-0.332,0-0.607,0.143-0.824,0.426c-0.217,0.283-0.326,0.803-0.326,1.56c0,0.684,0.11,1.167,0.33,1.45
				s0.49,0.425,0.812,0.425c0.338,0,0.615-0.142,0.832-0.425s0.326-0.801,0.326-1.553c0-0.693-0.111-1.181-0.33-1.461
				C154.566-55.482,154.293-55.623,153.967-55.623z"/>
		</g>
	</g>
</g>
</svg>
