<?xml version="1.0" encoding="utf-8"?>
<!-- Generator: Adobe Illustrator 17.0.2, SVG Export Plug-In . SVG Version: 6.00 Build 0)  -->
<!DOCTYPE svg PUBLIC "-//W3C//DTD SVG 1.1//EN" "http://www.w3.org/Graphics/SVG/1.1/DTD/svg11.dtd">
<svg version="1.1" id="Ebene_1" xmlns="http://www.w3.org/2000/svg" xmlns:xlink="http://www.w3.org/1999/xlink" x="0px" y="0px"
	 width="1100px" height="450px" viewBox="0 0 1100 450" enable-background="new 0 0 1100 450" xml:space="preserve">
<rect fill="#505456" width="1100" height="450"/>
<g>
	<g>
		<rect x="99" y="156" fill="none" stroke="#FFFFFF" stroke-width="4" stroke-miterlimit="10" width="226" height="94"/>
		<rect x="99" y="156" fill="none" stroke="#FFFFFF" stroke-width="4" stroke-miterlimit="10" width="113" height="94"/>
	</g>
	<g>
		<circle fill="#FFFFFF" cx="155.473" cy="203.372" r="4.145"/>
		<line fill="none" stroke="#FFFFFF" stroke-width="4" stroke-miterlimit="10" x1="155" y1="203" x2="155" y2="312"/>
		<polygon fill="#FFFFFF" points="147.902,310 155.416,317.773 162.283,310 		"/>
	</g>
	<g>
		<path fill="#FFFFFF" d="M146.446,361.772h7.88v-25.366h-6.261v-2.86c3.13-0.54,5.397-1.403,7.286-2.536h3.4v30.763h7.124v3.67
			h-19.43V361.772z"/>
	</g>
	<g>
		<circle fill="#FFFFFF" cx="264.964" cy="204.119" r="4.145"/>
		<line fill="none" stroke="#FFFFFF" stroke-width="4" stroke-miterlimit="10" x1="265" y1="204" x2="374" y2="204"/>
		<polygon fill="#FFFFFF" points="372,210.69 379.773,203.176 372,196.31 		"/>
	</g>
</g>
<g>
	<g>
		<rect x="384" y="154" fill="none" stroke="#FFFFFF" stroke-width="4" stroke-miterlimit="10" width="226" height="94"/>
		<rect x="384" y="154" fill="none" stroke="#FFFFFF" stroke-width="4" stroke-miterlimit="10" width="113" height="94"/>
	</g>
	<g>
		<circle fill="#FFFFFF" cx="440.473" cy="201.372" r="4.145"/>
		<line fill="none" stroke="#FFFFFF" stroke-width="4" stroke-miterlimit="10" x1="440" y1="201" x2="440" y2="310"/>
		<polygon fill="#FFFFFF" points="432.902,308 440.416,315.773 447.283,308 		"/>
	</g>
	<g>
		<path fill="#FFFFFF" d="M429.342,360.798c10.362-10.309,16.19-16.515,16.19-22.074c0-3.939-2.158-6.746-6.53-6.746
			c-2.86,0-5.343,1.835-7.34,4.156l-2.536-2.537c2.86-3.13,5.937-5.235,10.416-5.235c6.368,0,10.309,4.048,10.309,10.146
			c0,6.477-5.883,12.899-14.032,21.427c1.889-0.162,3.993-0.324,5.774-0.324h9.984v3.832h-22.235V360.798z"/>
	</g>
	<g>
		<circle fill="#FFFFFF" cx="549.964" cy="202.119" r="4.145"/>
		<line fill="none" stroke="#FFFFFF" stroke-width="4" stroke-miterlimit="10" x1="550" y1="202" x2="659" y2="202"/>
		<polygon fill="#FFFFFF" points="657,208.69 664.773,201.176 657,194.31 		"/>
	</g>
</g>
<g>
	<g>
		<rect x="670" y="156" fill="none" stroke="#FFFFFF" stroke-width="4" stroke-miterlimit="10" width="226" height="94"/>
		<rect x="670" y="156" fill="none" stroke="#FFFFFF" stroke-width="4" stroke-miterlimit="10" width="113" height="94"/>
	</g>
	<g>
		<circle fill="#FFFFFF" cx="726.473" cy="203.372" r="4.145"/>
		<line fill="none" stroke="#FFFFFF" stroke-width="4" stroke-miterlimit="10" x1="726" y1="203" x2="726" y2="312"/>
		<polygon fill="#FFFFFF" points="718.902,310 726.416,317.773 733.283,310 		"/>
	</g>
	<g>
		<path fill="#FFFFFF" d="M716.853,358.318c2.051,2.159,4.749,4.102,8.797,4.102c4.156,0,7.124-2.482,7.124-6.314
			c0-4.102-2.806-6.854-11.01-6.854v-3.399c7.34,0,9.769-2.807,9.769-6.423c0-3.347-2.267-5.451-5.937-5.451
			c-2.86,0-5.289,1.457-7.34,3.508l-2.375-2.806c2.645-2.483,5.829-4.318,9.877-4.318c5.99,0,10.309,3.185,10.309,8.743
			c0,4.156-2.537,6.801-6.261,8.204v0.216c4.155,0.972,7.447,3.993,7.447,8.743c0,6.099-5.019,9.822-11.333,9.822
			c-5.505,0-9.014-2.32-11.334-4.857L716.853,358.318z"/>
	</g>
	<g>
		<circle fill="#FFFFFF" cx="835.964" cy="204.119" r="4.145"/>
		<line fill="none" stroke="#FFFFFF" stroke-width="4" stroke-miterlimit="10" x1="836" y1="204" x2="945" y2="204"/>
		<polygon fill="#FFFFFF" points="943,210.69 950.773,203.176 943,196.31 		"/>
	</g>
	<g>
		<path fill="#FFFFFF" d="M965.02,191.213h3.67l0.378,3.777h0.161c2.483-2.482,5.182-4.425,8.798-4.425
			c5.505,0,7.987,3.562,7.987,10.254v16.623h-4.426v-16.029c0-4.911-1.511-7.016-4.965-7.016c-2.698,0-4.533,1.402-7.178,4.048
			v18.997h-4.426V191.213z"/>
		<path fill="#FFFFFF" d="M993.73,182.955c0-1.727,1.349-2.86,3.076-2.86c1.727,0,3.076,1.134,3.076,2.86
			c0,1.674-1.35,2.86-3.076,2.86C995.079,185.815,993.73,184.629,993.73,182.955z M994.54,191.213h4.426v26.229h-4.426V191.213z"/>
		<path fill="#FFFFFF" d="M1007.816,179.016h4.426v33.462c0,1.402,0.593,1.942,1.241,1.942c0.27,0,0.485,0,0.971-0.107l0.594,3.346
			c-0.594,0.27-1.349,0.432-2.536,0.432c-3.347,0-4.695-2.104-4.695-5.937V179.016z"/>
	</g>
</g>
</svg>
