<?xml version="1.0" encoding="utf-8"?>
<!-- Generator: Adobe Illustrator 17.0.2, SVG Export Plug-In . SVG Version: 6.00 Build 0)  -->
<!DOCTYPE svg PUBLIC "-//W3C//DTD SVG 1.1//EN" "http://www.w3.org/Graphics/SVG/1.1/DTD/svg11.dtd">
<svg version="1.1" id="Ebene_1" xmlns="http://www.w3.org/2000/svg" xmlns:xlink="http://www.w3.org/1999/xlink" x="0px" y="0px"
	 width="1523px" height="689px" viewBox="0 0 1523 689" enable-background="new 0 0 1523 689" xml:space="preserve">
<rect fill="#505456" width="1523" height="689"/>
<g>
	<g>
		<g>
			<rect x="497" y="339" fill="none" stroke="#FFFFFF" stroke-width="4" stroke-miterlimit="10" width="226" height="94"/>
			<rect x="497" y="339" fill="none" stroke="#FFFFFF" stroke-width="4" stroke-miterlimit="10" width="113" height="94"/>
		</g>
		<g>
			<circle fill="#FFFFFF" cx="553.473" cy="386.372" r="4.145"/>
			<line fill="none" stroke="#FFFFFF" stroke-width="4" stroke-miterlimit="10" x1="553" y1="386" x2="553" y2="495"/>
			<polygon fill="#FFFFFF" points="545.902,493 553.416,500.773 560.283,493 			"/>
		</g>
		<g>
			<path fill="#FFFFFF" d="M507.938,521.565c3.021,0,5.019,1.133,7.34,3.022l-0.216-4.479v-10.093h4.479v38.427h-3.67l-0.378-3.076
				h-0.162c-2.051,1.997-4.857,3.724-7.934,3.724c-6.585,0-10.849-4.965-10.849-13.708
				C496.55,526.854,501.947,521.565,507.938,521.565z M508.37,545.366c2.429,0,4.533-1.188,6.692-3.616v-13.708
				c-2.213-1.997-4.21-2.753-6.369-2.753c-4.209,0-7.556,4.048-7.556,10.038C501.138,541.588,503.782,545.366,508.37,545.366z"/>
			<path fill="#FFFFFF" d="M527.582,513.955c0-1.727,1.349-2.86,3.076-2.86c1.727,0,3.076,1.134,3.076,2.86
				c0,1.674-1.35,2.86-3.076,2.86C528.931,516.815,527.582,515.629,527.582,513.955z M528.392,522.213h4.426v26.229h-4.426V522.213z
				"/>
			<path fill="#FFFFFF" d="M568.869,513.632c-1.025-0.432-2.051-0.648-2.969-0.648c-2.482,0-3.724,1.728-3.724,5.073v4.156h5.559
				v3.616h-5.559v22.613h-4.426v-22.613h-10.902v22.613h-4.425v-22.613h-3.562v-3.347l3.562-0.27v-3.454
				c0-5.451,2.698-8.852,8.149-8.852c1.727,0,3.508,0.378,4.803,0.972l-0.917,3.347c-1.134-0.486-2.213-0.702-3.509-0.702
				c-2.59,0-4.102,1.889-4.102,5.343v3.347h10.902v-4.156c0-5.343,2.429-8.688,7.664-8.688c1.619,0,3.184,0.378,4.371,0.863
				L568.869,513.632z"/>
			<path fill="#FFFFFF" d="M581.928,521.565c6.692,0,10.471,4.803,10.471,12.305c0,0.918-0.055,1.781-0.162,2.429h-17.702
				c0.323,5.667,3.724,9.229,8.743,9.229c2.482,0,4.587-0.81,6.53-2.051l1.565,2.914c-2.268,1.457-5.073,2.698-8.636,2.698
				c-7.016,0-12.575-5.127-12.575-13.708C570.162,526.8,575.938,521.565,581.928,521.565z M588.513,533.385
				c0-5.343-2.375-8.312-6.477-8.312c-3.67,0-7.017,3.022-7.557,8.312H588.513z"/>
			<path fill="#FFFFFF" d="M598.874,522.213h3.67l0.378,4.749h0.162c1.78-3.292,4.479-5.396,7.447-5.396
				c1.134,0,1.943,0.162,2.807,0.539l-0.863,3.886c-0.864-0.27-1.457-0.432-2.537-0.432c-2.213,0-4.857,1.619-6.638,6.045v16.839
				h-4.426V522.213z"/>
		</g>
		<g>
			<circle fill="#FFFFFF" cx="662.964" cy="387.119" r="4.145"/>
			<line fill="none" stroke="#FFFFFF" stroke-width="4" stroke-miterlimit="10" x1="663" y1="387" x2="772" y2="387"/>
			<polygon fill="#FFFFFF" points="770,393.69 777.773,386.176 770,379.31 			"/>
		</g>
	</g>
	<g>
		<g>
			<rect x="782" y="337" fill="none" stroke="#FFFFFF" stroke-width="4" stroke-miterlimit="10" width="226" height="94"/>
			<rect x="782" y="337" fill="none" stroke="#FFFFFF" stroke-width="4" stroke-miterlimit="10" width="113" height="94"/>
		</g>
		<g>
			<circle fill="#FFFFFF" cx="838.473" cy="384.372" r="4.145"/>
			<line fill="none" stroke="#FFFFFF" stroke-width="4" stroke-miterlimit="10" x1="838" y1="384" x2="838" y2="493"/>
			<polygon fill="#FFFFFF" points="830.902,491 838.416,498.773 845.283,491 			"/>
		</g>
		<g>
			<path fill="#FFFFFF" d="M786.002,519.565c6.692,0,10.471,4.803,10.471,12.305c0,0.918-0.055,1.781-0.162,2.429h-17.702
				c0.323,5.667,3.724,9.229,8.743,9.229c2.482,0,4.587-0.81,6.53-2.051l1.565,2.914c-2.268,1.457-5.073,2.698-8.636,2.698
				c-7.016,0-12.575-5.127-12.575-13.708C774.236,524.8,780.012,519.565,786.002,519.565z M792.587,531.385
				c0-5.343-2.375-8.312-6.477-8.312c-3.67,0-7.017,3.022-7.557,8.312H792.587z"/>
			<path fill="#FFFFFF" d="M802.947,520.213h3.67l0.378,3.777h0.161c2.483-2.482,5.182-4.425,8.798-4.425
				c5.505,0,7.987,3.562,7.987,10.254v16.623h-4.426v-16.029c0-4.911-1.511-7.016-4.965-7.016c-2.698,0-4.533,1.402-7.178,4.048
				v18.997h-4.426V520.213z"/>
			<path fill="#FFFFFF" d="M833.225,523.829h-3.887v-3.347l4.103-0.27l0.539-7.34h3.725v7.34h7.069v3.616h-7.069V538.4
				c0,3.238,1.025,5.073,4.047,5.073c0.918,0,2.105-0.377,2.969-0.701l0.863,3.346c-1.457,0.486-3.238,0.972-4.857,0.972
				c-5.612,0-7.501-3.562-7.501-8.743V523.829z"/>
			<path fill="#FFFFFF" d="M849.9,511.955c0-1.727,1.349-2.86,3.076-2.86c1.727,0,3.076,1.134,3.076,2.86
				c0,1.674-1.35,2.86-3.076,2.86C851.249,514.815,849.9,513.629,849.9,511.955z M850.71,520.213h4.426v26.229h-4.426V520.213z"/>
			<path fill="#FFFFFF" d="M878.827,529.819c0-3.346-1.134-6.584-5.397-6.584c-3.076,0-5.774,1.403-7.825,2.807l-1.781-3.077
				c2.429-1.564,6.099-3.399,10.309-3.399c6.422,0,9.121,4.264,9.121,10.794v16.083h-3.67l-0.378-3.13h-0.108
				c-2.536,2.051-5.451,3.777-8.689,3.777c-4.425,0-7.718-2.752-7.718-7.447C862.689,533.921,867.655,531.061,878.827,529.819z
				 M871.648,543.528c2.537,0,4.642-1.241,7.179-3.509v-7.285c-8.797,1.079-11.766,3.237-11.766,6.584
				C867.062,542.287,869.059,543.528,871.648,543.528z"/>
			<path fill="#FFFFFF" d="M892.373,523.829h-3.887v-3.347l4.103-0.27l0.539-7.34h3.725v7.34h7.069v3.616h-7.069V538.4
				c0,3.238,1.025,5.073,4.047,5.073c0.918,0,2.105-0.377,2.969-0.701l0.863,3.346c-1.457,0.486-3.238,0.972-4.857,0.972
				c-5.612,0-7.501-3.562-7.501-8.743V523.829z"/>
		</g>
		<g>
			<circle fill="#FFFFFF" cx="947.964" cy="385.119" r="4.145"/>
			<line fill="none" stroke="#FFFFFF" stroke-width="4" stroke-miterlimit="10" x1="948" y1="385" x2="1057" y2="385"/>
			<polygon fill="#FFFFFF" points="1055,391.69 1062.773,384.176 1055,377.31 			"/>
		</g>
	</g>
	<g>
		<g>
			<rect x="1068" y="339" fill="none" stroke="#FFFFFF" stroke-width="4" stroke-miterlimit="10" width="226" height="94"/>
			<rect x="1068" y="339" fill="none" stroke="#FFFFFF" stroke-width="4" stroke-miterlimit="10" width="113" height="94"/>
		</g>
		<g>
			<circle fill="#FFFFFF" cx="1124.473" cy="386.372" r="4.145"/>
			<line fill="none" stroke="#FFFFFF" stroke-width="4" stroke-miterlimit="10" x1="1124" y1="386" x2="1124" y2="495"/>
			<polygon fill="#FFFFFF" points="1116.902,493 1124.416,500.773 1131.283,493 			"/>
		</g>
		<g>
			<path fill="#FFFFFF" d="M1125.458,521.565c6.692,0,10.471,4.803,10.471,12.305c0,0.918-0.055,1.781-0.162,2.429h-17.702
				c0.323,5.667,3.724,9.229,8.743,9.229c2.482,0,4.587-0.81,6.53-2.051l1.565,2.914c-2.268,1.457-5.073,2.698-8.636,2.698
				c-7.016,0-12.575-5.127-12.575-13.708C1113.692,526.8,1119.468,521.565,1125.458,521.565z M1132.043,533.385
				c0-5.343-2.375-8.312-6.477-8.312c-3.67,0-7.017,3.022-7.557,8.312H1132.043z"/>
		</g>
		<g>
			<circle fill="#FFFFFF" cx="1233.964" cy="387.119" r="4.145"/>
			<line fill="none" stroke="#FFFFFF" stroke-width="4" stroke-miterlimit="10" x1="1234" y1="387" x2="1343" y2="387"/>
			<polygon fill="#FFFFFF" points="1341,393.69 1348.773,386.176 1341,379.31 			"/>
		</g>
		<g>
			<path fill="#FFFFFF" d="M1363.02,374.213h3.67l0.378,3.777h0.161c2.483-2.482,5.182-4.425,8.798-4.425
				c5.505,0,7.987,3.562,7.987,10.254v16.623h-4.426v-16.029c0-4.911-1.511-7.016-4.965-7.016c-2.698,0-4.533,1.402-7.178,4.048
				v18.997h-4.426V374.213z"/>
			<path fill="#FFFFFF" d="M1391.73,365.955c0-1.727,1.349-2.86,3.076-2.86c1.727,0,3.076,1.134,3.076,2.86
				c0,1.674-1.35,2.86-3.076,2.86C1393.079,368.815,1391.73,367.629,1391.73,365.955z M1392.54,374.213h4.426v26.229h-4.426V374.213
				z"/>
			<path fill="#FFFFFF" d="M1405.816,362.016h4.426v33.462c0,1.402,0.593,1.942,1.241,1.942c0.27,0,0.485,0,0.971-0.107l0.594,3.346
				c-0.594,0.27-1.349,0.432-2.536,0.432c-3.347,0-4.695-2.104-4.695-5.937V362.016z"/>
		</g>
	</g>
	<g>
		<g>
			<rect x="214" y="163" fill="none" stroke="#FFFFFF" stroke-width="4" stroke-miterlimit="10" width="226" height="94"/>
			<rect x="214" y="163" fill="none" stroke="#FFFFFF" stroke-width="4" stroke-miterlimit="10" width="113" height="94"/>
		</g>
		<g>
			<circle fill="#FFFFFF" cx="270.473" cy="210.372" r="4.145"/>
			<line fill="none" stroke="#FFFFFF" stroke-width="4" stroke-miterlimit="10" x1="270" y1="210" x2="270" y2="319"/>
			<polygon fill="#FFFFFF" points="262.902,317 270.416,324.773 277.283,317 			"/>
		</g>
		<g>
			<path fill="#FFFFFF" d="M200.139,374.655v8.851h-4.426v-37.293h3.67l0.378,3.022h0.161c2.375-1.997,5.29-3.67,8.366-3.67
				c6.746,0,10.362,5.234,10.362,13.385c0,8.904-5.344,14.14-11.334,14.14c-2.429,0-4.857-1.133-7.286-3.022L200.139,374.655z
				 M206.561,369.366c4.317,0,7.502-3.94,7.502-10.416c0-5.775-1.942-9.661-6.908-9.661c-2.213,0-4.426,1.241-7.016,3.562v13.762
				C202.513,368.61,204.834,369.366,206.561,369.366z"/>
			<path fill="#FFFFFF" d="M225.665,346.213h3.67l0.378,3.777h0.162c2.482-2.482,5.181-4.425,8.797-4.425
				c5.505,0,7.987,3.562,7.987,10.254v16.623h-4.426v-16.029c0-4.911-1.511-7.016-4.965-7.016c-2.698,0-4.533,1.402-7.178,4.048
				v18.997h-4.426V346.213z"/>
			<path fill="#FFFFFF" d="M270.028,355.819c0-3.346-1.134-6.584-5.397-6.584c-3.076,0-5.774,1.403-7.825,2.807l-1.781-3.077
				c2.429-1.564,6.099-3.399,10.309-3.399c6.422,0,9.121,4.264,9.121,10.794v16.083h-3.67l-0.378-3.13h-0.108
				c-2.536,2.051-5.451,3.777-8.689,3.777c-4.425,0-7.718-2.752-7.718-7.447C253.891,359.921,258.856,357.061,270.028,355.819z
				 M262.85,369.528c2.537,0,4.642-1.241,7.179-3.509v-7.285c-8.797,1.079-11.766,3.237-11.766,6.584
				C258.263,368.287,260.26,369.528,262.85,369.528z"/>
			<path fill="#FFFFFF" d="M282.818,346.213h3.67l0.378,3.777h0.161c2.268-2.482,5.02-4.425,8.15-4.425
				c3.993,0,6.152,1.889,7.231,5.019c2.753-2.968,5.451-5.019,8.636-5.019c5.396,0,7.987,3.562,7.987,10.254v16.623h-4.426v-16.029
				c0-4.911-1.564-7.016-4.857-7.016c-2.051,0-4.155,1.349-6.584,4.048v18.997h-4.426v-16.029c0-4.911-1.565-7.016-4.911-7.016
				c-1.943,0-4.155,1.349-6.584,4.048v18.997h-4.426V346.213z"/>
			<path fill="#FFFFFF" d="M337.381,345.565c6.692,0,10.471,4.803,10.471,12.305c0,0.918-0.055,1.781-0.162,2.429h-17.702
				c0.323,5.667,3.724,9.229,8.743,9.229c2.482,0,4.587-0.81,6.53-2.051l1.565,2.914c-2.268,1.457-5.073,2.698-8.636,2.698
				c-7.016,0-12.575-5.127-12.575-13.708C325.615,350.8,331.391,345.565,337.381,345.565z M343.966,357.385
				c0-5.343-2.375-8.312-6.477-8.312c-3.67,0-7.017,3.022-7.557,8.312H343.966z"/>
		</g>
		<g>
			<circle fill="#FFFFFF" cx="379.964" cy="211.119" r="4.145"/>
			<line fill="none" stroke="#FFFFFF" stroke-width="4" stroke-miterlimit="10" x1="380" y1="211" x2="489" y2="211"/>
			<polygon fill="#FFFFFF" points="487,217.69 494.773,210.176 487,203.31 			"/>
		</g>
	</g>
	<g>
		<g>
			<rect x="500" y="165" fill="none" stroke="#FFFFFF" stroke-width="4" stroke-miterlimit="10" width="226" height="94"/>
			<rect x="500" y="165" fill="none" stroke="#FFFFFF" stroke-width="4" stroke-miterlimit="10" width="113" height="94"/>
		</g>
		<g>
			<circle fill="#FFFFFF" cx="556.473" cy="212.372" r="4.145"/>
			<line fill="none" stroke="#FFFFFF" stroke-width="4" stroke-miterlimit="10" x1="556" y1="212" x2="556" y2="321"/>
			<polygon fill="#FFFFFF" points="548.902,319 556.416,326.773 563.283,319 			"/>
		</g>
		<g>
			<circle fill="#FFFFFF" cx="665.964" cy="213.119" r="4.145"/>
			<line fill="none" stroke="#FFFFFF" stroke-width="4" stroke-miterlimit="10" x1="666" y1="213" x2="775" y2="213"/>
			<polygon fill="#FFFFFF" points="773,219.69 780.773,212.176 773,205.31 			"/>
		</g>
		<g>
			<path fill="#FFFFFF" d="M797.34,220.29c1.728,0,3.185,1.403,3.185,3.454c0,1.942-1.457,3.346-3.185,3.346
				c-1.781,0-3.238-1.403-3.238-3.346C794.102,221.693,795.559,220.29,797.34,220.29z"/>
			<path fill="#FFFFFF" d="M810.777,220.29c1.728,0,3.185,1.403,3.185,3.454c0,1.942-1.457,3.346-3.185,3.346
				c-1.781,0-3.238-1.403-3.238-3.346C807.539,221.693,808.996,220.29,810.777,220.29z"/>
			<path fill="#FFFFFF" d="M824.216,220.29c1.728,0,3.185,1.403,3.185,3.454c0,1.942-1.457,3.346-3.185,3.346
				c-1.781,0-3.238-1.403-3.238-3.346C820.978,221.693,822.435,220.29,824.216,220.29z"/>
		</g>
		<g>
			<line fill="none" stroke="#FFFFFF" stroke-width="4" stroke-miterlimit="10" x1="139" y1="211" x2="202" y2="211"/>
			<polygon fill="#FFFFFF" points="200,217.69 207.773,210.176 200,203.31 			"/>
		</g>
		<g>
			<path fill="#FFFFFF" d="M96.34,219.29c1.728,0,3.185,1.403,3.185,3.454c0,1.942-1.457,3.346-3.185,3.346
				c-1.781,0-3.238-1.403-3.238-3.346C93.102,220.693,94.559,219.29,96.34,219.29z"/>
			<path fill="#FFFFFF" d="M109.777,219.29c1.728,0,3.185,1.403,3.185,3.454c0,1.942-1.457,3.346-3.185,3.346
				c-1.781,0-3.238-1.403-3.238-3.346C106.539,220.693,107.996,219.29,109.777,219.29z"/>
			<path fill="#FFFFFF" d="M123.216,219.29c1.728,0,3.185,1.403,3.185,3.454c0,1.942-1.457,3.346-3.185,3.346
				c-1.781,0-3.238-1.403-3.238-3.346C119.978,220.693,121.435,219.29,123.216,219.29z"/>
		</g>
	</g>
</g>
</svg>
