<?xml version="1.0" encoding="utf-8"?>
<!-- Generator: Adobe Illustrator 17.0.2, SVG Export Plug-In . SVG Version: 6.00 Build 0)  -->
<!DOCTYPE svg PUBLIC "-//W3C//DTD SVG 1.1//EN" "http://www.w3.org/Graphics/SVG/1.1/DTD/svg11.dtd">
<svg version="1.1" id="Ebene_1" xmlns="http://www.w3.org/2000/svg" xmlns:xlink="http://www.w3.org/1999/xlink" x="0px" y="0px"
	 width="997px" height="707px" viewBox="0 0 997 707" enable-background="new 0 0 997 707" xml:space="preserve">
<rect fill="#505456" width="997" height="707"/>
<g>
	<g>
		<g>
			<rect x="199" y="124" fill="none" stroke="#FFFFFF" stroke-width="4" stroke-miterlimit="10" width="226" height="94"/>
			<rect x="199" y="124" fill="none" stroke="#FFFFFF" stroke-width="4" stroke-miterlimit="10" width="113" height="94"/>
		</g>
		<g>
			<circle fill="#FFFFFF" cx="255.473" cy="171.372" r="4.145"/>
			<line fill="none" stroke="#FFFFFF" stroke-width="4" stroke-miterlimit="10" x1="255" y1="171" x2="255" y2="280"/>
			<polygon fill="#FFFFFF" points="247.902,278 255.416,285.773 262.283,278 			"/>
		</g>
		<g>
			<path fill="#FFFFFF" d="M246.446,329.772h7.88v-25.366h-6.261v-2.86c3.13-0.54,5.397-1.403,7.286-2.536h3.4v30.763h7.124v3.67
				h-19.43V329.772z"/>
		</g>
		<g>
			<g>
				<rect x="197" y="370" fill="none" stroke="#FFFFFF" stroke-width="4" stroke-miterlimit="10" width="226" height="94"/>
				<rect x="197" y="370" fill="none" stroke="#FFFFFF" stroke-width="4" stroke-miterlimit="10" width="113" height="94"/>
			</g>
			<g>
				<circle fill="#FFFFFF" cx="253.473" cy="417.372" r="4.145"/>
				<line fill="none" stroke="#FFFFFF" stroke-width="4" stroke-miterlimit="10" x1="253" y1="417" x2="253" y2="526"/>
				<polygon fill="#FFFFFF" points="245.902,524 253.416,531.773 260.283,524 				"/>
			</g>
			<g>
				<path fill="#FFFFFF" d="M242.342,576.798c10.362-10.309,16.19-16.515,16.19-22.074c0-3.939-2.158-6.746-6.53-6.746
					c-2.86,0-5.343,1.835-7.34,4.156l-2.536-2.537c2.86-3.13,5.937-5.235,10.416-5.235c6.368,0,10.309,4.048,10.309,10.146
					c0,6.477-5.883,12.899-14.032,21.427c1.889-0.162,3.993-0.324,5.774-0.324h9.984v3.832h-22.235V576.798z"/>
			</g>
			<g>
				<circle fill="#FFFFFF" cx="362.964" cy="418.119" r="4.145"/>
				<line fill="none" stroke="#FFFFFF" stroke-width="4" stroke-miterlimit="10" x1="363" y1="418" x2="472" y2="418"/>
				<polygon fill="#FFFFFF" points="470,424.69 477.773,417.176 470,410.31 				"/>
			</g>
		</g>
		<g>
			<g>
				<rect x="483" y="372" fill="none" stroke="#FFFFFF" stroke-width="4" stroke-miterlimit="10" width="226" height="94"/>
				<rect x="483" y="372" fill="none" stroke="#FFFFFF" stroke-width="4" stroke-miterlimit="10" width="113" height="94"/>
			</g>
			<g>
				<circle fill="#FFFFFF" cx="539.473" cy="419.372" r="4.145"/>
				<line fill="none" stroke="#FFFFFF" stroke-width="4" stroke-miterlimit="10" x1="539" y1="419" x2="539" y2="528"/>
				<polygon fill="#FFFFFF" points="531.902,526 539.416,533.773 546.283,526 				"/>
			</g>
			<g>
				<path fill="#FFFFFF" d="M529.853,574.318c2.051,2.159,4.749,4.102,8.797,4.102c4.156,0,7.124-2.482,7.124-6.314
					c0-4.102-2.806-6.854-11.01-6.854v-3.399c7.34,0,9.769-2.807,9.769-6.423c0-3.347-2.267-5.451-5.937-5.451
					c-2.86,0-5.289,1.457-7.34,3.508l-2.375-2.806c2.645-2.483,5.829-4.318,9.877-4.318c5.99,0,10.309,3.185,10.309,8.743
					c0,4.156-2.537,6.801-6.261,8.204v0.216c4.155,0.972,7.447,3.993,7.447,8.743c0,6.099-5.019,9.822-11.333,9.822
					c-5.505,0-9.014-2.32-11.334-4.857L529.853,574.318z"/>
			</g>
			<g>
				<circle fill="#FFFFFF" cx="648.964" cy="420.119" r="4.145"/>
				<line fill="none" stroke="#FFFFFF" stroke-width="4" stroke-miterlimit="10" x1="649" y1="420" x2="758" y2="420"/>
				<polygon fill="#FFFFFF" points="756,426.69 763.773,419.176 756,412.31 				"/>
			</g>
			<g>
				<path fill="#FFFFFF" d="M778.02,407.213h3.67l0.378,3.777h0.161c2.483-2.482,5.182-4.425,8.798-4.425
					c5.505,0,7.987,3.562,7.987,10.254v16.623h-4.426v-16.029c0-4.911-1.511-7.016-4.965-7.016c-2.698,0-4.533,1.402-7.178,4.048
					v18.997h-4.426V407.213z"/>
				<path fill="#FFFFFF" d="M806.73,398.955c0-1.727,1.349-2.86,3.076-2.86c1.727,0,3.076,1.134,3.076,2.86
					c0,1.674-1.35,2.86-3.076,2.86C808.079,401.815,806.73,400.629,806.73,398.955z M807.54,407.213h4.426v26.229h-4.426V407.213z"
					/>
				<path fill="#FFFFFF" d="M820.816,395.016h4.426v33.462c0,1.402,0.593,1.942,1.241,1.942c0.27,0,0.485,0,0.971-0.107l0.594,3.346
					c-0.594,0.27-1.349,0.432-2.536,0.432c-3.347,0-4.695-2.104-4.695-5.937V395.016z"/>
			</g>
		</g>
		<g>
			<line fill="none" stroke="#FFFFFF" stroke-width="4" stroke-miterlimit="10" x1="540" y1="271" x2="540" y2="362"/>
		</g>
		<polygon fill="#FFFFFF" points="532.902,358 540.416,365.773 547.283,358 		"/>
	</g>
	<g>
		<circle fill="#FFFFFF" cx="366.473" cy="170.372" r="4.145"/>
		<line fill="none" stroke="#FFFFFF" stroke-width="4" stroke-miterlimit="10" x1="366" y1="170" x2="366" y2="275"/>
		<line fill="none" stroke="#FFFFFF" stroke-width="4" stroke-miterlimit="10" x1="364" y1="273" x2="541" y2="273"/>
	</g>
</g>
</svg>
