<?xml version="1.0" encoding="utf-8"?>
<!-- Generator: Adobe Illustrator 17.0.2, SVG Export Plug-In . SVG Version: 6.00 Build 0)  -->
<!DOCTYPE svg PUBLIC "-//W3C//DTD SVG 1.1//EN" "http://www.w3.org/Graphics/SVG/1.1/DTD/svg11.dtd">
<svg version="1.1" id="Ebene_1" xmlns="http://www.w3.org/2000/svg" xmlns:xlink="http://www.w3.org/1999/xlink" x="0px" y="0px"
	 width="1100px" height="604px" viewBox="0 0 1100 604" enable-background="new 0 0 1100 604" xml:space="preserve">
<rect fill="#505456" width="1100" height="604"/>
<g>
	<g>
		<g>
			<rect x="427" y="113" fill="none" stroke="#FFFFFF" stroke-width="4" stroke-miterlimit="10" width="226" height="94"/>
			<rect x="427" y="113" fill="none" stroke="#FFFFFF" stroke-width="4" stroke-miterlimit="10" width="113" height="94"/>
		</g>
		<g>
			<ellipse fill="#FFFFFF" cx="485.353" cy="160.881" rx="5.012" ry="4.145"/>
			<line fill="none" stroke="#FFFFFF" stroke-width="4" stroke-miterlimit="10" x1="486" y1="161" x2="355" y2="161"/>
		</g>
		<g>
			<circle fill="#FFFFFF" cx="597.473" cy="160.372" r="4.145"/>
			<line fill="none" stroke="#FFFFFF" stroke-width="4" stroke-miterlimit="10" x1="597" y1="160" x2="597" y2="269"/>
			<polygon fill="#FFFFFF" points="589.902,267 597.416,274.773 604.283,267 			"/>
		</g>
		<g>
			<line fill="none" stroke="#FFFFFF" stroke-width="4" stroke-miterlimit="10" x1="357" y1="159" x2="357" y2="268"/>
			<polygon fill="#FFFFFF" points="350.106,266 357.62,273.773 364.486,266 			"/>
		</g>
	</g>
	<g>
		<g>
			<rect x="298" y="280" fill="none" stroke="#FFFFFF" stroke-width="4" stroke-miterlimit="10" width="226" height="94"/>
			<rect x="298" y="280" fill="none" stroke="#FFFFFF" stroke-width="4" stroke-miterlimit="10" width="113" height="94"/>
		</g>
		<g>
			<circle fill="#FFFFFF" cx="354.473" cy="327.372" r="4.145"/>
			<line fill="none" stroke="#FFFFFF" stroke-width="4" stroke-miterlimit="10" x1="354" y1="327" x2="354" y2="436"/>
			<polygon fill="#FFFFFF" points="346.902,434 354.416,441.773 361.283,434 			"/>
		</g>
		<g>
			<path fill="#FFFFFF" d="M345.446,485.772h7.88v-25.366h-6.261v-2.86c3.13-0.54,5.397-1.403,7.286-2.536h3.4v30.763h7.124v3.67
				h-19.43V485.772z"/>
		</g>
		<g>
			<circle fill="#FFFFFF" cx="468.473" cy="327.372" r="4.145"/>
			<line fill="none" stroke="#FFFFFF" stroke-width="4" stroke-miterlimit="10" x1="468" y1="327" x2="468" y2="436"/>
			<polygon fill="#FFFFFF" points="460.902,434 468.416,441.773 475.283,434 			"/>
		</g>
		<g>
			<path fill="#FFFFFF" d="M457.342,486.798c10.362-10.309,16.19-16.515,16.19-22.074c0-3.939-2.158-6.746-6.53-6.746
				c-2.86,0-5.343,1.835-7.34,4.156l-2.536-2.537c2.86-3.13,5.937-5.235,10.416-5.235c6.368,0,10.309,4.048,10.309,10.146
				c0,6.477-5.883,12.899-14.032,21.427c1.889-0.162,3.993-0.324,5.774-0.324h9.984v3.832h-22.235V486.798z"/>
		</g>
	</g>
	<g>
		<g>
			<rect x="541" y="280" fill="none" stroke="#FFFFFF" stroke-width="4" stroke-miterlimit="10" width="226" height="94"/>
			<rect x="541" y="280" fill="none" stroke="#FFFFFF" stroke-width="4" stroke-miterlimit="10" width="113" height="94"/>
		</g>
		<g>
			<circle fill="#FFFFFF" cx="597.473" cy="327.372" r="4.145"/>
			<line fill="none" stroke="#FFFFFF" stroke-width="4" stroke-miterlimit="10" x1="597" y1="327" x2="597" y2="436"/>
			<polygon fill="#FFFFFF" points="589.902,434 597.416,441.773 604.283,434 			"/>
		</g>
		<g>
			<path fill="#FFFFFF" d="M587.853,482.318c2.051,2.159,4.749,4.102,8.797,4.102c4.156,0,7.124-2.482,7.124-6.314
				c0-4.102-2.806-6.854-11.01-6.854v-3.399c7.34,0,9.769-2.807,9.769-6.423c0-3.347-2.267-5.451-5.937-5.451
				c-2.86,0-5.289,1.457-7.34,3.508l-2.375-2.806c2.645-2.483,5.829-4.318,9.877-4.318c5.99,0,10.309,3.185,10.309,8.743
				c0,4.156-2.537,6.801-6.261,8.204v0.216c4.155,0.972,7.447,3.993,7.447,8.743c0,6.099-5.019,9.822-11.333,9.822
				c-5.505,0-9.014-2.32-11.334-4.857L587.853,482.318z"/>
		</g>
		<g>
			<circle fill="#FFFFFF" cx="711.473" cy="327.372" r="4.145"/>
			<line fill="none" stroke="#FFFFFF" stroke-width="4" stroke-miterlimit="10" x1="711" y1="327" x2="711" y2="436"/>
			<polygon fill="#FFFFFF" points="703.902,434 711.416,441.773 718.283,434 			"/>
		</g>
		<g>
			<path fill="#FFFFFF" d="M723.495,479.943h-4.696v9.499h-4.209v-9.499h-15.489v-2.914l14.733-22.02h4.965v21.372h4.696V479.943z
				 M714.59,476.382v-9.984c0-1.835,0.162-4.804,0.27-6.639h-0.216c-0.863,1.673-1.835,3.185-2.807,4.857l-8.041,11.766H714.59z"/>
		</g>
	</g>
</g>
</svg>
